G04 #@! TF.GenerationSoftware,KiCad,Pcbnew,6.0.0-d3dd2cf0fa~116~ubuntu18.04.1*
G04 #@! TF.CreationDate,2023-02-13T16:22:56+00:00*
G04 #@! TF.ProjectId,RemoteESP32,52656d6f-7465-4455-9350-33322e6b6963,rev?*
G04 #@! TF.SameCoordinates,Original*
G04 #@! TF.FileFunction,Copper,L1,Top*
G04 #@! TF.FilePolarity,Positive*
%FSLAX46Y46*%
G04 Gerber Fmt 4.6, Leading zero omitted, Abs format (unit mm)*
G04 Created by KiCad (PCBNEW 6.0.0-d3dd2cf0fa~116~ubuntu18.04.1) date 2023-02-13 16:22:56*
%MOMM*%
%LPD*%
G01*
G04 APERTURE LIST*
G04 Aperture macros list*
%AMRoundRect*
0 Rectangle with rounded corners*
0 $1 Rounding radius*
0 $2 $3 $4 $5 $6 $7 $8 $9 X,Y pos of 4 corners*
0 Add a 4 corners polygon primitive as box body*
4,1,4,$2,$3,$4,$5,$6,$7,$8,$9,$2,$3,0*
0 Add four circle primitives for the rounded corners*
1,1,$1+$1,$2,$3*
1,1,$1+$1,$4,$5*
1,1,$1+$1,$6,$7*
1,1,$1+$1,$8,$9*
0 Add four rect primitives between the rounded corners*
20,1,$1+$1,$2,$3,$4,$5,0*
20,1,$1+$1,$4,$5,$6,$7,0*
20,1,$1+$1,$6,$7,$8,$9,0*
20,1,$1+$1,$8,$9,$2,$3,0*%
G04 Aperture macros list end*
G04 #@! TA.AperFunction,ComponentPad*
%ADD10R,1.200000X1.200000*%
G04 #@! TD*
G04 #@! TA.AperFunction,SMDPad,CuDef*
%ADD11R,10.500000X3.200000*%
G04 #@! TD*
G04 #@! TA.AperFunction,ComponentPad*
%ADD12C,1.000000*%
G04 #@! TD*
G04 #@! TA.AperFunction,SMDPad,CuDef*
%ADD13RoundRect,0.225000X-0.250000X0.225000X-0.250000X-0.225000X0.250000X-0.225000X0.250000X0.225000X0*%
G04 #@! TD*
G04 #@! TA.AperFunction,SMDPad,CuDef*
%ADD14RoundRect,0.200000X-0.275000X0.200000X-0.275000X-0.200000X0.275000X-0.200000X0.275000X0.200000X0*%
G04 #@! TD*
G04 #@! TA.AperFunction,SMDPad,CuDef*
%ADD15RoundRect,0.150000X-0.825000X-0.150000X0.825000X-0.150000X0.825000X0.150000X-0.825000X0.150000X0*%
G04 #@! TD*
G04 #@! TA.AperFunction,SMDPad,CuDef*
%ADD16RoundRect,0.200000X0.275000X-0.200000X0.275000X0.200000X-0.275000X0.200000X-0.275000X-0.200000X0*%
G04 #@! TD*
G04 #@! TA.AperFunction,SMDPad,CuDef*
%ADD17RoundRect,0.150000X-0.587500X-0.150000X0.587500X-0.150000X0.587500X0.150000X-0.587500X0.150000X0*%
G04 #@! TD*
G04 #@! TA.AperFunction,SMDPad,CuDef*
%ADD18RoundRect,0.225000X0.225000X0.250000X-0.225000X0.250000X-0.225000X-0.250000X0.225000X-0.250000X0*%
G04 #@! TD*
G04 #@! TA.AperFunction,SMDPad,CuDef*
%ADD19RoundRect,0.200000X0.200000X0.275000X-0.200000X0.275000X-0.200000X-0.275000X0.200000X-0.275000X0*%
G04 #@! TD*
G04 #@! TA.AperFunction,ComponentPad*
%ADD20R,1.700000X1.700000*%
G04 #@! TD*
G04 #@! TA.AperFunction,ComponentPad*
%ADD21O,1.700000X1.700000*%
G04 #@! TD*
G04 #@! TA.AperFunction,SMDPad,CuDef*
%ADD22R,1.400000X2.100000*%
G04 #@! TD*
G04 #@! TA.AperFunction,SMDPad,CuDef*
%ADD23RoundRect,0.250000X0.312500X0.625000X-0.312500X0.625000X-0.312500X-0.625000X0.312500X-0.625000X0*%
G04 #@! TD*
G04 #@! TA.AperFunction,SMDPad,CuDef*
%ADD24R,1.800000X2.500000*%
G04 #@! TD*
G04 #@! TA.AperFunction,SMDPad,CuDef*
%ADD25R,2.900000X5.400000*%
G04 #@! TD*
G04 #@! TA.AperFunction,SMDPad,CuDef*
%ADD26R,2.500000X1.800000*%
G04 #@! TD*
G04 #@! TA.AperFunction,SMDPad,CuDef*
%ADD27RoundRect,0.225000X-0.225000X-0.250000X0.225000X-0.250000X0.225000X0.250000X-0.225000X0.250000X0*%
G04 #@! TD*
G04 #@! TA.AperFunction,SMDPad,CuDef*
%ADD28RoundRect,0.250000X0.787500X1.025000X-0.787500X1.025000X-0.787500X-1.025000X0.787500X-1.025000X0*%
G04 #@! TD*
G04 #@! TA.AperFunction,SMDPad,CuDef*
%ADD29R,1.100000X0.850000*%
G04 #@! TD*
G04 #@! TA.AperFunction,SMDPad,CuDef*
%ADD30R,1.100000X0.750000*%
G04 #@! TD*
G04 #@! TA.AperFunction,SMDPad,CuDef*
%ADD31R,1.000000X1.200000*%
G04 #@! TD*
G04 #@! TA.AperFunction,SMDPad,CuDef*
%ADD32R,1.800000X1.170000*%
G04 #@! TD*
G04 #@! TA.AperFunction,SMDPad,CuDef*
%ADD33R,1.350000X1.900000*%
G04 #@! TD*
G04 #@! TA.AperFunction,SMDPad,CuDef*
%ADD34R,1.350000X1.550000*%
G04 #@! TD*
G04 #@! TA.AperFunction,ComponentPad*
%ADD35R,1.600000X1.600000*%
G04 #@! TD*
G04 #@! TA.AperFunction,ComponentPad*
%ADD36C,1.600000*%
G04 #@! TD*
G04 #@! TA.AperFunction,SMDPad,CuDef*
%ADD37RoundRect,0.250000X0.325000X0.650000X-0.325000X0.650000X-0.325000X-0.650000X0.325000X-0.650000X0*%
G04 #@! TD*
G04 #@! TA.AperFunction,SMDPad,CuDef*
%ADD38RoundRect,0.200000X-0.200000X-0.275000X0.200000X-0.275000X0.200000X0.275000X-0.200000X0.275000X0*%
G04 #@! TD*
G04 #@! TA.AperFunction,ComponentPad*
%ADD39RoundRect,0.250000X0.845000X-0.620000X0.845000X0.620000X-0.845000X0.620000X-0.845000X-0.620000X0*%
G04 #@! TD*
G04 #@! TA.AperFunction,ComponentPad*
%ADD40O,2.190000X1.740000*%
G04 #@! TD*
G04 #@! TA.AperFunction,SMDPad,CuDef*
%ADD41RoundRect,0.150000X0.150000X-0.825000X0.150000X0.825000X-0.150000X0.825000X-0.150000X-0.825000X0*%
G04 #@! TD*
G04 #@! TA.AperFunction,SMDPad,CuDef*
%ADD42RoundRect,0.250000X-0.650000X0.325000X-0.650000X-0.325000X0.650000X-0.325000X0.650000X0.325000X0*%
G04 #@! TD*
G04 #@! TA.AperFunction,ComponentPad*
%ADD43RoundRect,0.250000X-0.845000X0.620000X-0.845000X-0.620000X0.845000X-0.620000X0.845000X0.620000X0*%
G04 #@! TD*
G04 #@! TA.AperFunction,ViaPad*
%ADD44C,0.800000*%
G04 #@! TD*
G04 #@! TA.AperFunction,Conductor*
%ADD45C,0.200000*%
G04 #@! TD*
G04 #@! TA.AperFunction,Conductor*
%ADD46C,0.250000*%
G04 #@! TD*
G04 #@! TA.AperFunction,Conductor*
%ADD47C,0.500000*%
G04 #@! TD*
G04 #@! TA.AperFunction,Conductor*
%ADD48C,0.300000*%
G04 #@! TD*
G04 APERTURE END LIST*
D10*
X138411200Y-106671600D03*
X138411200Y-110671600D03*
D11*
X138411200Y-108671600D03*
D12*
X147161200Y-109941600D03*
X147161200Y-107401600D03*
D13*
X148031200Y-82740200D03*
X148031200Y-84290200D03*
D14*
X130657600Y-101882200D03*
X130657600Y-103532200D03*
D15*
X144438600Y-92862400D03*
X144438600Y-94132400D03*
X144438600Y-95402400D03*
X144438600Y-96672400D03*
X144438600Y-97942400D03*
X144438600Y-99212400D03*
X144438600Y-100482400D03*
X149388600Y-100482400D03*
X149388600Y-99212400D03*
X149388600Y-97942400D03*
X149388600Y-96672400D03*
X149388600Y-95402400D03*
X149388600Y-94132400D03*
X149388600Y-92862400D03*
D14*
X136906000Y-103444800D03*
X136906000Y-105094800D03*
D16*
X145592800Y-84340200D03*
X145592800Y-82690200D03*
D17*
X137898900Y-113034800D03*
X137898900Y-114934800D03*
X139773900Y-113984800D03*
D18*
X132804200Y-128778000D03*
X131254200Y-128778000D03*
D19*
X140829800Y-85699600D03*
X139179800Y-85699600D03*
D20*
X155600400Y-103418400D03*
D21*
X153060400Y-103418400D03*
X150520400Y-103418400D03*
X147980400Y-103418400D03*
X145440400Y-103418400D03*
X142900400Y-103418400D03*
D13*
X142341600Y-84213400D03*
X142341600Y-85763400D03*
D14*
X129133600Y-101882200D03*
X129133600Y-103532200D03*
D13*
X144068800Y-82740200D03*
X144068800Y-84290200D03*
D22*
X138902800Y-133197600D03*
X134502800Y-133197600D03*
D14*
X135229600Y-101882200D03*
X135229600Y-103532200D03*
D23*
X136307100Y-122732800D03*
X139232100Y-122732800D03*
D19*
X143268200Y-118912400D03*
X141618200Y-118912400D03*
X143240500Y-114746800D03*
X141590500Y-114746800D03*
D16*
X136093200Y-114809800D03*
X136093200Y-113159800D03*
D24*
X130200400Y-106244400D03*
X130200400Y-110244400D03*
D15*
X149264600Y-106288600D03*
X149264600Y-107558600D03*
X149264600Y-108828600D03*
X149264600Y-110098600D03*
X154214600Y-110098600D03*
X154214600Y-108828600D03*
X154214600Y-107558600D03*
X154214600Y-106288600D03*
D25*
X141758800Y-128117600D03*
X151458800Y-128117600D03*
D14*
X132181600Y-101882200D03*
X132181600Y-103532200D03*
D26*
X133908800Y-122428000D03*
X129908800Y-122428000D03*
D27*
X146392600Y-91287600D03*
X147942600Y-91287600D03*
D28*
X155969700Y-118984000D03*
X149744700Y-118984000D03*
D17*
X137898900Y-117200400D03*
X137898900Y-119100400D03*
X139773900Y-118150400D03*
D29*
X131049600Y-96515800D03*
X131049600Y-95415800D03*
X131049600Y-94315800D03*
X131049600Y-93215800D03*
X131049600Y-92115800D03*
X131049600Y-91015800D03*
X131049600Y-89915800D03*
D30*
X131049600Y-88865800D03*
D31*
X137199600Y-99150800D03*
X140899600Y-99150800D03*
D32*
X131399600Y-87655800D03*
D33*
X141874600Y-95650800D03*
X141874600Y-89680800D03*
D34*
X131174600Y-98975800D03*
D35*
X152348600Y-112556600D03*
D36*
X149098600Y-115006600D03*
D37*
X133555000Y-125476000D03*
X130605000Y-125476000D03*
D14*
X138430000Y-103444800D03*
X138430000Y-105094800D03*
D38*
X138443200Y-120700800D03*
X140093200Y-120700800D03*
D18*
X143190500Y-113222800D03*
X141640500Y-113222800D03*
D16*
X156362400Y-107748600D03*
X156362400Y-106098600D03*
D14*
X133807200Y-84011000D03*
X133807200Y-85661000D03*
D39*
X131826000Y-118810800D03*
D40*
X131826000Y-116270800D03*
X131826000Y-113730800D03*
D41*
X135305800Y-130389400D03*
X136575800Y-130389400D03*
X137845800Y-130389400D03*
X139115800Y-130389400D03*
X139115800Y-125439400D03*
X137845800Y-125439400D03*
X136575800Y-125439400D03*
X135305800Y-125439400D03*
D18*
X143218200Y-117388400D03*
X141668200Y-117388400D03*
D14*
X136093200Y-117173000D03*
X136093200Y-118823000D03*
D38*
X141535900Y-120700800D03*
X143185900Y-120700800D03*
D42*
X155346400Y-124651000D03*
X155346400Y-127601000D03*
D37*
X140362200Y-83413600D03*
X137412200Y-83413600D03*
D14*
X156362400Y-109197400D03*
X156362400Y-110847400D03*
D15*
X144438600Y-85877400D03*
X144438600Y-87147400D03*
X144438600Y-88417400D03*
X144438600Y-89687400D03*
X149388600Y-89687400D03*
X149388600Y-88417400D03*
X149388600Y-87147400D03*
X149388600Y-85877400D03*
D14*
X135382000Y-84011000D03*
X135382000Y-85661000D03*
D43*
X154127200Y-84012800D03*
D40*
X154127200Y-86552800D03*
X154127200Y-89092800D03*
X154127200Y-91632800D03*
X154127200Y-94172800D03*
X154127200Y-96712800D03*
X154127200Y-99252800D03*
D14*
X133705600Y-101882200D03*
X133705600Y-103532200D03*
D44*
X139395200Y-117185200D03*
X139115800Y-128778000D03*
X138315100Y-98776485D03*
X149453600Y-101498400D03*
X144373600Y-118963200D03*
X130149600Y-128778000D03*
X151739600Y-109920800D03*
X138125200Y-85699600D03*
X137312400Y-120091200D03*
X141478000Y-90769200D03*
X141574516Y-92774100D03*
X131419600Y-86349600D03*
X140512800Y-97891600D03*
X136906000Y-106200200D03*
X140512800Y-95656400D03*
X144373600Y-117388400D03*
X143256000Y-115915200D03*
X149250400Y-110987600D03*
X149758400Y-116992400D03*
X132334000Y-83301600D03*
X142951200Y-82753200D03*
X149402800Y-83261200D03*
X131165600Y-100421200D03*
X141935200Y-83058000D03*
X129387600Y-125476000D03*
X143205200Y-112003600D03*
X139395200Y-112968800D03*
X132983200Y-133223000D03*
X155346400Y-128879600D03*
X146100800Y-99060000D03*
X146100800Y-87172800D03*
X145034000Y-91287600D03*
X135980400Y-133172200D03*
X141579600Y-88737200D03*
X149758400Y-121005600D03*
X132334000Y-84836000D03*
X138633200Y-82956400D03*
X132334000Y-91226400D03*
X141630400Y-105298000D03*
X139804925Y-87067876D03*
X141630400Y-112003600D03*
X146812000Y-84328000D03*
X156565600Y-85293200D03*
X139598400Y-105094800D03*
X129895600Y-104332800D03*
X144240500Y-120700800D03*
X155956000Y-116941600D03*
X148996400Y-91694000D03*
X132181600Y-104637600D03*
X133705600Y-104637600D03*
X151536400Y-124714000D03*
X156362400Y-105044000D03*
X151536400Y-131521200D03*
X132306535Y-92840300D03*
X156362400Y-111952800D03*
X156006800Y-121056400D03*
X152196800Y-106314000D03*
X146761200Y-82702400D03*
X149402800Y-84531200D03*
X139395200Y-119115600D03*
X139395200Y-114950000D03*
X155346400Y-123393200D03*
X135229600Y-104637600D03*
X142798800Y-87007100D03*
X139192000Y-83870800D03*
X134874000Y-113172000D03*
X135737600Y-99862400D03*
X139750800Y-102554800D03*
X147675600Y-94996000D03*
X146862800Y-93827600D03*
X135890000Y-97271600D03*
X129946400Y-88856049D03*
X135737600Y-98490800D03*
X136956800Y-97284900D03*
X129959700Y-94716921D03*
X132090851Y-100810066D03*
X135737600Y-92140800D03*
X129959700Y-89905600D03*
X136906000Y-102402400D03*
X152755600Y-108244400D03*
X147777200Y-89662000D03*
X146761200Y-89662000D03*
X137820400Y-128778000D03*
X134010400Y-128778000D03*
X141681200Y-116118400D03*
X140667981Y-103328179D03*
X138582400Y-87071200D03*
X134874000Y-118810800D03*
X155600400Y-95798400D03*
X140157200Y-91084400D03*
X136448800Y-84937600D03*
X135737600Y-93436200D03*
X142849600Y-97180400D03*
X152857200Y-109514400D03*
X137820400Y-94127925D03*
X139784249Y-94149751D03*
X132334000Y-94132400D03*
X141732000Y-97942400D03*
D45*
X152816800Y-96712800D02*
X154127200Y-96712800D01*
D46*
X148188800Y-107558600D02*
X147161200Y-108586200D01*
X147161200Y-108586200D02*
X147161200Y-109636800D01*
X149264600Y-107558600D02*
X148188800Y-107558600D01*
D47*
X134502800Y-133197600D02*
X133008600Y-133197600D01*
D48*
X144068800Y-82740200D02*
X142964200Y-82740200D01*
X144438600Y-100482400D02*
X145745200Y-100482400D01*
D46*
X131254200Y-128778000D02*
X130149600Y-128778000D01*
D48*
X140518400Y-95650800D02*
X140512800Y-95656400D01*
X149264600Y-110098600D02*
X149250400Y-110112800D01*
X131399600Y-86369600D02*
X131419600Y-86349600D01*
X146075400Y-87147400D02*
X146100800Y-87172800D01*
X149250400Y-110112800D02*
X149250400Y-110987600D01*
X143268200Y-118912400D02*
X144322800Y-118912400D01*
X139179800Y-85699600D02*
X138125200Y-85699600D01*
X139380000Y-117200400D02*
X139395200Y-117185200D01*
X143218200Y-117388400D02*
X144373600Y-117388400D01*
X132123400Y-91015800D02*
X132334000Y-91226400D01*
X133159000Y-85661000D02*
X132334000Y-84836000D01*
X137922000Y-120700800D02*
X137312400Y-120091200D01*
X144322800Y-118912400D02*
X144373600Y-118963200D01*
X142341600Y-84213400D02*
X142341600Y-83464400D01*
X137898900Y-113034800D02*
X139329200Y-113034800D01*
D47*
X149744700Y-120991900D02*
X149758400Y-121005600D01*
D48*
X142964200Y-82740200D02*
X142951200Y-82753200D01*
X140899600Y-98278400D02*
X140512800Y-97891600D01*
X143240500Y-115899700D02*
X143256000Y-115915200D01*
X137199600Y-99150800D02*
X137940785Y-99150800D01*
X143190500Y-113222800D02*
X143190500Y-112018300D01*
D47*
X149744700Y-118984000D02*
X149744700Y-120991900D01*
X149744700Y-118984000D02*
X149744700Y-117006100D01*
X133008600Y-133197600D02*
X132983200Y-133223000D01*
D48*
X144438600Y-87147400D02*
X146075400Y-87147400D01*
X133807200Y-85661000D02*
X133159000Y-85661000D01*
X139329200Y-113034800D02*
X139395200Y-112968800D01*
X143190500Y-112018300D02*
X143205200Y-112003600D01*
X145948400Y-99212400D02*
X146100800Y-99060000D01*
X144438600Y-99212400D02*
X145948400Y-99212400D01*
X137412200Y-83413600D02*
X138176000Y-83413600D01*
D47*
X135955000Y-133197600D02*
X135980400Y-133172200D01*
D48*
X148881800Y-82740200D02*
X148031200Y-82740200D01*
X149402800Y-83261200D02*
X148881800Y-82740200D01*
X146100800Y-100126800D02*
X146100800Y-99060000D01*
D47*
X139115800Y-130389400D02*
X139115800Y-128778000D01*
D48*
X141874600Y-95650800D02*
X140518400Y-95650800D01*
X137940785Y-99150800D02*
X138315100Y-98776485D01*
X131174600Y-100412200D02*
X131165600Y-100421200D01*
X138443200Y-120700800D02*
X137922000Y-120700800D01*
X131049600Y-91015800D02*
X132123400Y-91015800D01*
X138176000Y-83413600D02*
X138633200Y-82956400D01*
D46*
X146392600Y-91287600D02*
X145034000Y-91287600D01*
D48*
X136906000Y-105094800D02*
X136906000Y-106200200D01*
D47*
X155346400Y-127601000D02*
X155346400Y-128879600D01*
D48*
X137898900Y-117200400D02*
X139380000Y-117200400D01*
X145745200Y-100482400D02*
X146100800Y-100126800D01*
X140899600Y-99150800D02*
X140899600Y-98278400D01*
X142341600Y-83464400D02*
X141935200Y-83058000D01*
X131399600Y-87655800D02*
X131399600Y-86369600D01*
D47*
X134502800Y-133197600D02*
X135955000Y-133197600D01*
D48*
X131174600Y-98975800D02*
X131174600Y-100412200D01*
D47*
X130605000Y-125476000D02*
X129387600Y-125476000D01*
D48*
X143240500Y-114746800D02*
X143240500Y-115899700D01*
D47*
X149744700Y-117006100D02*
X149758400Y-116992400D01*
D48*
X150876000Y-109209600D02*
X150876000Y-110276400D01*
X152146000Y-111190800D02*
X152349200Y-111394000D01*
X152349200Y-111394000D02*
X152348600Y-111394600D01*
X152348600Y-111394600D02*
X152348600Y-112556600D01*
X149264600Y-108828600D02*
X150495000Y-108828600D01*
X150495000Y-108828600D02*
X150876000Y-109209600D01*
X150876000Y-110276400D02*
X151790400Y-111190800D01*
X151790400Y-111190800D02*
X152146000Y-111190800D01*
D46*
X139682400Y-98331200D02*
X139058511Y-97707311D01*
X141522102Y-102202902D02*
X139682400Y-100363200D01*
X136093200Y-114809800D02*
X136093200Y-114238800D01*
X141640500Y-114696800D02*
X141590500Y-114746800D01*
X141640500Y-113974700D02*
X141640500Y-114696800D01*
X139773900Y-113984800D02*
X141630400Y-113984800D01*
X136093200Y-114238800D02*
X136347200Y-113984800D01*
X141522102Y-105189702D02*
X141522102Y-102202902D01*
X141630400Y-105298000D02*
X141522102Y-105189702D01*
X136347200Y-113984800D02*
X139773900Y-113984800D01*
X139682400Y-100363200D02*
X139682400Y-98331200D01*
X139058511Y-97707311D02*
X139058511Y-87814290D01*
X141630400Y-113984800D02*
X141640500Y-113974700D01*
X141640500Y-112013700D02*
X141630400Y-112003600D01*
X141640500Y-113222800D02*
X141640500Y-112013700D01*
X139058511Y-87814290D02*
X139804925Y-87067876D01*
X141640500Y-113222800D02*
X141640500Y-113974700D01*
X153265179Y-105042421D02*
X154330400Y-103977200D01*
X144068800Y-84290200D02*
X145542800Y-84290200D01*
X145592800Y-84340200D02*
X146799800Y-84340200D01*
X146799800Y-84340200D02*
X146812000Y-84328000D01*
X156565600Y-89092800D02*
X156565600Y-85293200D01*
X154330400Y-103977200D02*
X154330400Y-102046800D01*
X154330400Y-102046800D02*
X156565600Y-99811600D01*
X142900400Y-103418400D02*
X142900400Y-104620481D01*
X142900400Y-104620481D02*
X143322340Y-105042421D01*
X156565600Y-99811600D02*
X156565600Y-89092800D01*
X143322340Y-105042421D02*
X153265179Y-105042421D01*
X145542800Y-84290200D02*
X145592800Y-84340200D01*
D48*
X139380000Y-119100400D02*
X139395200Y-119115600D01*
X135229600Y-103532200D02*
X135229600Y-104637600D01*
D46*
X156362400Y-110847400D02*
X156362400Y-111952800D01*
D48*
X152222200Y-106288600D02*
X152196800Y-106314000D01*
D46*
X156362400Y-106098600D02*
X156362400Y-105044000D01*
D48*
X129133600Y-103532200D02*
X130657600Y-103532200D01*
X145592800Y-82690200D02*
X146749000Y-82690200D01*
D46*
X154214600Y-106288600D02*
X155473400Y-106288600D01*
D48*
X133705600Y-103532200D02*
X133705600Y-104637600D01*
D47*
X155969700Y-121019300D02*
X156006800Y-121056400D01*
D48*
X148590000Y-91287600D02*
X148996400Y-91694000D01*
D47*
X155969700Y-118984000D02*
X155969700Y-116955300D01*
D48*
X142341600Y-86549900D02*
X142341600Y-85763400D01*
D46*
X155663400Y-106098600D02*
X156362400Y-106098600D01*
D47*
X155969700Y-118984000D02*
X155969700Y-121019300D01*
D48*
X149161800Y-84290200D02*
X148031200Y-84290200D01*
X137898900Y-119100400D02*
X139380000Y-119100400D01*
X142798800Y-87007100D02*
X142341600Y-86549900D01*
X143078200Y-88417400D02*
X142798800Y-88138000D01*
X149388600Y-92086200D02*
X148996400Y-91694000D01*
X129895600Y-103532200D02*
X129895600Y-104332800D01*
X138430000Y-105094800D02*
X139598400Y-105094800D01*
X131049600Y-93215800D02*
X131931035Y-93215800D01*
D46*
X155473400Y-106288600D02*
X155663400Y-106098600D01*
D48*
X146749000Y-82690200D02*
X146761200Y-82702400D01*
X139380000Y-114934800D02*
X139395200Y-114950000D01*
X144438600Y-88417400D02*
X143078200Y-88417400D01*
D47*
X151536400Y-124714000D02*
X151536400Y-128040000D01*
D48*
X137898900Y-114934800D02*
X139380000Y-114934800D01*
X132181600Y-103532200D02*
X132181600Y-104637600D01*
X140362200Y-83413600D02*
X139649200Y-83413600D01*
X129133600Y-103532200D02*
X129895600Y-103532200D01*
D47*
X151536400Y-128040000D02*
X151458800Y-128117600D01*
X151536400Y-131521200D02*
X151536400Y-128195200D01*
X155346400Y-124651000D02*
X155346400Y-123393200D01*
D48*
X139649200Y-83413600D02*
X139192000Y-83870800D01*
X149388600Y-92862400D02*
X149388600Y-92086200D01*
D47*
X155969700Y-116955300D02*
X155956000Y-116941600D01*
D48*
X154214600Y-106288600D02*
X152222200Y-106288600D01*
X130657600Y-103532200D02*
X132181600Y-103532200D01*
X143185900Y-120700800D02*
X144240500Y-120700800D01*
X131931035Y-93215800D02*
X132306535Y-92840300D01*
D47*
X151536400Y-128195200D02*
X151458800Y-128117600D01*
D48*
X149402800Y-84531200D02*
X149161800Y-84290200D01*
X147942600Y-91287600D02*
X148590000Y-91287600D01*
X142798800Y-88138000D02*
X142798800Y-87007100D01*
D47*
X139232100Y-122732800D02*
X137871200Y-122732800D01*
X133555000Y-124204200D02*
X133908800Y-123850400D01*
X133555000Y-125476000D02*
X133555000Y-124204200D01*
X133908800Y-112765600D02*
X133908800Y-120904000D01*
X131451600Y-106244400D02*
X132130800Y-106923600D01*
X132130800Y-110987600D02*
X133908800Y-112765600D01*
X133908800Y-123850400D02*
X133908800Y-122428000D01*
X137845800Y-122707400D02*
X137845800Y-121742200D01*
X137845800Y-125439400D02*
X137845800Y-122707400D01*
X137871200Y-122732800D02*
X137845800Y-122707400D01*
X137007600Y-120904000D02*
X133908800Y-120904000D01*
X133908800Y-120904000D02*
X133908800Y-122519200D01*
X130200400Y-106244400D02*
X131451600Y-106244400D01*
X132130800Y-106923600D02*
X132130800Y-110987600D01*
X137845800Y-121742200D02*
X137007600Y-120904000D01*
D46*
X136093200Y-113159800D02*
X134886200Y-113159800D01*
D47*
X130200400Y-110244400D02*
X130200400Y-112105200D01*
D46*
X134886200Y-113159800D02*
X134874000Y-113172000D01*
D47*
X130200400Y-112105200D02*
X131826000Y-113730800D01*
D46*
X137561889Y-101096511D02*
X139020178Y-102554800D01*
X135229600Y-101041200D02*
X135229600Y-101882200D01*
X135737600Y-99862400D02*
X135229600Y-100370400D01*
X137506578Y-101041200D02*
X137561889Y-101096511D01*
X135229600Y-101041200D02*
X137506578Y-101041200D01*
X135229600Y-100370400D02*
X135229600Y-101041200D01*
X139020178Y-102554800D02*
X139750800Y-102554800D01*
X147555889Y-102993889D02*
X147555889Y-95115711D01*
X147980400Y-103418400D02*
X147555889Y-102993889D01*
X147555889Y-95115711D02*
X147675600Y-94996000D01*
X145440400Y-103418400D02*
X146862800Y-101996000D01*
X146862800Y-101996000D02*
X146862800Y-93827600D01*
X131049600Y-96515800D02*
X135134200Y-96515800D01*
X130295800Y-96515800D02*
X131049600Y-96515800D01*
X129946400Y-96865200D02*
X130295800Y-96515800D01*
X130657600Y-101284800D02*
X129946400Y-100573600D01*
X135134200Y-96515800D02*
X135890000Y-97271600D01*
X130657600Y-101882200D02*
X130657600Y-101284800D01*
X129946400Y-100573600D02*
X129946400Y-96865200D01*
X133705600Y-100522800D02*
X135737600Y-98490800D01*
X129956151Y-88865800D02*
X129946400Y-88856049D01*
X131049600Y-88865800D02*
X129956151Y-88865800D01*
X133705600Y-101882200D02*
X133705600Y-100522800D01*
X129133600Y-101882200D02*
X129133600Y-96531800D01*
X135087700Y-95415800D02*
X136956800Y-97284900D01*
X131049600Y-95415800D02*
X135087700Y-95415800D01*
X130249600Y-95415800D02*
X131049600Y-95415800D01*
X129133600Y-96531800D02*
X130249600Y-95415800D01*
X132181600Y-101882200D02*
X132181600Y-100900815D01*
X131049600Y-94315800D02*
X130360821Y-94315800D01*
X132181600Y-100900815D02*
X132090851Y-100810066D01*
X130360821Y-94315800D02*
X129959700Y-94716921D01*
X131049600Y-92115800D02*
X135712600Y-92115800D01*
X135712600Y-92115800D02*
X135737600Y-92140800D01*
X136906000Y-103444800D02*
X136906000Y-102402400D01*
X136906000Y-103444800D02*
X138430000Y-103444800D01*
X131049600Y-89915800D02*
X129969900Y-89915800D01*
X129969900Y-89915800D02*
X129959700Y-89905600D01*
X156260800Y-108447600D02*
X156362400Y-108346000D01*
X156362400Y-108346000D02*
X156362400Y-107748600D01*
X154214600Y-108828600D02*
X155321000Y-108828600D01*
X155321000Y-108828600D02*
X155702000Y-108447600D01*
X153339800Y-108828600D02*
X152755600Y-108244400D01*
X155702000Y-108447600D02*
X156260800Y-108447600D01*
X154214600Y-108828600D02*
X153339800Y-108828600D01*
X140817600Y-120700800D02*
X141535900Y-120700800D01*
X139954000Y-124053600D02*
X140817600Y-123190000D01*
X140817600Y-123190000D02*
X140817600Y-120700800D01*
X140093200Y-120700800D02*
X140817600Y-120700800D01*
X139115800Y-124282200D02*
X139115800Y-125439400D01*
X139115800Y-124282200D02*
X139344400Y-124053600D01*
X139344400Y-124053600D02*
X139954000Y-124053600D01*
X146177000Y-85877400D02*
X146913600Y-86614000D01*
X147777200Y-87477600D02*
X147777200Y-89662000D01*
X146913600Y-86614000D02*
X147777200Y-87477600D01*
X144438600Y-85877400D02*
X146177000Y-85877400D01*
X146735800Y-89687400D02*
X146761200Y-89662000D01*
X144438600Y-89687400D02*
X146735800Y-89687400D01*
X137845800Y-129147800D02*
X137845800Y-130389400D01*
X137845800Y-129147800D02*
X137845800Y-128803400D01*
X134010400Y-128778000D02*
X132804200Y-128778000D01*
X137845800Y-128803400D02*
X137820400Y-128778000D01*
X141668200Y-118862400D02*
X141618200Y-118912400D01*
X141668200Y-118188200D02*
X141668200Y-118862400D01*
X139039600Y-100604200D02*
X139039600Y-98324104D01*
X138582400Y-97866904D02*
X138582400Y-87071200D01*
X140667981Y-102232581D02*
X139039600Y-100604200D01*
X139773900Y-118150400D02*
X141630400Y-118150400D01*
X141668200Y-117388400D02*
X141668200Y-116131400D01*
X141630400Y-118150400D02*
X141668200Y-118188200D01*
X137871200Y-118150400D02*
X139773900Y-118150400D01*
X141668200Y-116131400D02*
X141681200Y-116118400D01*
X137718800Y-117998000D02*
X137871200Y-118150400D01*
X136347200Y-117998000D02*
X137718800Y-117998000D01*
X141668200Y-117388400D02*
X141668200Y-118188200D01*
X139039600Y-98324104D02*
X138582400Y-97866904D01*
X140667981Y-103328179D02*
X140667981Y-102232581D01*
X136093200Y-117173000D02*
X136093200Y-117744000D01*
X136093200Y-117744000D02*
X136347200Y-117998000D01*
D47*
X130403600Y-118810800D02*
X129908800Y-119305600D01*
D46*
X136093200Y-118823000D02*
X134886200Y-118823000D01*
X134886200Y-118823000D02*
X134874000Y-118810800D01*
D47*
X129908800Y-119305600D02*
X129908800Y-122519200D01*
X131826000Y-118810800D02*
X130403600Y-118810800D01*
X141352400Y-127711200D02*
X141758800Y-128117600D01*
X136575800Y-132054600D02*
X136575800Y-130389400D01*
X136575800Y-128549400D02*
X137414000Y-127711200D01*
X137718800Y-133197600D02*
X136575800Y-132054600D01*
X137414000Y-127711200D02*
X141352400Y-127711200D01*
X138902800Y-133197600D02*
X137718800Y-133197600D01*
X136575800Y-130389400D02*
X136575800Y-128549400D01*
D48*
X149388600Y-87147400D02*
X151815800Y-87147400D01*
X151815800Y-87147400D02*
X152410400Y-86552800D01*
X152410400Y-86552800D02*
X154127200Y-86552800D01*
X149388600Y-88417400D02*
X151511000Y-88417400D01*
X152186400Y-89092800D02*
X154127200Y-89092800D01*
X151511000Y-88417400D02*
X152186400Y-89092800D01*
D45*
X154127200Y-91632800D02*
X151384000Y-94376000D01*
X155600400Y-95798400D02*
X155600400Y-93055200D01*
X151384000Y-94843600D02*
X150825200Y-95402400D01*
X155600400Y-93055200D02*
X154178000Y-91632800D01*
X154178000Y-91632800D02*
X154127200Y-91632800D01*
X151384000Y-94376000D02*
X151384000Y-94843600D01*
X150825200Y-95402400D02*
X149388600Y-95402400D01*
X154127200Y-94172800D02*
X151627600Y-96672400D01*
X151627600Y-96672400D02*
X149388600Y-96672400D01*
X148234400Y-99212400D02*
X147980400Y-98958400D01*
X147980400Y-97637600D02*
X148310600Y-97307400D01*
X148310600Y-97307400D02*
X152222200Y-97307400D01*
X152222200Y-97307400D02*
X152816800Y-96712800D01*
X149388600Y-99212400D02*
X148234400Y-99212400D01*
X147980400Y-98958400D02*
X147980400Y-97637600D01*
X149388600Y-97942400D02*
X151100000Y-97942400D01*
X151100000Y-97942400D02*
X152410400Y-99252800D01*
X154127200Y-99252800D02*
X152410400Y-99252800D01*
D46*
X136448800Y-84937600D02*
X136448800Y-84277200D01*
X145592800Y-92049600D02*
X141122400Y-92049600D01*
X133807200Y-84011000D02*
X135382000Y-84011000D01*
X145440400Y-95402400D02*
X146050000Y-94792800D01*
X141122400Y-92049600D02*
X140157200Y-91084400D01*
X146050000Y-94792800D02*
X146050000Y-92506800D01*
X146050000Y-92506800D02*
X145592800Y-92049600D01*
X136448800Y-84277200D02*
X136182600Y-84011000D01*
X144438600Y-95402400D02*
X145440400Y-95402400D01*
X136182600Y-84011000D02*
X135382000Y-84011000D01*
X136753600Y-92420200D02*
X135737600Y-93436200D01*
X136753600Y-87032600D02*
X136753600Y-92420200D01*
X135382000Y-85661000D02*
X136753600Y-87032600D01*
X144438600Y-96672400D02*
X143357600Y-96672400D01*
X143357600Y-96672400D02*
X142849600Y-97180400D01*
X146558000Y-85140800D02*
X147294600Y-85877400D01*
X143052800Y-84988400D02*
X143205200Y-85140800D01*
X147294600Y-85877400D02*
X149388600Y-85877400D01*
X140970000Y-84988400D02*
X143052800Y-84988400D01*
X140829800Y-85699600D02*
X140829800Y-85128600D01*
X140829800Y-85128600D02*
X140970000Y-84988400D01*
X143205200Y-85140800D02*
X146558000Y-85140800D01*
X156362400Y-109717600D02*
X156362400Y-109197400D01*
X155981400Y-110098600D02*
X156362400Y-109717600D01*
X154214600Y-110098600D02*
X153441400Y-110098600D01*
X154214600Y-110098600D02*
X155981400Y-110098600D01*
X153441400Y-110098600D02*
X152857200Y-109514400D01*
D47*
X136575800Y-125439400D02*
X135305800Y-125439400D01*
X135305800Y-125439400D02*
X135305800Y-130389400D01*
X136575800Y-125439400D02*
X136575800Y-124180600D01*
X136307100Y-123911900D02*
X136307100Y-122732800D01*
X136575800Y-124180600D02*
X136307100Y-123911900D01*
D46*
X149264600Y-106288600D02*
X147969400Y-106288600D01*
X147969400Y-106288600D02*
X147161200Y-107096800D01*
X139801600Y-94132400D02*
X139784249Y-94149751D01*
X132362301Y-94160701D02*
X137787624Y-94160701D01*
X132334000Y-94132400D02*
X132362301Y-94160701D01*
X137787624Y-94160701D02*
X137820400Y-94127925D01*
X144438600Y-94132400D02*
X139801600Y-94132400D01*
X144438600Y-97942400D02*
X141732000Y-97942400D01*
M02*
