G04 #@! TF.GenerationSoftware,KiCad,Pcbnew,6.0.0-d3dd2cf0fa~116~ubuntu18.04.1*
G04 #@! TF.CreationDate,2023-02-13T16:22:56+00:00*
G04 #@! TF.ProjectId,RemoteESP32,52656d6f-7465-4455-9350-33322e6b6963,rev?*
G04 #@! TF.SameCoordinates,Original*
G04 #@! TF.FileFunction,Copper,L3,Inr*
G04 #@! TF.FilePolarity,Positive*
%FSLAX46Y46*%
G04 Gerber Fmt 4.6, Leading zero omitted, Abs format (unit mm)*
G04 Created by KiCad (PCBNEW 6.0.0-d3dd2cf0fa~116~ubuntu18.04.1) date 2023-02-13 16:22:56*
%MOMM*%
%LPD*%
G01*
G04 APERTURE LIST*
G04 Aperture macros list*
%AMRoundRect*
0 Rectangle with rounded corners*
0 $1 Rounding radius*
0 $2 $3 $4 $5 $6 $7 $8 $9 X,Y pos of 4 corners*
0 Add a 4 corners polygon primitive as box body*
4,1,4,$2,$3,$4,$5,$6,$7,$8,$9,$2,$3,0*
0 Add four circle primitives for the rounded corners*
1,1,$1+$1,$2,$3*
1,1,$1+$1,$4,$5*
1,1,$1+$1,$6,$7*
1,1,$1+$1,$8,$9*
0 Add four rect primitives between the rounded corners*
20,1,$1+$1,$2,$3,$4,$5,0*
20,1,$1+$1,$4,$5,$6,$7,0*
20,1,$1+$1,$6,$7,$8,$9,0*
20,1,$1+$1,$8,$9,$2,$3,0*%
G04 Aperture macros list end*
G04 #@! TA.AperFunction,ComponentPad*
%ADD10R,1.200000X1.200000*%
G04 #@! TD*
G04 #@! TA.AperFunction,ComponentPad*
%ADD11C,1.000000*%
G04 #@! TD*
G04 #@! TA.AperFunction,ComponentPad*
%ADD12R,1.700000X1.700000*%
G04 #@! TD*
G04 #@! TA.AperFunction,ComponentPad*
%ADD13O,1.700000X1.700000*%
G04 #@! TD*
G04 #@! TA.AperFunction,ComponentPad*
%ADD14R,1.600000X1.600000*%
G04 #@! TD*
G04 #@! TA.AperFunction,ComponentPad*
%ADD15C,1.600000*%
G04 #@! TD*
G04 #@! TA.AperFunction,ComponentPad*
%ADD16RoundRect,0.250000X0.845000X-0.620000X0.845000X0.620000X-0.845000X0.620000X-0.845000X-0.620000X0*%
G04 #@! TD*
G04 #@! TA.AperFunction,ComponentPad*
%ADD17O,2.190000X1.740000*%
G04 #@! TD*
G04 #@! TA.AperFunction,ComponentPad*
%ADD18RoundRect,0.250000X-0.845000X0.620000X-0.845000X-0.620000X0.845000X-0.620000X0.845000X0.620000X0*%
G04 #@! TD*
G04 #@! TA.AperFunction,ViaPad*
%ADD19C,0.800000*%
G04 #@! TD*
G04 #@! TA.AperFunction,Conductor*
%ADD20C,0.250000*%
G04 #@! TD*
G04 APERTURE END LIST*
D10*
X138411200Y-106671600D03*
X138411200Y-110671600D03*
D11*
X147161200Y-109941600D03*
X147161200Y-107401600D03*
D12*
X155600400Y-103418400D03*
D13*
X153060400Y-103418400D03*
X150520400Y-103418400D03*
X147980400Y-103418400D03*
X145440400Y-103418400D03*
X142900400Y-103418400D03*
D14*
X152348600Y-112556600D03*
D15*
X149098600Y-115006600D03*
D16*
X131826000Y-118810800D03*
D17*
X131826000Y-116270800D03*
X131826000Y-113730800D03*
D18*
X154127200Y-84012800D03*
D17*
X154127200Y-86552800D03*
X154127200Y-89092800D03*
X154127200Y-91632800D03*
X154127200Y-94172800D03*
X154127200Y-96712800D03*
X154127200Y-99252800D03*
D19*
X139395200Y-117185200D03*
X139115800Y-128778000D03*
X138315100Y-98776485D03*
X149453600Y-101498400D03*
X144373600Y-118963200D03*
X130149600Y-128778000D03*
X151739600Y-109920800D03*
X138125200Y-85699600D03*
X137312400Y-120091200D03*
X141478000Y-90769200D03*
X141574516Y-92774100D03*
X131419600Y-86349600D03*
X140512800Y-97891600D03*
X136906000Y-106200200D03*
X140512800Y-95656400D03*
X144373600Y-117388400D03*
X143256000Y-115915200D03*
X149250400Y-110987600D03*
X149758400Y-116992400D03*
X132334000Y-83301600D03*
X142951200Y-82753200D03*
X149402800Y-83261200D03*
X131165600Y-100421200D03*
X141935200Y-83058000D03*
X129387600Y-125476000D03*
X143205200Y-112003600D03*
X139395200Y-112968800D03*
X132983200Y-133223000D03*
X155346400Y-128879600D03*
X146100800Y-99060000D03*
X146100800Y-87172800D03*
X145034000Y-91287600D03*
X135980400Y-133172200D03*
X141579600Y-88737200D03*
X149758400Y-121005600D03*
X132334000Y-84836000D03*
X138633200Y-82956400D03*
X132334000Y-91226400D03*
X141630400Y-105298000D03*
X139804925Y-87067876D03*
X141630400Y-112003600D03*
X146812000Y-84328000D03*
X156565600Y-85293200D03*
X139598400Y-105094800D03*
X129895600Y-104332800D03*
X144240500Y-120700800D03*
X155956000Y-116941600D03*
X148996400Y-91694000D03*
X132181600Y-104637600D03*
X133705600Y-104637600D03*
X151536400Y-124714000D03*
X156362400Y-105044000D03*
X151536400Y-131521200D03*
X132306535Y-92840300D03*
X156362400Y-111952800D03*
X156006800Y-121056400D03*
X152196800Y-106314000D03*
X146761200Y-82702400D03*
X149402800Y-84531200D03*
X139395200Y-119115600D03*
X139395200Y-114950000D03*
X155346400Y-123393200D03*
X135229600Y-104637600D03*
X142798800Y-87007100D03*
X139192000Y-83870800D03*
X134874000Y-113172000D03*
X135737600Y-99862400D03*
X139750800Y-102554800D03*
X147675600Y-94996000D03*
X146862800Y-93827600D03*
X135890000Y-97271600D03*
X129946400Y-88856049D03*
X135737600Y-98490800D03*
X136956800Y-97284900D03*
X129959700Y-94716921D03*
X132090851Y-100810066D03*
X135737600Y-92140800D03*
X129959700Y-89905600D03*
X136906000Y-102402400D03*
X152755600Y-108244400D03*
X147777200Y-89662000D03*
X146761200Y-89662000D03*
X137820400Y-128778000D03*
X134010400Y-128778000D03*
X141681200Y-116118400D03*
X140667981Y-103328179D03*
X138582400Y-87071200D03*
X134874000Y-118810800D03*
X155600400Y-95798400D03*
X140157200Y-91084400D03*
X136448800Y-84937600D03*
X135737600Y-93436200D03*
X142849600Y-97180400D03*
X152857200Y-109514400D03*
X137820400Y-94127925D03*
X139784249Y-94149751D03*
X132334000Y-94132400D03*
X141732000Y-97942400D03*
D20*
X141630400Y-112003600D02*
X141630400Y-105298000D01*
X141681200Y-116118400D02*
X141681200Y-114086400D01*
X140716000Y-113121200D02*
X140716000Y-103376198D01*
X141681200Y-114086400D02*
X140716000Y-113121200D01*
X140716000Y-103376198D02*
X140667981Y-103328179D01*
G04 #@! TA.AperFunction,Conductor*
G36*
X157289974Y-82010395D02*
G01*
X157325948Y-82059888D01*
X157330800Y-82090500D01*
X157330800Y-85073666D01*
X157311893Y-85131857D01*
X157262393Y-85167821D01*
X157201207Y-85167821D01*
X157151707Y-85131857D01*
X157140336Y-85111552D01*
X157092619Y-84996354D01*
X157090136Y-84990359D01*
X156993882Y-84864918D01*
X156868441Y-84768664D01*
X156750646Y-84719871D01*
X156728359Y-84710640D01*
X156722362Y-84708156D01*
X156565600Y-84687518D01*
X156408838Y-84708156D01*
X156402841Y-84710640D01*
X156380554Y-84719871D01*
X156262759Y-84768664D01*
X156137318Y-84864918D01*
X156041064Y-84990359D01*
X155980556Y-85136438D01*
X155959918Y-85293200D01*
X155980556Y-85449962D01*
X156041064Y-85596041D01*
X156137318Y-85721482D01*
X156262759Y-85817736D01*
X156408838Y-85878244D01*
X156565600Y-85898882D01*
X156722362Y-85878244D01*
X156868441Y-85817736D01*
X156993882Y-85721482D01*
X157090136Y-85596041D01*
X157140336Y-85474848D01*
X157180073Y-85428323D01*
X157239568Y-85414039D01*
X157296095Y-85437454D01*
X157328065Y-85489623D01*
X157330800Y-85512734D01*
X157330800Y-134564600D01*
X157311893Y-134622791D01*
X157262393Y-134658755D01*
X157231800Y-134663600D01*
X128467400Y-134663600D01*
X128409209Y-134644693D01*
X128373245Y-134595193D01*
X128368400Y-134564600D01*
X128368400Y-132689600D01*
X128997141Y-132689600D01*
X129017737Y-132925008D01*
X129078897Y-133153263D01*
X129178765Y-133367429D01*
X129181246Y-133370972D01*
X129181247Y-133370974D01*
X129191600Y-133385759D01*
X129314305Y-133561001D01*
X129481399Y-133728095D01*
X129674971Y-133863635D01*
X129889137Y-133963503D01*
X130117392Y-134024663D01*
X130202231Y-134032086D01*
X130291670Y-134039911D01*
X130291678Y-134039911D01*
X130293834Y-134040100D01*
X130411766Y-134040100D01*
X130413922Y-134039911D01*
X130413930Y-134039911D01*
X130503369Y-134032086D01*
X130588208Y-134024663D01*
X130816463Y-133963503D01*
X131030629Y-133863635D01*
X131224201Y-133728095D01*
X131391295Y-133561001D01*
X131524354Y-133370974D01*
X131524354Y-133370973D01*
X131526835Y-133367430D01*
X131594184Y-133223000D01*
X132377518Y-133223000D01*
X132398156Y-133379762D01*
X132458664Y-133525841D01*
X132554918Y-133651282D01*
X132680359Y-133747536D01*
X132826438Y-133808044D01*
X132983200Y-133828682D01*
X133139962Y-133808044D01*
X133286041Y-133747536D01*
X133411482Y-133651282D01*
X133507736Y-133525841D01*
X133568244Y-133379762D01*
X133588882Y-133223000D01*
X133582194Y-133172200D01*
X135374718Y-133172200D01*
X135395356Y-133328962D01*
X135455864Y-133475041D01*
X135552118Y-133600482D01*
X135677559Y-133696736D01*
X135823638Y-133757244D01*
X135980400Y-133777882D01*
X136137162Y-133757244D01*
X136283241Y-133696736D01*
X136408682Y-133600482D01*
X136504936Y-133475041D01*
X136565444Y-133328962D01*
X136586082Y-133172200D01*
X136565444Y-133015438D01*
X136504936Y-132869359D01*
X136408682Y-132743918D01*
X136337893Y-132689600D01*
X153990741Y-132689600D01*
X154011337Y-132925008D01*
X154072497Y-133153263D01*
X154172365Y-133367429D01*
X154174846Y-133370972D01*
X154174847Y-133370974D01*
X154185200Y-133385759D01*
X154307905Y-133561001D01*
X154474999Y-133728095D01*
X154668571Y-133863635D01*
X154882737Y-133963503D01*
X155110992Y-134024663D01*
X155195831Y-134032086D01*
X155285270Y-134039911D01*
X155285278Y-134039911D01*
X155287434Y-134040100D01*
X155405366Y-134040100D01*
X155407522Y-134039911D01*
X155407530Y-134039911D01*
X155496969Y-134032086D01*
X155581808Y-134024663D01*
X155810063Y-133963503D01*
X156024229Y-133863635D01*
X156217801Y-133728095D01*
X156384895Y-133561001D01*
X156517954Y-133370974D01*
X156517954Y-133370973D01*
X156520435Y-133367430D01*
X156620303Y-133153263D01*
X156681463Y-132925008D01*
X156702059Y-132689600D01*
X156681463Y-132454192D01*
X156620303Y-132225937D01*
X156520435Y-132011771D01*
X156384895Y-131818199D01*
X156217801Y-131651105D01*
X156024229Y-131515565D01*
X155810063Y-131415697D01*
X155581808Y-131354537D01*
X155496969Y-131347114D01*
X155407530Y-131339289D01*
X155407522Y-131339289D01*
X155405366Y-131339100D01*
X155287434Y-131339100D01*
X155285278Y-131339289D01*
X155285270Y-131339289D01*
X155195831Y-131347114D01*
X155110992Y-131354537D01*
X154882737Y-131415697D01*
X154668571Y-131515565D01*
X154474999Y-131651105D01*
X154307905Y-131818199D01*
X154305426Y-131821740D01*
X154174847Y-132008225D01*
X154174846Y-132008227D01*
X154172365Y-132011770D01*
X154072497Y-132225937D01*
X154011337Y-132454192D01*
X153990741Y-132689600D01*
X136337893Y-132689600D01*
X136283241Y-132647664D01*
X136137162Y-132587156D01*
X135980400Y-132566518D01*
X135823638Y-132587156D01*
X135677559Y-132647664D01*
X135552118Y-132743918D01*
X135455864Y-132869359D01*
X135395356Y-133015438D01*
X135374718Y-133172200D01*
X133582194Y-133172200D01*
X133568244Y-133066238D01*
X133507736Y-132920159D01*
X133411482Y-132794718D01*
X133286041Y-132698464D01*
X133139962Y-132637956D01*
X132983200Y-132617318D01*
X132826438Y-132637956D01*
X132680359Y-132698464D01*
X132554918Y-132794718D01*
X132458664Y-132920159D01*
X132398156Y-133066238D01*
X132377518Y-133223000D01*
X131594184Y-133223000D01*
X131626703Y-133153263D01*
X131687863Y-132925008D01*
X131708459Y-132689600D01*
X131687863Y-132454192D01*
X131626703Y-132225937D01*
X131526835Y-132011771D01*
X131391295Y-131818199D01*
X131224201Y-131651105D01*
X131030629Y-131515565D01*
X130816463Y-131415697D01*
X130588208Y-131354537D01*
X130503369Y-131347114D01*
X130413930Y-131339289D01*
X130413922Y-131339289D01*
X130411766Y-131339100D01*
X130293834Y-131339100D01*
X130291678Y-131339289D01*
X130291670Y-131339289D01*
X130202231Y-131347114D01*
X130117392Y-131354537D01*
X129889137Y-131415697D01*
X129674971Y-131515565D01*
X129481399Y-131651105D01*
X129314305Y-131818199D01*
X129311826Y-131821740D01*
X129181247Y-132008225D01*
X129181246Y-132008227D01*
X129178765Y-132011770D01*
X129078897Y-132225937D01*
X129017737Y-132454192D01*
X128997141Y-132689600D01*
X128368400Y-132689600D01*
X128368400Y-128778000D01*
X129543918Y-128778000D01*
X129564556Y-128934762D01*
X129625064Y-129080841D01*
X129721318Y-129206282D01*
X129846759Y-129302536D01*
X129992838Y-129363044D01*
X130149600Y-129383682D01*
X130306362Y-129363044D01*
X130452441Y-129302536D01*
X130577882Y-129206282D01*
X130674136Y-129080841D01*
X130734644Y-128934762D01*
X130755282Y-128778000D01*
X133404718Y-128778000D01*
X133425356Y-128934762D01*
X133485864Y-129080841D01*
X133582118Y-129206282D01*
X133707559Y-129302536D01*
X133853638Y-129363044D01*
X134010400Y-129383682D01*
X134167162Y-129363044D01*
X134313241Y-129302536D01*
X134438682Y-129206282D01*
X134534936Y-129080841D01*
X134595444Y-128934762D01*
X134616082Y-128778000D01*
X137214718Y-128778000D01*
X137235356Y-128934762D01*
X137295864Y-129080841D01*
X137392118Y-129206282D01*
X137517559Y-129302536D01*
X137663638Y-129363044D01*
X137820400Y-129383682D01*
X137977162Y-129363044D01*
X138123241Y-129302536D01*
X138248682Y-129206282D01*
X138344936Y-129080841D01*
X138376636Y-129004311D01*
X138416373Y-128957785D01*
X138475868Y-128943502D01*
X138532396Y-128966917D01*
X138559564Y-129004311D01*
X138591264Y-129080841D01*
X138687518Y-129206282D01*
X138812959Y-129302536D01*
X138959038Y-129363044D01*
X139115800Y-129383682D01*
X139272562Y-129363044D01*
X139418641Y-129302536D01*
X139544082Y-129206282D01*
X139640336Y-129080841D01*
X139700844Y-128934762D01*
X139708106Y-128879600D01*
X154740718Y-128879600D01*
X154761356Y-129036362D01*
X154821864Y-129182441D01*
X154918118Y-129307882D01*
X155043559Y-129404136D01*
X155189638Y-129464644D01*
X155346400Y-129485282D01*
X155503162Y-129464644D01*
X155649241Y-129404136D01*
X155774682Y-129307882D01*
X155870936Y-129182441D01*
X155931444Y-129036362D01*
X155952082Y-128879600D01*
X155931444Y-128722838D01*
X155870936Y-128576759D01*
X155774682Y-128451318D01*
X155649241Y-128355064D01*
X155503162Y-128294556D01*
X155346400Y-128273918D01*
X155189638Y-128294556D01*
X155043559Y-128355064D01*
X154918118Y-128451318D01*
X154821864Y-128576759D01*
X154761356Y-128722838D01*
X154740718Y-128879600D01*
X139708106Y-128879600D01*
X139721482Y-128778000D01*
X139700844Y-128621238D01*
X139640336Y-128475159D01*
X139544082Y-128349718D01*
X139418641Y-128253464D01*
X139272562Y-128192956D01*
X139115800Y-128172318D01*
X138959038Y-128192956D01*
X138812959Y-128253464D01*
X138687518Y-128349718D01*
X138591264Y-128475159D01*
X138588781Y-128481154D01*
X138559564Y-128551689D01*
X138519827Y-128598215D01*
X138460332Y-128612498D01*
X138403804Y-128589083D01*
X138376636Y-128551689D01*
X138347419Y-128481154D01*
X138344936Y-128475159D01*
X138248682Y-128349718D01*
X138123241Y-128253464D01*
X137977162Y-128192956D01*
X137820400Y-128172318D01*
X137663638Y-128192956D01*
X137517559Y-128253464D01*
X137392118Y-128349718D01*
X137295864Y-128475159D01*
X137235356Y-128621238D01*
X137214718Y-128778000D01*
X134616082Y-128778000D01*
X134595444Y-128621238D01*
X134534936Y-128475159D01*
X134438682Y-128349718D01*
X134313241Y-128253464D01*
X134167162Y-128192956D01*
X134010400Y-128172318D01*
X133853638Y-128192956D01*
X133707559Y-128253464D01*
X133582118Y-128349718D01*
X133485864Y-128475159D01*
X133425356Y-128621238D01*
X133404718Y-128778000D01*
X130755282Y-128778000D01*
X130734644Y-128621238D01*
X130674136Y-128475159D01*
X130577882Y-128349718D01*
X130452441Y-128253464D01*
X130306362Y-128192956D01*
X130149600Y-128172318D01*
X129992838Y-128192956D01*
X129846759Y-128253464D01*
X129721318Y-128349718D01*
X129625064Y-128475159D01*
X129564556Y-128621238D01*
X129543918Y-128778000D01*
X128368400Y-128778000D01*
X128368400Y-125476000D01*
X128781918Y-125476000D01*
X128802556Y-125632762D01*
X128863064Y-125778841D01*
X128959318Y-125904282D01*
X129084759Y-126000536D01*
X129230838Y-126061044D01*
X129387600Y-126081682D01*
X129544362Y-126061044D01*
X129690441Y-126000536D01*
X129815882Y-125904282D01*
X129912136Y-125778841D01*
X129972644Y-125632762D01*
X129993282Y-125476000D01*
X129972644Y-125319238D01*
X129912136Y-125173159D01*
X129815882Y-125047718D01*
X129690441Y-124951464D01*
X129544362Y-124890956D01*
X129387600Y-124870318D01*
X129230838Y-124890956D01*
X129084759Y-124951464D01*
X128959318Y-125047718D01*
X128863064Y-125173159D01*
X128802556Y-125319238D01*
X128781918Y-125476000D01*
X128368400Y-125476000D01*
X128368400Y-121005600D01*
X149152718Y-121005600D01*
X149173356Y-121162362D01*
X149233864Y-121308441D01*
X149330118Y-121433882D01*
X149455559Y-121530136D01*
X149601638Y-121590644D01*
X149758400Y-121611282D01*
X149915162Y-121590644D01*
X150061241Y-121530136D01*
X150186682Y-121433882D01*
X150282936Y-121308441D01*
X150343444Y-121162362D01*
X150364082Y-121005600D01*
X150343444Y-120848838D01*
X150282936Y-120702759D01*
X150186682Y-120577318D01*
X150061241Y-120481064D01*
X149915162Y-120420556D01*
X149758400Y-120399918D01*
X149601638Y-120420556D01*
X149455559Y-120481064D01*
X149330118Y-120577318D01*
X149233864Y-120702759D01*
X149173356Y-120848838D01*
X149152718Y-121005600D01*
X128368400Y-121005600D01*
X128368400Y-120091200D01*
X136706718Y-120091200D01*
X136727356Y-120247962D01*
X136787864Y-120394041D01*
X136884118Y-120519482D01*
X137009559Y-120615736D01*
X137155638Y-120676244D01*
X137312400Y-120696882D01*
X137469162Y-120676244D01*
X137615241Y-120615736D01*
X137740682Y-120519482D01*
X137836936Y-120394041D01*
X137897444Y-120247962D01*
X137918082Y-120091200D01*
X137897444Y-119934438D01*
X137836936Y-119788359D01*
X137740682Y-119662918D01*
X137615241Y-119566664D01*
X137497446Y-119517871D01*
X137475159Y-119508640D01*
X137469162Y-119506156D01*
X137337969Y-119488884D01*
X137318834Y-119486365D01*
X137312400Y-119485518D01*
X137305966Y-119486365D01*
X137286831Y-119488884D01*
X137155638Y-119506156D01*
X137149641Y-119508640D01*
X137127354Y-119517871D01*
X137009559Y-119566664D01*
X136884118Y-119662918D01*
X136787864Y-119788359D01*
X136727356Y-119934438D01*
X136706718Y-120091200D01*
X128368400Y-120091200D01*
X128368400Y-119484634D01*
X130530500Y-119484634D01*
X130533481Y-119516169D01*
X130578366Y-119643984D01*
X130658850Y-119752950D01*
X130664807Y-119757350D01*
X130706790Y-119788359D01*
X130767816Y-119833434D01*
X130895631Y-119878319D01*
X130901638Y-119878887D01*
X130901639Y-119878887D01*
X130924855Y-119881082D01*
X130924865Y-119881082D01*
X130927166Y-119881300D01*
X132724834Y-119881300D01*
X132727135Y-119881082D01*
X132727145Y-119881082D01*
X132750361Y-119878887D01*
X132750362Y-119878887D01*
X132756369Y-119878319D01*
X132884184Y-119833434D01*
X132945211Y-119788359D01*
X132987193Y-119757350D01*
X132993150Y-119752950D01*
X133073634Y-119643984D01*
X133118519Y-119516169D01*
X133121500Y-119484634D01*
X133121500Y-118810800D01*
X134268318Y-118810800D01*
X134288956Y-118967562D01*
X134349464Y-119113641D01*
X134445718Y-119239082D01*
X134571159Y-119335336D01*
X134717238Y-119395844D01*
X134874000Y-119416482D01*
X135030762Y-119395844D01*
X135176841Y-119335336D01*
X135302282Y-119239082D01*
X135398536Y-119113641D01*
X135459044Y-118967562D01*
X135459618Y-118963200D01*
X143767918Y-118963200D01*
X143788556Y-119119962D01*
X143849064Y-119266041D01*
X143945318Y-119391482D01*
X144070759Y-119487736D01*
X144216838Y-119548244D01*
X144337892Y-119564181D01*
X144356753Y-119566664D01*
X144373600Y-119568882D01*
X144390448Y-119566664D01*
X144409308Y-119564181D01*
X144530362Y-119548244D01*
X144676441Y-119487736D01*
X144801882Y-119391482D01*
X144898136Y-119266041D01*
X144958644Y-119119962D01*
X144979282Y-118963200D01*
X144958644Y-118806438D01*
X144898136Y-118660359D01*
X144801882Y-118534918D01*
X144676441Y-118438664D01*
X144530362Y-118378156D01*
X144373600Y-118357518D01*
X144216838Y-118378156D01*
X144070759Y-118438664D01*
X143945318Y-118534918D01*
X143849064Y-118660359D01*
X143788556Y-118806438D01*
X143767918Y-118963200D01*
X135459618Y-118963200D01*
X135479682Y-118810800D01*
X135459044Y-118654038D01*
X135398536Y-118507959D01*
X135302282Y-118382518D01*
X135176841Y-118286264D01*
X135030762Y-118225756D01*
X134874000Y-118205118D01*
X134717238Y-118225756D01*
X134571159Y-118286264D01*
X134445718Y-118382518D01*
X134349464Y-118507959D01*
X134288956Y-118654038D01*
X134268318Y-118810800D01*
X133121500Y-118810800D01*
X133121500Y-118136966D01*
X133118519Y-118105431D01*
X133073634Y-117977616D01*
X132993150Y-117868650D01*
X132928145Y-117820636D01*
X132890136Y-117792562D01*
X132890135Y-117792561D01*
X132884184Y-117788166D01*
X132756369Y-117743281D01*
X132750362Y-117742713D01*
X132750361Y-117742713D01*
X132727145Y-117740518D01*
X132727135Y-117740518D01*
X132724834Y-117740300D01*
X130927166Y-117740300D01*
X130924865Y-117740518D01*
X130924855Y-117740518D01*
X130901639Y-117742713D01*
X130901638Y-117742713D01*
X130895631Y-117743281D01*
X130767816Y-117788166D01*
X130761865Y-117792561D01*
X130761864Y-117792562D01*
X130723855Y-117820636D01*
X130658850Y-117868650D01*
X130578366Y-117977616D01*
X130533481Y-118105431D01*
X130530500Y-118136966D01*
X130530500Y-119484634D01*
X128368400Y-119484634D01*
X128368400Y-116263290D01*
X130525346Y-116263290D01*
X130526713Y-116278310D01*
X130543738Y-116465381D01*
X130544373Y-116472362D01*
X130545739Y-116477004D01*
X130545740Y-116477008D01*
X130600956Y-116664615D01*
X130603647Y-116673757D01*
X130700909Y-116859803D01*
X130703945Y-116863579D01*
X130703947Y-116863582D01*
X130802347Y-116985966D01*
X130832456Y-117023414D01*
X130836161Y-117026523D01*
X130836164Y-117026526D01*
X130989561Y-117155241D01*
X130993276Y-117158358D01*
X131177245Y-117259496D01*
X131181857Y-117260959D01*
X131372735Y-117321509D01*
X131372737Y-117321509D01*
X131377354Y-117322974D01*
X131475198Y-117333949D01*
X131537980Y-117340991D01*
X131537982Y-117340991D01*
X131540736Y-117341300D01*
X132103830Y-117341300D01*
X132106224Y-117341065D01*
X132106229Y-117341065D01*
X132255124Y-117326466D01*
X132255128Y-117326465D01*
X132259934Y-117325994D01*
X132264559Y-117324598D01*
X132264562Y-117324597D01*
X132361793Y-117295241D01*
X132460910Y-117265316D01*
X132611586Y-117185200D01*
X138789518Y-117185200D01*
X138810156Y-117341962D01*
X138870664Y-117488041D01*
X138966918Y-117613482D01*
X139092359Y-117709736D01*
X139238438Y-117770244D01*
X139395200Y-117790882D01*
X139551962Y-117770244D01*
X139698041Y-117709736D01*
X139823482Y-117613482D01*
X139919736Y-117488041D01*
X139961009Y-117388400D01*
X143767918Y-117388400D01*
X143788556Y-117545162D01*
X143849064Y-117691241D01*
X143945318Y-117816682D01*
X144070759Y-117912936D01*
X144216838Y-117973444D01*
X144373600Y-117994082D01*
X144530362Y-117973444D01*
X144676441Y-117912936D01*
X144801882Y-117816682D01*
X144898136Y-117691241D01*
X144958644Y-117545162D01*
X144979282Y-117388400D01*
X144958644Y-117231638D01*
X144898136Y-117085559D01*
X144826653Y-116992400D01*
X149152718Y-116992400D01*
X149173356Y-117149162D01*
X149233864Y-117295241D01*
X149330118Y-117420682D01*
X149455559Y-117516936D01*
X149601638Y-117577444D01*
X149758400Y-117598082D01*
X149915162Y-117577444D01*
X150061241Y-117516936D01*
X150186682Y-117420682D01*
X150282936Y-117295241D01*
X150343444Y-117149162D01*
X150364082Y-116992400D01*
X150343444Y-116835638D01*
X150282936Y-116689559D01*
X150186682Y-116564118D01*
X150061241Y-116467864D01*
X149915162Y-116407356D01*
X149758400Y-116386718D01*
X149601638Y-116407356D01*
X149455559Y-116467864D01*
X149330118Y-116564118D01*
X149233864Y-116689559D01*
X149173356Y-116835638D01*
X149152718Y-116992400D01*
X144826653Y-116992400D01*
X144801882Y-116960118D01*
X144676441Y-116863864D01*
X144530362Y-116803356D01*
X144373600Y-116782718D01*
X144216838Y-116803356D01*
X144070759Y-116863864D01*
X143945318Y-116960118D01*
X143849064Y-117085559D01*
X143788556Y-117231638D01*
X143767918Y-117388400D01*
X139961009Y-117388400D01*
X139980244Y-117341962D01*
X140000882Y-117185200D01*
X139980244Y-117028438D01*
X139919736Y-116882359D01*
X139823482Y-116756918D01*
X139698041Y-116660664D01*
X139551962Y-116600156D01*
X139395200Y-116579518D01*
X139238438Y-116600156D01*
X139092359Y-116660664D01*
X138966918Y-116756918D01*
X138870664Y-116882359D01*
X138810156Y-117028438D01*
X138789518Y-117185200D01*
X132611586Y-117185200D01*
X132646272Y-117166757D01*
X132808961Y-117034071D01*
X132848757Y-116985966D01*
X132939696Y-116876040D01*
X132939697Y-116876038D01*
X132942779Y-116872313D01*
X133007311Y-116752964D01*
X133040330Y-116691897D01*
X133040330Y-116691896D01*
X133042630Y-116687643D01*
X133079272Y-116569271D01*
X133103280Y-116491716D01*
X133103281Y-116491712D01*
X133104710Y-116487095D01*
X133105771Y-116477008D01*
X133126148Y-116283126D01*
X133126148Y-116283124D01*
X133126654Y-116278310D01*
X133107627Y-116069238D01*
X133086269Y-115996668D01*
X133049721Y-115872490D01*
X133049720Y-115872487D01*
X133048353Y-115867843D01*
X132951091Y-115681797D01*
X132900082Y-115618354D01*
X132822577Y-115521958D01*
X132822576Y-115521957D01*
X132819544Y-115518186D01*
X132815839Y-115515077D01*
X132815836Y-115515074D01*
X132662439Y-115386359D01*
X132662437Y-115386358D01*
X132658724Y-115383242D01*
X132566680Y-115332640D01*
X132478995Y-115284435D01*
X132474755Y-115282104D01*
X132452001Y-115274886D01*
X132279265Y-115220091D01*
X132279263Y-115220091D01*
X132274646Y-115218626D01*
X132176802Y-115207651D01*
X132114020Y-115200609D01*
X132114018Y-115200609D01*
X132111264Y-115200300D01*
X131548170Y-115200300D01*
X131545776Y-115200535D01*
X131545771Y-115200535D01*
X131396876Y-115215134D01*
X131396872Y-115215135D01*
X131392066Y-115215606D01*
X131387441Y-115217002D01*
X131387438Y-115217003D01*
X131362511Y-115224529D01*
X131191090Y-115276284D01*
X131005728Y-115374843D01*
X130843039Y-115507529D01*
X130839955Y-115511257D01*
X130839954Y-115511258D01*
X130757233Y-115611251D01*
X130709221Y-115669287D01*
X130609370Y-115853957D01*
X130607941Y-115858574D01*
X130560649Y-116011350D01*
X130547290Y-116054505D01*
X130546785Y-116059313D01*
X130546784Y-116059316D01*
X130525852Y-116258474D01*
X130525346Y-116263290D01*
X128368400Y-116263290D01*
X128368400Y-113723290D01*
X130525346Y-113723290D01*
X130525785Y-113728112D01*
X130539057Y-113873945D01*
X130544373Y-113932362D01*
X130545739Y-113937004D01*
X130545740Y-113937008D01*
X130587770Y-114079813D01*
X130603647Y-114133757D01*
X130700909Y-114319803D01*
X130703945Y-114323579D01*
X130703947Y-114323582D01*
X130796437Y-114438616D01*
X130832456Y-114483414D01*
X130836161Y-114486523D01*
X130836164Y-114486526D01*
X130989478Y-114615171D01*
X130993276Y-114618358D01*
X131177245Y-114719496D01*
X131181857Y-114720959D01*
X131372735Y-114781509D01*
X131372737Y-114781509D01*
X131377354Y-114782974D01*
X131466409Y-114792963D01*
X131537980Y-114800991D01*
X131537982Y-114800991D01*
X131540736Y-114801300D01*
X132103830Y-114801300D01*
X132106224Y-114801065D01*
X132106229Y-114801065D01*
X132255124Y-114786466D01*
X132255128Y-114786465D01*
X132259934Y-114785994D01*
X132264559Y-114784598D01*
X132264562Y-114784597D01*
X132333812Y-114763689D01*
X132460910Y-114725316D01*
X132646272Y-114626757D01*
X132808961Y-114494071D01*
X132841675Y-114454527D01*
X132939696Y-114336040D01*
X132939697Y-114336038D01*
X132942779Y-114332313D01*
X133027180Y-114176218D01*
X133040330Y-114151897D01*
X133040330Y-114151896D01*
X133042630Y-114147643D01*
X133082008Y-114020433D01*
X133103280Y-113951716D01*
X133103281Y-113951712D01*
X133104710Y-113947095D01*
X133105771Y-113937008D01*
X133126148Y-113743126D01*
X133126148Y-113743124D01*
X133126654Y-113738310D01*
X133120371Y-113669275D01*
X133108066Y-113534058D01*
X133108065Y-113534055D01*
X133107627Y-113529238D01*
X133097792Y-113495819D01*
X133049721Y-113332490D01*
X133049720Y-113332487D01*
X133048353Y-113327843D01*
X132966881Y-113172000D01*
X134268318Y-113172000D01*
X134288956Y-113328762D01*
X134349464Y-113474841D01*
X134445718Y-113600282D01*
X134571159Y-113696536D01*
X134717238Y-113757044D01*
X134874000Y-113777682D01*
X135030762Y-113757044D01*
X135176841Y-113696536D01*
X135302282Y-113600282D01*
X135398536Y-113474841D01*
X135459044Y-113328762D01*
X135479682Y-113172000D01*
X135459044Y-113015238D01*
X135439809Y-112968800D01*
X138789518Y-112968800D01*
X138810156Y-113125562D01*
X138870664Y-113271641D01*
X138966918Y-113397082D01*
X139092359Y-113493336D01*
X139238438Y-113553844D01*
X139395200Y-113574482D01*
X139551962Y-113553844D01*
X139698041Y-113493336D01*
X139823482Y-113397082D01*
X139919736Y-113271641D01*
X139980244Y-113125562D01*
X140000882Y-112968800D01*
X139980244Y-112812038D01*
X139919736Y-112665959D01*
X139823482Y-112540518D01*
X139698041Y-112444264D01*
X139551962Y-112383756D01*
X139395200Y-112363118D01*
X139238438Y-112383756D01*
X139092359Y-112444264D01*
X138966918Y-112540518D01*
X138870664Y-112665959D01*
X138810156Y-112812038D01*
X138789518Y-112968800D01*
X135439809Y-112968800D01*
X135398536Y-112869159D01*
X135302282Y-112743718D01*
X135176841Y-112647464D01*
X135030762Y-112586956D01*
X134874000Y-112566318D01*
X134717238Y-112586956D01*
X134571159Y-112647464D01*
X134445718Y-112743718D01*
X134349464Y-112869159D01*
X134288956Y-113015238D01*
X134268318Y-113172000D01*
X132966881Y-113172000D01*
X132951091Y-113141797D01*
X132942860Y-113131559D01*
X132822577Y-112981958D01*
X132822576Y-112981957D01*
X132819544Y-112978186D01*
X132815839Y-112975077D01*
X132815836Y-112975074D01*
X132662439Y-112846359D01*
X132662437Y-112846358D01*
X132658724Y-112843242D01*
X132474755Y-112742104D01*
X132452001Y-112734886D01*
X132279265Y-112680091D01*
X132279263Y-112680091D01*
X132274646Y-112678626D01*
X132161716Y-112665959D01*
X132114020Y-112660609D01*
X132114018Y-112660609D01*
X132111264Y-112660300D01*
X131548170Y-112660300D01*
X131545776Y-112660535D01*
X131545771Y-112660535D01*
X131396876Y-112675134D01*
X131396872Y-112675135D01*
X131392066Y-112675606D01*
X131387441Y-112677002D01*
X131387438Y-112677003D01*
X131318188Y-112697911D01*
X131191090Y-112736284D01*
X131005728Y-112834843D01*
X130843039Y-112967529D01*
X130839955Y-112971257D01*
X130839954Y-112971258D01*
X130803571Y-113015238D01*
X130709221Y-113129287D01*
X130609370Y-113313957D01*
X130602931Y-113334759D01*
X130582415Y-113401036D01*
X130547290Y-113514505D01*
X130546785Y-113519313D01*
X130546784Y-113519316D01*
X130537859Y-113604236D01*
X130525346Y-113723290D01*
X128368400Y-113723290D01*
X128368400Y-111291348D01*
X137610700Y-111291348D01*
X137622333Y-111349831D01*
X137666648Y-111416152D01*
X137732969Y-111460467D01*
X137742532Y-111462369D01*
X137742534Y-111462370D01*
X137765205Y-111466879D01*
X137791452Y-111472100D01*
X139030948Y-111472100D01*
X139057195Y-111466879D01*
X139079866Y-111462370D01*
X139079868Y-111462369D01*
X139089431Y-111460467D01*
X139155752Y-111416152D01*
X139200067Y-111349831D01*
X139211700Y-111291348D01*
X139211700Y-110051852D01*
X139200067Y-109993369D01*
X139155752Y-109927048D01*
X139089431Y-109882733D01*
X139079868Y-109880831D01*
X139079866Y-109880830D01*
X139057195Y-109876321D01*
X139030948Y-109871100D01*
X137791452Y-109871100D01*
X137765205Y-109876321D01*
X137742534Y-109880830D01*
X137742532Y-109880831D01*
X137732969Y-109882733D01*
X137666648Y-109927048D01*
X137622333Y-109993369D01*
X137610700Y-110051852D01*
X137610700Y-111291348D01*
X128368400Y-111291348D01*
X128368400Y-106200200D01*
X136300318Y-106200200D01*
X136320956Y-106356962D01*
X136381464Y-106503041D01*
X136477718Y-106628482D01*
X136603159Y-106724736D01*
X136749238Y-106785244D01*
X136906000Y-106805882D01*
X137062762Y-106785244D01*
X137208841Y-106724736D01*
X137334282Y-106628482D01*
X137430536Y-106503041D01*
X137431800Y-106504011D01*
X137471437Y-106468324D01*
X137532287Y-106461931D01*
X137585274Y-106492526D01*
X137610158Y-106548423D01*
X137610700Y-106558767D01*
X137610700Y-107291348D01*
X137622333Y-107349831D01*
X137666648Y-107416152D01*
X137732969Y-107460467D01*
X137742532Y-107462369D01*
X137742534Y-107462370D01*
X137765205Y-107466879D01*
X137791452Y-107472100D01*
X139030948Y-107472100D01*
X139057195Y-107466879D01*
X139079866Y-107462370D01*
X139079868Y-107462369D01*
X139089431Y-107460467D01*
X139155752Y-107416152D01*
X139200067Y-107349831D01*
X139211700Y-107291348D01*
X139211700Y-106051852D01*
X139200067Y-105993369D01*
X139155752Y-105927048D01*
X139089431Y-105882733D01*
X139079868Y-105880831D01*
X139079866Y-105880830D01*
X139057195Y-105876321D01*
X139030948Y-105871100D01*
X137791452Y-105871100D01*
X137765205Y-105876321D01*
X137742534Y-105880830D01*
X137742532Y-105880831D01*
X137732969Y-105882733D01*
X137666648Y-105927048D01*
X137642821Y-105962708D01*
X137631384Y-105979824D01*
X137583334Y-106017703D01*
X137522196Y-106020105D01*
X137471322Y-105986112D01*
X137457605Y-105962708D01*
X137433019Y-105903354D01*
X137430536Y-105897359D01*
X137334282Y-105771918D01*
X137208841Y-105675664D01*
X137062762Y-105615156D01*
X136906000Y-105594518D01*
X136749238Y-105615156D01*
X136603159Y-105675664D01*
X136477718Y-105771918D01*
X136381464Y-105897359D01*
X136320956Y-106043438D01*
X136300318Y-106200200D01*
X128368400Y-106200200D01*
X128368400Y-102402400D01*
X136300318Y-102402400D01*
X136320956Y-102559162D01*
X136381464Y-102705241D01*
X136477718Y-102830682D01*
X136603159Y-102926936D01*
X136749238Y-102987444D01*
X136906000Y-103008082D01*
X137062762Y-102987444D01*
X137208841Y-102926936D01*
X137334282Y-102830682D01*
X137430536Y-102705241D01*
X137491044Y-102559162D01*
X137491618Y-102554800D01*
X139145118Y-102554800D01*
X139165756Y-102711562D01*
X139226264Y-102857641D01*
X139322518Y-102983082D01*
X139447959Y-103079336D01*
X139594038Y-103139844D01*
X139750800Y-103160482D01*
X139907562Y-103139844D01*
X139939029Y-103126810D01*
X140000024Y-103122009D01*
X140052194Y-103153978D01*
X140075609Y-103210506D01*
X140075067Y-103231196D01*
X140062299Y-103328179D01*
X140082937Y-103484941D01*
X140143445Y-103631020D01*
X140239699Y-103756461D01*
X140244852Y-103760415D01*
X140351767Y-103842454D01*
X140386423Y-103892879D01*
X140390500Y-103920996D01*
X140390500Y-113102666D01*
X140390123Y-113111295D01*
X140386736Y-113150007D01*
X140388978Y-113158374D01*
X140396796Y-113187549D01*
X140398666Y-113195983D01*
X140405412Y-113234245D01*
X140409742Y-113241744D01*
X140411738Y-113247229D01*
X140414204Y-113252516D01*
X140416446Y-113260884D01*
X140427584Y-113276790D01*
X140438732Y-113292711D01*
X140443371Y-113299992D01*
X140462806Y-113333655D01*
X140492571Y-113358631D01*
X140498939Y-113364465D01*
X141326704Y-114192230D01*
X141354481Y-114246747D01*
X141355700Y-114262234D01*
X141355700Y-115562430D01*
X141336793Y-115620621D01*
X141316968Y-115640971D01*
X141252918Y-115690118D01*
X141156664Y-115815559D01*
X141096156Y-115961638D01*
X141075518Y-116118400D01*
X141096156Y-116275162D01*
X141156664Y-116421241D01*
X141252918Y-116546682D01*
X141378359Y-116642936D01*
X141524438Y-116703444D01*
X141681200Y-116724082D01*
X141837962Y-116703444D01*
X141984041Y-116642936D01*
X142109482Y-116546682D01*
X142205736Y-116421241D01*
X142266244Y-116275162D01*
X142286882Y-116118400D01*
X142266244Y-115961638D01*
X142247009Y-115915200D01*
X142650318Y-115915200D01*
X142670956Y-116071962D01*
X142731464Y-116218041D01*
X142827718Y-116343482D01*
X142953159Y-116439736D01*
X143099238Y-116500244D01*
X143256000Y-116520882D01*
X143412762Y-116500244D01*
X143558841Y-116439736D01*
X143684282Y-116343482D01*
X143780536Y-116218041D01*
X143841044Y-116071962D01*
X143861682Y-115915200D01*
X143841044Y-115758438D01*
X143780536Y-115612359D01*
X143684282Y-115486918D01*
X143558841Y-115390664D01*
X143412762Y-115330156D01*
X143256000Y-115309518D01*
X143099238Y-115330156D01*
X142953159Y-115390664D01*
X142827718Y-115486918D01*
X142731464Y-115612359D01*
X142670956Y-115758438D01*
X142650318Y-115915200D01*
X142247009Y-115915200D01*
X142205736Y-115815559D01*
X142109482Y-115690118D01*
X142045433Y-115640971D01*
X142010777Y-115590548D01*
X142006700Y-115562430D01*
X142006700Y-114992563D01*
X148093357Y-114992563D01*
X148109775Y-115188083D01*
X148111108Y-115192731D01*
X148111108Y-115192732D01*
X148134666Y-115274886D01*
X148163858Y-115376691D01*
X148166073Y-115381001D01*
X148251331Y-115546896D01*
X148251334Y-115546900D01*
X148253544Y-115551201D01*
X148375418Y-115704969D01*
X148379105Y-115708107D01*
X148379107Y-115708109D01*
X148521150Y-115828997D01*
X148521155Y-115829000D01*
X148524838Y-115832135D01*
X148529060Y-115834495D01*
X148529065Y-115834498D01*
X148588730Y-115867843D01*
X148696113Y-115927857D01*
X148781623Y-115955641D01*
X148878113Y-115986993D01*
X148878116Y-115986994D01*
X148882718Y-115988489D01*
X149077546Y-116011721D01*
X149082368Y-116011350D01*
X149082371Y-116011350D01*
X149268348Y-115997040D01*
X149268353Y-115997039D01*
X149273176Y-115996668D01*
X149462156Y-115943903D01*
X149466469Y-115941724D01*
X149466475Y-115941722D01*
X149632968Y-115857620D01*
X149632970Y-115857618D01*
X149637289Y-115855437D01*
X149664090Y-115834498D01*
X149788087Y-115737622D01*
X149788091Y-115737618D01*
X149791903Y-115734640D01*
X149817515Y-115704969D01*
X149916945Y-115589777D01*
X149916947Y-115589775D01*
X149920109Y-115586111D01*
X149933562Y-115562430D01*
X150014636Y-115419715D01*
X150014637Y-115419712D01*
X150017025Y-115415509D01*
X150028505Y-115381001D01*
X150077431Y-115233923D01*
X150077431Y-115233921D01*
X150078958Y-115229332D01*
X150080126Y-115220091D01*
X150103201Y-115037424D01*
X150103549Y-115034671D01*
X150103941Y-115006600D01*
X150103038Y-114997383D01*
X150085266Y-114816146D01*
X150084794Y-114811328D01*
X150028084Y-114623494D01*
X149960896Y-114497131D01*
X149938243Y-114454527D01*
X149938241Y-114454523D01*
X149935970Y-114450253D01*
X149811961Y-114298202D01*
X149660780Y-114173135D01*
X149488185Y-114079813D01*
X149300752Y-114021793D01*
X149295942Y-114021287D01*
X149295940Y-114021287D01*
X149110435Y-114001789D01*
X149110433Y-114001789D01*
X149105619Y-114001283D01*
X149041491Y-114007119D01*
X148915038Y-114018627D01*
X148915035Y-114018628D01*
X148910218Y-114019066D01*
X148905576Y-114020432D01*
X148905572Y-114020433D01*
X148726640Y-114073096D01*
X148726637Y-114073097D01*
X148721993Y-114074464D01*
X148548112Y-114165367D01*
X148544343Y-114168397D01*
X148544342Y-114168398D01*
X148534616Y-114176218D01*
X148395200Y-114288311D01*
X148372381Y-114315506D01*
X148272189Y-114434910D01*
X148272186Y-114434914D01*
X148269080Y-114438616D01*
X148174556Y-114610554D01*
X148173092Y-114615168D01*
X148173091Y-114615171D01*
X148120325Y-114781509D01*
X148115228Y-114797578D01*
X148093357Y-114992563D01*
X142006700Y-114992563D01*
X142006700Y-114104934D01*
X142007077Y-114096305D01*
X142009709Y-114066222D01*
X142010464Y-114057593D01*
X142000404Y-114020050D01*
X141998534Y-114011616D01*
X141993292Y-113981883D01*
X141993291Y-113981881D01*
X141991788Y-113973355D01*
X141987458Y-113965856D01*
X141985462Y-113960371D01*
X141982996Y-113955084D01*
X141980754Y-113946716D01*
X141958468Y-113914889D01*
X141953827Y-113907605D01*
X141938723Y-113881444D01*
X141934394Y-113873945D01*
X141904629Y-113848969D01*
X141898261Y-113843135D01*
X141431474Y-113376348D01*
X151348100Y-113376348D01*
X151359733Y-113434831D01*
X151404048Y-113501152D01*
X151470369Y-113545467D01*
X151479932Y-113547369D01*
X151479934Y-113547370D01*
X151499995Y-113551360D01*
X151528852Y-113557100D01*
X153168348Y-113557100D01*
X153197205Y-113551360D01*
X153217266Y-113547370D01*
X153217268Y-113547369D01*
X153226831Y-113545467D01*
X153293152Y-113501152D01*
X153337467Y-113434831D01*
X153349100Y-113376348D01*
X153349100Y-111736852D01*
X153341921Y-111700759D01*
X153339370Y-111687934D01*
X153339369Y-111687932D01*
X153337467Y-111678369D01*
X153293152Y-111612048D01*
X153226831Y-111567733D01*
X153217268Y-111565831D01*
X153217266Y-111565830D01*
X153194595Y-111561321D01*
X153168348Y-111556100D01*
X151528852Y-111556100D01*
X151502605Y-111561321D01*
X151479934Y-111565830D01*
X151479932Y-111565831D01*
X151470369Y-111567733D01*
X151404048Y-111612048D01*
X151359733Y-111678369D01*
X151357831Y-111687932D01*
X151357830Y-111687934D01*
X151355279Y-111700759D01*
X151348100Y-111736852D01*
X151348100Y-113376348D01*
X141431474Y-113376348D01*
X141070496Y-113015370D01*
X141042719Y-112960853D01*
X141041500Y-112945366D01*
X141041500Y-112509073D01*
X141060407Y-112450882D01*
X141109907Y-112414918D01*
X141171093Y-112414918D01*
X141201049Y-112433275D01*
X141202118Y-112431882D01*
X141327559Y-112528136D01*
X141473638Y-112588644D01*
X141630400Y-112609282D01*
X141787162Y-112588644D01*
X141933241Y-112528136D01*
X142058682Y-112431882D01*
X142154936Y-112306441D01*
X142215444Y-112160362D01*
X142236082Y-112003600D01*
X142599518Y-112003600D01*
X142620156Y-112160362D01*
X142680664Y-112306441D01*
X142776918Y-112431882D01*
X142902359Y-112528136D01*
X143048438Y-112588644D01*
X143205200Y-112609282D01*
X143361962Y-112588644D01*
X143508041Y-112528136D01*
X143633482Y-112431882D01*
X143729736Y-112306441D01*
X143790244Y-112160362D01*
X143810882Y-112003600D01*
X143790244Y-111846838D01*
X143729736Y-111700759D01*
X143633482Y-111575318D01*
X143508041Y-111479064D01*
X143361962Y-111418556D01*
X143205200Y-111397918D01*
X143048438Y-111418556D01*
X142902359Y-111479064D01*
X142776918Y-111575318D01*
X142680664Y-111700759D01*
X142620156Y-111846838D01*
X142599518Y-112003600D01*
X142236082Y-112003600D01*
X142215444Y-111846838D01*
X142154936Y-111700759D01*
X142058682Y-111575318D01*
X141994633Y-111526171D01*
X141959977Y-111475748D01*
X141955900Y-111447630D01*
X141955900Y-110987600D01*
X148644718Y-110987600D01*
X148665356Y-111144362D01*
X148725864Y-111290441D01*
X148822118Y-111415882D01*
X148947559Y-111512136D01*
X149093638Y-111572644D01*
X149250400Y-111593282D01*
X149407162Y-111572644D01*
X149553241Y-111512136D01*
X149678682Y-111415882D01*
X149774936Y-111290441D01*
X149835444Y-111144362D01*
X149856082Y-110987600D01*
X149835444Y-110830838D01*
X149774936Y-110684759D01*
X149678682Y-110559318D01*
X149553241Y-110463064D01*
X149435446Y-110414271D01*
X149413159Y-110405040D01*
X149407162Y-110402556D01*
X149250400Y-110381918D01*
X149093638Y-110402556D01*
X149087641Y-110405040D01*
X149065354Y-110414271D01*
X148947559Y-110463064D01*
X148822118Y-110559318D01*
X148725864Y-110684759D01*
X148665356Y-110830838D01*
X148644718Y-110987600D01*
X141955900Y-110987600D01*
X141955900Y-109934211D01*
X146455594Y-109934211D01*
X146456249Y-109940144D01*
X146456249Y-109940148D01*
X146468641Y-110052391D01*
X146474199Y-110102735D01*
X146532466Y-110261956D01*
X146535791Y-110266905D01*
X146535792Y-110266906D01*
X146548889Y-110286396D01*
X146627030Y-110402683D01*
X146649477Y-110423108D01*
X146737673Y-110503360D01*
X146752433Y-110516791D01*
X146901435Y-110597692D01*
X146936389Y-110606862D01*
X147059664Y-110639203D01*
X147059668Y-110639204D01*
X147065433Y-110640716D01*
X147071394Y-110640810D01*
X147071397Y-110640810D01*
X147150165Y-110642047D01*
X147234960Y-110643379D01*
X147240775Y-110642047D01*
X147240777Y-110642047D01*
X147394406Y-110606862D01*
X147394409Y-110606861D01*
X147400229Y-110605528D01*
X147415810Y-110597692D01*
X147546365Y-110532029D01*
X147551698Y-110529347D01*
X147556235Y-110525472D01*
X147556238Y-110525470D01*
X147676088Y-110423108D01*
X147676091Y-110423105D01*
X147680623Y-110419234D01*
X147689630Y-110406700D01*
X147776077Y-110286396D01*
X147776078Y-110286394D01*
X147779561Y-110281547D01*
X147800770Y-110228790D01*
X147840577Y-110129767D01*
X147840578Y-110129765D01*
X147842801Y-110124234D01*
X147848590Y-110083559D01*
X147866234Y-109959585D01*
X147866234Y-109959579D01*
X147866690Y-109956378D01*
X147866845Y-109941600D01*
X147864328Y-109920800D01*
X151133918Y-109920800D01*
X151154556Y-110077562D01*
X151215064Y-110223641D01*
X151311318Y-110349082D01*
X151436759Y-110445336D01*
X151582838Y-110505844D01*
X151739600Y-110526482D01*
X151896362Y-110505844D01*
X152042441Y-110445336D01*
X152167882Y-110349082D01*
X152264136Y-110223641D01*
X152324644Y-110077562D01*
X152327958Y-110052391D01*
X152354300Y-109997166D01*
X152408071Y-109967972D01*
X152468733Y-109975959D01*
X152486371Y-109986767D01*
X152554359Y-110038936D01*
X152700438Y-110099444D01*
X152857200Y-110120082D01*
X153013962Y-110099444D01*
X153160041Y-110038936D01*
X153285482Y-109942682D01*
X153381736Y-109817241D01*
X153442244Y-109671162D01*
X153462882Y-109514400D01*
X153442244Y-109357638D01*
X153381736Y-109211559D01*
X153285482Y-109086118D01*
X153160041Y-108989864D01*
X153062560Y-108949486D01*
X153016035Y-108909749D01*
X153001751Y-108850255D01*
X153025166Y-108793727D01*
X153050944Y-108772286D01*
X153052444Y-108771420D01*
X153058441Y-108768936D01*
X153183882Y-108672682D01*
X153280136Y-108547241D01*
X153340644Y-108401162D01*
X153361282Y-108244400D01*
X153340644Y-108087638D01*
X153280136Y-107941559D01*
X153183882Y-107816118D01*
X153058441Y-107719864D01*
X152912362Y-107659356D01*
X152755600Y-107638718D01*
X152598838Y-107659356D01*
X152452759Y-107719864D01*
X152327318Y-107816118D01*
X152231064Y-107941559D01*
X152170556Y-108087638D01*
X152149918Y-108244400D01*
X152170556Y-108401162D01*
X152231064Y-108547241D01*
X152327318Y-108672682D01*
X152452759Y-108768936D01*
X152460847Y-108772286D01*
X152550240Y-108809314D01*
X152596765Y-108849051D01*
X152611049Y-108908545D01*
X152587634Y-108965073D01*
X152561856Y-108986514D01*
X152560356Y-108987380D01*
X152554359Y-108989864D01*
X152428918Y-109086118D01*
X152332664Y-109211559D01*
X152272156Y-109357638D01*
X152269785Y-109375647D01*
X152268842Y-109382809D01*
X152242500Y-109438034D01*
X152188729Y-109467228D01*
X152128067Y-109459241D01*
X152110429Y-109448433D01*
X152042441Y-109396264D01*
X151896362Y-109335756D01*
X151739600Y-109315118D01*
X151582838Y-109335756D01*
X151436759Y-109396264D01*
X151311318Y-109492518D01*
X151215064Y-109617959D01*
X151154556Y-109764038D01*
X151133918Y-109920800D01*
X147864328Y-109920800D01*
X147851361Y-109813646D01*
X147847193Y-109779202D01*
X147847192Y-109779199D01*
X147846476Y-109773280D01*
X147786545Y-109614677D01*
X147690512Y-109474949D01*
X147563921Y-109362160D01*
X147555381Y-109357638D01*
X147512453Y-109334909D01*
X147414081Y-109282824D01*
X147331861Y-109262172D01*
X147255431Y-109242973D01*
X147255428Y-109242973D01*
X147249641Y-109241519D01*
X147164041Y-109241071D01*
X147086061Y-109240662D01*
X147086059Y-109240662D01*
X147080095Y-109240631D01*
X147074299Y-109242023D01*
X147074295Y-109242023D01*
X146966903Y-109267807D01*
X146915232Y-109280212D01*
X146847603Y-109315118D01*
X146769875Y-109355236D01*
X146769873Y-109355238D01*
X146764569Y-109357975D01*
X146636804Y-109469431D01*
X146633373Y-109474313D01*
X146633372Y-109474314D01*
X146609721Y-109507966D01*
X146539313Y-109608147D01*
X146477724Y-109766113D01*
X146455594Y-109934211D01*
X141955900Y-109934211D01*
X141955900Y-107394211D01*
X146455594Y-107394211D01*
X146456249Y-107400144D01*
X146456249Y-107400148D01*
X146464088Y-107471152D01*
X146474199Y-107562735D01*
X146532466Y-107721956D01*
X146535791Y-107726905D01*
X146535792Y-107726906D01*
X146548889Y-107746396D01*
X146627030Y-107862683D01*
X146752433Y-107976791D01*
X146901435Y-108057692D01*
X146936389Y-108066862D01*
X147059664Y-108099203D01*
X147059668Y-108099204D01*
X147065433Y-108100716D01*
X147071394Y-108100810D01*
X147071397Y-108100810D01*
X147150196Y-108102047D01*
X147234960Y-108103379D01*
X147240775Y-108102047D01*
X147240777Y-108102047D01*
X147394406Y-108066862D01*
X147394409Y-108066861D01*
X147400229Y-108065528D01*
X147415810Y-108057692D01*
X147546365Y-107992029D01*
X147551698Y-107989347D01*
X147556235Y-107985472D01*
X147556238Y-107985470D01*
X147676088Y-107883108D01*
X147676091Y-107883105D01*
X147680623Y-107879234D01*
X147722274Y-107821271D01*
X147776077Y-107746396D01*
X147776078Y-107746394D01*
X147779561Y-107741547D01*
X147786690Y-107723815D01*
X147840577Y-107589767D01*
X147840578Y-107589765D01*
X147842801Y-107584234D01*
X147858895Y-107471152D01*
X147866234Y-107419585D01*
X147866234Y-107419579D01*
X147866690Y-107416378D01*
X147866845Y-107401600D01*
X147846476Y-107233280D01*
X147786545Y-107074677D01*
X147690512Y-106934949D01*
X147563921Y-106822160D01*
X147414081Y-106742824D01*
X147326341Y-106720785D01*
X147255431Y-106702973D01*
X147255428Y-106702973D01*
X147249641Y-106701519D01*
X147164041Y-106701071D01*
X147086061Y-106700662D01*
X147086059Y-106700662D01*
X147080095Y-106700631D01*
X147074299Y-106702023D01*
X147074295Y-106702023D01*
X146966903Y-106727807D01*
X146915232Y-106740212D01*
X146839901Y-106779093D01*
X146769875Y-106815236D01*
X146769873Y-106815238D01*
X146764569Y-106817975D01*
X146636804Y-106929431D01*
X146539313Y-107068147D01*
X146477724Y-107226113D01*
X146455594Y-107394211D01*
X141955900Y-107394211D01*
X141955900Y-105853970D01*
X141974807Y-105795779D01*
X141994633Y-105775428D01*
X141999208Y-105771918D01*
X142058682Y-105726282D01*
X142154936Y-105600841D01*
X142215444Y-105454762D01*
X142236082Y-105298000D01*
X142215444Y-105141238D01*
X142154936Y-104995159D01*
X142058682Y-104869718D01*
X141933241Y-104773464D01*
X141787162Y-104712956D01*
X141630400Y-104692318D01*
X141473638Y-104712956D01*
X141327559Y-104773464D01*
X141202118Y-104869718D01*
X141200510Y-104867623D01*
X141155987Y-104890308D01*
X141095555Y-104880737D01*
X141052290Y-104837472D01*
X141041500Y-104792527D01*
X141041500Y-103847303D01*
X141060407Y-103789112D01*
X141080228Y-103768765D01*
X141096263Y-103756461D01*
X141192517Y-103631020D01*
X141253025Y-103484941D01*
X141263726Y-103403662D01*
X141844920Y-103403662D01*
X141845325Y-103408482D01*
X141861747Y-103604044D01*
X141862159Y-103608953D01*
X141863492Y-103613601D01*
X141863492Y-103613602D01*
X141916506Y-103798482D01*
X141918944Y-103806986D01*
X142013112Y-103990218D01*
X142141077Y-104151670D01*
X142144757Y-104154802D01*
X142144759Y-104154804D01*
X142257417Y-104250683D01*
X142297964Y-104285191D01*
X142302187Y-104287551D01*
X142302191Y-104287554D01*
X142345648Y-104311841D01*
X142477798Y-104385697D01*
X142482396Y-104387191D01*
X142669124Y-104447863D01*
X142669126Y-104447864D01*
X142673729Y-104449359D01*
X142878294Y-104473751D01*
X142883116Y-104473380D01*
X142883119Y-104473380D01*
X142953659Y-104467952D01*
X143083700Y-104457946D01*
X143282125Y-104402545D01*
X143286438Y-104400366D01*
X143286444Y-104400364D01*
X143461689Y-104311841D01*
X143461691Y-104311840D01*
X143466010Y-104309658D01*
X143494302Y-104287554D01*
X143624535Y-104185806D01*
X143624539Y-104185802D01*
X143628351Y-104182824D01*
X143631833Y-104178791D01*
X143687713Y-104114051D01*
X143762964Y-104026872D01*
X143781785Y-103993741D01*
X143862334Y-103851950D01*
X143862335Y-103851947D01*
X143864723Y-103847744D01*
X143866320Y-103842946D01*
X143928224Y-103656854D01*
X143928224Y-103656852D01*
X143929751Y-103652263D01*
X143930373Y-103647344D01*
X143955223Y-103450628D01*
X143955571Y-103447874D01*
X143955983Y-103418400D01*
X143954538Y-103403662D01*
X144384920Y-103403662D01*
X144385325Y-103408482D01*
X144401747Y-103604044D01*
X144402159Y-103608953D01*
X144403492Y-103613601D01*
X144403492Y-103613602D01*
X144456506Y-103798482D01*
X144458944Y-103806986D01*
X144553112Y-103990218D01*
X144681077Y-104151670D01*
X144684757Y-104154802D01*
X144684759Y-104154804D01*
X144797417Y-104250683D01*
X144837964Y-104285191D01*
X144842187Y-104287551D01*
X144842191Y-104287554D01*
X144885648Y-104311841D01*
X145017798Y-104385697D01*
X145022396Y-104387191D01*
X145209124Y-104447863D01*
X145209126Y-104447864D01*
X145213729Y-104449359D01*
X145418294Y-104473751D01*
X145423116Y-104473380D01*
X145423119Y-104473380D01*
X145493659Y-104467952D01*
X145623700Y-104457946D01*
X145822125Y-104402545D01*
X145826438Y-104400366D01*
X145826444Y-104400364D01*
X146001689Y-104311841D01*
X146001691Y-104311840D01*
X146006010Y-104309658D01*
X146034302Y-104287554D01*
X146164535Y-104185806D01*
X146164539Y-104185802D01*
X146168351Y-104182824D01*
X146171833Y-104178791D01*
X146227713Y-104114051D01*
X146302964Y-104026872D01*
X146321785Y-103993741D01*
X146402334Y-103851950D01*
X146402335Y-103851947D01*
X146404723Y-103847744D01*
X146406320Y-103842946D01*
X146468224Y-103656854D01*
X146468224Y-103656852D01*
X146469751Y-103652263D01*
X146470373Y-103647344D01*
X146495223Y-103450628D01*
X146495571Y-103447874D01*
X146495983Y-103418400D01*
X146494538Y-103403662D01*
X146924920Y-103403662D01*
X146925325Y-103408482D01*
X146941747Y-103604044D01*
X146942159Y-103608953D01*
X146943492Y-103613601D01*
X146943492Y-103613602D01*
X146996506Y-103798482D01*
X146998944Y-103806986D01*
X147093112Y-103990218D01*
X147221077Y-104151670D01*
X147224757Y-104154802D01*
X147224759Y-104154804D01*
X147337417Y-104250683D01*
X147377964Y-104285191D01*
X147382187Y-104287551D01*
X147382191Y-104287554D01*
X147425648Y-104311841D01*
X147557798Y-104385697D01*
X147562396Y-104387191D01*
X147749124Y-104447863D01*
X147749126Y-104447864D01*
X147753729Y-104449359D01*
X147958294Y-104473751D01*
X147963116Y-104473380D01*
X147963119Y-104473380D01*
X148033659Y-104467952D01*
X148163700Y-104457946D01*
X148362125Y-104402545D01*
X148366438Y-104400366D01*
X148366444Y-104400364D01*
X148541689Y-104311841D01*
X148541691Y-104311840D01*
X148546010Y-104309658D01*
X148574302Y-104287554D01*
X148704535Y-104185806D01*
X148704539Y-104185802D01*
X148708351Y-104182824D01*
X148711833Y-104178791D01*
X148767713Y-104114051D01*
X148842964Y-104026872D01*
X148861785Y-103993741D01*
X148942334Y-103851950D01*
X148942335Y-103851947D01*
X148944723Y-103847744D01*
X148946320Y-103842946D01*
X149008224Y-103656854D01*
X149008224Y-103656852D01*
X149009751Y-103652263D01*
X149010373Y-103647344D01*
X149025418Y-103528246D01*
X149475883Y-103528246D01*
X149482247Y-103604044D01*
X149483985Y-103613511D01*
X149538074Y-103802143D01*
X149541625Y-103811111D01*
X149631319Y-103985636D01*
X149636542Y-103993741D01*
X149758437Y-104147534D01*
X149765120Y-104154455D01*
X149914564Y-104281641D01*
X149922478Y-104287142D01*
X150093773Y-104382875D01*
X150102601Y-104386732D01*
X150289238Y-104447374D01*
X150298638Y-104449441D01*
X150404832Y-104462104D01*
X150417914Y-104459513D01*
X150419355Y-104457957D01*
X150420400Y-104453203D01*
X150420400Y-104448175D01*
X150620400Y-104448175D01*
X150624522Y-104460860D01*
X150627135Y-104462759D01*
X150630079Y-104463110D01*
X150698785Y-104457824D01*
X150708276Y-104456150D01*
X150897282Y-104403378D01*
X150906262Y-104399896D01*
X151081420Y-104311417D01*
X151089555Y-104306254D01*
X151244187Y-104185442D01*
X151251171Y-104178791D01*
X151379390Y-104030248D01*
X151384946Y-104022373D01*
X151481871Y-103851753D01*
X151485792Y-103842946D01*
X151547734Y-103656746D01*
X151549869Y-103647344D01*
X151564194Y-103533956D01*
X151561694Y-103520855D01*
X151560284Y-103519530D01*
X151555229Y-103518400D01*
X150636080Y-103518400D01*
X150623395Y-103522522D01*
X150620400Y-103526643D01*
X150620400Y-104448175D01*
X150420400Y-104448175D01*
X150420400Y-103534080D01*
X150416278Y-103521395D01*
X150412157Y-103518400D01*
X149490736Y-103518400D01*
X149478051Y-103522522D01*
X149476260Y-103524986D01*
X149475883Y-103528246D01*
X149025418Y-103528246D01*
X149035223Y-103450628D01*
X149035571Y-103447874D01*
X149035983Y-103418400D01*
X149034538Y-103403662D01*
X152004920Y-103403662D01*
X152005325Y-103408482D01*
X152021747Y-103604044D01*
X152022159Y-103608953D01*
X152023492Y-103613601D01*
X152023492Y-103613602D01*
X152076506Y-103798482D01*
X152078944Y-103806986D01*
X152173112Y-103990218D01*
X152301077Y-104151670D01*
X152304757Y-104154802D01*
X152304759Y-104154804D01*
X152417417Y-104250683D01*
X152457964Y-104285191D01*
X152462187Y-104287551D01*
X152462191Y-104287554D01*
X152505648Y-104311841D01*
X152637798Y-104385697D01*
X152642396Y-104387191D01*
X152829124Y-104447863D01*
X152829126Y-104447864D01*
X152833729Y-104449359D01*
X153038294Y-104473751D01*
X153043116Y-104473380D01*
X153043119Y-104473380D01*
X153113659Y-104467952D01*
X153243700Y-104457946D01*
X153442125Y-104402545D01*
X153446438Y-104400366D01*
X153446444Y-104400364D01*
X153621689Y-104311841D01*
X153621691Y-104311840D01*
X153626010Y-104309658D01*
X153653542Y-104288148D01*
X154549900Y-104288148D01*
X154561533Y-104346631D01*
X154605848Y-104412952D01*
X154672169Y-104457267D01*
X154681732Y-104459169D01*
X154681734Y-104459170D01*
X154704405Y-104463679D01*
X154730652Y-104468900D01*
X156470148Y-104468900D01*
X156496395Y-104463679D01*
X156519066Y-104459170D01*
X156519068Y-104459169D01*
X156528631Y-104457267D01*
X156594952Y-104412952D01*
X156639267Y-104346631D01*
X156650900Y-104288148D01*
X156650900Y-102548652D01*
X156639267Y-102490169D01*
X156594952Y-102423848D01*
X156528631Y-102379533D01*
X156519068Y-102377631D01*
X156519066Y-102377630D01*
X156496395Y-102373121D01*
X156470148Y-102367900D01*
X154730652Y-102367900D01*
X154704405Y-102373121D01*
X154681734Y-102377630D01*
X154681732Y-102377631D01*
X154672169Y-102379533D01*
X154605848Y-102423848D01*
X154561533Y-102490169D01*
X154549900Y-102548652D01*
X154549900Y-104288148D01*
X153653542Y-104288148D01*
X153654302Y-104287554D01*
X153784535Y-104185806D01*
X153784539Y-104185802D01*
X153788351Y-104182824D01*
X153791833Y-104178791D01*
X153847713Y-104114051D01*
X153922964Y-104026872D01*
X153941785Y-103993741D01*
X154022334Y-103851950D01*
X154022335Y-103851947D01*
X154024723Y-103847744D01*
X154026320Y-103842946D01*
X154088224Y-103656854D01*
X154088224Y-103656852D01*
X154089751Y-103652263D01*
X154090373Y-103647344D01*
X154115223Y-103450628D01*
X154115571Y-103447874D01*
X154115983Y-103418400D01*
X154106084Y-103317439D01*
X154096352Y-103218180D01*
X154096351Y-103218176D01*
X154095880Y-103213370D01*
X154090159Y-103194419D01*
X154055412Y-103079336D01*
X154036335Y-103016149D01*
X153939618Y-102834249D01*
X153809411Y-102674600D01*
X153662091Y-102552726D01*
X153654402Y-102546365D01*
X153654400Y-102546364D01*
X153650675Y-102543282D01*
X153469455Y-102445297D01*
X153400164Y-102423848D01*
X153277275Y-102385807D01*
X153277271Y-102385806D01*
X153272654Y-102384377D01*
X153267846Y-102383872D01*
X153267843Y-102383871D01*
X153072585Y-102363349D01*
X153072583Y-102363349D01*
X153067769Y-102362843D01*
X153012200Y-102367900D01*
X152867422Y-102381075D01*
X152867417Y-102381076D01*
X152862603Y-102381514D01*
X152664972Y-102439680D01*
X152660688Y-102441919D01*
X152660687Y-102441920D01*
X152592928Y-102477344D01*
X152482402Y-102535126D01*
X152478631Y-102538158D01*
X152325620Y-102661181D01*
X152325617Y-102661183D01*
X152321847Y-102664215D01*
X152318733Y-102667926D01*
X152318732Y-102667927D01*
X152204853Y-102803643D01*
X152189424Y-102822030D01*
X152187089Y-102826278D01*
X152187088Y-102826279D01*
X152169847Y-102857641D01*
X152090176Y-103002562D01*
X152088713Y-103007175D01*
X152088711Y-103007179D01*
X152085866Y-103016149D01*
X152027884Y-103198932D01*
X152027344Y-103203744D01*
X152027344Y-103203745D01*
X152013387Y-103328179D01*
X152004920Y-103403662D01*
X149034538Y-103403662D01*
X149026084Y-103317439D01*
X149024650Y-103302817D01*
X149476734Y-103302817D01*
X149479416Y-103315884D01*
X149481119Y-103317439D01*
X149485565Y-103318400D01*
X150404720Y-103318400D01*
X150417405Y-103314278D01*
X150420400Y-103310157D01*
X150420400Y-103302720D01*
X150620400Y-103302720D01*
X150624522Y-103315405D01*
X150628643Y-103318400D01*
X151549996Y-103318400D01*
X151562681Y-103314278D01*
X151564254Y-103312113D01*
X151564678Y-103308218D01*
X151555859Y-103218285D01*
X151553989Y-103208837D01*
X151497269Y-103020972D01*
X151493599Y-103012068D01*
X151401472Y-102838801D01*
X151396140Y-102830776D01*
X151272116Y-102678707D01*
X151265322Y-102671866D01*
X151114121Y-102546781D01*
X151106138Y-102541397D01*
X150933514Y-102448060D01*
X150924643Y-102444331D01*
X150737175Y-102386300D01*
X150727741Y-102384363D01*
X150635994Y-102374720D01*
X150622948Y-102377493D01*
X150621281Y-102379345D01*
X150620400Y-102383488D01*
X150620400Y-103302720D01*
X150420400Y-103302720D01*
X150420400Y-102388796D01*
X150416278Y-102376111D01*
X150413963Y-102374428D01*
X150410387Y-102374027D01*
X150327517Y-102381568D01*
X150318054Y-102383374D01*
X150129807Y-102438778D01*
X150120866Y-102442391D01*
X149946973Y-102533299D01*
X149938897Y-102538584D01*
X149785971Y-102661540D01*
X149779087Y-102668281D01*
X149652951Y-102818605D01*
X149647504Y-102826559D01*
X149552973Y-102998511D01*
X149549173Y-103007376D01*
X149489840Y-103194419D01*
X149487835Y-103203850D01*
X149476734Y-103302817D01*
X149024650Y-103302817D01*
X149016352Y-103218180D01*
X149016351Y-103218176D01*
X149015880Y-103213370D01*
X149010159Y-103194419D01*
X148975412Y-103079336D01*
X148956335Y-103016149D01*
X148859618Y-102834249D01*
X148729411Y-102674600D01*
X148582091Y-102552726D01*
X148574402Y-102546365D01*
X148574400Y-102546364D01*
X148570675Y-102543282D01*
X148389455Y-102445297D01*
X148320164Y-102423848D01*
X148197275Y-102385807D01*
X148197271Y-102385806D01*
X148192654Y-102384377D01*
X148187846Y-102383872D01*
X148187843Y-102383871D01*
X147992585Y-102363349D01*
X147992583Y-102363349D01*
X147987769Y-102362843D01*
X147932200Y-102367900D01*
X147787422Y-102381075D01*
X147787417Y-102381076D01*
X147782603Y-102381514D01*
X147584972Y-102439680D01*
X147580688Y-102441919D01*
X147580687Y-102441920D01*
X147512928Y-102477344D01*
X147402402Y-102535126D01*
X147398631Y-102538158D01*
X147245620Y-102661181D01*
X147245617Y-102661183D01*
X147241847Y-102664215D01*
X147238733Y-102667926D01*
X147238732Y-102667927D01*
X147124853Y-102803643D01*
X147109424Y-102822030D01*
X147107089Y-102826278D01*
X147107088Y-102826279D01*
X147089847Y-102857641D01*
X147010176Y-103002562D01*
X147008713Y-103007175D01*
X147008711Y-103007179D01*
X147005866Y-103016149D01*
X146947884Y-103198932D01*
X146947344Y-103203744D01*
X146947344Y-103203745D01*
X146933387Y-103328179D01*
X146924920Y-103403662D01*
X146494538Y-103403662D01*
X146486084Y-103317439D01*
X146476352Y-103218180D01*
X146476351Y-103218176D01*
X146475880Y-103213370D01*
X146470159Y-103194419D01*
X146435412Y-103079336D01*
X146416335Y-103016149D01*
X146319618Y-102834249D01*
X146189411Y-102674600D01*
X146042091Y-102552726D01*
X146034402Y-102546365D01*
X146034400Y-102546364D01*
X146030675Y-102543282D01*
X145849455Y-102445297D01*
X145780164Y-102423848D01*
X145657275Y-102385807D01*
X145657271Y-102385806D01*
X145652654Y-102384377D01*
X145647846Y-102383872D01*
X145647843Y-102383871D01*
X145452585Y-102363349D01*
X145452583Y-102363349D01*
X145447769Y-102362843D01*
X145392200Y-102367900D01*
X145247422Y-102381075D01*
X145247417Y-102381076D01*
X145242603Y-102381514D01*
X145044972Y-102439680D01*
X145040688Y-102441919D01*
X145040687Y-102441920D01*
X144972928Y-102477344D01*
X144862402Y-102535126D01*
X144858631Y-102538158D01*
X144705620Y-102661181D01*
X144705617Y-102661183D01*
X144701847Y-102664215D01*
X144698733Y-102667926D01*
X144698732Y-102667927D01*
X144584853Y-102803643D01*
X144569424Y-102822030D01*
X144567089Y-102826278D01*
X144567088Y-102826279D01*
X144549847Y-102857641D01*
X144470176Y-103002562D01*
X144468713Y-103007175D01*
X144468711Y-103007179D01*
X144465866Y-103016149D01*
X144407884Y-103198932D01*
X144407344Y-103203744D01*
X144407344Y-103203745D01*
X144393387Y-103328179D01*
X144384920Y-103403662D01*
X143954538Y-103403662D01*
X143946084Y-103317439D01*
X143936352Y-103218180D01*
X143936351Y-103218176D01*
X143935880Y-103213370D01*
X143930159Y-103194419D01*
X143895412Y-103079336D01*
X143876335Y-103016149D01*
X143779618Y-102834249D01*
X143649411Y-102674600D01*
X143502091Y-102552726D01*
X143494402Y-102546365D01*
X143494400Y-102546364D01*
X143490675Y-102543282D01*
X143309455Y-102445297D01*
X143240164Y-102423848D01*
X143117275Y-102385807D01*
X143117271Y-102385806D01*
X143112654Y-102384377D01*
X143107846Y-102383872D01*
X143107843Y-102383871D01*
X142912585Y-102363349D01*
X142912583Y-102363349D01*
X142907769Y-102362843D01*
X142852200Y-102367900D01*
X142707422Y-102381075D01*
X142707417Y-102381076D01*
X142702603Y-102381514D01*
X142504972Y-102439680D01*
X142500688Y-102441919D01*
X142500687Y-102441920D01*
X142432928Y-102477344D01*
X142322402Y-102535126D01*
X142318631Y-102538158D01*
X142165620Y-102661181D01*
X142165617Y-102661183D01*
X142161847Y-102664215D01*
X142158733Y-102667926D01*
X142158732Y-102667927D01*
X142044853Y-102803643D01*
X142029424Y-102822030D01*
X142027089Y-102826278D01*
X142027088Y-102826279D01*
X142009847Y-102857641D01*
X141930176Y-103002562D01*
X141928713Y-103007175D01*
X141928711Y-103007179D01*
X141925866Y-103016149D01*
X141867884Y-103198932D01*
X141867344Y-103203744D01*
X141867344Y-103203745D01*
X141853387Y-103328179D01*
X141844920Y-103403662D01*
X141263726Y-103403662D01*
X141273663Y-103328179D01*
X141253025Y-103171417D01*
X141192517Y-103025338D01*
X141096263Y-102899897D01*
X140970822Y-102803643D01*
X140824743Y-102743135D01*
X140667981Y-102722497D01*
X140511219Y-102743135D01*
X140479752Y-102756169D01*
X140418757Y-102760970D01*
X140366587Y-102729001D01*
X140343172Y-102672473D01*
X140343714Y-102651783D01*
X140355635Y-102561234D01*
X140356482Y-102554800D01*
X140354718Y-102541397D01*
X140342429Y-102448060D01*
X140335844Y-102398038D01*
X140275336Y-102251959D01*
X140179082Y-102126518D01*
X140053641Y-102030264D01*
X139907562Y-101969756D01*
X139750800Y-101949118D01*
X139594038Y-101969756D01*
X139447959Y-102030264D01*
X139322518Y-102126518D01*
X139226264Y-102251959D01*
X139165756Y-102398038D01*
X139159171Y-102448060D01*
X139146883Y-102541397D01*
X139145118Y-102554800D01*
X137491618Y-102554800D01*
X137511682Y-102402400D01*
X137491044Y-102245638D01*
X137430536Y-102099559D01*
X137334282Y-101974118D01*
X137208841Y-101877864D01*
X137062762Y-101817356D01*
X136906000Y-101796718D01*
X136749238Y-101817356D01*
X136603159Y-101877864D01*
X136477718Y-101974118D01*
X136381464Y-102099559D01*
X136320956Y-102245638D01*
X136300318Y-102402400D01*
X128368400Y-102402400D01*
X128368400Y-101498400D01*
X148847918Y-101498400D01*
X148868556Y-101655162D01*
X148929064Y-101801241D01*
X149025318Y-101926682D01*
X149150759Y-102022936D01*
X149296838Y-102083444D01*
X149453600Y-102104082D01*
X149610362Y-102083444D01*
X149756441Y-102022936D01*
X149881882Y-101926682D01*
X149978136Y-101801241D01*
X150038644Y-101655162D01*
X150059282Y-101498400D01*
X150038644Y-101341638D01*
X149978136Y-101195559D01*
X149881882Y-101070118D01*
X149756441Y-100973864D01*
X149610362Y-100913356D01*
X149453600Y-100892718D01*
X149296838Y-100913356D01*
X149150759Y-100973864D01*
X149025318Y-101070118D01*
X148929064Y-101195559D01*
X148868556Y-101341638D01*
X148847918Y-101498400D01*
X128368400Y-101498400D01*
X128368400Y-100421200D01*
X130559918Y-100421200D01*
X130580556Y-100577962D01*
X130641064Y-100724041D01*
X130737318Y-100849482D01*
X130862759Y-100945736D01*
X131008838Y-101006244D01*
X131165600Y-101026882D01*
X131322362Y-101006244D01*
X131401413Y-100973500D01*
X131462410Y-100968699D01*
X131514579Y-101000669D01*
X131530763Y-101027078D01*
X131566315Y-101112907D01*
X131662569Y-101238348D01*
X131788010Y-101334602D01*
X131934089Y-101395110D01*
X132090851Y-101415748D01*
X132247613Y-101395110D01*
X132393692Y-101334602D01*
X132519133Y-101238348D01*
X132615387Y-101112907D01*
X132675895Y-100966828D01*
X132696533Y-100810066D01*
X132675895Y-100653304D01*
X132615387Y-100507225D01*
X132519133Y-100381784D01*
X132393692Y-100285530D01*
X132247613Y-100225022D01*
X132090851Y-100204384D01*
X131934089Y-100225022D01*
X131928092Y-100227506D01*
X131855038Y-100257766D01*
X131794041Y-100262567D01*
X131741872Y-100230597D01*
X131725688Y-100204188D01*
X131692619Y-100124354D01*
X131690136Y-100118359D01*
X131593882Y-99992918D01*
X131468441Y-99896664D01*
X131385721Y-99862400D01*
X135131918Y-99862400D01*
X135152556Y-100019162D01*
X135213064Y-100165241D01*
X135309318Y-100290682D01*
X135434759Y-100386936D01*
X135580838Y-100447444D01*
X135737600Y-100468082D01*
X135894362Y-100447444D01*
X136040441Y-100386936D01*
X136165882Y-100290682D01*
X136262136Y-100165241D01*
X136322644Y-100019162D01*
X136343282Y-99862400D01*
X136322644Y-99705638D01*
X136262136Y-99559559D01*
X136165882Y-99434118D01*
X136040441Y-99337864D01*
X135894362Y-99277356D01*
X135874590Y-99274753D01*
X135819365Y-99248412D01*
X135790170Y-99194641D01*
X135798156Y-99133980D01*
X135840273Y-99089597D01*
X135874590Y-99078447D01*
X135894362Y-99075844D01*
X136040441Y-99015336D01*
X136165882Y-98919082D01*
X136262136Y-98793641D01*
X136269242Y-98776485D01*
X137709418Y-98776485D01*
X137730056Y-98933247D01*
X137790564Y-99079326D01*
X137886818Y-99204767D01*
X138012259Y-99301021D01*
X138158338Y-99361529D01*
X138315100Y-99382167D01*
X138471862Y-99361529D01*
X138617941Y-99301021D01*
X138743382Y-99204767D01*
X138839636Y-99079326D01*
X138847641Y-99060000D01*
X145495118Y-99060000D01*
X145515756Y-99216762D01*
X145576264Y-99362841D01*
X145672518Y-99488282D01*
X145797959Y-99584536D01*
X145944038Y-99645044D01*
X146100800Y-99665682D01*
X146257562Y-99645044D01*
X146403641Y-99584536D01*
X146529082Y-99488282D01*
X146625336Y-99362841D01*
X146674027Y-99245290D01*
X152826546Y-99245290D01*
X152826985Y-99250112D01*
X152844200Y-99439271D01*
X152845573Y-99454362D01*
X152846939Y-99459004D01*
X152846940Y-99459008D01*
X152883885Y-99584536D01*
X152904847Y-99655757D01*
X153002109Y-99841803D01*
X153005145Y-99845579D01*
X153005147Y-99845582D01*
X153049395Y-99900615D01*
X153133656Y-100005414D01*
X153137361Y-100008523D01*
X153137364Y-100008526D01*
X153275403Y-100124354D01*
X153294476Y-100140358D01*
X153478445Y-100241496D01*
X153483057Y-100242959D01*
X153673935Y-100303509D01*
X153673937Y-100303509D01*
X153678554Y-100304974D01*
X153776398Y-100315949D01*
X153839180Y-100322991D01*
X153839182Y-100322991D01*
X153841936Y-100323300D01*
X154405030Y-100323300D01*
X154407424Y-100323065D01*
X154407429Y-100323065D01*
X154556324Y-100308466D01*
X154556328Y-100308465D01*
X154561134Y-100307994D01*
X154565759Y-100306598D01*
X154565762Y-100306597D01*
X154643763Y-100283047D01*
X154762110Y-100247316D01*
X154947472Y-100148757D01*
X155110161Y-100016071D01*
X155243979Y-99854313D01*
X155343830Y-99669643D01*
X155405910Y-99469095D01*
X155406971Y-99459008D01*
X155427348Y-99265126D01*
X155427348Y-99265124D01*
X155427854Y-99260310D01*
X155416357Y-99133980D01*
X155409266Y-99056058D01*
X155409265Y-99056055D01*
X155408827Y-99051238D01*
X155398992Y-99017819D01*
X155350921Y-98854490D01*
X155350920Y-98854487D01*
X155349553Y-98849843D01*
X155252291Y-98663797D01*
X155244060Y-98653559D01*
X155123777Y-98503958D01*
X155123776Y-98503957D01*
X155120744Y-98500186D01*
X155117039Y-98497077D01*
X155117036Y-98497074D01*
X154963639Y-98368359D01*
X154963637Y-98368358D01*
X154959924Y-98365242D01*
X154938304Y-98353356D01*
X154780195Y-98266435D01*
X154775955Y-98264104D01*
X154750093Y-98255900D01*
X154580465Y-98202091D01*
X154580463Y-98202091D01*
X154575846Y-98200626D01*
X154462916Y-98187959D01*
X154415220Y-98182609D01*
X154415218Y-98182609D01*
X154412464Y-98182300D01*
X153849370Y-98182300D01*
X153846976Y-98182535D01*
X153846971Y-98182535D01*
X153698076Y-98197134D01*
X153698072Y-98197135D01*
X153693266Y-98197606D01*
X153688641Y-98199002D01*
X153688638Y-98199003D01*
X153657203Y-98208494D01*
X153492290Y-98258284D01*
X153306928Y-98356843D01*
X153144239Y-98489529D01*
X153141155Y-98493257D01*
X153141154Y-98493258D01*
X153031209Y-98626159D01*
X153010421Y-98651287D01*
X152910570Y-98835957D01*
X152909141Y-98840574D01*
X152883615Y-98923036D01*
X152848490Y-99036505D01*
X152847985Y-99041313D01*
X152847984Y-99041316D01*
X152830221Y-99210326D01*
X152826546Y-99245290D01*
X146674027Y-99245290D01*
X146685844Y-99216762D01*
X146706482Y-99060000D01*
X146705329Y-99051238D01*
X146690584Y-98939244D01*
X146685844Y-98903238D01*
X146625336Y-98757159D01*
X146529082Y-98631718D01*
X146403641Y-98535464D01*
X146257562Y-98474956D01*
X146100800Y-98454318D01*
X145944038Y-98474956D01*
X145797959Y-98535464D01*
X145672518Y-98631718D01*
X145576264Y-98757159D01*
X145515756Y-98903238D01*
X145511016Y-98939244D01*
X145496272Y-99051238D01*
X145495118Y-99060000D01*
X138847641Y-99060000D01*
X138900144Y-98933247D01*
X138920782Y-98776485D01*
X138900144Y-98619723D01*
X138839636Y-98473644D01*
X138743382Y-98348203D01*
X138617941Y-98251949D01*
X138471862Y-98191441D01*
X138315100Y-98170803D01*
X138158338Y-98191441D01*
X138012259Y-98251949D01*
X137886818Y-98348203D01*
X137790564Y-98473644D01*
X137730056Y-98619723D01*
X137709418Y-98776485D01*
X136269242Y-98776485D01*
X136322644Y-98647562D01*
X136343282Y-98490800D01*
X136322644Y-98334038D01*
X136262136Y-98187959D01*
X136165882Y-98062518D01*
X136085917Y-98001159D01*
X136051263Y-97950735D01*
X136052812Y-97891600D01*
X139907118Y-97891600D01*
X139927756Y-98048362D01*
X139988264Y-98194441D01*
X140084518Y-98319882D01*
X140209959Y-98416136D01*
X140356038Y-98476644D01*
X140512800Y-98497282D01*
X140669562Y-98476644D01*
X140815641Y-98416136D01*
X140941082Y-98319882D01*
X141029770Y-98204301D01*
X141080194Y-98169645D01*
X141141359Y-98171246D01*
X141189900Y-98208494D01*
X141199775Y-98226680D01*
X141204979Y-98239244D01*
X141204982Y-98239250D01*
X141207464Y-98245241D01*
X141303718Y-98370682D01*
X141429159Y-98466936D01*
X141575238Y-98527444D01*
X141732000Y-98548082D01*
X141888762Y-98527444D01*
X142034841Y-98466936D01*
X142160282Y-98370682D01*
X142256536Y-98245241D01*
X142317044Y-98099162D01*
X142337682Y-97942400D01*
X142334914Y-97921371D01*
X142330860Y-97890582D01*
X142317044Y-97785638D01*
X142302402Y-97750289D01*
X142297601Y-97689294D01*
X142329570Y-97637124D01*
X142386098Y-97613709D01*
X142445593Y-97627992D01*
X142454133Y-97633862D01*
X142546759Y-97704936D01*
X142692838Y-97765444D01*
X142824031Y-97782716D01*
X142828469Y-97783300D01*
X142849600Y-97786082D01*
X142870732Y-97783300D01*
X142875169Y-97782716D01*
X143006362Y-97765444D01*
X143152441Y-97704936D01*
X143277882Y-97608682D01*
X143374136Y-97483241D01*
X143434644Y-97337162D01*
X143455282Y-97180400D01*
X143434644Y-97023638D01*
X143374136Y-96877559D01*
X143277882Y-96752118D01*
X143216854Y-96705290D01*
X152826546Y-96705290D01*
X152826985Y-96710112D01*
X152842865Y-96884603D01*
X152845573Y-96914362D01*
X152846939Y-96919004D01*
X152846940Y-96919008D01*
X152903479Y-97111110D01*
X152904847Y-97115757D01*
X153002109Y-97301803D01*
X153005145Y-97305579D01*
X153005147Y-97305582D01*
X153130623Y-97461642D01*
X153133656Y-97465414D01*
X153137361Y-97468523D01*
X153137364Y-97468526D01*
X153290761Y-97597241D01*
X153294476Y-97600358D01*
X153298724Y-97602694D01*
X153298725Y-97602694D01*
X153318761Y-97613709D01*
X153478445Y-97701496D01*
X153483057Y-97702959D01*
X153673935Y-97763509D01*
X153673937Y-97763509D01*
X153678554Y-97764974D01*
X153776398Y-97775949D01*
X153839180Y-97782991D01*
X153839182Y-97782991D01*
X153841936Y-97783300D01*
X154405030Y-97783300D01*
X154407424Y-97783065D01*
X154407429Y-97783065D01*
X154556324Y-97768466D01*
X154556328Y-97768465D01*
X154561134Y-97767994D01*
X154565759Y-97766598D01*
X154565762Y-97766597D01*
X154690815Y-97728841D01*
X154762110Y-97707316D01*
X154947472Y-97608757D01*
X155110161Y-97476071D01*
X155123982Y-97459364D01*
X155240896Y-97318040D01*
X155240897Y-97318038D01*
X155243979Y-97314313D01*
X155343830Y-97129643D01*
X155376644Y-97023638D01*
X155404480Y-96933716D01*
X155404481Y-96933712D01*
X155405910Y-96929095D01*
X155406971Y-96919008D01*
X155427348Y-96725126D01*
X155427348Y-96725124D01*
X155427854Y-96720310D01*
X155408827Y-96511238D01*
X155408211Y-96509146D01*
X155415770Y-96449277D01*
X155457651Y-96404672D01*
X155518273Y-96393270D01*
X155593966Y-96403235D01*
X155600400Y-96404082D01*
X155757162Y-96383444D01*
X155903241Y-96322936D01*
X156028682Y-96226682D01*
X156124936Y-96101241D01*
X156185444Y-95955162D01*
X156206082Y-95798400D01*
X156185444Y-95641638D01*
X156124936Y-95495559D01*
X156028682Y-95370118D01*
X155903241Y-95273864D01*
X155757162Y-95213356D01*
X155600400Y-95192718D01*
X155443638Y-95213356D01*
X155297559Y-95273864D01*
X155172118Y-95370118D01*
X155075864Y-95495559D01*
X155015356Y-95641638D01*
X155012566Y-95662834D01*
X155007982Y-95697650D01*
X154981641Y-95752875D01*
X154927871Y-95782070D01*
X154862135Y-95771482D01*
X154780195Y-95726435D01*
X154775955Y-95724104D01*
X154582807Y-95662834D01*
X154580465Y-95662091D01*
X154580463Y-95662091D01*
X154575846Y-95660626D01*
X154463941Y-95648074D01*
X154415220Y-95642609D01*
X154415218Y-95642609D01*
X154412464Y-95642300D01*
X153849370Y-95642300D01*
X153846976Y-95642535D01*
X153846971Y-95642535D01*
X153698076Y-95657134D01*
X153698072Y-95657135D01*
X153693266Y-95657606D01*
X153688641Y-95659002D01*
X153688638Y-95659003D01*
X153619388Y-95679911D01*
X153492290Y-95718284D01*
X153306928Y-95816843D01*
X153144239Y-95949529D01*
X153141155Y-95953257D01*
X153141154Y-95953258D01*
X153029160Y-96088636D01*
X153010421Y-96111287D01*
X152910570Y-96295957D01*
X152909141Y-96300574D01*
X152863110Y-96449277D01*
X152848490Y-96496505D01*
X152847985Y-96501313D01*
X152847984Y-96501316D01*
X152830684Y-96665918D01*
X152826546Y-96705290D01*
X143216854Y-96705290D01*
X143152441Y-96655864D01*
X143006362Y-96595356D01*
X142849600Y-96574718D01*
X142692838Y-96595356D01*
X142546759Y-96655864D01*
X142421318Y-96752118D01*
X142325064Y-96877559D01*
X142264556Y-97023638D01*
X142243918Y-97180400D01*
X142264556Y-97337162D01*
X142278579Y-97371015D01*
X142279198Y-97372510D01*
X142283999Y-97433506D01*
X142252030Y-97485676D01*
X142195502Y-97509091D01*
X142136007Y-97494808D01*
X142127467Y-97488938D01*
X142039990Y-97421815D01*
X142034841Y-97417864D01*
X141888762Y-97357356D01*
X141732000Y-97336718D01*
X141575238Y-97357356D01*
X141429159Y-97417864D01*
X141303718Y-97514118D01*
X141227300Y-97613709D01*
X141215030Y-97629699D01*
X141164606Y-97664355D01*
X141103441Y-97662754D01*
X141054900Y-97625506D01*
X141045025Y-97607320D01*
X141039821Y-97594756D01*
X141039818Y-97594750D01*
X141037336Y-97588759D01*
X140941082Y-97463318D01*
X140815641Y-97367064D01*
X140669562Y-97306556D01*
X140512800Y-97285918D01*
X140356038Y-97306556D01*
X140209959Y-97367064D01*
X140084518Y-97463318D01*
X139988264Y-97588759D01*
X139927756Y-97734838D01*
X139907118Y-97891600D01*
X136052812Y-97891600D01*
X136052865Y-97889571D01*
X136090112Y-97841029D01*
X136108300Y-97831154D01*
X136192841Y-97796136D01*
X136318282Y-97699882D01*
X136339756Y-97671897D01*
X136390178Y-97637241D01*
X136451343Y-97638842D01*
X136496839Y-97671897D01*
X136528518Y-97713182D01*
X136653959Y-97809436D01*
X136800038Y-97869944D01*
X136915297Y-97885118D01*
X136949121Y-97889571D01*
X136956800Y-97890582D01*
X136964480Y-97889571D01*
X136998303Y-97885118D01*
X137113562Y-97869944D01*
X137259641Y-97809436D01*
X137385082Y-97713182D01*
X137481336Y-97587741D01*
X137541844Y-97441662D01*
X137562482Y-97284900D01*
X137541844Y-97128138D01*
X137481336Y-96982059D01*
X137385082Y-96856618D01*
X137259641Y-96760364D01*
X137113562Y-96699856D01*
X136956800Y-96679218D01*
X136800038Y-96699856D01*
X136653959Y-96760364D01*
X136528518Y-96856618D01*
X136507044Y-96884603D01*
X136456622Y-96919259D01*
X136395457Y-96917658D01*
X136349961Y-96884603D01*
X136322236Y-96848471D01*
X136318282Y-96843318D01*
X136192841Y-96747064D01*
X136046762Y-96686556D01*
X135890000Y-96665918D01*
X135733238Y-96686556D01*
X135587159Y-96747064D01*
X135461718Y-96843318D01*
X135365464Y-96968759D01*
X135304956Y-97114838D01*
X135284318Y-97271600D01*
X135304956Y-97428362D01*
X135365464Y-97574441D01*
X135461718Y-97699882D01*
X135541682Y-97761240D01*
X135576337Y-97811665D01*
X135574735Y-97872829D01*
X135537488Y-97921371D01*
X135519301Y-97931246D01*
X135434759Y-97966264D01*
X135309318Y-98062518D01*
X135213064Y-98187959D01*
X135152556Y-98334038D01*
X135131918Y-98490800D01*
X135152556Y-98647562D01*
X135213064Y-98793641D01*
X135309318Y-98919082D01*
X135434759Y-99015336D01*
X135580838Y-99075844D01*
X135600610Y-99078447D01*
X135655835Y-99104788D01*
X135685030Y-99158559D01*
X135677044Y-99219220D01*
X135634927Y-99263603D01*
X135600610Y-99274753D01*
X135580838Y-99277356D01*
X135434759Y-99337864D01*
X135309318Y-99434118D01*
X135213064Y-99559559D01*
X135152556Y-99705638D01*
X135131918Y-99862400D01*
X131385721Y-99862400D01*
X131322362Y-99836156D01*
X131165600Y-99815518D01*
X131008838Y-99836156D01*
X130862759Y-99896664D01*
X130737318Y-99992918D01*
X130641064Y-100118359D01*
X130580556Y-100264438D01*
X130559918Y-100421200D01*
X128368400Y-100421200D01*
X128368400Y-95656400D01*
X139907118Y-95656400D01*
X139927756Y-95813162D01*
X139988264Y-95959241D01*
X140084518Y-96084682D01*
X140209959Y-96180936D01*
X140356038Y-96241444D01*
X140512800Y-96262082D01*
X140669562Y-96241444D01*
X140815641Y-96180936D01*
X140941082Y-96084682D01*
X141037336Y-95959241D01*
X141097844Y-95813162D01*
X141118482Y-95656400D01*
X141097844Y-95499638D01*
X141037336Y-95353559D01*
X140941082Y-95228118D01*
X140815641Y-95131864D01*
X140669562Y-95071356D01*
X140512800Y-95050718D01*
X140356038Y-95071356D01*
X140209959Y-95131864D01*
X140084518Y-95228118D01*
X139988264Y-95353559D01*
X139927756Y-95499638D01*
X139907118Y-95656400D01*
X128368400Y-95656400D01*
X128368400Y-94716921D01*
X129354018Y-94716921D01*
X129374656Y-94873683D01*
X129435164Y-95019762D01*
X129531418Y-95145203D01*
X129656859Y-95241457D01*
X129802938Y-95301965D01*
X129959700Y-95322603D01*
X130116462Y-95301965D01*
X130262541Y-95241457D01*
X130387982Y-95145203D01*
X130484236Y-95019762D01*
X130494079Y-94996000D01*
X147069918Y-94996000D01*
X147090556Y-95152762D01*
X147151064Y-95298841D01*
X147247318Y-95424282D01*
X147372759Y-95520536D01*
X147518838Y-95581044D01*
X147675600Y-95601682D01*
X147832362Y-95581044D01*
X147978441Y-95520536D01*
X148103882Y-95424282D01*
X148200136Y-95298841D01*
X148260644Y-95152762D01*
X148281282Y-94996000D01*
X148260644Y-94839238D01*
X148200136Y-94693159D01*
X148103882Y-94567718D01*
X147978441Y-94471464D01*
X147832362Y-94410956D01*
X147675600Y-94390318D01*
X147518838Y-94410956D01*
X147372759Y-94471464D01*
X147247318Y-94567718D01*
X147151064Y-94693159D01*
X147090556Y-94839238D01*
X147069918Y-94996000D01*
X130494079Y-94996000D01*
X130544744Y-94873683D01*
X130565382Y-94716921D01*
X130544744Y-94560159D01*
X130484236Y-94414080D01*
X130387982Y-94288639D01*
X130262541Y-94192385D01*
X130117725Y-94132400D01*
X131728318Y-94132400D01*
X131748956Y-94289162D01*
X131809464Y-94435241D01*
X131905718Y-94560682D01*
X132031159Y-94656936D01*
X132106178Y-94688010D01*
X132160438Y-94710485D01*
X132177238Y-94717444D01*
X132334000Y-94738082D01*
X132490762Y-94717444D01*
X132507563Y-94710485D01*
X132561822Y-94688010D01*
X132636841Y-94656936D01*
X132762282Y-94560682D01*
X132858536Y-94435241D01*
X132919044Y-94289162D01*
X132939682Y-94132400D01*
X132939093Y-94127925D01*
X137214718Y-94127925D01*
X137235356Y-94284687D01*
X137295864Y-94430766D01*
X137392118Y-94556207D01*
X137517559Y-94652461D01*
X137663638Y-94712969D01*
X137820400Y-94733607D01*
X137977162Y-94712969D01*
X138123241Y-94652461D01*
X138248682Y-94556207D01*
X138344936Y-94430766D01*
X138405444Y-94284687D01*
X138423209Y-94149751D01*
X139178567Y-94149751D01*
X139199205Y-94306513D01*
X139259713Y-94452592D01*
X139355967Y-94578033D01*
X139481408Y-94674287D01*
X139627487Y-94734795D01*
X139784249Y-94755433D01*
X139941011Y-94734795D01*
X140087090Y-94674287D01*
X140212531Y-94578033D01*
X140308785Y-94452592D01*
X140369293Y-94306513D01*
X140389931Y-94149751D01*
X140369293Y-93992989D01*
X140308785Y-93846910D01*
X140293968Y-93827600D01*
X146257118Y-93827600D01*
X146277756Y-93984362D01*
X146338264Y-94130441D01*
X146434518Y-94255882D01*
X146559959Y-94352136D01*
X146706038Y-94412644D01*
X146862800Y-94433282D01*
X147019562Y-94412644D01*
X147165641Y-94352136D01*
X147291082Y-94255882D01*
X147360595Y-94165290D01*
X152826546Y-94165290D01*
X152826985Y-94170112D01*
X152843191Y-94348185D01*
X152845573Y-94374362D01*
X152846939Y-94379004D01*
X152846940Y-94379008D01*
X152899093Y-94556207D01*
X152904847Y-94575757D01*
X153002109Y-94761803D01*
X153005145Y-94765579D01*
X153005147Y-94765582D01*
X153069543Y-94845674D01*
X153133656Y-94925414D01*
X153137361Y-94928523D01*
X153137364Y-94928526D01*
X153282987Y-95050718D01*
X153294476Y-95060358D01*
X153298724Y-95062694D01*
X153298725Y-95062694D01*
X153420028Y-95129381D01*
X153478445Y-95161496D01*
X153483057Y-95162959D01*
X153673935Y-95223509D01*
X153673937Y-95223509D01*
X153678554Y-95224974D01*
X153776398Y-95235949D01*
X153839180Y-95242991D01*
X153839182Y-95242991D01*
X153841936Y-95243300D01*
X154405030Y-95243300D01*
X154407424Y-95243065D01*
X154407429Y-95243065D01*
X154556324Y-95228466D01*
X154556328Y-95228465D01*
X154561134Y-95227994D01*
X154565759Y-95226598D01*
X154565762Y-95226597D01*
X154635012Y-95205689D01*
X154762110Y-95167316D01*
X154947472Y-95068757D01*
X155110161Y-94936071D01*
X155190268Y-94839238D01*
X155240896Y-94778040D01*
X155240897Y-94778038D01*
X155243979Y-94774313D01*
X155343830Y-94589643D01*
X155363845Y-94524986D01*
X155404480Y-94393716D01*
X155404481Y-94393712D01*
X155405910Y-94389095D01*
X155406971Y-94379008D01*
X155427348Y-94185126D01*
X155427348Y-94185124D01*
X155427854Y-94180310D01*
X155411392Y-93999425D01*
X155409266Y-93976058D01*
X155409265Y-93976055D01*
X155408827Y-93971238D01*
X155404574Y-93956785D01*
X155350921Y-93774490D01*
X155350920Y-93774487D01*
X155349553Y-93769843D01*
X155252291Y-93583797D01*
X155238940Y-93567191D01*
X155123777Y-93423958D01*
X155123776Y-93423957D01*
X155120744Y-93420186D01*
X155117039Y-93417077D01*
X155117036Y-93417074D01*
X154963639Y-93288359D01*
X154963637Y-93288358D01*
X154959924Y-93285242D01*
X154775955Y-93184104D01*
X154753201Y-93176886D01*
X154580465Y-93122091D01*
X154580463Y-93122091D01*
X154575846Y-93120626D01*
X154478002Y-93109651D01*
X154415220Y-93102609D01*
X154415218Y-93102609D01*
X154412464Y-93102300D01*
X153849370Y-93102300D01*
X153846976Y-93102535D01*
X153846971Y-93102535D01*
X153698076Y-93117134D01*
X153698072Y-93117135D01*
X153693266Y-93117606D01*
X153688641Y-93119002D01*
X153688638Y-93119003D01*
X153641089Y-93133359D01*
X153492290Y-93178284D01*
X153306928Y-93276843D01*
X153144239Y-93409529D01*
X153141155Y-93413257D01*
X153141154Y-93413258D01*
X153013810Y-93567191D01*
X153010421Y-93571287D01*
X152910570Y-93755957D01*
X152909141Y-93760574D01*
X152880560Y-93852905D01*
X152848490Y-93956505D01*
X152847985Y-93961313D01*
X152847984Y-93961316D01*
X152828855Y-94143317D01*
X152826546Y-94165290D01*
X147360595Y-94165290D01*
X147387336Y-94130441D01*
X147447844Y-93984362D01*
X147468482Y-93827600D01*
X147447844Y-93670838D01*
X147387336Y-93524759D01*
X147291082Y-93399318D01*
X147165641Y-93303064D01*
X147019562Y-93242556D01*
X146862800Y-93221918D01*
X146706038Y-93242556D01*
X146559959Y-93303064D01*
X146434518Y-93399318D01*
X146338264Y-93524759D01*
X146277756Y-93670838D01*
X146257118Y-93827600D01*
X140293968Y-93827600D01*
X140212531Y-93721469D01*
X140087090Y-93625215D01*
X139967171Y-93575543D01*
X139947008Y-93567191D01*
X139941011Y-93564707D01*
X139784249Y-93544069D01*
X139627487Y-93564707D01*
X139621490Y-93567191D01*
X139601327Y-93575543D01*
X139481408Y-93625215D01*
X139355967Y-93721469D01*
X139259713Y-93846910D01*
X139199205Y-93992989D01*
X139178567Y-94149751D01*
X138423209Y-94149751D01*
X138426082Y-94127925D01*
X138405444Y-93971163D01*
X138402154Y-93963219D01*
X138356460Y-93852905D01*
X138344936Y-93825084D01*
X138248682Y-93699643D01*
X138123241Y-93603389D01*
X138005446Y-93554596D01*
X137983159Y-93545365D01*
X137977162Y-93542881D01*
X137820400Y-93522243D01*
X137663638Y-93542881D01*
X137657641Y-93545365D01*
X137635354Y-93554596D01*
X137517559Y-93603389D01*
X137392118Y-93699643D01*
X137295864Y-93825084D01*
X137284340Y-93852905D01*
X137238647Y-93963219D01*
X137235356Y-93971163D01*
X137214718Y-94127925D01*
X132939093Y-94127925D01*
X132919044Y-93975638D01*
X132858536Y-93829559D01*
X132762282Y-93704118D01*
X132636841Y-93607864D01*
X132490762Y-93547356D01*
X132334000Y-93526718D01*
X132177238Y-93547356D01*
X132031159Y-93607864D01*
X131905718Y-93704118D01*
X131809464Y-93829559D01*
X131748956Y-93975638D01*
X131728318Y-94132400D01*
X130117725Y-94132400D01*
X130116462Y-94131877D01*
X129959700Y-94111239D01*
X129802938Y-94131877D01*
X129656859Y-94192385D01*
X129531418Y-94288639D01*
X129435164Y-94414080D01*
X129374656Y-94560159D01*
X129354018Y-94716921D01*
X128368400Y-94716921D01*
X128368400Y-93436200D01*
X135131918Y-93436200D01*
X135152556Y-93592962D01*
X135155040Y-93598959D01*
X135156875Y-93603389D01*
X135213064Y-93739041D01*
X135309318Y-93864482D01*
X135434759Y-93960736D01*
X135580838Y-94021244D01*
X135737600Y-94041882D01*
X135894362Y-94021244D01*
X136040441Y-93960736D01*
X136165882Y-93864482D01*
X136262136Y-93739041D01*
X136318325Y-93603389D01*
X136320160Y-93598959D01*
X136322644Y-93592962D01*
X136343282Y-93436200D01*
X136322644Y-93279438D01*
X136262136Y-93133359D01*
X136165882Y-93007918D01*
X136040441Y-92911664D01*
X135963911Y-92879964D01*
X135917385Y-92840227D01*
X135903102Y-92780732D01*
X135905849Y-92774100D01*
X140968834Y-92774100D01*
X140989472Y-92930862D01*
X141049980Y-93076941D01*
X141146234Y-93202382D01*
X141271675Y-93298636D01*
X141417754Y-93359144D01*
X141574516Y-93379782D01*
X141731278Y-93359144D01*
X141877357Y-93298636D01*
X142002798Y-93202382D01*
X142099052Y-93076941D01*
X142159560Y-92930862D01*
X142180198Y-92774100D01*
X142159560Y-92617338D01*
X142099052Y-92471259D01*
X142002798Y-92345818D01*
X141877357Y-92249564D01*
X141731278Y-92189056D01*
X141574516Y-92168418D01*
X141417754Y-92189056D01*
X141271675Y-92249564D01*
X141146234Y-92345818D01*
X141049980Y-92471259D01*
X140989472Y-92617338D01*
X140968834Y-92774100D01*
X135905849Y-92774100D01*
X135926517Y-92724204D01*
X135963911Y-92697036D01*
X135996615Y-92683490D01*
X136040441Y-92665336D01*
X136165882Y-92569082D01*
X136262136Y-92443641D01*
X136322644Y-92297562D01*
X136343282Y-92140800D01*
X136322644Y-91984038D01*
X136262136Y-91837959D01*
X136165882Y-91712518D01*
X136040441Y-91616264D01*
X135894362Y-91555756D01*
X135737600Y-91535118D01*
X135580838Y-91555756D01*
X135434759Y-91616264D01*
X135309318Y-91712518D01*
X135213064Y-91837959D01*
X135152556Y-91984038D01*
X135131918Y-92140800D01*
X135152556Y-92297562D01*
X135213064Y-92443641D01*
X135309318Y-92569082D01*
X135434759Y-92665336D01*
X135478585Y-92683490D01*
X135511289Y-92697036D01*
X135557815Y-92736773D01*
X135572098Y-92796268D01*
X135548683Y-92852796D01*
X135511288Y-92879964D01*
X135434759Y-92911664D01*
X135309318Y-93007918D01*
X135213064Y-93133359D01*
X135152556Y-93279438D01*
X135131918Y-93436200D01*
X128368400Y-93436200D01*
X128368400Y-91226400D01*
X131728318Y-91226400D01*
X131748956Y-91383162D01*
X131809464Y-91529241D01*
X131905718Y-91654682D01*
X132031159Y-91750936D01*
X132177238Y-91811444D01*
X132334000Y-91832082D01*
X132490762Y-91811444D01*
X132636841Y-91750936D01*
X132762282Y-91654682D01*
X132858536Y-91529241D01*
X132919044Y-91383162D01*
X132939682Y-91226400D01*
X132920987Y-91084400D01*
X139551518Y-91084400D01*
X139572156Y-91241162D01*
X139632664Y-91387241D01*
X139728918Y-91512682D01*
X139854359Y-91608936D01*
X140000438Y-91669444D01*
X140157200Y-91690082D01*
X140313962Y-91669444D01*
X140460041Y-91608936D01*
X140585482Y-91512682D01*
X140681736Y-91387241D01*
X140742244Y-91241162D01*
X140761856Y-91092196D01*
X140788196Y-91036972D01*
X140841966Y-91007777D01*
X140902628Y-91015763D01*
X140947011Y-91057880D01*
X140950551Y-91065302D01*
X140950981Y-91066046D01*
X140953464Y-91072041D01*
X141049718Y-91197482D01*
X141175159Y-91293736D01*
X141321238Y-91354244D01*
X141478000Y-91374882D01*
X141634762Y-91354244D01*
X141780841Y-91293736D01*
X141788838Y-91287600D01*
X144428318Y-91287600D01*
X144448956Y-91444362D01*
X144509464Y-91590441D01*
X144605718Y-91715882D01*
X144731159Y-91812136D01*
X144877238Y-91872644D01*
X145034000Y-91893282D01*
X145190762Y-91872644D01*
X145336841Y-91812136D01*
X145462282Y-91715882D01*
X145531795Y-91625290D01*
X152826546Y-91625290D01*
X152826985Y-91630112D01*
X152843191Y-91808185D01*
X152845573Y-91834362D01*
X152904847Y-92035757D01*
X153002109Y-92221803D01*
X153005145Y-92225579D01*
X153005147Y-92225582D01*
X153098641Y-92341864D01*
X153133656Y-92385414D01*
X153137361Y-92388523D01*
X153137364Y-92388526D01*
X153290761Y-92517241D01*
X153294476Y-92520358D01*
X153478445Y-92621496D01*
X153483057Y-92622959D01*
X153673935Y-92683509D01*
X153673937Y-92683509D01*
X153678554Y-92684974D01*
X153776398Y-92695949D01*
X153839180Y-92702991D01*
X153839182Y-92702991D01*
X153841936Y-92703300D01*
X154405030Y-92703300D01*
X154407424Y-92703065D01*
X154407429Y-92703065D01*
X154556324Y-92688466D01*
X154556328Y-92688465D01*
X154561134Y-92687994D01*
X154565759Y-92686598D01*
X154565762Y-92686597D01*
X154636181Y-92665336D01*
X154762110Y-92627316D01*
X154947472Y-92528757D01*
X155110161Y-92396071D01*
X155231362Y-92249564D01*
X155240896Y-92238040D01*
X155240897Y-92238038D01*
X155243979Y-92234313D01*
X155343830Y-92049643D01*
X155392494Y-91892435D01*
X155404480Y-91853716D01*
X155404481Y-91853712D01*
X155405910Y-91849095D01*
X155406451Y-91843954D01*
X155427348Y-91645126D01*
X155427348Y-91645124D01*
X155427854Y-91640310D01*
X155410567Y-91450359D01*
X155409266Y-91436058D01*
X155409265Y-91436055D01*
X155408827Y-91431238D01*
X155397394Y-91392390D01*
X155350921Y-91234490D01*
X155350920Y-91234487D01*
X155349553Y-91229843D01*
X155252291Y-91043797D01*
X155209644Y-90990754D01*
X155123777Y-90883958D01*
X155123776Y-90883957D01*
X155120744Y-90880186D01*
X155117039Y-90877077D01*
X155117036Y-90877074D01*
X154963639Y-90748359D01*
X154963637Y-90748358D01*
X154959924Y-90745242D01*
X154775955Y-90644104D01*
X154657226Y-90606441D01*
X154580465Y-90582091D01*
X154580463Y-90582091D01*
X154575846Y-90580626D01*
X154478002Y-90569651D01*
X154415220Y-90562609D01*
X154415218Y-90562609D01*
X154412464Y-90562300D01*
X153849370Y-90562300D01*
X153846976Y-90562535D01*
X153846971Y-90562535D01*
X153698076Y-90577134D01*
X153698072Y-90577135D01*
X153693266Y-90577606D01*
X153688641Y-90579002D01*
X153688638Y-90579003D01*
X153619388Y-90599911D01*
X153492290Y-90638284D01*
X153306928Y-90736843D01*
X153144239Y-90869529D01*
X153141155Y-90873257D01*
X153141154Y-90873258D01*
X153023264Y-91015763D01*
X153010421Y-91031287D01*
X152910570Y-91215957D01*
X152906272Y-91229843D01*
X152855955Y-91392390D01*
X152848490Y-91416505D01*
X152847985Y-91421313D01*
X152847984Y-91421316D01*
X152827079Y-91620215D01*
X152826546Y-91625290D01*
X145531795Y-91625290D01*
X145558536Y-91590441D01*
X145619044Y-91444362D01*
X145639682Y-91287600D01*
X145619044Y-91130838D01*
X145558536Y-90984759D01*
X145462282Y-90859318D01*
X145336841Y-90763064D01*
X145190762Y-90702556D01*
X145034000Y-90681918D01*
X144877238Y-90702556D01*
X144731159Y-90763064D01*
X144605718Y-90859318D01*
X144509464Y-90984759D01*
X144448956Y-91130838D01*
X144428318Y-91287600D01*
X141788838Y-91287600D01*
X141906282Y-91197482D01*
X142002536Y-91072041D01*
X142063044Y-90925962D01*
X142083682Y-90769200D01*
X142063044Y-90612438D01*
X142002536Y-90466359D01*
X141906282Y-90340918D01*
X141780841Y-90244664D01*
X141634762Y-90184156D01*
X141478000Y-90163518D01*
X141321238Y-90184156D01*
X141175159Y-90244664D01*
X141049718Y-90340918D01*
X140953464Y-90466359D01*
X140892956Y-90612438D01*
X140873344Y-90761404D01*
X140847004Y-90816628D01*
X140793234Y-90845823D01*
X140732572Y-90837837D01*
X140688189Y-90795720D01*
X140684649Y-90788298D01*
X140684219Y-90787553D01*
X140681736Y-90781559D01*
X140585482Y-90656118D01*
X140460041Y-90559864D01*
X140313962Y-90499356D01*
X140157200Y-90478718D01*
X140000438Y-90499356D01*
X139854359Y-90559864D01*
X139728918Y-90656118D01*
X139632664Y-90781559D01*
X139572156Y-90927638D01*
X139551518Y-91084400D01*
X132920987Y-91084400D01*
X132919044Y-91069638D01*
X132858536Y-90923559D01*
X132762282Y-90798118D01*
X132636841Y-90701864D01*
X132490762Y-90641356D01*
X132334000Y-90620718D01*
X132177238Y-90641356D01*
X132031159Y-90701864D01*
X131905718Y-90798118D01*
X131809464Y-90923559D01*
X131748956Y-91069638D01*
X131728318Y-91226400D01*
X128368400Y-91226400D01*
X128368400Y-88856049D01*
X129340718Y-88856049D01*
X129361356Y-89012811D01*
X129421864Y-89158890D01*
X129518118Y-89284331D01*
X129544122Y-89304284D01*
X129548163Y-89307385D01*
X129582819Y-89357809D01*
X129581218Y-89418973D01*
X129548165Y-89464468D01*
X129531418Y-89477318D01*
X129435164Y-89602759D01*
X129374656Y-89748838D01*
X129354018Y-89905600D01*
X129374656Y-90062362D01*
X129435164Y-90208441D01*
X129531418Y-90333882D01*
X129656859Y-90430136D01*
X129802938Y-90490644D01*
X129959700Y-90511282D01*
X130116462Y-90490644D01*
X130262541Y-90430136D01*
X130387982Y-90333882D01*
X130484236Y-90208441D01*
X130544744Y-90062362D01*
X130565382Y-89905600D01*
X130544744Y-89748838D01*
X130508774Y-89662000D01*
X146155518Y-89662000D01*
X146176156Y-89818762D01*
X146236664Y-89964841D01*
X146332918Y-90090282D01*
X146458359Y-90186536D01*
X146604438Y-90247044D01*
X146761200Y-90267682D01*
X146917962Y-90247044D01*
X147064041Y-90186536D01*
X147189482Y-90090282D01*
X147193436Y-90085129D01*
X147198020Y-90080545D01*
X147199885Y-90082410D01*
X147241070Y-90054096D01*
X147302235Y-90055690D01*
X147338724Y-90082201D01*
X147340380Y-90080545D01*
X147344964Y-90085129D01*
X147348918Y-90090282D01*
X147474359Y-90186536D01*
X147620438Y-90247044D01*
X147777200Y-90267682D01*
X147933962Y-90247044D01*
X148080041Y-90186536D01*
X148205482Y-90090282D01*
X148301736Y-89964841D01*
X148362244Y-89818762D01*
X148382882Y-89662000D01*
X148362244Y-89505238D01*
X148301736Y-89359159D01*
X148205482Y-89233718D01*
X148080041Y-89137464D01*
X147954082Y-89085290D01*
X152826546Y-89085290D01*
X152826985Y-89090112D01*
X152845020Y-89288282D01*
X152845573Y-89294362D01*
X152846939Y-89299004D01*
X152846940Y-89299008D01*
X152903479Y-89491110D01*
X152904847Y-89495757D01*
X153002109Y-89681803D01*
X153005145Y-89685579D01*
X153005147Y-89685582D01*
X153061181Y-89755274D01*
X153133656Y-89845414D01*
X153137361Y-89848523D01*
X153137364Y-89848526D01*
X153282120Y-89969990D01*
X153294476Y-89980358D01*
X153478445Y-90081496D01*
X153483057Y-90082959D01*
X153673935Y-90143509D01*
X153673937Y-90143509D01*
X153678554Y-90144974D01*
X153776398Y-90155949D01*
X153839180Y-90162991D01*
X153839182Y-90162991D01*
X153841936Y-90163300D01*
X154405030Y-90163300D01*
X154407424Y-90163065D01*
X154407429Y-90163065D01*
X154556324Y-90148466D01*
X154556328Y-90148465D01*
X154561134Y-90147994D01*
X154565759Y-90146598D01*
X154565762Y-90146597D01*
X154635012Y-90125689D01*
X154762110Y-90087316D01*
X154947472Y-89988757D01*
X155110161Y-89856071D01*
X155243979Y-89694313D01*
X155343830Y-89509643D01*
X155383780Y-89380585D01*
X155404480Y-89313716D01*
X155404481Y-89313712D01*
X155405910Y-89309095D01*
X155406971Y-89299008D01*
X155427348Y-89105126D01*
X155427348Y-89105124D01*
X155427854Y-89100310D01*
X155408827Y-88891238D01*
X155398471Y-88856049D01*
X155350921Y-88694490D01*
X155350920Y-88694487D01*
X155349553Y-88689843D01*
X155252291Y-88503797D01*
X155201282Y-88440354D01*
X155123777Y-88343958D01*
X155123776Y-88343957D01*
X155120744Y-88340186D01*
X155117039Y-88337077D01*
X155117036Y-88337074D01*
X154963639Y-88208359D01*
X154963637Y-88208358D01*
X154959924Y-88205242D01*
X154867880Y-88154640D01*
X154780195Y-88106435D01*
X154775955Y-88104104D01*
X154753201Y-88096886D01*
X154580465Y-88042091D01*
X154580463Y-88042091D01*
X154575846Y-88040626D01*
X154478002Y-88029651D01*
X154415220Y-88022609D01*
X154415218Y-88022609D01*
X154412464Y-88022300D01*
X153849370Y-88022300D01*
X153846976Y-88022535D01*
X153846971Y-88022535D01*
X153698076Y-88037134D01*
X153698072Y-88037135D01*
X153693266Y-88037606D01*
X153688641Y-88039002D01*
X153688638Y-88039003D01*
X153619388Y-88059911D01*
X153492290Y-88098284D01*
X153306928Y-88196843D01*
X153144239Y-88329529D01*
X153141155Y-88333257D01*
X153141154Y-88333258D01*
X153061776Y-88429210D01*
X153010421Y-88491287D01*
X152910570Y-88675957D01*
X152909141Y-88680574D01*
X152852831Y-88862483D01*
X152848490Y-88876505D01*
X152847985Y-88881313D01*
X152847984Y-88881316D01*
X152829591Y-89056318D01*
X152826546Y-89085290D01*
X147954082Y-89085290D01*
X147933962Y-89076956D01*
X147777200Y-89056318D01*
X147620438Y-89076956D01*
X147474359Y-89137464D01*
X147348918Y-89233718D01*
X147344964Y-89238871D01*
X147340380Y-89243455D01*
X147338515Y-89241590D01*
X147297330Y-89269904D01*
X147236165Y-89268310D01*
X147199676Y-89241799D01*
X147198020Y-89243455D01*
X147193436Y-89238871D01*
X147189482Y-89233718D01*
X147064041Y-89137464D01*
X146917962Y-89076956D01*
X146761200Y-89056318D01*
X146604438Y-89076956D01*
X146458359Y-89137464D01*
X146332918Y-89233718D01*
X146236664Y-89359159D01*
X146176156Y-89505238D01*
X146155518Y-89662000D01*
X130508774Y-89662000D01*
X130484236Y-89602759D01*
X130387982Y-89477318D01*
X130357937Y-89454263D01*
X130323281Y-89403840D01*
X130324882Y-89342676D01*
X130357935Y-89297181D01*
X130374682Y-89284331D01*
X130470936Y-89158890D01*
X130531444Y-89012811D01*
X130552082Y-88856049D01*
X130536435Y-88737200D01*
X140973918Y-88737200D01*
X140994556Y-88893962D01*
X141055064Y-89040041D01*
X141151318Y-89165482D01*
X141276759Y-89261736D01*
X141422838Y-89322244D01*
X141579600Y-89342882D01*
X141736362Y-89322244D01*
X141882441Y-89261736D01*
X142007882Y-89165482D01*
X142104136Y-89040041D01*
X142164644Y-88893962D01*
X142185282Y-88737200D01*
X142164644Y-88580438D01*
X142104136Y-88434359D01*
X142007882Y-88308918D01*
X141882441Y-88212664D01*
X141736362Y-88152156D01*
X141579600Y-88131518D01*
X141422838Y-88152156D01*
X141276759Y-88212664D01*
X141151318Y-88308918D01*
X141055064Y-88434359D01*
X140994556Y-88580438D01*
X140973918Y-88737200D01*
X130536435Y-88737200D01*
X130531444Y-88699287D01*
X130470936Y-88553208D01*
X130374682Y-88427767D01*
X130249241Y-88331513D01*
X130103162Y-88271005D01*
X129946400Y-88250367D01*
X129789638Y-88271005D01*
X129643559Y-88331513D01*
X129518118Y-88427767D01*
X129421864Y-88553208D01*
X129361356Y-88699287D01*
X129340718Y-88856049D01*
X128368400Y-88856049D01*
X128368400Y-87071200D01*
X137976718Y-87071200D01*
X137997356Y-87227962D01*
X138057864Y-87374041D01*
X138154118Y-87499482D01*
X138279559Y-87595736D01*
X138425638Y-87656244D01*
X138582400Y-87676882D01*
X138739162Y-87656244D01*
X138885241Y-87595736D01*
X139010682Y-87499482D01*
X139106936Y-87374041D01*
X139109127Y-87368752D01*
X139154355Y-87328029D01*
X139215205Y-87321633D01*
X139268193Y-87352226D01*
X139278747Y-87366752D01*
X139280389Y-87370717D01*
X139376643Y-87496158D01*
X139502084Y-87592412D01*
X139648163Y-87652920D01*
X139804925Y-87673558D01*
X139961687Y-87652920D01*
X140107766Y-87592412D01*
X140233207Y-87496158D01*
X140329461Y-87370717D01*
X140389969Y-87224638D01*
X140396794Y-87172800D01*
X145495118Y-87172800D01*
X145515756Y-87329562D01*
X145576264Y-87475641D01*
X145672518Y-87601082D01*
X145797959Y-87697336D01*
X145944038Y-87757844D01*
X146100800Y-87778482D01*
X146257562Y-87757844D01*
X146403641Y-87697336D01*
X146529082Y-87601082D01*
X146625336Y-87475641D01*
X146685844Y-87329562D01*
X146706482Y-87172800D01*
X146685844Y-87016038D01*
X146625336Y-86869959D01*
X146529082Y-86744518D01*
X146403641Y-86648264D01*
X146257562Y-86587756D01*
X146100800Y-86567118D01*
X145944038Y-86587756D01*
X145797959Y-86648264D01*
X145672518Y-86744518D01*
X145576264Y-86869959D01*
X145515756Y-87016038D01*
X145495118Y-87172800D01*
X140396794Y-87172800D01*
X140410607Y-87067876D01*
X140389969Y-86911114D01*
X140329461Y-86765035D01*
X140233207Y-86639594D01*
X140110307Y-86545290D01*
X152826546Y-86545290D01*
X152845573Y-86754362D01*
X152846939Y-86759004D01*
X152846940Y-86759008D01*
X152892686Y-86914438D01*
X152904847Y-86955757D01*
X153002109Y-87141803D01*
X153005145Y-87145579D01*
X153005147Y-87145582D01*
X153130623Y-87301642D01*
X153133656Y-87305414D01*
X153137361Y-87308523D01*
X153137364Y-87308526D01*
X153221582Y-87379193D01*
X153294476Y-87440358D01*
X153298724Y-87442694D01*
X153298725Y-87442694D01*
X153358655Y-87475641D01*
X153478445Y-87541496D01*
X153483057Y-87542959D01*
X153673935Y-87603509D01*
X153673937Y-87603509D01*
X153678554Y-87604974D01*
X153776398Y-87615949D01*
X153839180Y-87622991D01*
X153839182Y-87622991D01*
X153841936Y-87623300D01*
X154405030Y-87623300D01*
X154407424Y-87623065D01*
X154407429Y-87623065D01*
X154556324Y-87608466D01*
X154556328Y-87608465D01*
X154561134Y-87607994D01*
X154565759Y-87606598D01*
X154565762Y-87606597D01*
X154635012Y-87585689D01*
X154762110Y-87547316D01*
X154947472Y-87448757D01*
X155110161Y-87316071D01*
X155188376Y-87221526D01*
X155240896Y-87158040D01*
X155240897Y-87158038D01*
X155243979Y-87154313D01*
X155343830Y-86969643D01*
X155373394Y-86874136D01*
X155404480Y-86773716D01*
X155404481Y-86773712D01*
X155405910Y-86769095D01*
X155406529Y-86763213D01*
X155427348Y-86565126D01*
X155427348Y-86565124D01*
X155427854Y-86560310D01*
X155408827Y-86351238D01*
X155406452Y-86343166D01*
X155350921Y-86154490D01*
X155350920Y-86154487D01*
X155349553Y-86149843D01*
X155252291Y-85963797D01*
X155184186Y-85879091D01*
X155123777Y-85803958D01*
X155123776Y-85803957D01*
X155120744Y-85800186D01*
X155117039Y-85797077D01*
X155117036Y-85797074D01*
X154963639Y-85668359D01*
X154963637Y-85668358D01*
X154959924Y-85665242D01*
X154775955Y-85564104D01*
X154729205Y-85549274D01*
X154580465Y-85502091D01*
X154580463Y-85502091D01*
X154575846Y-85500626D01*
X154477751Y-85489623D01*
X154415220Y-85482609D01*
X154415218Y-85482609D01*
X154412464Y-85482300D01*
X153849370Y-85482300D01*
X153846976Y-85482535D01*
X153846971Y-85482535D01*
X153698076Y-85497134D01*
X153698072Y-85497135D01*
X153693266Y-85497606D01*
X153688641Y-85499002D01*
X153688638Y-85499003D01*
X153643159Y-85512734D01*
X153492290Y-85558284D01*
X153306928Y-85656843D01*
X153144239Y-85789529D01*
X153141155Y-85793257D01*
X153141154Y-85793258D01*
X153030951Y-85926471D01*
X153010421Y-85951287D01*
X152910570Y-86135957D01*
X152909141Y-86140574D01*
X152864544Y-86284644D01*
X152848490Y-86336505D01*
X152847985Y-86341313D01*
X152847984Y-86341316D01*
X152832850Y-86485309D01*
X152826546Y-86545290D01*
X140110307Y-86545290D01*
X140107766Y-86543340D01*
X139961687Y-86482832D01*
X139804925Y-86462194D01*
X139648163Y-86482832D01*
X139502084Y-86543340D01*
X139376643Y-86639594D01*
X139372689Y-86644747D01*
X139285014Y-86759008D01*
X139280389Y-86765035D01*
X139278198Y-86770324D01*
X139232970Y-86811047D01*
X139172120Y-86817443D01*
X139119132Y-86786850D01*
X139108578Y-86772324D01*
X139106936Y-86768359D01*
X139010682Y-86642918D01*
X138885241Y-86546664D01*
X138739162Y-86486156D01*
X138582400Y-86465518D01*
X138425638Y-86486156D01*
X138279559Y-86546664D01*
X138154118Y-86642918D01*
X138057864Y-86768359D01*
X137997356Y-86914438D01*
X137976718Y-87071200D01*
X128368400Y-87071200D01*
X128368400Y-86349600D01*
X130813918Y-86349600D01*
X130834556Y-86506362D01*
X130895064Y-86652441D01*
X130991318Y-86777882D01*
X131116759Y-86874136D01*
X131262838Y-86934644D01*
X131419600Y-86955282D01*
X131576362Y-86934644D01*
X131722441Y-86874136D01*
X131847882Y-86777882D01*
X131944136Y-86652441D01*
X132004644Y-86506362D01*
X132025282Y-86349600D01*
X132004644Y-86192838D01*
X131944136Y-86046759D01*
X131847882Y-85921318D01*
X131722441Y-85825064D01*
X131576362Y-85764556D01*
X131419600Y-85743918D01*
X131262838Y-85764556D01*
X131116759Y-85825064D01*
X130991318Y-85921318D01*
X130895064Y-86046759D01*
X130834556Y-86192838D01*
X130813918Y-86349600D01*
X128368400Y-86349600D01*
X128368400Y-85699600D01*
X137519518Y-85699600D01*
X137540156Y-85856362D01*
X137600664Y-86002441D01*
X137696918Y-86127882D01*
X137822359Y-86224136D01*
X137968438Y-86284644D01*
X138125200Y-86305282D01*
X138281962Y-86284644D01*
X138428041Y-86224136D01*
X138553482Y-86127882D01*
X138649736Y-86002441D01*
X138710244Y-85856362D01*
X138730882Y-85699600D01*
X138710244Y-85542838D01*
X138649736Y-85396759D01*
X138553482Y-85271318D01*
X138428041Y-85175064D01*
X138281962Y-85114556D01*
X138125200Y-85093918D01*
X137968438Y-85114556D01*
X137822359Y-85175064D01*
X137696918Y-85271318D01*
X137600664Y-85396759D01*
X137540156Y-85542838D01*
X137519518Y-85699600D01*
X128368400Y-85699600D01*
X128368400Y-84836000D01*
X131728318Y-84836000D01*
X131748956Y-84992762D01*
X131809464Y-85138841D01*
X131905718Y-85264282D01*
X132031159Y-85360536D01*
X132177238Y-85421044D01*
X132334000Y-85441682D01*
X132490762Y-85421044D01*
X132636841Y-85360536D01*
X132762282Y-85264282D01*
X132858536Y-85138841D01*
X132919044Y-84992762D01*
X132926306Y-84937600D01*
X135843118Y-84937600D01*
X135863756Y-85094362D01*
X135924264Y-85240441D01*
X136020518Y-85365882D01*
X136145959Y-85462136D01*
X136292038Y-85522644D01*
X136448800Y-85543282D01*
X136605562Y-85522644D01*
X136751641Y-85462136D01*
X136877082Y-85365882D01*
X136973336Y-85240441D01*
X137033844Y-85094362D01*
X137054482Y-84937600D01*
X137033844Y-84780838D01*
X136973336Y-84634759D01*
X136877082Y-84509318D01*
X136751641Y-84413064D01*
X136605562Y-84352556D01*
X136448800Y-84331918D01*
X136292038Y-84352556D01*
X136145959Y-84413064D01*
X136020518Y-84509318D01*
X135924264Y-84634759D01*
X135863756Y-84780838D01*
X135843118Y-84937600D01*
X132926306Y-84937600D01*
X132939682Y-84836000D01*
X132919044Y-84679238D01*
X132858536Y-84533159D01*
X132762282Y-84407718D01*
X132658391Y-84328000D01*
X146206318Y-84328000D01*
X146226956Y-84484762D01*
X146287464Y-84630841D01*
X146383718Y-84756282D01*
X146509159Y-84852536D01*
X146655238Y-84913044D01*
X146812000Y-84933682D01*
X146968762Y-84913044D01*
X147114841Y-84852536D01*
X147240282Y-84756282D01*
X147293725Y-84686634D01*
X152831700Y-84686634D01*
X152834681Y-84718169D01*
X152879566Y-84845984D01*
X152883961Y-84851935D01*
X152883962Y-84851936D01*
X152944341Y-84933682D01*
X152960050Y-84954950D01*
X152966007Y-84959350D01*
X153007990Y-84990359D01*
X153069016Y-85035434D01*
X153196831Y-85080319D01*
X153202838Y-85080887D01*
X153202839Y-85080887D01*
X153226055Y-85083082D01*
X153226065Y-85083082D01*
X153228366Y-85083300D01*
X155026034Y-85083300D01*
X155028335Y-85083082D01*
X155028345Y-85083082D01*
X155051561Y-85080887D01*
X155051562Y-85080887D01*
X155057569Y-85080319D01*
X155185384Y-85035434D01*
X155246411Y-84990359D01*
X155288393Y-84959350D01*
X155294350Y-84954950D01*
X155310059Y-84933682D01*
X155370438Y-84851936D01*
X155370439Y-84851935D01*
X155374834Y-84845984D01*
X155419719Y-84718169D01*
X155422700Y-84686634D01*
X155422700Y-83338966D01*
X155419719Y-83307431D01*
X155374834Y-83179616D01*
X155349147Y-83144838D01*
X155298750Y-83076607D01*
X155294350Y-83070650D01*
X155274571Y-83056041D01*
X155191336Y-82994562D01*
X155191335Y-82994561D01*
X155185384Y-82990166D01*
X155057569Y-82945281D01*
X155051562Y-82944713D01*
X155051561Y-82944713D01*
X155028345Y-82942518D01*
X155028335Y-82942518D01*
X155026034Y-82942300D01*
X153228366Y-82942300D01*
X153226065Y-82942518D01*
X153226055Y-82942518D01*
X153202839Y-82944713D01*
X153202838Y-82944713D01*
X153196831Y-82945281D01*
X153069016Y-82990166D01*
X153063065Y-82994561D01*
X153063064Y-82994562D01*
X152979829Y-83056041D01*
X152960050Y-83070650D01*
X152955650Y-83076607D01*
X152905254Y-83144838D01*
X152879566Y-83179616D01*
X152834681Y-83307431D01*
X152831700Y-83338966D01*
X152831700Y-84686634D01*
X147293725Y-84686634D01*
X147336536Y-84630841D01*
X147397044Y-84484762D01*
X147417682Y-84328000D01*
X147397044Y-84171238D01*
X147336536Y-84025159D01*
X147240282Y-83899718D01*
X147114841Y-83803464D01*
X146968762Y-83742956D01*
X146837569Y-83725684D01*
X146818434Y-83723165D01*
X146812000Y-83722318D01*
X146805566Y-83723165D01*
X146786431Y-83725684D01*
X146655238Y-83742956D01*
X146509159Y-83803464D01*
X146383718Y-83899718D01*
X146287464Y-84025159D01*
X146226956Y-84171238D01*
X146206318Y-84328000D01*
X132658391Y-84328000D01*
X132636841Y-84311464D01*
X132490762Y-84250956D01*
X132334000Y-84230318D01*
X132177238Y-84250956D01*
X132031159Y-84311464D01*
X131905718Y-84407718D01*
X131809464Y-84533159D01*
X131748956Y-84679238D01*
X131728318Y-84836000D01*
X128368400Y-84836000D01*
X128368400Y-83301600D01*
X131728318Y-83301600D01*
X131748956Y-83458362D01*
X131809464Y-83604441D01*
X131905718Y-83729882D01*
X132031159Y-83826136D01*
X132177238Y-83886644D01*
X132308431Y-83903916D01*
X132315687Y-83904871D01*
X132334000Y-83907282D01*
X132352314Y-83904871D01*
X132359569Y-83903916D01*
X132490762Y-83886644D01*
X132636841Y-83826136D01*
X132762282Y-83729882D01*
X132858536Y-83604441D01*
X132919044Y-83458362D01*
X132939682Y-83301600D01*
X132919044Y-83144838D01*
X132858536Y-82998759D01*
X132826033Y-82956400D01*
X138027518Y-82956400D01*
X138048156Y-83113162D01*
X138108664Y-83259241D01*
X138204918Y-83384682D01*
X138330359Y-83480936D01*
X138476438Y-83541444D01*
X138633200Y-83562082D01*
X138789962Y-83541444D01*
X138936041Y-83480936D01*
X139061482Y-83384682D01*
X139157736Y-83259241D01*
X139218244Y-83113162D01*
X139238882Y-82956400D01*
X139237682Y-82947281D01*
X139230830Y-82895241D01*
X139218244Y-82799638D01*
X139157736Y-82653559D01*
X139061482Y-82528118D01*
X138936041Y-82431864D01*
X138789962Y-82371356D01*
X138633200Y-82350718D01*
X138476438Y-82371356D01*
X138330359Y-82431864D01*
X138204918Y-82528118D01*
X138108664Y-82653559D01*
X138048156Y-82799638D01*
X138035570Y-82895241D01*
X138028719Y-82947281D01*
X138027518Y-82956400D01*
X132826033Y-82956400D01*
X132762282Y-82873318D01*
X132636841Y-82777064D01*
X132490762Y-82716556D01*
X132334000Y-82695918D01*
X132177238Y-82716556D01*
X132031159Y-82777064D01*
X131905718Y-82873318D01*
X131809464Y-82998759D01*
X131748956Y-83144838D01*
X131728318Y-83301600D01*
X128368400Y-83301600D01*
X128368400Y-82096451D01*
X128387307Y-82038260D01*
X128436807Y-82002296D01*
X128467380Y-81997451D01*
X140631741Y-81994934D01*
X142715946Y-81994503D01*
X142774140Y-82013398D01*
X142810114Y-82062891D01*
X142810127Y-82124076D01*
X142774173Y-82173584D01*
X142753852Y-82184967D01*
X142695925Y-82208961D01*
X142648359Y-82228664D01*
X142522918Y-82324918D01*
X142426664Y-82450359D01*
X142424181Y-82456354D01*
X142404424Y-82504051D01*
X142364687Y-82550576D01*
X142305192Y-82564860D01*
X142252694Y-82544708D01*
X142238041Y-82533464D01*
X142091962Y-82472956D01*
X141935200Y-82452318D01*
X141778438Y-82472956D01*
X141632359Y-82533464D01*
X141506918Y-82629718D01*
X141410664Y-82755159D01*
X141350156Y-82901238D01*
X141329518Y-83058000D01*
X141350156Y-83214762D01*
X141410664Y-83360841D01*
X141506918Y-83486282D01*
X141632359Y-83582536D01*
X141778438Y-83643044D01*
X141935200Y-83663682D01*
X142091962Y-83643044D01*
X142238041Y-83582536D01*
X142363482Y-83486282D01*
X142459736Y-83360841D01*
X142481976Y-83307149D01*
X142521713Y-83260624D01*
X142581208Y-83246340D01*
X142633706Y-83266492D01*
X142648359Y-83277736D01*
X142794438Y-83338244D01*
X142951200Y-83358882D01*
X143107962Y-83338244D01*
X143254041Y-83277736D01*
X143275591Y-83261200D01*
X148797118Y-83261200D01*
X148817756Y-83417962D01*
X148878264Y-83564041D01*
X148974518Y-83689482D01*
X149099959Y-83785736D01*
X149246038Y-83846244D01*
X149402800Y-83866882D01*
X149559562Y-83846244D01*
X149705641Y-83785736D01*
X149831082Y-83689482D01*
X149927336Y-83564041D01*
X149987844Y-83417962D01*
X150008482Y-83261200D01*
X149987844Y-83104438D01*
X149927336Y-82958359D01*
X149831082Y-82832918D01*
X149705641Y-82736664D01*
X149559562Y-82676156D01*
X149402800Y-82655518D01*
X149246038Y-82676156D01*
X149099959Y-82736664D01*
X148974518Y-82832918D01*
X148878264Y-82958359D01*
X148817756Y-83104438D01*
X148797118Y-83261200D01*
X143275591Y-83261200D01*
X143379482Y-83181482D01*
X143475736Y-83056041D01*
X143536244Y-82909962D01*
X143556882Y-82753200D01*
X143536244Y-82596438D01*
X143475736Y-82450359D01*
X143379482Y-82324918D01*
X143254041Y-82228664D01*
X143148313Y-82184870D01*
X143101788Y-82145133D01*
X143087504Y-82085639D01*
X143110919Y-82029111D01*
X143163088Y-81997141D01*
X143186179Y-81994406D01*
X144858464Y-81994060D01*
X157231783Y-81991501D01*
X157289974Y-82010395D01*
G37*
G04 #@! TD.AperFunction*
M02*
