G04 #@! TF.GenerationSoftware,KiCad,Pcbnew,6.0.0-d3dd2cf0fa~116~ubuntu18.04.1*
G04 #@! TF.CreationDate,2023-02-13T16:22:56+00:00*
G04 #@! TF.ProjectId,RemoteESP32,52656d6f-7465-4455-9350-33322e6b6963,rev?*
G04 #@! TF.SameCoordinates,Original*
G04 #@! TF.FileFunction,Legend,Top*
G04 #@! TF.FilePolarity,Positive*
%FSLAX46Y46*%
G04 Gerber Fmt 4.6, Leading zero omitted, Abs format (unit mm)*
G04 Created by KiCad (PCBNEW 6.0.0-d3dd2cf0fa~116~ubuntu18.04.1) date 2023-02-13 16:22:56*
%MOMM*%
%LPD*%
G01*
G04 APERTURE LIST*
G04 Aperture macros list*
%AMRoundRect*
0 Rectangle with rounded corners*
0 $1 Rounding radius*
0 $2 $3 $4 $5 $6 $7 $8 $9 X,Y pos of 4 corners*
0 Add a 4 corners polygon primitive as box body*
4,1,4,$2,$3,$4,$5,$6,$7,$8,$9,$2,$3,0*
0 Add four circle primitives for the rounded corners*
1,1,$1+$1,$2,$3*
1,1,$1+$1,$4,$5*
1,1,$1+$1,$6,$7*
1,1,$1+$1,$8,$9*
0 Add four rect primitives between the rounded corners*
20,1,$1+$1,$2,$3,$4,$5,0*
20,1,$1+$1,$4,$5,$6,$7,0*
20,1,$1+$1,$6,$7,$8,$9,0*
20,1,$1+$1,$8,$9,$2,$3,0*%
G04 Aperture macros list end*
%ADD10C,0.150000*%
%ADD11C,0.120000*%
%ADD12R,1.200000X1.200000*%
%ADD13R,10.500000X3.200000*%
%ADD14C,1.000000*%
%ADD15RoundRect,0.225000X-0.250000X0.225000X-0.250000X-0.225000X0.250000X-0.225000X0.250000X0.225000X0*%
%ADD16RoundRect,0.200000X-0.275000X0.200000X-0.275000X-0.200000X0.275000X-0.200000X0.275000X0.200000X0*%
%ADD17RoundRect,0.150000X-0.825000X-0.150000X0.825000X-0.150000X0.825000X0.150000X-0.825000X0.150000X0*%
%ADD18RoundRect,0.200000X0.275000X-0.200000X0.275000X0.200000X-0.275000X0.200000X-0.275000X-0.200000X0*%
%ADD19RoundRect,0.150000X-0.587500X-0.150000X0.587500X-0.150000X0.587500X0.150000X-0.587500X0.150000X0*%
%ADD20RoundRect,0.225000X0.225000X0.250000X-0.225000X0.250000X-0.225000X-0.250000X0.225000X-0.250000X0*%
%ADD21RoundRect,0.200000X0.200000X0.275000X-0.200000X0.275000X-0.200000X-0.275000X0.200000X-0.275000X0*%
%ADD22R,1.700000X1.700000*%
%ADD23O,1.700000X1.700000*%
%ADD24R,1.400000X2.100000*%
%ADD25RoundRect,0.250000X0.312500X0.625000X-0.312500X0.625000X-0.312500X-0.625000X0.312500X-0.625000X0*%
%ADD26C,2.200000*%
%ADD27R,1.800000X2.500000*%
%ADD28R,2.900000X5.400000*%
%ADD29R,2.500000X1.800000*%
%ADD30RoundRect,0.225000X-0.225000X-0.250000X0.225000X-0.250000X0.225000X0.250000X-0.225000X0.250000X0*%
%ADD31RoundRect,0.250000X0.787500X1.025000X-0.787500X1.025000X-0.787500X-1.025000X0.787500X-1.025000X0*%
%ADD32R,1.100000X0.850000*%
%ADD33R,1.100000X0.750000*%
%ADD34R,1.000000X1.200000*%
%ADD35R,1.800000X1.170000*%
%ADD36R,1.350000X1.900000*%
%ADD37R,1.350000X1.550000*%
%ADD38R,1.600000X1.600000*%
%ADD39C,1.600000*%
%ADD40RoundRect,0.250000X0.325000X0.650000X-0.325000X0.650000X-0.325000X-0.650000X0.325000X-0.650000X0*%
%ADD41RoundRect,0.200000X-0.200000X-0.275000X0.200000X-0.275000X0.200000X0.275000X-0.200000X0.275000X0*%
%ADD42RoundRect,0.250000X0.845000X-0.620000X0.845000X0.620000X-0.845000X0.620000X-0.845000X-0.620000X0*%
%ADD43O,2.190000X1.740000*%
%ADD44RoundRect,0.150000X0.150000X-0.825000X0.150000X0.825000X-0.150000X0.825000X-0.150000X-0.825000X0*%
%ADD45RoundRect,0.250000X-0.650000X0.325000X-0.650000X-0.325000X0.650000X-0.325000X0.650000X0.325000X0*%
%ADD46RoundRect,0.250000X-0.845000X0.620000X-0.845000X-0.620000X0.845000X-0.620000X0.845000X0.620000X0*%
G04 APERTURE END LIST*
D10*
X140665200Y-120040400D02*
X141122400Y-119837200D01*
X141122400Y-119837200D02*
X146710400Y-119684800D01*
X143237009Y-106046590D02*
X143237009Y-106522780D01*
X142903676Y-105522780D02*
X143237009Y-106046590D01*
X143570342Y-105522780D01*
X144427485Y-106522780D02*
X143856057Y-106522780D01*
X144141771Y-106522780D02*
X144141771Y-105522780D01*
X144046533Y-105665638D01*
X143951295Y-105760876D01*
X143856057Y-105808495D01*
X147788333Y-81764142D02*
X147740714Y-81811761D01*
X147597857Y-81859380D01*
X147502619Y-81859380D01*
X147359761Y-81811761D01*
X147264523Y-81716523D01*
X147216904Y-81621285D01*
X147169285Y-81430809D01*
X147169285Y-81287952D01*
X147216904Y-81097476D01*
X147264523Y-81002238D01*
X147359761Y-80907000D01*
X147502619Y-80859380D01*
X147597857Y-80859380D01*
X147740714Y-80907000D01*
X147788333Y-80954619D01*
X148121666Y-80859380D02*
X148740714Y-80859380D01*
X148407380Y-81240333D01*
X148550238Y-81240333D01*
X148645476Y-81287952D01*
X148693095Y-81335571D01*
X148740714Y-81430809D01*
X148740714Y-81668904D01*
X148693095Y-81764142D01*
X148645476Y-81811761D01*
X148550238Y-81859380D01*
X148264523Y-81859380D01*
X148169285Y-81811761D01*
X148121666Y-81764142D01*
X130490933Y-101087180D02*
X130157600Y-100610990D01*
X129919504Y-101087180D02*
X129919504Y-100087180D01*
X130300457Y-100087180D01*
X130395695Y-100134800D01*
X130443314Y-100182419D01*
X130490933Y-100277657D01*
X130490933Y-100420514D01*
X130443314Y-100515752D01*
X130395695Y-100563371D01*
X130300457Y-100610990D01*
X129919504Y-100610990D01*
X130967123Y-101087180D02*
X131157600Y-101087180D01*
X131252838Y-101039561D01*
X131300457Y-100991942D01*
X131395695Y-100849085D01*
X131443314Y-100658609D01*
X131443314Y-100277657D01*
X131395695Y-100182419D01*
X131348076Y-100134800D01*
X131252838Y-100087180D01*
X131062361Y-100087180D01*
X130967123Y-100134800D01*
X130919504Y-100182419D01*
X130871885Y-100277657D01*
X130871885Y-100515752D01*
X130919504Y-100610990D01*
X130967123Y-100658609D01*
X131062361Y-100706228D01*
X131252838Y-100706228D01*
X131348076Y-100658609D01*
X131395695Y-100610990D01*
X131443314Y-100515752D01*
X148971095Y-91019380D02*
X148971095Y-91828904D01*
X149018714Y-91924142D01*
X149066333Y-91971761D01*
X149161571Y-92019380D01*
X149352047Y-92019380D01*
X149447285Y-91971761D01*
X149494904Y-91924142D01*
X149542523Y-91828904D01*
X149542523Y-91019380D01*
X149923476Y-91019380D02*
X150542523Y-91019380D01*
X150209190Y-91400333D01*
X150352047Y-91400333D01*
X150447285Y-91447952D01*
X150494904Y-91495571D01*
X150542523Y-91590809D01*
X150542523Y-91828904D01*
X150494904Y-91924142D01*
X150447285Y-91971761D01*
X150352047Y-92019380D01*
X150066333Y-92019380D01*
X149971095Y-91971761D01*
X149923476Y-91924142D01*
X137358380Y-101988857D02*
X136882190Y-102322190D01*
X137358380Y-102560285D02*
X136358380Y-102560285D01*
X136358380Y-102179333D01*
X136406000Y-102084095D01*
X136453619Y-102036476D01*
X136548857Y-101988857D01*
X136691714Y-101988857D01*
X136786952Y-102036476D01*
X136834571Y-102084095D01*
X136882190Y-102179333D01*
X136882190Y-102560285D01*
X137358380Y-101036476D02*
X137358380Y-101607904D01*
X137358380Y-101322190D02*
X136358380Y-101322190D01*
X136501238Y-101417428D01*
X136596476Y-101512666D01*
X136644095Y-101607904D01*
X137358380Y-100084095D02*
X137358380Y-100655523D01*
X137358380Y-100369809D02*
X136358380Y-100369809D01*
X136501238Y-100465047D01*
X136596476Y-100560285D01*
X136644095Y-100655523D01*
X145502333Y-81859380D02*
X145169000Y-81383190D01*
X144930904Y-81859380D02*
X144930904Y-80859380D01*
X145311857Y-80859380D01*
X145407095Y-80907000D01*
X145454714Y-80954619D01*
X145502333Y-81049857D01*
X145502333Y-81192714D01*
X145454714Y-81287952D01*
X145407095Y-81335571D01*
X145311857Y-81383190D01*
X144930904Y-81383190D01*
X145835666Y-80859380D02*
X146454714Y-80859380D01*
X146121380Y-81240333D01*
X146264238Y-81240333D01*
X146359476Y-81287952D01*
X146407095Y-81335571D01*
X146454714Y-81430809D01*
X146454714Y-81668904D01*
X146407095Y-81764142D01*
X146359476Y-81811761D01*
X146264238Y-81859380D01*
X145978523Y-81859380D01*
X145883285Y-81811761D01*
X145835666Y-81764142D01*
X140711180Y-113107695D02*
X139711180Y-113107695D01*
X139711180Y-112869600D01*
X139758800Y-112726742D01*
X139854038Y-112631504D01*
X139949276Y-112583885D01*
X140139752Y-112536266D01*
X140282609Y-112536266D01*
X140473085Y-112583885D01*
X140568323Y-112631504D01*
X140663561Y-112726742D01*
X140711180Y-112869600D01*
X140711180Y-113107695D01*
X139806419Y-112155314D02*
X139758800Y-112107695D01*
X139711180Y-112012457D01*
X139711180Y-111774361D01*
X139758800Y-111679123D01*
X139806419Y-111631504D01*
X139901657Y-111583885D01*
X139996895Y-111583885D01*
X140139752Y-111631504D01*
X140711180Y-112202933D01*
X140711180Y-111583885D01*
X131862533Y-130565142D02*
X131814914Y-130612761D01*
X131672057Y-130660380D01*
X131576819Y-130660380D01*
X131433961Y-130612761D01*
X131338723Y-130517523D01*
X131291104Y-130422285D01*
X131243485Y-130231809D01*
X131243485Y-130088952D01*
X131291104Y-129898476D01*
X131338723Y-129803238D01*
X131433961Y-129708000D01*
X131576819Y-129660380D01*
X131672057Y-129660380D01*
X131814914Y-129708000D01*
X131862533Y-129755619D01*
X132433961Y-130088952D02*
X132338723Y-130041333D01*
X132291104Y-129993714D01*
X132243485Y-129898476D01*
X132243485Y-129850857D01*
X132291104Y-129755619D01*
X132338723Y-129708000D01*
X132433961Y-129660380D01*
X132624438Y-129660380D01*
X132719676Y-129708000D01*
X132767295Y-129755619D01*
X132814914Y-129850857D01*
X132814914Y-129898476D01*
X132767295Y-129993714D01*
X132719676Y-130041333D01*
X132624438Y-130088952D01*
X132433961Y-130088952D01*
X132338723Y-130136571D01*
X132291104Y-130184190D01*
X132243485Y-130279428D01*
X132243485Y-130469904D01*
X132291104Y-130565142D01*
X132338723Y-130612761D01*
X132433961Y-130660380D01*
X132624438Y-130660380D01*
X132719676Y-130612761D01*
X132767295Y-130565142D01*
X132814914Y-130469904D01*
X132814914Y-130279428D01*
X132767295Y-130184190D01*
X132719676Y-130136571D01*
X132624438Y-130088952D01*
X138374380Y-86018666D02*
X137898190Y-86352000D01*
X138374380Y-86590095D02*
X137374380Y-86590095D01*
X137374380Y-86209142D01*
X137422000Y-86113904D01*
X137469619Y-86066285D01*
X137564857Y-86018666D01*
X137707714Y-86018666D01*
X137802952Y-86066285D01*
X137850571Y-86113904D01*
X137898190Y-86209142D01*
X137898190Y-86590095D01*
X137707714Y-85161523D02*
X138374380Y-85161523D01*
X137326761Y-85399619D02*
X138041047Y-85637714D01*
X138041047Y-85018666D01*
X155368666Y-100849180D02*
X155368666Y-101563466D01*
X155321047Y-101706323D01*
X155225809Y-101801561D01*
X155082952Y-101849180D01*
X154987714Y-101849180D01*
X155749619Y-100849180D02*
X156368666Y-100849180D01*
X156035333Y-101230133D01*
X156178190Y-101230133D01*
X156273428Y-101277752D01*
X156321047Y-101325371D01*
X156368666Y-101420609D01*
X156368666Y-101658704D01*
X156321047Y-101753942D01*
X156273428Y-101801561D01*
X156178190Y-101849180D01*
X155892476Y-101849180D01*
X155797238Y-101801561D01*
X155749619Y-101753942D01*
X142216142Y-82335666D02*
X142263761Y-82383285D01*
X142311380Y-82526142D01*
X142311380Y-82621380D01*
X142263761Y-82764238D01*
X142168523Y-82859476D01*
X142073285Y-82907095D01*
X141882809Y-82954714D01*
X141739952Y-82954714D01*
X141549476Y-82907095D01*
X141454238Y-82859476D01*
X141359000Y-82764238D01*
X141311380Y-82621380D01*
X141311380Y-82526142D01*
X141359000Y-82383285D01*
X141406619Y-82335666D01*
X141644714Y-81478523D02*
X142311380Y-81478523D01*
X141263761Y-81716619D02*
X141978047Y-81954714D01*
X141978047Y-81335666D01*
X129611380Y-100464857D02*
X129135190Y-100798190D01*
X129611380Y-101036285D02*
X128611380Y-101036285D01*
X128611380Y-100655333D01*
X128659000Y-100560095D01*
X128706619Y-100512476D01*
X128801857Y-100464857D01*
X128944714Y-100464857D01*
X129039952Y-100512476D01*
X129087571Y-100560095D01*
X129135190Y-100655333D01*
X129135190Y-101036285D01*
X129611380Y-99512476D02*
X129611380Y-100083904D01*
X129611380Y-99798190D02*
X128611380Y-99798190D01*
X128754238Y-99893428D01*
X128849476Y-99988666D01*
X128897095Y-100083904D01*
X128706619Y-99131523D02*
X128659000Y-99083904D01*
X128611380Y-98988666D01*
X128611380Y-98750571D01*
X128659000Y-98655333D01*
X128706619Y-98607714D01*
X128801857Y-98560095D01*
X128897095Y-98560095D01*
X129039952Y-98607714D01*
X129611380Y-99179142D01*
X129611380Y-98560095D01*
X143470333Y-81764142D02*
X143422714Y-81811761D01*
X143279857Y-81859380D01*
X143184619Y-81859380D01*
X143041761Y-81811761D01*
X142946523Y-81716523D01*
X142898904Y-81621285D01*
X142851285Y-81430809D01*
X142851285Y-81287952D01*
X142898904Y-81097476D01*
X142946523Y-81002238D01*
X143041761Y-80907000D01*
X143184619Y-80859380D01*
X143279857Y-80859380D01*
X143422714Y-80907000D01*
X143470333Y-80954619D01*
X143851285Y-80954619D02*
X143898904Y-80907000D01*
X143994142Y-80859380D01*
X144232238Y-80859380D01*
X144327476Y-80907000D01*
X144375095Y-80954619D01*
X144422714Y-81049857D01*
X144422714Y-81145095D01*
X144375095Y-81287952D01*
X143803666Y-81859380D01*
X144422714Y-81859380D01*
X132053104Y-134665980D02*
X132053104Y-133665980D01*
X132291200Y-133665980D01*
X132434057Y-133713600D01*
X132529295Y-133808838D01*
X132576914Y-133904076D01*
X132624533Y-134094552D01*
X132624533Y-134237409D01*
X132576914Y-134427885D01*
X132529295Y-134523123D01*
X132434057Y-134618361D01*
X132291200Y-134665980D01*
X132053104Y-134665980D01*
X133529295Y-133665980D02*
X133053104Y-133665980D01*
X133005485Y-134142171D01*
X133053104Y-134094552D01*
X133148342Y-134046933D01*
X133386438Y-134046933D01*
X133481676Y-134094552D01*
X133529295Y-134142171D01*
X133576914Y-134237409D01*
X133576914Y-134475504D01*
X133529295Y-134570742D01*
X133481676Y-134618361D01*
X133386438Y-134665980D01*
X133148342Y-134665980D01*
X133053104Y-134618361D01*
X133005485Y-134570742D01*
X134231142Y-105608380D02*
X133897809Y-105132190D01*
X133659714Y-105608380D02*
X133659714Y-104608380D01*
X134040666Y-104608380D01*
X134135904Y-104656000D01*
X134183523Y-104703619D01*
X134231142Y-104798857D01*
X134231142Y-104941714D01*
X134183523Y-105036952D01*
X134135904Y-105084571D01*
X134040666Y-105132190D01*
X133659714Y-105132190D01*
X135183523Y-105608380D02*
X134612095Y-105608380D01*
X134897809Y-105608380D02*
X134897809Y-104608380D01*
X134802571Y-104751238D01*
X134707333Y-104846476D01*
X134612095Y-104894095D01*
X135802571Y-104608380D02*
X135897809Y-104608380D01*
X135993047Y-104656000D01*
X136040666Y-104703619D01*
X136088285Y-104798857D01*
X136135904Y-104989333D01*
X136135904Y-105227428D01*
X136088285Y-105417904D01*
X136040666Y-105513142D01*
X135993047Y-105560761D01*
X135897809Y-105608380D01*
X135802571Y-105608380D01*
X135707333Y-105560761D01*
X135659714Y-105513142D01*
X135612095Y-105417904D01*
X135564476Y-105227428D01*
X135564476Y-104989333D01*
X135612095Y-104798857D01*
X135659714Y-104703619D01*
X135707333Y-104656000D01*
X135802571Y-104608380D01*
X135907542Y-121559580D02*
X135574209Y-121083390D01*
X135336114Y-121559580D02*
X135336114Y-120559580D01*
X135717066Y-120559580D01*
X135812304Y-120607200D01*
X135859923Y-120654819D01*
X135907542Y-120750057D01*
X135907542Y-120892914D01*
X135859923Y-120988152D01*
X135812304Y-121035771D01*
X135717066Y-121083390D01*
X135336114Y-121083390D01*
X136859923Y-121559580D02*
X136288495Y-121559580D01*
X136574209Y-121559580D02*
X136574209Y-120559580D01*
X136478971Y-120702438D01*
X136383733Y-120797676D01*
X136288495Y-120845295D01*
X137193257Y-120559580D02*
X137859923Y-120559580D01*
X137431352Y-121559580D01*
X144594342Y-119425980D02*
X144261009Y-118949790D01*
X144022914Y-119425980D02*
X144022914Y-118425980D01*
X144403866Y-118425980D01*
X144499104Y-118473600D01*
X144546723Y-118521219D01*
X144594342Y-118616457D01*
X144594342Y-118759314D01*
X144546723Y-118854552D01*
X144499104Y-118902171D01*
X144403866Y-118949790D01*
X144022914Y-118949790D01*
X144975295Y-118521219D02*
X145022914Y-118473600D01*
X145118152Y-118425980D01*
X145356247Y-118425980D01*
X145451485Y-118473600D01*
X145499104Y-118521219D01*
X145546723Y-118616457D01*
X145546723Y-118711695D01*
X145499104Y-118854552D01*
X144927676Y-119425980D01*
X145546723Y-119425980D01*
X146165771Y-118425980D02*
X146261009Y-118425980D01*
X146356247Y-118473600D01*
X146403866Y-118521219D01*
X146451485Y-118616457D01*
X146499104Y-118806933D01*
X146499104Y-119045028D01*
X146451485Y-119235504D01*
X146403866Y-119330742D01*
X146356247Y-119378361D01*
X146261009Y-119425980D01*
X146165771Y-119425980D01*
X146070533Y-119378361D01*
X146022914Y-119330742D01*
X145975295Y-119235504D01*
X145927676Y-119045028D01*
X145927676Y-118806933D01*
X145975295Y-118616457D01*
X146022914Y-118521219D01*
X146070533Y-118473600D01*
X146165771Y-118425980D01*
X141749542Y-116428780D02*
X141416209Y-115952590D01*
X141178114Y-116428780D02*
X141178114Y-115428780D01*
X141559066Y-115428780D01*
X141654304Y-115476400D01*
X141701923Y-115524019D01*
X141749542Y-115619257D01*
X141749542Y-115762114D01*
X141701923Y-115857352D01*
X141654304Y-115904971D01*
X141559066Y-115952590D01*
X141178114Y-115952590D01*
X142701923Y-116428780D02*
X142130495Y-116428780D01*
X142416209Y-116428780D02*
X142416209Y-115428780D01*
X142320971Y-115571638D01*
X142225733Y-115666876D01*
X142130495Y-115714495D01*
X143178114Y-116428780D02*
X143368590Y-116428780D01*
X143463828Y-116381161D01*
X143511447Y-116333542D01*
X143606685Y-116190685D01*
X143654304Y-116000209D01*
X143654304Y-115619257D01*
X143606685Y-115524019D01*
X143559066Y-115476400D01*
X143463828Y-115428780D01*
X143273352Y-115428780D01*
X143178114Y-115476400D01*
X143130495Y-115524019D01*
X143082876Y-115619257D01*
X143082876Y-115857352D01*
X143130495Y-115952590D01*
X143178114Y-116000209D01*
X143273352Y-116047828D01*
X143463828Y-116047828D01*
X143559066Y-116000209D01*
X143606685Y-115952590D01*
X143654304Y-115857352D01*
X135977333Y-112415580D02*
X135644000Y-111939390D01*
X135405904Y-112415580D02*
X135405904Y-111415580D01*
X135786857Y-111415580D01*
X135882095Y-111463200D01*
X135929714Y-111510819D01*
X135977333Y-111606057D01*
X135977333Y-111748914D01*
X135929714Y-111844152D01*
X135882095Y-111891771D01*
X135786857Y-111939390D01*
X135405904Y-111939390D01*
X136548761Y-111844152D02*
X136453523Y-111796533D01*
X136405904Y-111748914D01*
X136358285Y-111653676D01*
X136358285Y-111606057D01*
X136405904Y-111510819D01*
X136453523Y-111463200D01*
X136548761Y-111415580D01*
X136739238Y-111415580D01*
X136834476Y-111463200D01*
X136882095Y-111510819D01*
X136929714Y-111606057D01*
X136929714Y-111653676D01*
X136882095Y-111748914D01*
X136834476Y-111796533D01*
X136739238Y-111844152D01*
X136548761Y-111844152D01*
X136453523Y-111891771D01*
X136405904Y-111939390D01*
X136358285Y-112034628D01*
X136358285Y-112225104D01*
X136405904Y-112320342D01*
X136453523Y-112367961D01*
X136548761Y-112415580D01*
X136739238Y-112415580D01*
X136834476Y-112367961D01*
X136882095Y-112320342D01*
X136929714Y-112225104D01*
X136929714Y-112034628D01*
X136882095Y-111939390D01*
X136834476Y-111891771D01*
X136739238Y-111844152D01*
X132532380Y-111786895D02*
X131532380Y-111786895D01*
X131532380Y-111548800D01*
X131580000Y-111405942D01*
X131675238Y-111310704D01*
X131770476Y-111263085D01*
X131960952Y-111215466D01*
X132103809Y-111215466D01*
X132294285Y-111263085D01*
X132389523Y-111310704D01*
X132484761Y-111405942D01*
X132532380Y-111548800D01*
X132532380Y-111786895D01*
X132532380Y-110263085D02*
X132532380Y-110834514D01*
X132532380Y-110548800D02*
X131532380Y-110548800D01*
X131675238Y-110644038D01*
X131770476Y-110739276D01*
X131818095Y-110834514D01*
X146304095Y-105319580D02*
X146304095Y-106129104D01*
X146351714Y-106224342D01*
X146399333Y-106271961D01*
X146494571Y-106319580D01*
X146685047Y-106319580D01*
X146780285Y-106271961D01*
X146827904Y-106224342D01*
X146875523Y-106129104D01*
X146875523Y-105319580D01*
X147304095Y-105414819D02*
X147351714Y-105367200D01*
X147446952Y-105319580D01*
X147685047Y-105319580D01*
X147780285Y-105367200D01*
X147827904Y-105414819D01*
X147875523Y-105510057D01*
X147875523Y-105605295D01*
X147827904Y-105748152D01*
X147256476Y-106319580D01*
X147875523Y-106319580D01*
X147559733Y-121356380D02*
X147083542Y-121356380D01*
X147083542Y-120356380D01*
X148416876Y-121356380D02*
X147845447Y-121356380D01*
X148131161Y-121356380D02*
X148131161Y-120356380D01*
X148035923Y-120499238D01*
X147940685Y-120594476D01*
X147845447Y-120642095D01*
X133040380Y-105271866D02*
X132564190Y-105605200D01*
X133040380Y-105843295D02*
X132040380Y-105843295D01*
X132040380Y-105462342D01*
X132088000Y-105367104D01*
X132135619Y-105319485D01*
X132230857Y-105271866D01*
X132373714Y-105271866D01*
X132468952Y-105319485D01*
X132516571Y-105367104D01*
X132564190Y-105462342D01*
X132564190Y-105843295D01*
X132040380Y-104938533D02*
X132040380Y-104271866D01*
X133040380Y-104700438D01*
X128344704Y-124607580D02*
X128344704Y-123607580D01*
X128582800Y-123607580D01*
X128725657Y-123655200D01*
X128820895Y-123750438D01*
X128868514Y-123845676D01*
X128916133Y-124036152D01*
X128916133Y-124179009D01*
X128868514Y-124369485D01*
X128820895Y-124464723D01*
X128725657Y-124559961D01*
X128582800Y-124607580D01*
X128344704Y-124607580D01*
X129773276Y-123940914D02*
X129773276Y-124607580D01*
X129535180Y-123559961D02*
X129297085Y-124274247D01*
X129916133Y-124274247D01*
X144359333Y-91644742D02*
X144311714Y-91692361D01*
X144168857Y-91739980D01*
X144073619Y-91739980D01*
X143930761Y-91692361D01*
X143835523Y-91597123D01*
X143787904Y-91501885D01*
X143740285Y-91311409D01*
X143740285Y-91168552D01*
X143787904Y-90978076D01*
X143835523Y-90882838D01*
X143930761Y-90787600D01*
X144073619Y-90739980D01*
X144168857Y-90739980D01*
X144311714Y-90787600D01*
X144359333Y-90835219D01*
X145216476Y-90739980D02*
X145026000Y-90739980D01*
X144930761Y-90787600D01*
X144883142Y-90835219D01*
X144787904Y-90978076D01*
X144740285Y-91168552D01*
X144740285Y-91549504D01*
X144787904Y-91644742D01*
X144835523Y-91692361D01*
X144930761Y-91739980D01*
X145121238Y-91739980D01*
X145216476Y-91692361D01*
X145264095Y-91644742D01*
X145311714Y-91549504D01*
X145311714Y-91311409D01*
X145264095Y-91216171D01*
X145216476Y-91168552D01*
X145121238Y-91120933D01*
X144930761Y-91120933D01*
X144835523Y-91168552D01*
X144787904Y-91216171D01*
X144740285Y-91311409D01*
X152741333Y-116435142D02*
X152693714Y-116482761D01*
X152550857Y-116530380D01*
X152455619Y-116530380D01*
X152312761Y-116482761D01*
X152217523Y-116387523D01*
X152169904Y-116292285D01*
X152122285Y-116101809D01*
X152122285Y-115958952D01*
X152169904Y-115768476D01*
X152217523Y-115673238D01*
X152312761Y-115578000D01*
X152455619Y-115530380D01*
X152550857Y-115530380D01*
X152693714Y-115578000D01*
X152741333Y-115625619D01*
X153217523Y-116530380D02*
X153408000Y-116530380D01*
X153503238Y-116482761D01*
X153550857Y-116435142D01*
X153646095Y-116292285D01*
X153693714Y-116101809D01*
X153693714Y-115720857D01*
X153646095Y-115625619D01*
X153598476Y-115578000D01*
X153503238Y-115530380D01*
X153312761Y-115530380D01*
X153217523Y-115578000D01*
X153169904Y-115625619D01*
X153122285Y-115720857D01*
X153122285Y-115958952D01*
X153169904Y-116054190D01*
X153217523Y-116101809D01*
X153312761Y-116149428D01*
X153503238Y-116149428D01*
X153598476Y-116101809D01*
X153646095Y-116054190D01*
X153693714Y-115958952D01*
X140711180Y-117273295D02*
X139711180Y-117273295D01*
X139711180Y-117035200D01*
X139758800Y-116892342D01*
X139854038Y-116797104D01*
X139949276Y-116749485D01*
X140139752Y-116701866D01*
X140282609Y-116701866D01*
X140473085Y-116749485D01*
X140568323Y-116797104D01*
X140663561Y-116892342D01*
X140711180Y-117035200D01*
X140711180Y-117273295D01*
X139711180Y-116368533D02*
X139711180Y-115749485D01*
X140092133Y-116082819D01*
X140092133Y-115939961D01*
X140139752Y-115844723D01*
X140187371Y-115797104D01*
X140282609Y-115749485D01*
X140520704Y-115749485D01*
X140615942Y-115797104D01*
X140663561Y-115844723D01*
X140711180Y-115939961D01*
X140711180Y-116225676D01*
X140663561Y-116320914D01*
X140615942Y-116368533D01*
X128771980Y-93744133D02*
X129486266Y-93744133D01*
X129629123Y-93791752D01*
X129724361Y-93886990D01*
X129771980Y-94029847D01*
X129771980Y-94125085D01*
X128867219Y-93315561D02*
X128819600Y-93267942D01*
X128771980Y-93172704D01*
X128771980Y-92934609D01*
X128819600Y-92839371D01*
X128867219Y-92791752D01*
X128962457Y-92744133D01*
X129057695Y-92744133D01*
X129200552Y-92791752D01*
X129771980Y-93363180D01*
X129771980Y-92744133D01*
X145975485Y-116006571D02*
X146118342Y-116054190D01*
X146165961Y-116101809D01*
X146213580Y-116197047D01*
X146213580Y-116339904D01*
X146165961Y-116435142D01*
X146118342Y-116482761D01*
X146023104Y-116530380D01*
X145642152Y-116530380D01*
X145642152Y-115530380D01*
X145975485Y-115530380D01*
X146070723Y-115578000D01*
X146118342Y-115625619D01*
X146165961Y-115720857D01*
X146165961Y-115816095D01*
X146118342Y-115911333D01*
X146070723Y-115958952D01*
X145975485Y-116006571D01*
X145642152Y-116006571D01*
X146499295Y-115530380D02*
X147070723Y-115530380D01*
X146785009Y-116530380D02*
X146785009Y-115530380D01*
X147927866Y-116530380D02*
X147356438Y-116530380D01*
X147642152Y-116530380D02*
X147642152Y-115530380D01*
X147546914Y-115673238D01*
X147451676Y-115768476D01*
X147356438Y-115816095D01*
X153427647Y-113128028D02*
X154189552Y-113128028D01*
X153808600Y-113508980D02*
X153808600Y-112747076D01*
X131913333Y-127509542D02*
X131865714Y-127557161D01*
X131722857Y-127604780D01*
X131627619Y-127604780D01*
X131484761Y-127557161D01*
X131389523Y-127461923D01*
X131341904Y-127366685D01*
X131294285Y-127176209D01*
X131294285Y-127033352D01*
X131341904Y-126842876D01*
X131389523Y-126747638D01*
X131484761Y-126652400D01*
X131627619Y-126604780D01*
X131722857Y-126604780D01*
X131865714Y-126652400D01*
X131913333Y-126700019D01*
X132246666Y-126604780D02*
X132913333Y-126604780D01*
X132484761Y-127604780D01*
X138882380Y-102020666D02*
X138406190Y-102354000D01*
X138882380Y-102592095D02*
X137882380Y-102592095D01*
X137882380Y-102211142D01*
X137930000Y-102115904D01*
X137977619Y-102068285D01*
X138072857Y-102020666D01*
X138215714Y-102020666D01*
X138310952Y-102068285D01*
X138358571Y-102115904D01*
X138406190Y-102211142D01*
X138406190Y-102592095D01*
X137882380Y-101115904D02*
X137882380Y-101592095D01*
X138358571Y-101639714D01*
X138310952Y-101592095D01*
X138263333Y-101496857D01*
X138263333Y-101258761D01*
X138310952Y-101163523D01*
X138358571Y-101115904D01*
X138453809Y-101068285D01*
X138691904Y-101068285D01*
X138787142Y-101115904D01*
X138834761Y-101163523D01*
X138882380Y-101258761D01*
X138882380Y-101496857D01*
X138834761Y-101592095D01*
X138787142Y-101639714D01*
X148026380Y-119260857D02*
X147550190Y-119594190D01*
X148026380Y-119832285D02*
X147026380Y-119832285D01*
X147026380Y-119451333D01*
X147074000Y-119356095D01*
X147121619Y-119308476D01*
X147216857Y-119260857D01*
X147359714Y-119260857D01*
X147454952Y-119308476D01*
X147502571Y-119356095D01*
X147550190Y-119451333D01*
X147550190Y-119832285D01*
X148026380Y-118308476D02*
X148026380Y-118879904D01*
X148026380Y-118594190D02*
X147026380Y-118594190D01*
X147169238Y-118689428D01*
X147264476Y-118784666D01*
X147312095Y-118879904D01*
X147026380Y-117451333D02*
X147026380Y-117641809D01*
X147074000Y-117737047D01*
X147121619Y-117784666D01*
X147264476Y-117879904D01*
X147454952Y-117927523D01*
X147835904Y-117927523D01*
X147931142Y-117879904D01*
X147978761Y-117832285D01*
X148026380Y-117737047D01*
X148026380Y-117546571D01*
X147978761Y-117451333D01*
X147931142Y-117403714D01*
X147835904Y-117356095D01*
X147597809Y-117356095D01*
X147502571Y-117403714D01*
X147454952Y-117451333D01*
X147407333Y-117546571D01*
X147407333Y-117737047D01*
X147454952Y-117832285D01*
X147502571Y-117879904D01*
X147597809Y-117927523D01*
X142327333Y-112371142D02*
X142279714Y-112418761D01*
X142136857Y-112466380D01*
X142041619Y-112466380D01*
X141898761Y-112418761D01*
X141803523Y-112323523D01*
X141755904Y-112228285D01*
X141708285Y-112037809D01*
X141708285Y-111894952D01*
X141755904Y-111704476D01*
X141803523Y-111609238D01*
X141898761Y-111514000D01*
X142041619Y-111466380D01*
X142136857Y-111466380D01*
X142279714Y-111514000D01*
X142327333Y-111561619D01*
X143232095Y-111466380D02*
X142755904Y-111466380D01*
X142708285Y-111942571D01*
X142755904Y-111894952D01*
X142851142Y-111847333D01*
X143089238Y-111847333D01*
X143184476Y-111894952D01*
X143232095Y-111942571D01*
X143279714Y-112037809D01*
X143279714Y-112275904D01*
X143232095Y-112371142D01*
X143184476Y-112418761D01*
X143089238Y-112466380D01*
X142851142Y-112466380D01*
X142755904Y-112418761D01*
X142708285Y-112371142D01*
X153839942Y-105557580D02*
X153506609Y-105081390D01*
X153268514Y-105557580D02*
X153268514Y-104557580D01*
X153649466Y-104557580D01*
X153744704Y-104605200D01*
X153792323Y-104652819D01*
X153839942Y-104748057D01*
X153839942Y-104890914D01*
X153792323Y-104986152D01*
X153744704Y-105033771D01*
X153649466Y-105081390D01*
X153268514Y-105081390D01*
X154792323Y-105557580D02*
X154220895Y-105557580D01*
X154506609Y-105557580D02*
X154506609Y-104557580D01*
X154411371Y-104700438D01*
X154316133Y-104795676D01*
X154220895Y-104843295D01*
X155125657Y-104557580D02*
X155744704Y-104557580D01*
X155411371Y-104938533D01*
X155554228Y-104938533D01*
X155649466Y-104986152D01*
X155697085Y-105033771D01*
X155744704Y-105129009D01*
X155744704Y-105367104D01*
X155697085Y-105462342D01*
X155649466Y-105509961D01*
X155554228Y-105557580D01*
X155268514Y-105557580D01*
X155173276Y-105509961D01*
X155125657Y-105462342D01*
X134310380Y-82081666D02*
X133834190Y-82415000D01*
X134310380Y-82653095D02*
X133310380Y-82653095D01*
X133310380Y-82272142D01*
X133358000Y-82176904D01*
X133405619Y-82129285D01*
X133500857Y-82081666D01*
X133643714Y-82081666D01*
X133738952Y-82129285D01*
X133786571Y-82176904D01*
X133834190Y-82272142D01*
X133834190Y-82653095D01*
X134310380Y-81129285D02*
X134310380Y-81700714D01*
X134310380Y-81415000D02*
X133310380Y-81415000D01*
X133453238Y-81510238D01*
X133548476Y-81605476D01*
X133596095Y-81700714D01*
X133727866Y-111110780D02*
X133727866Y-111825066D01*
X133680247Y-111967923D01*
X133585009Y-112063161D01*
X133442152Y-112110780D01*
X133346914Y-112110780D01*
X134632628Y-111444114D02*
X134632628Y-112110780D01*
X134394533Y-111063161D02*
X134156438Y-111777447D01*
X134775485Y-111777447D01*
X133411980Y-131622704D02*
X134221504Y-131622704D01*
X134316742Y-131575085D01*
X134364361Y-131527466D01*
X134411980Y-131432228D01*
X134411980Y-131241752D01*
X134364361Y-131146514D01*
X134316742Y-131098895D01*
X134221504Y-131051276D01*
X133411980Y-131051276D01*
X133745314Y-130146514D02*
X134411980Y-130146514D01*
X133364361Y-130384609D02*
X134078647Y-130622704D01*
X134078647Y-130003657D01*
X144645142Y-117832142D02*
X144597523Y-117879761D01*
X144454666Y-117927380D01*
X144359428Y-117927380D01*
X144216571Y-117879761D01*
X144121333Y-117784523D01*
X144073714Y-117689285D01*
X144026095Y-117498809D01*
X144026095Y-117355952D01*
X144073714Y-117165476D01*
X144121333Y-117070238D01*
X144216571Y-116975000D01*
X144359428Y-116927380D01*
X144454666Y-116927380D01*
X144597523Y-116975000D01*
X144645142Y-117022619D01*
X145597523Y-117927380D02*
X145026095Y-117927380D01*
X145311809Y-117927380D02*
X145311809Y-116927380D01*
X145216571Y-117070238D01*
X145121333Y-117165476D01*
X145026095Y-117213095D01*
X146216571Y-116927380D02*
X146311809Y-116927380D01*
X146407047Y-116975000D01*
X146454666Y-117022619D01*
X146502285Y-117117857D01*
X146549904Y-117308333D01*
X146549904Y-117546428D01*
X146502285Y-117736904D01*
X146454666Y-117832142D01*
X146407047Y-117879761D01*
X146311809Y-117927380D01*
X146216571Y-117927380D01*
X146121333Y-117879761D01*
X146073714Y-117832142D01*
X146026095Y-117736904D01*
X145978476Y-117546428D01*
X145978476Y-117308333D01*
X146026095Y-117117857D01*
X146073714Y-117022619D01*
X146121333Y-116975000D01*
X146216571Y-116927380D01*
X135551942Y-116479580D02*
X135218609Y-116003390D01*
X134980514Y-116479580D02*
X134980514Y-115479580D01*
X135361466Y-115479580D01*
X135456704Y-115527200D01*
X135504323Y-115574819D01*
X135551942Y-115670057D01*
X135551942Y-115812914D01*
X135504323Y-115908152D01*
X135456704Y-115955771D01*
X135361466Y-116003390D01*
X134980514Y-116003390D01*
X136504323Y-116479580D02*
X135932895Y-116479580D01*
X136218609Y-116479580D02*
X136218609Y-115479580D01*
X136123371Y-115622438D01*
X136028133Y-115717676D01*
X135932895Y-115765295D01*
X137409085Y-115479580D02*
X136932895Y-115479580D01*
X136885276Y-115955771D01*
X136932895Y-115908152D01*
X137028133Y-115860533D01*
X137266228Y-115860533D01*
X137361466Y-115908152D01*
X137409085Y-115955771D01*
X137456704Y-116051009D01*
X137456704Y-116289104D01*
X137409085Y-116384342D01*
X137361466Y-116431961D01*
X137266228Y-116479580D01*
X137028133Y-116479580D01*
X136932895Y-116431961D01*
X136885276Y-116384342D01*
X144594342Y-121153180D02*
X144261009Y-120676990D01*
X144022914Y-121153180D02*
X144022914Y-120153180D01*
X144403866Y-120153180D01*
X144499104Y-120200800D01*
X144546723Y-120248419D01*
X144594342Y-120343657D01*
X144594342Y-120486514D01*
X144546723Y-120581752D01*
X144499104Y-120629371D01*
X144403866Y-120676990D01*
X144022914Y-120676990D01*
X145546723Y-121153180D02*
X144975295Y-121153180D01*
X145261009Y-121153180D02*
X145261009Y-120153180D01*
X145165771Y-120296038D01*
X145070533Y-120391276D01*
X144975295Y-120438895D01*
X146118152Y-120581752D02*
X146022914Y-120534133D01*
X145975295Y-120486514D01*
X145927676Y-120391276D01*
X145927676Y-120343657D01*
X145975295Y-120248419D01*
X146022914Y-120200800D01*
X146118152Y-120153180D01*
X146308628Y-120153180D01*
X146403866Y-120200800D01*
X146451485Y-120248419D01*
X146499104Y-120343657D01*
X146499104Y-120391276D01*
X146451485Y-120486514D01*
X146403866Y-120534133D01*
X146308628Y-120581752D01*
X146118152Y-120581752D01*
X146022914Y-120629371D01*
X145975295Y-120676990D01*
X145927676Y-120772228D01*
X145927676Y-120962704D01*
X145975295Y-121057942D01*
X146022914Y-121105561D01*
X146118152Y-121153180D01*
X146308628Y-121153180D01*
X146403866Y-121105561D01*
X146451485Y-121057942D01*
X146499104Y-120962704D01*
X146499104Y-120772228D01*
X146451485Y-120676990D01*
X146403866Y-120629371D01*
X146308628Y-120581752D01*
X154652742Y-123293142D02*
X154605123Y-123340761D01*
X154462266Y-123388380D01*
X154367028Y-123388380D01*
X154224171Y-123340761D01*
X154128933Y-123245523D01*
X154081314Y-123150285D01*
X154033695Y-122959809D01*
X154033695Y-122816952D01*
X154081314Y-122626476D01*
X154128933Y-122531238D01*
X154224171Y-122436000D01*
X154367028Y-122388380D01*
X154462266Y-122388380D01*
X154605123Y-122436000D01*
X154652742Y-122483619D01*
X155605123Y-123388380D02*
X155033695Y-123388380D01*
X155319409Y-123388380D02*
X155319409Y-122388380D01*
X155224171Y-122531238D01*
X155128933Y-122626476D01*
X155033695Y-122674095D01*
X156557504Y-123388380D02*
X155986076Y-123388380D01*
X156271790Y-123388380D02*
X156271790Y-122388380D01*
X156176552Y-122531238D01*
X156081314Y-122626476D01*
X155986076Y-122674095D01*
X138720533Y-81891142D02*
X138672914Y-81938761D01*
X138530057Y-81986380D01*
X138434819Y-81986380D01*
X138291961Y-81938761D01*
X138196723Y-81843523D01*
X138149104Y-81748285D01*
X138101485Y-81557809D01*
X138101485Y-81414952D01*
X138149104Y-81224476D01*
X138196723Y-81129238D01*
X138291961Y-81034000D01*
X138434819Y-80986380D01*
X138530057Y-80986380D01*
X138672914Y-81034000D01*
X138720533Y-81081619D01*
X139672914Y-81986380D02*
X139101485Y-81986380D01*
X139387200Y-81986380D02*
X139387200Y-80986380D01*
X139291961Y-81129238D01*
X139196723Y-81224476D01*
X139101485Y-81272095D01*
X153992342Y-112009180D02*
X153659009Y-111532990D01*
X153420914Y-112009180D02*
X153420914Y-111009180D01*
X153801866Y-111009180D01*
X153897104Y-111056800D01*
X153944723Y-111104419D01*
X153992342Y-111199657D01*
X153992342Y-111342514D01*
X153944723Y-111437752D01*
X153897104Y-111485371D01*
X153801866Y-111532990D01*
X153420914Y-111532990D01*
X154944723Y-112009180D02*
X154373295Y-112009180D01*
X154659009Y-112009180D02*
X154659009Y-111009180D01*
X154563771Y-111152038D01*
X154468533Y-111247276D01*
X154373295Y-111294895D01*
X155801866Y-111342514D02*
X155801866Y-112009180D01*
X155563771Y-110961561D02*
X155325676Y-111675847D01*
X155944723Y-111675847D01*
X148971095Y-84034380D02*
X148971095Y-84843904D01*
X149018714Y-84939142D01*
X149066333Y-84986761D01*
X149161571Y-85034380D01*
X149352047Y-85034380D01*
X149447285Y-84986761D01*
X149494904Y-84939142D01*
X149542523Y-84843904D01*
X149542523Y-84034380D01*
X150542523Y-85034380D02*
X149971095Y-85034380D01*
X150256809Y-85034380D02*
X150256809Y-84034380D01*
X150161571Y-84177238D01*
X150066333Y-84272476D01*
X149971095Y-84320095D01*
X135834380Y-82081666D02*
X135358190Y-82415000D01*
X135834380Y-82653095D02*
X134834380Y-82653095D01*
X134834380Y-82272142D01*
X134882000Y-82176904D01*
X134929619Y-82129285D01*
X135024857Y-82081666D01*
X135167714Y-82081666D01*
X135262952Y-82129285D01*
X135310571Y-82176904D01*
X135358190Y-82272142D01*
X135358190Y-82653095D01*
X134929619Y-81700714D02*
X134882000Y-81653095D01*
X134834380Y-81557857D01*
X134834380Y-81319761D01*
X134882000Y-81224523D01*
X134929619Y-81176904D01*
X135024857Y-81129285D01*
X135120095Y-81129285D01*
X135262952Y-81176904D01*
X135834380Y-81748333D01*
X135834380Y-81129285D01*
X149780666Y-82256380D02*
X149780666Y-82970666D01*
X149733047Y-83113523D01*
X149637809Y-83208761D01*
X149494952Y-83256380D01*
X149399714Y-83256380D01*
X150780666Y-83256380D02*
X150209238Y-83256380D01*
X150494952Y-83256380D02*
X150494952Y-82256380D01*
X150399714Y-82399238D01*
X150304476Y-82494476D01*
X150209238Y-82542095D01*
X133538933Y-101087180D02*
X133205600Y-100610990D01*
X132967504Y-101087180D02*
X132967504Y-100087180D01*
X133348457Y-100087180D01*
X133443695Y-100134800D01*
X133491314Y-100182419D01*
X133538933Y-100277657D01*
X133538933Y-100420514D01*
X133491314Y-100515752D01*
X133443695Y-100563371D01*
X133348457Y-100610990D01*
X132967504Y-100610990D01*
X134396076Y-100087180D02*
X134205600Y-100087180D01*
X134110361Y-100134800D01*
X134062742Y-100182419D01*
X133967504Y-100325276D01*
X133919885Y-100515752D01*
X133919885Y-100896704D01*
X133967504Y-100991942D01*
X134015123Y-101039561D01*
X134110361Y-101087180D01*
X134300838Y-101087180D01*
X134396076Y-101039561D01*
X134443695Y-100991942D01*
X134491314Y-100896704D01*
X134491314Y-100658609D01*
X134443695Y-100563371D01*
X134396076Y-100515752D01*
X134300838Y-100468133D01*
X134110361Y-100468133D01*
X134015123Y-100515752D01*
X133967504Y-100563371D01*
X133919885Y-100658609D01*
D11*
X144361200Y-108071600D02*
X145761200Y-107401600D01*
X144361200Y-106871600D02*
X144361200Y-110471600D01*
X144361200Y-110471600D02*
X139211200Y-110471600D01*
X144361200Y-109271600D02*
X145761200Y-109941600D01*
X145761200Y-107401600D02*
X146461200Y-107401600D01*
X145761200Y-109941600D02*
X146461200Y-109941600D01*
X139211200Y-106871600D02*
X144361200Y-106871600D01*
X147521200Y-83374620D02*
X147521200Y-83655780D01*
X148541200Y-83374620D02*
X148541200Y-83655780D01*
X130135100Y-102469942D02*
X130135100Y-102944458D01*
X131180100Y-102469942D02*
X131180100Y-102944458D01*
X146913600Y-101107400D02*
X144963600Y-101107400D01*
X146913600Y-101107400D02*
X148863600Y-101107400D01*
X146913600Y-92237400D02*
X148863600Y-92237400D01*
X146913600Y-92237400D02*
X143463600Y-92237400D01*
X136383500Y-104032542D02*
X136383500Y-104507058D01*
X137428500Y-104032542D02*
X137428500Y-104507058D01*
X146115300Y-83752458D02*
X146115300Y-83277942D01*
X145070300Y-83752458D02*
X145070300Y-83277942D01*
X138836400Y-112424800D02*
X137161400Y-112424800D01*
X138836400Y-112424800D02*
X139486400Y-112424800D01*
X138836400Y-115544800D02*
X138186400Y-115544800D01*
X138836400Y-115544800D02*
X139486400Y-115544800D01*
X132169780Y-129288000D02*
X131888620Y-129288000D01*
X132169780Y-128268000D02*
X131888620Y-128268000D01*
X140242058Y-86222100D02*
X139767542Y-86222100D01*
X140242058Y-85177100D02*
X139767542Y-85177100D01*
X154330400Y-102088400D02*
X154330400Y-104748400D01*
X154330400Y-104748400D02*
X141570400Y-104748400D01*
X155600400Y-102088400D02*
X156930400Y-102088400D01*
X154330400Y-102088400D02*
X141570400Y-102088400D01*
X156930400Y-102088400D02*
X156930400Y-103418400D01*
X141570400Y-102088400D02*
X141570400Y-104748400D01*
X142851600Y-84847820D02*
X142851600Y-85128980D01*
X141831600Y-84847820D02*
X141831600Y-85128980D01*
X129656100Y-102469942D02*
X129656100Y-102944458D01*
X128611100Y-102469942D02*
X128611100Y-102944458D01*
X144578800Y-83374620D02*
X144578800Y-83655780D01*
X143558800Y-83374620D02*
X143558800Y-83655780D01*
X139782800Y-134557600D02*
X139782800Y-131837600D01*
X139782800Y-134557600D02*
X134802800Y-134557600D01*
X139782800Y-131837600D02*
X134802800Y-131837600D01*
X135752100Y-102469942D02*
X135752100Y-102944458D01*
X134707100Y-102469942D02*
X134707100Y-102944458D01*
X138496664Y-123642800D02*
X137042536Y-123642800D01*
X138496664Y-121822800D02*
X137042536Y-121822800D01*
X142680458Y-118389900D02*
X142205942Y-118389900D01*
X142680458Y-119434900D02*
X142205942Y-119434900D01*
X142652758Y-114224300D02*
X142178242Y-114224300D01*
X142652758Y-115269300D02*
X142178242Y-115269300D01*
X136615700Y-114222058D02*
X136615700Y-113747542D01*
X135570700Y-114222058D02*
X135570700Y-113747542D01*
X128550400Y-104844400D02*
X128550400Y-110244400D01*
X131850400Y-104844400D02*
X131850400Y-110244400D01*
X131850400Y-104844400D02*
X128550400Y-104844400D01*
X151739600Y-105633600D02*
X148289600Y-105633600D01*
X151739600Y-110753600D02*
X149789600Y-110753600D01*
X151739600Y-110753600D02*
X153689600Y-110753600D01*
X151739600Y-105633600D02*
X153689600Y-105633600D01*
X153008800Y-131117600D02*
X153008800Y-133867600D01*
X140208800Y-122367600D02*
X140208800Y-125117600D01*
X140208800Y-131117600D02*
X140208800Y-133867600D01*
X153008800Y-122367600D02*
X153008800Y-125117600D01*
X152358800Y-134517600D02*
X140858800Y-134517600D01*
X140858800Y-121717600D02*
X152358800Y-121717600D01*
X152358800Y-134517600D02*
G75*
G03*
X153008800Y-133867600I-1J650001D01*
G01*
X153008800Y-122367600D02*
G75*
G03*
X152358800Y-121717600I-650001J-1D01*
G01*
X140208800Y-133867600D02*
G75*
G03*
X140858800Y-134517600I650001J1D01*
G01*
X140858800Y-121717600D02*
G75*
G03*
X140208800Y-122367600I1J-650001D01*
G01*
X131659100Y-102469942D02*
X131659100Y-102944458D01*
X132704100Y-102469942D02*
X132704100Y-102944458D01*
X135308800Y-124078000D02*
X135308800Y-120778000D01*
X135308800Y-120778000D02*
X129908800Y-120778000D01*
X135308800Y-124078000D02*
X129908800Y-124078000D01*
X147027020Y-90777600D02*
X147308180Y-90777600D01*
X147027020Y-91797600D02*
X147308180Y-91797600D01*
X149207200Y-121244000D02*
X157267200Y-121244000D01*
X157267200Y-116724000D02*
X149207200Y-116724000D01*
X157267200Y-121244000D02*
X157267200Y-116724000D01*
X138836400Y-116590400D02*
X139486400Y-116590400D01*
X138836400Y-119710400D02*
X138186400Y-119710400D01*
X138836400Y-116590400D02*
X137161400Y-116590400D01*
X138836400Y-119710400D02*
X139486400Y-119710400D01*
X132049600Y-99480800D02*
X136499600Y-99480800D01*
X142319600Y-94500800D02*
X142319600Y-90830800D01*
X142319600Y-87300800D02*
X132499600Y-87300800D01*
X142319600Y-88530800D02*
X142319600Y-87300800D01*
X141599600Y-99480800D02*
X142319600Y-99480800D01*
X142319600Y-99480800D02*
X142319600Y-96800800D01*
X137899600Y-99480800D02*
X140199600Y-99480800D01*
X130679600Y-98000800D02*
X130679600Y-97140800D01*
X157133600Y-115216600D02*
X150158600Y-115216600D01*
X148038600Y-115216600D02*
X144313600Y-115216600D01*
X151288600Y-112346600D02*
X144313600Y-112346600D01*
X157133600Y-112346600D02*
X157133600Y-115216600D01*
X144313600Y-112346600D02*
X144313600Y-115216600D01*
X157128600Y-112346600D02*
X153408600Y-112346600D01*
X132791252Y-126386000D02*
X131368748Y-126386000D01*
X132791252Y-124566000D02*
X131368748Y-124566000D01*
X138952500Y-104032542D02*
X138952500Y-104507058D01*
X137907500Y-104032542D02*
X137907500Y-104507058D01*
X139030942Y-121223300D02*
X139505458Y-121223300D01*
X139030942Y-120178300D02*
X139505458Y-120178300D01*
X142556080Y-113732800D02*
X142274920Y-113732800D01*
X142556080Y-112712800D02*
X142274920Y-112712800D01*
X155839900Y-107160858D02*
X155839900Y-106686342D01*
X156884900Y-107160858D02*
X156884900Y-106686342D01*
X134329700Y-84598742D02*
X134329700Y-85073258D01*
X133284700Y-84598742D02*
X133284700Y-85073258D01*
X128796000Y-114530800D02*
X129396000Y-114530800D01*
X129396000Y-117070800D02*
X129396000Y-115470800D01*
X134816000Y-118810800D02*
X133816000Y-118810800D01*
X134816000Y-120190800D02*
X134816000Y-112350800D01*
X133816000Y-113730800D02*
X134816000Y-113730800D01*
X133816000Y-118810800D02*
X133816000Y-113730800D01*
X129826000Y-120480800D02*
X133826000Y-120480800D01*
X129396000Y-112930800D02*
X128796000Y-112930800D01*
X134816000Y-112350800D02*
X128796000Y-112350800D01*
X133816000Y-118810800D02*
X133286000Y-118560800D01*
X129396000Y-119610800D02*
X129396000Y-118010800D01*
X133286000Y-118560800D02*
X133286000Y-113980800D01*
X129396000Y-115470800D02*
X128796000Y-115470800D01*
X129396000Y-114530800D02*
X129396000Y-112930800D01*
X133286000Y-113980800D02*
X133816000Y-113730800D01*
X128796000Y-119610800D02*
X129396000Y-119610800D01*
X128796000Y-112350800D02*
X128796000Y-120190800D01*
X128796000Y-117070800D02*
X129396000Y-117070800D01*
X134816000Y-113980800D02*
X133816000Y-113980800D01*
X128796000Y-120190800D02*
X134816000Y-120190800D01*
X134816000Y-118560800D02*
X133816000Y-118560800D01*
X129396000Y-118010800D02*
X128796000Y-118010800D01*
X139770800Y-127914400D02*
X139770800Y-125964400D01*
X134650800Y-127914400D02*
X134650800Y-131364400D01*
X134650800Y-127914400D02*
X134650800Y-125964400D01*
X139770800Y-127914400D02*
X139770800Y-129864400D01*
X142583780Y-117898400D02*
X142302620Y-117898400D01*
X142583780Y-116878400D02*
X142302620Y-116878400D01*
X135570700Y-117760742D02*
X135570700Y-118235258D01*
X136615700Y-117760742D02*
X136615700Y-118235258D01*
X142123642Y-120178300D02*
X142598158Y-120178300D01*
X142123642Y-121223300D02*
X142598158Y-121223300D01*
X156256400Y-125414748D02*
X156256400Y-126837252D01*
X154436400Y-125414748D02*
X154436400Y-126837252D01*
X139598452Y-82503600D02*
X138175948Y-82503600D01*
X139598452Y-84323600D02*
X138175948Y-84323600D01*
X156884900Y-109785142D02*
X156884900Y-110259658D01*
X155839900Y-109785142D02*
X155839900Y-110259658D01*
X146913600Y-90342400D02*
X148863600Y-90342400D01*
X146913600Y-90342400D02*
X144963600Y-90342400D01*
X146913600Y-85222400D02*
X148863600Y-85222400D01*
X146913600Y-85222400D02*
X143463600Y-85222400D01*
X135904500Y-84598742D02*
X135904500Y-85073258D01*
X134859500Y-84598742D02*
X134859500Y-85073258D01*
X151137200Y-82632800D02*
X151137200Y-100632800D01*
X156557200Y-95912800D02*
X156557200Y-97512800D01*
X156557200Y-87352800D02*
X157157200Y-87352800D01*
X151137200Y-84262800D02*
X152137200Y-84262800D01*
X152137200Y-99252800D02*
X152137200Y-94172800D01*
X157157200Y-100632800D02*
X157157200Y-82632800D01*
X156557200Y-88292800D02*
X156557200Y-89892800D01*
X152137200Y-99252800D02*
X152667200Y-99002800D01*
X151137200Y-99002800D02*
X152137200Y-99002800D01*
X152667200Y-89092800D02*
X152137200Y-89092800D01*
X152667200Y-99002800D02*
X152667200Y-94172800D01*
X156557200Y-98452800D02*
X156557200Y-100052800D01*
X156557200Y-85752800D02*
X156557200Y-87352800D01*
X156557200Y-94972800D02*
X157157200Y-94972800D01*
X156557200Y-84812800D02*
X157157200Y-84812800D01*
X156127200Y-82342800D02*
X152127200Y-82342800D01*
X151137200Y-84012800D02*
X152137200Y-84012800D01*
X157157200Y-83212800D02*
X156557200Y-83212800D01*
X156557200Y-83212800D02*
X156557200Y-84812800D01*
X156557200Y-93372800D02*
X156557200Y-94972800D01*
X152137200Y-84012800D02*
X152667200Y-84262800D01*
X152137200Y-94172800D02*
X151137200Y-94172800D01*
X151137200Y-99252800D02*
X152137200Y-99252800D01*
X157157200Y-82632800D02*
X151137200Y-82632800D01*
X156557200Y-97512800D02*
X157157200Y-97512800D01*
X156557200Y-90832800D02*
X156557200Y-92432800D01*
X157157200Y-93372800D02*
X156557200Y-93372800D01*
X152667200Y-94172800D02*
X152137200Y-94172800D01*
X157157200Y-98452800D02*
X156557200Y-98452800D01*
X157157200Y-85752800D02*
X156557200Y-85752800D01*
X156557200Y-92432800D02*
X157157200Y-92432800D01*
X156557200Y-100052800D02*
X157157200Y-100052800D01*
X157157200Y-95912800D02*
X156557200Y-95912800D01*
X152137200Y-89092800D02*
X151137200Y-89092800D01*
X157157200Y-90832800D02*
X156557200Y-90832800D01*
X156557200Y-89892800D02*
X157157200Y-89892800D01*
X157157200Y-88292800D02*
X156557200Y-88292800D01*
X152667200Y-84262800D02*
X152667200Y-89092800D01*
X152137200Y-84012800D02*
X152137200Y-89092800D01*
X151137200Y-100632800D02*
X157157200Y-100632800D01*
X134228100Y-102469942D02*
X134228100Y-102944458D01*
X133183100Y-102469942D02*
X133183100Y-102944458D01*
%LPC*%
D12*
X138411200Y-106671600D03*
X138411200Y-110671600D03*
D13*
X138411200Y-108671600D03*
D14*
X147161200Y-109941600D03*
X147161200Y-107401600D03*
D15*
X148031200Y-82740200D03*
X148031200Y-84290200D03*
D16*
X130657600Y-101882200D03*
X130657600Y-103532200D03*
D17*
X144438600Y-92862400D03*
X144438600Y-94132400D03*
X144438600Y-95402400D03*
X144438600Y-96672400D03*
X144438600Y-97942400D03*
X144438600Y-99212400D03*
X144438600Y-100482400D03*
X149388600Y-100482400D03*
X149388600Y-99212400D03*
X149388600Y-97942400D03*
X149388600Y-96672400D03*
X149388600Y-95402400D03*
X149388600Y-94132400D03*
X149388600Y-92862400D03*
D16*
X136906000Y-103444800D03*
X136906000Y-105094800D03*
D18*
X145592800Y-84340200D03*
X145592800Y-82690200D03*
D19*
X137898900Y-113034800D03*
X137898900Y-114934800D03*
X139773900Y-113984800D03*
D20*
X132804200Y-128778000D03*
X131254200Y-128778000D03*
D21*
X140829800Y-85699600D03*
X139179800Y-85699600D03*
D22*
X155600400Y-103418400D03*
D23*
X153060400Y-103418400D03*
X150520400Y-103418400D03*
X147980400Y-103418400D03*
X145440400Y-103418400D03*
X142900400Y-103418400D03*
D15*
X142341600Y-84213400D03*
X142341600Y-85763400D03*
D16*
X129133600Y-101882200D03*
X129133600Y-103532200D03*
D15*
X144068800Y-82740200D03*
X144068800Y-84290200D03*
D24*
X138902800Y-133197600D03*
X134502800Y-133197600D03*
D16*
X135229600Y-101882200D03*
X135229600Y-103532200D03*
D25*
X136307100Y-122732800D03*
X139232100Y-122732800D03*
D26*
X155346400Y-132689600D03*
D21*
X143268200Y-118912400D03*
X141618200Y-118912400D03*
X143240500Y-114746800D03*
X141590500Y-114746800D03*
D18*
X136093200Y-114809800D03*
X136093200Y-113159800D03*
D27*
X130200400Y-106244400D03*
X130200400Y-110244400D03*
D26*
X130352800Y-132689600D03*
D17*
X149264600Y-106288600D03*
X149264600Y-107558600D03*
X149264600Y-108828600D03*
X149264600Y-110098600D03*
X154214600Y-110098600D03*
X154214600Y-108828600D03*
X154214600Y-107558600D03*
X154214600Y-106288600D03*
D28*
X141758800Y-128117600D03*
X151458800Y-128117600D03*
D16*
X132181600Y-101882200D03*
X132181600Y-103532200D03*
D29*
X133908800Y-122428000D03*
X129908800Y-122428000D03*
D30*
X146392600Y-91287600D03*
X147942600Y-91287600D03*
D31*
X155969700Y-118984000D03*
X149744700Y-118984000D03*
D26*
X155346400Y-77825600D03*
D19*
X137898900Y-117200400D03*
X137898900Y-119100400D03*
X139773900Y-118150400D03*
D32*
X131049600Y-96515800D03*
X131049600Y-95415800D03*
X131049600Y-94315800D03*
X131049600Y-93215800D03*
X131049600Y-92115800D03*
X131049600Y-91015800D03*
X131049600Y-89915800D03*
D33*
X131049600Y-88865800D03*
D34*
X137199600Y-99150800D03*
X140899600Y-99150800D03*
D35*
X131399600Y-87655800D03*
D36*
X141874600Y-95650800D03*
X141874600Y-89680800D03*
D37*
X131174600Y-98975800D03*
D38*
X152348600Y-112556600D03*
D39*
X149098600Y-115006600D03*
D40*
X133555000Y-125476000D03*
X130605000Y-125476000D03*
D16*
X138430000Y-103444800D03*
X138430000Y-105094800D03*
D41*
X138443200Y-120700800D03*
X140093200Y-120700800D03*
D20*
X143190500Y-113222800D03*
X141640500Y-113222800D03*
D18*
X156362400Y-107748600D03*
X156362400Y-106098600D03*
D16*
X133807200Y-84011000D03*
X133807200Y-85661000D03*
D42*
X131826000Y-118810800D03*
D43*
X131826000Y-116270800D03*
X131826000Y-113730800D03*
D44*
X135305800Y-130389400D03*
X136575800Y-130389400D03*
X137845800Y-130389400D03*
X139115800Y-130389400D03*
X139115800Y-125439400D03*
X137845800Y-125439400D03*
X136575800Y-125439400D03*
X135305800Y-125439400D03*
D20*
X143218200Y-117388400D03*
X141668200Y-117388400D03*
D16*
X136093200Y-117173000D03*
X136093200Y-118823000D03*
D41*
X141535900Y-120700800D03*
X143185900Y-120700800D03*
D45*
X155346400Y-124651000D03*
X155346400Y-127601000D03*
D40*
X140362200Y-83413600D03*
X137412200Y-83413600D03*
D16*
X156362400Y-109197400D03*
X156362400Y-110847400D03*
D17*
X144438600Y-85877400D03*
X144438600Y-87147400D03*
X144438600Y-88417400D03*
X144438600Y-89687400D03*
X149388600Y-89687400D03*
X149388600Y-88417400D03*
X149388600Y-87147400D03*
X149388600Y-85877400D03*
D16*
X135382000Y-84011000D03*
X135382000Y-85661000D03*
D26*
X130352800Y-77825600D03*
D46*
X154127200Y-84012800D03*
D43*
X154127200Y-86552800D03*
X154127200Y-89092800D03*
X154127200Y-91632800D03*
X154127200Y-94172800D03*
X154127200Y-96712800D03*
X154127200Y-99252800D03*
D16*
X133705600Y-101882200D03*
X133705600Y-103532200D03*
M02*
