G04 #@! TF.GenerationSoftware,KiCad,Pcbnew,6.0.0-d3dd2cf0fa~116~ubuntu18.04.1*
G04 #@! TF.CreationDate,2023-02-13T16:22:56+00:00*
G04 #@! TF.ProjectId,RemoteESP32,52656d6f-7465-4455-9350-33322e6b6963,rev?*
G04 #@! TF.SameCoordinates,Original*
G04 #@! TF.FileFunction,Legend,Bot*
G04 #@! TF.FilePolarity,Positive*
%FSLAX46Y46*%
G04 Gerber Fmt 4.6, Leading zero omitted, Abs format (unit mm)*
G04 Created by KiCad (PCBNEW 6.0.0-d3dd2cf0fa~116~ubuntu18.04.1) date 2023-02-13 16:22:56*
%MOMM*%
%LPD*%
G01*
G04 APERTURE LIST*
G04 Aperture macros list*
%AMRoundRect*
0 Rectangle with rounded corners*
0 $1 Rounding radius*
0 $2 $3 $4 $5 $6 $7 $8 $9 X,Y pos of 4 corners*
0 Add a 4 corners polygon primitive as box body*
4,1,4,$2,$3,$4,$5,$6,$7,$8,$9,$2,$3,0*
0 Add four circle primitives for the rounded corners*
1,1,$1+$1,$2,$3*
1,1,$1+$1,$4,$5*
1,1,$1+$1,$6,$7*
1,1,$1+$1,$8,$9*
0 Add four rect primitives between the rounded corners*
20,1,$1+$1,$2,$3,$4,$5,0*
20,1,$1+$1,$4,$5,$6,$7,0*
20,1,$1+$1,$6,$7,$8,$9,0*
20,1,$1+$1,$8,$9,$2,$3,0*%
G04 Aperture macros list end*
%ADD10C,0.150000*%
%ADD11C,0.120000*%
%ADD12R,1.200000X1.200000*%
%ADD13C,1.000000*%
%ADD14R,1.700000X1.700000*%
%ADD15O,1.700000X1.700000*%
%ADD16C,2.200000*%
%ADD17R,1.600000X1.600000*%
%ADD18C,1.600000*%
%ADD19RoundRect,0.250000X0.845000X-0.620000X0.845000X0.620000X-0.845000X0.620000X-0.845000X-0.620000X0*%
%ADD20O,2.190000X1.740000*%
%ADD21RoundRect,0.250000X-0.845000X0.620000X-0.845000X-0.620000X0.845000X-0.620000X0.845000X0.620000X0*%
%ADD22RoundRect,0.200000X-0.275000X0.200000X-0.275000X-0.200000X0.275000X-0.200000X0.275000X0.200000X0*%
%ADD23RoundRect,0.225000X-0.250000X0.225000X-0.250000X-0.225000X0.250000X-0.225000X0.250000X0.225000X0*%
%ADD24R,2.000000X0.900000*%
%ADD25R,0.900000X2.000000*%
%ADD26R,5.000000X5.000000*%
%ADD27RoundRect,0.200000X0.275000X-0.200000X0.275000X0.200000X-0.275000X0.200000X-0.275000X-0.200000X0*%
%ADD28RoundRect,0.225000X0.250000X-0.225000X0.250000X0.225000X-0.250000X0.225000X-0.250000X-0.225000X0*%
G04 APERTURE END LIST*
D10*
X152603200Y-99314000D02*
X152755600Y-98348800D01*
X152755600Y-98348800D02*
X153111200Y-98044000D01*
X153111200Y-98044000D02*
X154990800Y-97942400D01*
X157226000Y-90551000D02*
X156972000Y-91440000D01*
X152806400Y-100330000D02*
X152603200Y-99314000D01*
X156845000Y-82550000D02*
X157226000Y-83693000D01*
X154990800Y-97942400D02*
X155651200Y-97282000D01*
X157226000Y-83693000D02*
X157226000Y-90551000D01*
X156916380Y-84447142D02*
X156440190Y-84113809D01*
X156916380Y-83875714D02*
X155916380Y-83875714D01*
X155916380Y-84256666D01*
X155964000Y-84351904D01*
X156011619Y-84399523D01*
X156106857Y-84447142D01*
X156249714Y-84447142D01*
X156344952Y-84399523D01*
X156392571Y-84351904D01*
X156440190Y-84256666D01*
X156440190Y-83875714D01*
X156011619Y-84828095D02*
X155964000Y-84875714D01*
X155916380Y-84970952D01*
X155916380Y-85209047D01*
X155964000Y-85304285D01*
X156011619Y-85351904D01*
X156106857Y-85399523D01*
X156202095Y-85399523D01*
X156344952Y-85351904D01*
X156916380Y-84780476D01*
X156916380Y-85399523D01*
X156916380Y-86351904D02*
X156916380Y-85780476D01*
X156916380Y-86066190D02*
X155916380Y-86066190D01*
X156059238Y-85970952D01*
X156154476Y-85875714D01*
X156202095Y-85780476D01*
X130041942Y-91396342D02*
X130089561Y-91348723D01*
X130137180Y-91205866D01*
X130137180Y-91110628D01*
X130089561Y-90967771D01*
X129994323Y-90872533D01*
X129899085Y-90824914D01*
X129708609Y-90777295D01*
X129565752Y-90777295D01*
X129375276Y-90824914D01*
X129280038Y-90872533D01*
X129184800Y-90967771D01*
X129137180Y-91110628D01*
X129137180Y-91205866D01*
X129184800Y-91348723D01*
X129232419Y-91396342D01*
X130137180Y-92348723D02*
X130137180Y-91777295D01*
X130137180Y-92063009D02*
X129137180Y-92063009D01*
X129280038Y-91967771D01*
X129375276Y-91872533D01*
X129422895Y-91777295D01*
X129137180Y-92682057D02*
X129137180Y-93301104D01*
X129518133Y-92967771D01*
X129518133Y-93110628D01*
X129565752Y-93205866D01*
X129613371Y-93253485D01*
X129708609Y-93301104D01*
X129946704Y-93301104D01*
X130041942Y-93253485D01*
X130089561Y-93205866D01*
X130137180Y-93110628D01*
X130137180Y-92824914D01*
X130089561Y-92729676D01*
X130041942Y-92682057D01*
X132587904Y-83526380D02*
X132587904Y-84335904D01*
X132540285Y-84431142D01*
X132492666Y-84478761D01*
X132397428Y-84526380D01*
X132206952Y-84526380D01*
X132111714Y-84478761D01*
X132064095Y-84431142D01*
X132016476Y-84335904D01*
X132016476Y-83526380D01*
X131064095Y-83526380D02*
X131540285Y-83526380D01*
X131587904Y-84002571D01*
X131540285Y-83954952D01*
X131445047Y-83907333D01*
X131206952Y-83907333D01*
X131111714Y-83954952D01*
X131064095Y-84002571D01*
X131016476Y-84097809D01*
X131016476Y-84335904D01*
X131064095Y-84431142D01*
X131111714Y-84478761D01*
X131206952Y-84526380D01*
X131445047Y-84526380D01*
X131540285Y-84478761D01*
X131587904Y-84431142D01*
X156344857Y-82367380D02*
X156678190Y-81891190D01*
X156916285Y-82367380D02*
X156916285Y-81367380D01*
X156535333Y-81367380D01*
X156440095Y-81415000D01*
X156392476Y-81462619D01*
X156344857Y-81557857D01*
X156344857Y-81700714D01*
X156392476Y-81795952D01*
X156440095Y-81843571D01*
X156535333Y-81891190D01*
X156916285Y-81891190D01*
X155963904Y-81462619D02*
X155916285Y-81415000D01*
X155821047Y-81367380D01*
X155582952Y-81367380D01*
X155487714Y-81415000D01*
X155440095Y-81462619D01*
X155392476Y-81557857D01*
X155392476Y-81653095D01*
X155440095Y-81795952D01*
X156011523Y-82367380D01*
X155392476Y-82367380D01*
X155011523Y-81462619D02*
X154963904Y-81415000D01*
X154868666Y-81367380D01*
X154630571Y-81367380D01*
X154535333Y-81415000D01*
X154487714Y-81462619D01*
X154440095Y-81557857D01*
X154440095Y-81653095D01*
X154487714Y-81795952D01*
X155059142Y-82367380D01*
X154440095Y-82367380D01*
X153931857Y-101595180D02*
X154265190Y-101118990D01*
X154503285Y-101595180D02*
X154503285Y-100595180D01*
X154122333Y-100595180D01*
X154027095Y-100642800D01*
X153979476Y-100690419D01*
X153931857Y-100785657D01*
X153931857Y-100928514D01*
X153979476Y-101023752D01*
X154027095Y-101071371D01*
X154122333Y-101118990D01*
X154503285Y-101118990D01*
X153550904Y-100690419D02*
X153503285Y-100642800D01*
X153408047Y-100595180D01*
X153169952Y-100595180D01*
X153074714Y-100642800D01*
X153027095Y-100690419D01*
X152979476Y-100785657D01*
X152979476Y-100880895D01*
X153027095Y-101023752D01*
X153598523Y-101595180D01*
X152979476Y-101595180D01*
X152646142Y-100595180D02*
X152027095Y-100595180D01*
X152360428Y-100976133D01*
X152217571Y-100976133D01*
X152122333Y-101023752D01*
X152074714Y-101071371D01*
X152027095Y-101166609D01*
X152027095Y-101404704D01*
X152074714Y-101499942D01*
X152122333Y-101547561D01*
X152217571Y-101595180D01*
X152503285Y-101595180D01*
X152598523Y-101547561D01*
X152646142Y-101499942D01*
X153526742Y-107499942D02*
X153574361Y-107452323D01*
X153621980Y-107309466D01*
X153621980Y-107214228D01*
X153574361Y-107071371D01*
X153479123Y-106976133D01*
X153383885Y-106928514D01*
X153193409Y-106880895D01*
X153050552Y-106880895D01*
X152860076Y-106928514D01*
X152764838Y-106976133D01*
X152669600Y-107071371D01*
X152621980Y-107214228D01*
X152621980Y-107309466D01*
X152669600Y-107452323D01*
X152717219Y-107499942D01*
X153621980Y-108452323D02*
X153621980Y-107880895D01*
X153621980Y-108166609D02*
X152621980Y-108166609D01*
X152764838Y-108071371D01*
X152860076Y-107976133D01*
X152907695Y-107880895D01*
X152717219Y-108833276D02*
X152669600Y-108880895D01*
X152621980Y-108976133D01*
X152621980Y-109214228D01*
X152669600Y-109309466D01*
X152717219Y-109357085D01*
X152812457Y-109404704D01*
X152907695Y-109404704D01*
X153050552Y-109357085D01*
X153621980Y-108785657D01*
X153621980Y-109404704D01*
X156725857Y-101671380D02*
X157059190Y-101195190D01*
X157297285Y-101671380D02*
X157297285Y-100671380D01*
X156916333Y-100671380D01*
X156821095Y-100719000D01*
X156773476Y-100766619D01*
X156725857Y-100861857D01*
X156725857Y-101004714D01*
X156773476Y-101099952D01*
X156821095Y-101147571D01*
X156916333Y-101195190D01*
X157297285Y-101195190D01*
X156344904Y-100766619D02*
X156297285Y-100719000D01*
X156202047Y-100671380D01*
X155963952Y-100671380D01*
X155868714Y-100719000D01*
X155821095Y-100766619D01*
X155773476Y-100861857D01*
X155773476Y-100957095D01*
X155821095Y-101099952D01*
X156392523Y-101671380D01*
X155773476Y-101671380D01*
X154916333Y-101004714D02*
X154916333Y-101671380D01*
X155154428Y-100623761D02*
X155392523Y-101338047D01*
X154773476Y-101338047D01*
D11*
X156884900Y-87595942D02*
X156884900Y-88070458D01*
X155839900Y-87595942D02*
X155839900Y-88070458D01*
X130604800Y-91898620D02*
X130604800Y-92179780D01*
X131624800Y-91898620D02*
X131624800Y-92179780D01*
X151715600Y-100631200D02*
X151715600Y-101411200D01*
X151715600Y-75666200D02*
X151715600Y-82086200D01*
X151715600Y-75666200D02*
X133475600Y-75666200D01*
X151715600Y-101411200D02*
X150715600Y-101411200D01*
X151715600Y-82086200D02*
X152095600Y-82086200D01*
X133475600Y-100631200D02*
X133475600Y-101411200D01*
X133475600Y-75666200D02*
X133475600Y-82086200D01*
X133475600Y-101411200D02*
X134475600Y-101411200D01*
X156884900Y-93089258D02*
X156884900Y-92614742D01*
X155839900Y-93089258D02*
X155839900Y-92614742D01*
X155839900Y-95662742D02*
X155839900Y-96137258D01*
X156884900Y-95662742D02*
X156884900Y-96137258D01*
X151229600Y-108283380D02*
X151229600Y-108002220D01*
X152249600Y-108283380D02*
X152249600Y-108002220D01*
X156884900Y-98698542D02*
X156884900Y-99173058D01*
X155839900Y-98698542D02*
X155839900Y-99173058D01*
%LPC*%
D12*
X138411200Y-106671600D03*
X138411200Y-110671600D03*
D13*
X147161200Y-109941600D03*
X147161200Y-107401600D03*
D14*
X155600400Y-103418400D03*
D15*
X153060400Y-103418400D03*
X150520400Y-103418400D03*
X147980400Y-103418400D03*
X145440400Y-103418400D03*
X142900400Y-103418400D03*
D16*
X155346400Y-132689600D03*
X130352800Y-132689600D03*
X155346400Y-77825600D03*
D17*
X152348600Y-112556600D03*
D18*
X149098600Y-115006600D03*
D19*
X131826000Y-118810800D03*
D20*
X131826000Y-116270800D03*
X131826000Y-113730800D03*
D16*
X130352800Y-77825600D03*
D21*
X154127200Y-84012800D03*
D20*
X154127200Y-86552800D03*
X154127200Y-89092800D03*
X154127200Y-91632800D03*
X154127200Y-94172800D03*
X154127200Y-96712800D03*
X154127200Y-99252800D03*
D22*
X156362400Y-87008200D03*
X156362400Y-88658200D03*
D23*
X131114800Y-91264200D03*
X131114800Y-92814200D03*
D24*
X151095600Y-83276200D03*
X151095600Y-84546200D03*
X151095600Y-85816200D03*
X151095600Y-87086200D03*
X151095600Y-88356200D03*
X151095600Y-89626200D03*
X151095600Y-90896200D03*
X151095600Y-92166200D03*
X151095600Y-93436200D03*
X151095600Y-94706200D03*
X151095600Y-95976200D03*
X151095600Y-97246200D03*
X151095600Y-98516200D03*
X151095600Y-99786200D03*
D25*
X148310600Y-100786200D03*
X147040600Y-100786200D03*
X145770600Y-100786200D03*
X144500600Y-100786200D03*
X143230600Y-100786200D03*
X141960600Y-100786200D03*
X140690600Y-100786200D03*
X139420600Y-100786200D03*
X138150600Y-100786200D03*
X136880600Y-100786200D03*
D24*
X134095600Y-99786200D03*
X134095600Y-98516200D03*
X134095600Y-97246200D03*
X134095600Y-95976200D03*
X134095600Y-94706200D03*
X134095600Y-93436200D03*
X134095600Y-92166200D03*
X134095600Y-90896200D03*
X134095600Y-89626200D03*
X134095600Y-88356200D03*
X134095600Y-87086200D03*
X134095600Y-85816200D03*
X134095600Y-84546200D03*
X134095600Y-83276200D03*
D26*
X143595600Y-90776200D03*
D27*
X156362400Y-93677000D03*
X156362400Y-92027000D03*
D22*
X156362400Y-95075000D03*
X156362400Y-96725000D03*
D28*
X151739600Y-108917800D03*
X151739600Y-107367800D03*
D22*
X156362400Y-98110800D03*
X156362400Y-99760800D03*
M02*
