M48
; DRILL file {KiCad 6.0.0-d3dd2cf0fa~116~ubuntu18.04.1} date Mon 13 Feb 2023 16:23:21 GMT
; FORMAT={-:-/ absolute / metric / decimal}
; #@! TF.CreationDate,2023-02-13T16:23:21+00:00
; #@! TF.GenerationSoftware,Kicad,Pcbnew,6.0.0-d3dd2cf0fa~116~ubuntu18.04.1
; #@! TF.FileFunction,Plated,1,4,PTH
FMAT,2
METRIC
; #@! TA.AperFunction,Plated,PTH,ViaDrill
T1C0.400
; #@! TA.AperFunction,Plated,PTH,ComponentDrill
T2C0.500
; #@! TA.AperFunction,Plated,PTH,ComponentDrill
T3C0.800
; #@! TA.AperFunction,Plated,PTH,ComponentDrill
T4C1.000
; #@! TA.AperFunction,Plated,PTH,ComponentDrill
T5C1.090
; #@! TA.AperFunction,Plated,PTH,ComponentDrill
T6C1.190
%
G90
G05
T1
X129.388Y-125.476
X129.896Y-104.333
X129.946Y-88.856
X129.96Y-89.906
X129.96Y-94.717
X130.15Y-128.778
X131.166Y-100.421
X131.42Y-86.35
X132.091Y-100.81
X132.182Y-104.638
X132.307Y-92.84
X132.334Y-83.302
X132.334Y-84.836
X132.334Y-91.226
X132.334Y-94.132
X132.983Y-133.223
X133.706Y-104.638
X134.01Y-128.778
X134.874Y-113.172
X134.874Y-118.811
X135.23Y-104.638
X135.738Y-92.141
X135.738Y-93.436
X135.738Y-98.491
X135.738Y-99.862
X135.89Y-97.272
X135.98Y-133.172
X136.449Y-84.938
X136.906Y-102.402
X136.906Y-106.2
X136.957Y-97.285
X137.312Y-120.091
X137.82Y-94.128
X137.82Y-128.778
X138.125Y-85.7
X138.315Y-98.776
X138.582Y-87.071
X138.633Y-82.956
X139.116Y-128.778
X139.192Y-83.871
X139.395Y-112.969
X139.395Y-114.95
X139.395Y-117.185
X139.395Y-119.116
X139.598Y-105.095
X139.751Y-102.555
X139.784Y-94.15
X139.805Y-87.068
X140.157Y-91.084
X140.513Y-95.656
X140.513Y-97.892
X140.668Y-103.328
X141.478Y-90.769
X141.575Y-92.774
X141.58Y-88.737
X141.63Y-105.298
X141.63Y-112.004
X141.681Y-116.118
X141.732Y-97.942
X141.935Y-83.058
X142.799Y-87.007
X142.85Y-97.18
X142.951Y-82.753
X143.205Y-112.004
X143.256Y-115.915
X144.24Y-120.701
X144.374Y-117.388
X144.374Y-118.963
X145.034Y-91.288
X146.101Y-87.173
X146.101Y-99.06
X146.761Y-82.702
X146.761Y-89.662
X146.812Y-84.328
X146.863Y-93.828
X147.676Y-94.996
X147.777Y-89.662
X148.996Y-91.694
X149.25Y-110.988
X149.403Y-83.261
X149.403Y-84.531
X149.454Y-101.498
X149.758Y-116.992
X149.758Y-121.006
X151.536Y-124.714
X151.536Y-131.521
X151.74Y-109.921
X152.197Y-106.314
X152.756Y-108.244
X152.857Y-109.514
X155.346Y-123.393
X155.346Y-128.88
X155.6Y-95.798
X155.956Y-116.942
X156.007Y-121.056
X156.362Y-105.044
X156.362Y-111.953
X156.566Y-85.293
T2
X147.161Y-107.402
X147.161Y-109.942
T3
X138.411Y-106.672
X138.411Y-110.672
T4
X142.9Y-103.418
X145.44Y-103.418
X147.98Y-103.418
X150.52Y-103.418
X153.06Y-103.418
X155.6Y-103.418
T5
X149.099Y-115.007
X152.349Y-112.557
T6
X131.826Y-113.731
X131.826Y-116.271
X131.826Y-118.811
X154.127Y-84.013
X154.127Y-86.553
X154.127Y-89.093
X154.127Y-91.633
X154.127Y-94.173
X154.127Y-96.713
X154.127Y-99.253
T0
M30
