%FSLAX45Y45*%
G04 Gerber Fmt 4.5, Leading zero omitted, Abs format (unit mm)*
G04 Created by KiCad (PCBNEW 6.0.0-d3dd2cf0fa~116~ubuntu18.04.1) date 2023-02-13 16:23:23*
%MOMM*%
%LPD*%
G01*
G04 APERTURE LIST*
%TA.AperFunction,Profile*%
%ADD10C,0.100000*%
%TD*%
%ADD11C,0.200000*%
%ADD12C,0.220000*%
G04 APERTURE END LIST*
D10*
X12816840Y-7563080D02*
X15753080Y-7563080D01*
X15753080Y-7563080D02*
X15753080Y-13486360D01*
X15753080Y-13486360D02*
X12816840Y-13486360D01*
X12816840Y-13486360D02*
X12816840Y-7563080D01*
D11*
D12*
X12925280Y-7672560D02*
X13145280Y-7892560D01*
X13145280Y-7672560D02*
X12925280Y-7892560D01*
X12925280Y-13158960D02*
X13145280Y-13378960D01*
X13145280Y-13158960D02*
X12925280Y-13378960D01*
X15424640Y-7672560D02*
X15644640Y-7892560D01*
X15644640Y-7672560D02*
X15424640Y-7892560D01*
X15424640Y-13158960D02*
X15644640Y-13378960D01*
X15644640Y-13158960D02*
X15424640Y-13378960D01*
D11*
X13069459Y-13801836D02*
X13069459Y-13601836D01*
X13117078Y-13601836D01*
X13145649Y-13611360D01*
X13164697Y-13630408D01*
X13174221Y-13649455D01*
X13183745Y-13687550D01*
X13183745Y-13716122D01*
X13174221Y-13754217D01*
X13164697Y-13773265D01*
X13145649Y-13792312D01*
X13117078Y-13801836D01*
X13069459Y-13801836D01*
X13269459Y-13801836D02*
X13269459Y-13668503D01*
X13269459Y-13706598D02*
X13278983Y-13687550D01*
X13288507Y-13678027D01*
X13307554Y-13668503D01*
X13326602Y-13668503D01*
X13393268Y-13801836D02*
X13393268Y-13668503D01*
X13393268Y-13601836D02*
X13383745Y-13611360D01*
X13393268Y-13620884D01*
X13402792Y-13611360D01*
X13393268Y-13601836D01*
X13393268Y-13620884D01*
X13517078Y-13801836D02*
X13498030Y-13792312D01*
X13488507Y-13773265D01*
X13488507Y-13601836D01*
X13621840Y-13801836D02*
X13602792Y-13792312D01*
X13593268Y-13773265D01*
X13593268Y-13601836D01*
X13850411Y-13801836D02*
X13850411Y-13601836D01*
X13917078Y-13744693D01*
X13983745Y-13601836D01*
X13983745Y-13801836D01*
X14164697Y-13801836D02*
X14164697Y-13697074D01*
X14155173Y-13678027D01*
X14136126Y-13668503D01*
X14098030Y-13668503D01*
X14078983Y-13678027D01*
X14164697Y-13792312D02*
X14145649Y-13801836D01*
X14098030Y-13801836D01*
X14078983Y-13792312D01*
X14069459Y-13773265D01*
X14069459Y-13754217D01*
X14078983Y-13735169D01*
X14098030Y-13725646D01*
X14145649Y-13725646D01*
X14164697Y-13716122D01*
X14259935Y-13668503D02*
X14259935Y-13868503D01*
X14259935Y-13678027D02*
X14278983Y-13668503D01*
X14317078Y-13668503D01*
X14336126Y-13678027D01*
X14345649Y-13687550D01*
X14355173Y-13706598D01*
X14355173Y-13763741D01*
X14345649Y-13782788D01*
X14336126Y-13792312D01*
X14317078Y-13801836D01*
X14278983Y-13801836D01*
X14259935Y-13792312D01*
X14440888Y-13782788D02*
X14450411Y-13792312D01*
X14440888Y-13801836D01*
X14431364Y-13792312D01*
X14440888Y-13782788D01*
X14440888Y-13801836D01*
X14440888Y-13678027D02*
X14450411Y-13687550D01*
X14440888Y-13697074D01*
X14431364Y-13687550D01*
X14440888Y-13678027D01*
X14440888Y-13697074D01*
X12611840Y-14031360D02*
X12811840Y-14231360D01*
X12811840Y-14031360D02*
X12611840Y-14231360D01*
X13059935Y-14040884D02*
X13069459Y-14031360D01*
X13088507Y-14021836D01*
X13136126Y-14021836D01*
X13155173Y-14031360D01*
X13164697Y-14040884D01*
X13174221Y-14059931D01*
X13174221Y-14078979D01*
X13164697Y-14107550D01*
X13050411Y-14221836D01*
X13174221Y-14221836D01*
X13259935Y-14202788D02*
X13269459Y-14212312D01*
X13259935Y-14221836D01*
X13250411Y-14212312D01*
X13259935Y-14202788D01*
X13259935Y-14221836D01*
X13345649Y-14040884D02*
X13355173Y-14031360D01*
X13374221Y-14021836D01*
X13421840Y-14021836D01*
X13440888Y-14031360D01*
X13450411Y-14040884D01*
X13459935Y-14059931D01*
X13459935Y-14078979D01*
X13450411Y-14107550D01*
X13336126Y-14221836D01*
X13459935Y-14221836D01*
X13583745Y-14021836D02*
X13602792Y-14021836D01*
X13621840Y-14031360D01*
X13631364Y-14040884D01*
X13640888Y-14059931D01*
X13650411Y-14098027D01*
X13650411Y-14145646D01*
X13640888Y-14183741D01*
X13631364Y-14202788D01*
X13621840Y-14212312D01*
X13602792Y-14221836D01*
X13583745Y-14221836D01*
X13564697Y-14212312D01*
X13555173Y-14202788D01*
X13545649Y-14183741D01*
X13536126Y-14145646D01*
X13536126Y-14098027D01*
X13545649Y-14059931D01*
X13555173Y-14040884D01*
X13564697Y-14031360D01*
X13583745Y-14021836D01*
X13774221Y-14021836D02*
X13793268Y-14021836D01*
X13812316Y-14031360D01*
X13821840Y-14040884D01*
X13831364Y-14059931D01*
X13840888Y-14098027D01*
X13840888Y-14145646D01*
X13831364Y-14183741D01*
X13821840Y-14202788D01*
X13812316Y-14212312D01*
X13793268Y-14221836D01*
X13774221Y-14221836D01*
X13755173Y-14212312D01*
X13745649Y-14202788D01*
X13736126Y-14183741D01*
X13726602Y-14145646D01*
X13726602Y-14098027D01*
X13736126Y-14059931D01*
X13745649Y-14040884D01*
X13755173Y-14031360D01*
X13774221Y-14021836D01*
X13926602Y-14221836D02*
X13926602Y-14088503D01*
X13926602Y-14107550D02*
X13936126Y-14098027D01*
X13955173Y-14088503D01*
X13983745Y-14088503D01*
X14002792Y-14098027D01*
X14012316Y-14117074D01*
X14012316Y-14221836D01*
X14012316Y-14117074D02*
X14021840Y-14098027D01*
X14040888Y-14088503D01*
X14069459Y-14088503D01*
X14088507Y-14098027D01*
X14098030Y-14117074D01*
X14098030Y-14221836D01*
X14193268Y-14221836D02*
X14193268Y-14088503D01*
X14193268Y-14107550D02*
X14202792Y-14098027D01*
X14221840Y-14088503D01*
X14250411Y-14088503D01*
X14269459Y-14098027D01*
X14278983Y-14117074D01*
X14278983Y-14221836D01*
X14278983Y-14117074D02*
X14288507Y-14098027D01*
X14307554Y-14088503D01*
X14336126Y-14088503D01*
X14355173Y-14098027D01*
X14364697Y-14117074D01*
X14364697Y-14221836D01*
X14755173Y-14012312D02*
X14583745Y-14269455D01*
X15012316Y-14021836D02*
X15031364Y-14021836D01*
X15050411Y-14031360D01*
X15059935Y-14040884D01*
X15069459Y-14059931D01*
X15078983Y-14098027D01*
X15078983Y-14145646D01*
X15069459Y-14183741D01*
X15059935Y-14202788D01*
X15050411Y-14212312D01*
X15031364Y-14221836D01*
X15012316Y-14221836D01*
X14993268Y-14212312D01*
X14983745Y-14202788D01*
X14974221Y-14183741D01*
X14964697Y-14145646D01*
X14964697Y-14098027D01*
X14974221Y-14059931D01*
X14983745Y-14040884D01*
X14993268Y-14031360D01*
X15012316Y-14021836D01*
X15164697Y-14202788D02*
X15174221Y-14212312D01*
X15164697Y-14221836D01*
X15155173Y-14212312D01*
X15164697Y-14202788D01*
X15164697Y-14221836D01*
X15298030Y-14021836D02*
X15317078Y-14021836D01*
X15336126Y-14031360D01*
X15345649Y-14040884D01*
X15355173Y-14059931D01*
X15364697Y-14098027D01*
X15364697Y-14145646D01*
X15355173Y-14183741D01*
X15345649Y-14202788D01*
X15336126Y-14212312D01*
X15317078Y-14221836D01*
X15298030Y-14221836D01*
X15278983Y-14212312D01*
X15269459Y-14202788D01*
X15259935Y-14183741D01*
X15250411Y-14145646D01*
X15250411Y-14098027D01*
X15259935Y-14059931D01*
X15269459Y-14040884D01*
X15278983Y-14031360D01*
X15298030Y-14021836D01*
X15478983Y-14107550D02*
X15459935Y-14098027D01*
X15450411Y-14088503D01*
X15440888Y-14069455D01*
X15440888Y-14059931D01*
X15450411Y-14040884D01*
X15459935Y-14031360D01*
X15478983Y-14021836D01*
X15517078Y-14021836D01*
X15536126Y-14031360D01*
X15545649Y-14040884D01*
X15555173Y-14059931D01*
X15555173Y-14069455D01*
X15545649Y-14088503D01*
X15536126Y-14098027D01*
X15517078Y-14107550D01*
X15478983Y-14107550D01*
X15459935Y-14117074D01*
X15450411Y-14126598D01*
X15440888Y-14145646D01*
X15440888Y-14183741D01*
X15450411Y-14202788D01*
X15459935Y-14212312D01*
X15478983Y-14221836D01*
X15517078Y-14221836D01*
X15536126Y-14212312D01*
X15545649Y-14202788D01*
X15555173Y-14183741D01*
X15555173Y-14145646D01*
X15545649Y-14126598D01*
X15536126Y-14117074D01*
X15517078Y-14107550D01*
X15726602Y-14021836D02*
X15688507Y-14021836D01*
X15669459Y-14031360D01*
X15659935Y-14040884D01*
X15640888Y-14069455D01*
X15631364Y-14107550D01*
X15631364Y-14183741D01*
X15640888Y-14202788D01*
X15650411Y-14212312D01*
X15669459Y-14221836D01*
X15707554Y-14221836D01*
X15726602Y-14212312D01*
X15736126Y-14202788D01*
X15745649Y-14183741D01*
X15745649Y-14136122D01*
X15736126Y-14117074D01*
X15726602Y-14107550D01*
X15707554Y-14098027D01*
X15669459Y-14098027D01*
X15650411Y-14107550D01*
X15640888Y-14117074D01*
X15631364Y-14136122D01*
X15917078Y-14021836D02*
X15878983Y-14021836D01*
X15859935Y-14031360D01*
X15850411Y-14040884D01*
X15831364Y-14069455D01*
X15821840Y-14107550D01*
X15821840Y-14183741D01*
X15831364Y-14202788D01*
X15840888Y-14212312D01*
X15859935Y-14221836D01*
X15898030Y-14221836D01*
X15917078Y-14212312D01*
X15926602Y-14202788D01*
X15936126Y-14183741D01*
X15936126Y-14136122D01*
X15926602Y-14117074D01*
X15917078Y-14107550D01*
X15898030Y-14098027D01*
X15859935Y-14098027D01*
X15840888Y-14107550D01*
X15831364Y-14117074D01*
X15821840Y-14136122D01*
X16012316Y-14021836D02*
X16012316Y-14059931D01*
X16088507Y-14021836D02*
X16088507Y-14059931D01*
X16383745Y-14298027D02*
X16374221Y-14288503D01*
X16355173Y-14259931D01*
X16345649Y-14240884D01*
X16336126Y-14212312D01*
X16326602Y-14164693D01*
X16326602Y-14126598D01*
X16336126Y-14078979D01*
X16345649Y-14050408D01*
X16355173Y-14031360D01*
X16374221Y-14002788D01*
X16383745Y-13993265D01*
X16545649Y-14088503D02*
X16545649Y-14221836D01*
X16498030Y-14012312D02*
X16450411Y-14155169D01*
X16574221Y-14155169D01*
X16802792Y-14221836D02*
X16802792Y-14021836D01*
X16888507Y-14221836D02*
X16888507Y-14117074D01*
X16878983Y-14098027D01*
X16859935Y-14088503D01*
X16831364Y-14088503D01*
X16812316Y-14098027D01*
X16802792Y-14107550D01*
X17012316Y-14221836D02*
X16993269Y-14212312D01*
X16983745Y-14202788D01*
X16974221Y-14183741D01*
X16974221Y-14126598D01*
X16983745Y-14107550D01*
X16993269Y-14098027D01*
X17012316Y-14088503D01*
X17040888Y-14088503D01*
X17059935Y-14098027D01*
X17069459Y-14107550D01*
X17078983Y-14126598D01*
X17078983Y-14183741D01*
X17069459Y-14202788D01*
X17059935Y-14212312D01*
X17040888Y-14221836D01*
X17012316Y-14221836D01*
X17193269Y-14221836D02*
X17174221Y-14212312D01*
X17164697Y-14193265D01*
X17164697Y-14021836D01*
X17345650Y-14212312D02*
X17326602Y-14221836D01*
X17288507Y-14221836D01*
X17269459Y-14212312D01*
X17259935Y-14193265D01*
X17259935Y-14117074D01*
X17269459Y-14098027D01*
X17288507Y-14088503D01*
X17326602Y-14088503D01*
X17345650Y-14098027D01*
X17355173Y-14117074D01*
X17355173Y-14136122D01*
X17259935Y-14155169D01*
X17431364Y-14212312D02*
X17450411Y-14221836D01*
X17488507Y-14221836D01*
X17507554Y-14212312D01*
X17517078Y-14193265D01*
X17517078Y-14183741D01*
X17507554Y-14164693D01*
X17488507Y-14155169D01*
X17459935Y-14155169D01*
X17440888Y-14145646D01*
X17431364Y-14126598D01*
X17431364Y-14117074D01*
X17440888Y-14098027D01*
X17459935Y-14088503D01*
X17488507Y-14088503D01*
X17507554Y-14098027D01*
X17583745Y-14298027D02*
X17593269Y-14288503D01*
X17612316Y-14259931D01*
X17621840Y-14240884D01*
X17631364Y-14212312D01*
X17640888Y-14164693D01*
X17640888Y-14126598D01*
X17631364Y-14078979D01*
X17621840Y-14050408D01*
X17612316Y-14031360D01*
X17593269Y-14002788D01*
X17583745Y-13993265D01*
X17945650Y-14298027D02*
X17936126Y-14288503D01*
X17917078Y-14259931D01*
X17907554Y-14240884D01*
X17898030Y-14212312D01*
X17888507Y-14164693D01*
X17888507Y-14126598D01*
X17898030Y-14078979D01*
X17907554Y-14050408D01*
X17917078Y-14031360D01*
X17936126Y-14002788D01*
X17945650Y-13993265D01*
X18021840Y-14088503D02*
X18021840Y-14221836D01*
X18021840Y-14107550D02*
X18031364Y-14098027D01*
X18050411Y-14088503D01*
X18078983Y-14088503D01*
X18098030Y-14098027D01*
X18107554Y-14117074D01*
X18107554Y-14221836D01*
X18231364Y-14221836D02*
X18212316Y-14212312D01*
X18202792Y-14202788D01*
X18193269Y-14183741D01*
X18193269Y-14126598D01*
X18202792Y-14107550D01*
X18212316Y-14098027D01*
X18231364Y-14088503D01*
X18259935Y-14088503D01*
X18278983Y-14098027D01*
X18288507Y-14107550D01*
X18298030Y-14126598D01*
X18298030Y-14183741D01*
X18288507Y-14202788D01*
X18278983Y-14212312D01*
X18259935Y-14221836D01*
X18231364Y-14221836D01*
X18355173Y-14088503D02*
X18431364Y-14088503D01*
X18383745Y-14021836D02*
X18383745Y-14193265D01*
X18393269Y-14212312D01*
X18412316Y-14221836D01*
X18431364Y-14221836D01*
X18650411Y-14088503D02*
X18650411Y-14288503D01*
X18650411Y-14098027D02*
X18669459Y-14088503D01*
X18707554Y-14088503D01*
X18726602Y-14098027D01*
X18736126Y-14107550D01*
X18745650Y-14126598D01*
X18745650Y-14183741D01*
X18736126Y-14202788D01*
X18726602Y-14212312D01*
X18707554Y-14221836D01*
X18669459Y-14221836D01*
X18650411Y-14212312D01*
X18859935Y-14221836D02*
X18840888Y-14212312D01*
X18831364Y-14193265D01*
X18831364Y-14021836D01*
X19021840Y-14221836D02*
X19021840Y-14117074D01*
X19012316Y-14098027D01*
X18993269Y-14088503D01*
X18955173Y-14088503D01*
X18936126Y-14098027D01*
X19021840Y-14212312D02*
X19002792Y-14221836D01*
X18955173Y-14221836D01*
X18936126Y-14212312D01*
X18926602Y-14193265D01*
X18926602Y-14174217D01*
X18936126Y-14155169D01*
X18955173Y-14145646D01*
X19002792Y-14145646D01*
X19021840Y-14136122D01*
X19088507Y-14088503D02*
X19164697Y-14088503D01*
X19117078Y-14021836D02*
X19117078Y-14193265D01*
X19126602Y-14212312D01*
X19145650Y-14221836D01*
X19164697Y-14221836D01*
X19307554Y-14212312D02*
X19288507Y-14221836D01*
X19250411Y-14221836D01*
X19231364Y-14212312D01*
X19221840Y-14193265D01*
X19221840Y-14117074D01*
X19231364Y-14098027D01*
X19250411Y-14088503D01*
X19288507Y-14088503D01*
X19307554Y-14098027D01*
X19317078Y-14117074D01*
X19317078Y-14136122D01*
X19221840Y-14155169D01*
X19488507Y-14221836D02*
X19488507Y-14021836D01*
X19488507Y-14212312D02*
X19469459Y-14221836D01*
X19431364Y-14221836D01*
X19412316Y-14212312D01*
X19402792Y-14202788D01*
X19393269Y-14183741D01*
X19393269Y-14126598D01*
X19402792Y-14107550D01*
X19412316Y-14098027D01*
X19431364Y-14088503D01*
X19469459Y-14088503D01*
X19488507Y-14098027D01*
X19564697Y-14298027D02*
X19574221Y-14288503D01*
X19593269Y-14259931D01*
X19602792Y-14240884D01*
X19612316Y-14212312D01*
X19621840Y-14164693D01*
X19621840Y-14126598D01*
X19612316Y-14078979D01*
X19602792Y-14050408D01*
X19593269Y-14031360D01*
X19574221Y-14002788D01*
X19564697Y-13993265D01*
M02*
