G04 #@! TF.GenerationSoftware,KiCad,Pcbnew,6.0.0-d3dd2cf0fa~116~ubuntu18.04.1*
G04 #@! TF.CreationDate,2023-02-13T16:22:56+00:00*
G04 #@! TF.ProjectId,RemoteESP32,52656d6f-7465-4455-9350-33322e6b6963,rev?*
G04 #@! TF.SameCoordinates,Original*
G04 #@! TF.FileFunction,Copper,L4,Bot*
G04 #@! TF.FilePolarity,Positive*
%FSLAX46Y46*%
G04 Gerber Fmt 4.6, Leading zero omitted, Abs format (unit mm)*
G04 Created by KiCad (PCBNEW 6.0.0-d3dd2cf0fa~116~ubuntu18.04.1) date 2023-02-13 16:22:56*
%MOMM*%
%LPD*%
G01*
G04 APERTURE LIST*
G04 Aperture macros list*
%AMRoundRect*
0 Rectangle with rounded corners*
0 $1 Rounding radius*
0 $2 $3 $4 $5 $6 $7 $8 $9 X,Y pos of 4 corners*
0 Add a 4 corners polygon primitive as box body*
4,1,4,$2,$3,$4,$5,$6,$7,$8,$9,$2,$3,0*
0 Add four circle primitives for the rounded corners*
1,1,$1+$1,$2,$3*
1,1,$1+$1,$4,$5*
1,1,$1+$1,$6,$7*
1,1,$1+$1,$8,$9*
0 Add four rect primitives between the rounded corners*
20,1,$1+$1,$2,$3,$4,$5,0*
20,1,$1+$1,$4,$5,$6,$7,0*
20,1,$1+$1,$6,$7,$8,$9,0*
20,1,$1+$1,$8,$9,$2,$3,0*%
G04 Aperture macros list end*
G04 #@! TA.AperFunction,ComponentPad*
%ADD10R,1.200000X1.200000*%
G04 #@! TD*
G04 #@! TA.AperFunction,ComponentPad*
%ADD11C,1.000000*%
G04 #@! TD*
G04 #@! TA.AperFunction,ComponentPad*
%ADD12R,1.700000X1.700000*%
G04 #@! TD*
G04 #@! TA.AperFunction,ComponentPad*
%ADD13O,1.700000X1.700000*%
G04 #@! TD*
G04 #@! TA.AperFunction,ComponentPad*
%ADD14R,1.600000X1.600000*%
G04 #@! TD*
G04 #@! TA.AperFunction,ComponentPad*
%ADD15C,1.600000*%
G04 #@! TD*
G04 #@! TA.AperFunction,ComponentPad*
%ADD16RoundRect,0.250000X0.845000X-0.620000X0.845000X0.620000X-0.845000X0.620000X-0.845000X-0.620000X0*%
G04 #@! TD*
G04 #@! TA.AperFunction,ComponentPad*
%ADD17O,2.190000X1.740000*%
G04 #@! TD*
G04 #@! TA.AperFunction,ComponentPad*
%ADD18RoundRect,0.250000X-0.845000X0.620000X-0.845000X-0.620000X0.845000X-0.620000X0.845000X0.620000X0*%
G04 #@! TD*
G04 #@! TA.AperFunction,SMDPad,CuDef*
%ADD19RoundRect,0.200000X-0.275000X0.200000X-0.275000X-0.200000X0.275000X-0.200000X0.275000X0.200000X0*%
G04 #@! TD*
G04 #@! TA.AperFunction,SMDPad,CuDef*
%ADD20RoundRect,0.225000X-0.250000X0.225000X-0.250000X-0.225000X0.250000X-0.225000X0.250000X0.225000X0*%
G04 #@! TD*
G04 #@! TA.AperFunction,SMDPad,CuDef*
%ADD21R,2.000000X0.900000*%
G04 #@! TD*
G04 #@! TA.AperFunction,SMDPad,CuDef*
%ADD22R,0.900000X2.000000*%
G04 #@! TD*
G04 #@! TA.AperFunction,SMDPad,CuDef*
%ADD23R,5.000000X5.000000*%
G04 #@! TD*
G04 #@! TA.AperFunction,SMDPad,CuDef*
%ADD24RoundRect,0.200000X0.275000X-0.200000X0.275000X0.200000X-0.275000X0.200000X-0.275000X-0.200000X0*%
G04 #@! TD*
G04 #@! TA.AperFunction,SMDPad,CuDef*
%ADD25RoundRect,0.225000X0.250000X-0.225000X0.250000X0.225000X-0.250000X0.225000X-0.250000X-0.225000X0*%
G04 #@! TD*
G04 #@! TA.AperFunction,ViaPad*
%ADD26C,0.800000*%
G04 #@! TD*
G04 #@! TA.AperFunction,Conductor*
%ADD27C,0.200000*%
G04 #@! TD*
G04 #@! TA.AperFunction,Conductor*
%ADD28C,0.300000*%
G04 #@! TD*
G04 #@! TA.AperFunction,Conductor*
%ADD29C,0.250000*%
G04 #@! TD*
G04 APERTURE END LIST*
D10*
X138411200Y-106671600D03*
X138411200Y-110671600D03*
D11*
X147161200Y-109941600D03*
X147161200Y-107401600D03*
D12*
X155600400Y-103418400D03*
D13*
X153060400Y-103418400D03*
X150520400Y-103418400D03*
X147980400Y-103418400D03*
X145440400Y-103418400D03*
X142900400Y-103418400D03*
D14*
X152348600Y-112556600D03*
D15*
X149098600Y-115006600D03*
D16*
X131826000Y-118810800D03*
D17*
X131826000Y-116270800D03*
X131826000Y-113730800D03*
D18*
X154127200Y-84012800D03*
D17*
X154127200Y-86552800D03*
X154127200Y-89092800D03*
X154127200Y-91632800D03*
X154127200Y-94172800D03*
X154127200Y-96712800D03*
X154127200Y-99252800D03*
D19*
X156362400Y-87008200D03*
X156362400Y-88658200D03*
D20*
X131114800Y-91264200D03*
X131114800Y-92814200D03*
D21*
X151095600Y-83276200D03*
X151095600Y-84546200D03*
X151095600Y-85816200D03*
X151095600Y-87086200D03*
X151095600Y-88356200D03*
X151095600Y-89626200D03*
X151095600Y-90896200D03*
X151095600Y-92166200D03*
X151095600Y-93436200D03*
X151095600Y-94706200D03*
X151095600Y-95976200D03*
X151095600Y-97246200D03*
X151095600Y-98516200D03*
X151095600Y-99786200D03*
D22*
X148310600Y-100786200D03*
X147040600Y-100786200D03*
X145770600Y-100786200D03*
X144500600Y-100786200D03*
X143230600Y-100786200D03*
X141960600Y-100786200D03*
X140690600Y-100786200D03*
X139420600Y-100786200D03*
X138150600Y-100786200D03*
X136880600Y-100786200D03*
D21*
X134095600Y-99786200D03*
X134095600Y-98516200D03*
X134095600Y-97246200D03*
X134095600Y-95976200D03*
X134095600Y-94706200D03*
X134095600Y-93436200D03*
X134095600Y-92166200D03*
X134095600Y-90896200D03*
X134095600Y-89626200D03*
X134095600Y-88356200D03*
X134095600Y-87086200D03*
X134095600Y-85816200D03*
X134095600Y-84546200D03*
X134095600Y-83276200D03*
D23*
X143595600Y-90776200D03*
D24*
X156362400Y-93677000D03*
X156362400Y-92027000D03*
D19*
X156362400Y-95075000D03*
X156362400Y-96725000D03*
D25*
X151739600Y-108917800D03*
X151739600Y-107367800D03*
D19*
X156362400Y-98110800D03*
X156362400Y-99760800D03*
D26*
X139395200Y-117185200D03*
X139115800Y-128778000D03*
X138315100Y-98776485D03*
X149453600Y-101498400D03*
X144373600Y-118963200D03*
X130149600Y-128778000D03*
X151739600Y-109920800D03*
X138125200Y-85699600D03*
X137312400Y-120091200D03*
X141478000Y-90769200D03*
X141574516Y-92774100D03*
X131419600Y-86349600D03*
X140512800Y-97891600D03*
X136906000Y-106200200D03*
X140512800Y-95656400D03*
X144373600Y-117388400D03*
X143256000Y-115915200D03*
X149250400Y-110987600D03*
X149758400Y-116992400D03*
X132334000Y-83301600D03*
X142951200Y-82753200D03*
X149402800Y-83261200D03*
X131165600Y-100421200D03*
X141935200Y-83058000D03*
X129387600Y-125476000D03*
X143205200Y-112003600D03*
X139395200Y-112968800D03*
X132983200Y-133223000D03*
X155346400Y-128879600D03*
X146100800Y-99060000D03*
X146100800Y-87172800D03*
X145034000Y-91287600D03*
X135980400Y-133172200D03*
X141579600Y-88737200D03*
X149758400Y-121005600D03*
X132334000Y-84836000D03*
X138633200Y-82956400D03*
X132334000Y-91226400D03*
X141630400Y-105298000D03*
X139804925Y-87067876D03*
X141630400Y-112003600D03*
X146812000Y-84328000D03*
X156565600Y-85293200D03*
X139598400Y-105094800D03*
X129895600Y-104332800D03*
X144240500Y-120700800D03*
X155956000Y-116941600D03*
X148996400Y-91694000D03*
X132181600Y-104637600D03*
X133705600Y-104637600D03*
X151536400Y-124714000D03*
X156362400Y-105044000D03*
X151536400Y-131521200D03*
X132306535Y-92840300D03*
X156362400Y-111952800D03*
X156006800Y-121056400D03*
X152196800Y-106314000D03*
X146761200Y-82702400D03*
X149402800Y-84531200D03*
X139395200Y-119115600D03*
X139395200Y-114950000D03*
X155346400Y-123393200D03*
X135229600Y-104637600D03*
X142798800Y-87007100D03*
X139192000Y-83870800D03*
X134874000Y-113172000D03*
X135737600Y-99862400D03*
X139750800Y-102554800D03*
X147675600Y-94996000D03*
X146862800Y-93827600D03*
X135890000Y-97271600D03*
X129946400Y-88856049D03*
X135737600Y-98490800D03*
X136956800Y-97284900D03*
X129959700Y-94716921D03*
X132090851Y-100810066D03*
X135737600Y-92140800D03*
X129959700Y-89905600D03*
X136906000Y-102402400D03*
X152755600Y-108244400D03*
X147777200Y-89662000D03*
X146761200Y-89662000D03*
X137820400Y-128778000D03*
X134010400Y-128778000D03*
X141681200Y-116118400D03*
X140667981Y-103328179D03*
X138582400Y-87071200D03*
X134874000Y-118810800D03*
X155600400Y-95798400D03*
X140157200Y-91084400D03*
X136448800Y-84937600D03*
X135737600Y-93436200D03*
X142849600Y-97180400D03*
X152857200Y-109514400D03*
X137820400Y-94127925D03*
X139784249Y-94149751D03*
X132334000Y-94132400D03*
X141732000Y-97942400D03*
D27*
X156362400Y-96725000D02*
X156350200Y-96712800D01*
X156350200Y-96712800D02*
X154127200Y-96712800D01*
D28*
X149417800Y-83276200D02*
X149402800Y-83261200D01*
X141579600Y-88760200D02*
X141579600Y-88737200D01*
X143595600Y-90776200D02*
X141485000Y-90776200D01*
X148310600Y-100786200D02*
X148741400Y-100786200D01*
X132334000Y-91226400D02*
X131152600Y-91226400D01*
X141597700Y-92774100D02*
X141574516Y-92774100D01*
X151095600Y-83276200D02*
X149417800Y-83276200D01*
X151739600Y-108917800D02*
X151739600Y-109920800D01*
X143595600Y-90776200D02*
X141597700Y-92774100D01*
X134095600Y-83276200D02*
X132359400Y-83276200D01*
X141485000Y-90776200D02*
X141478000Y-90769200D01*
X143595600Y-90776200D02*
X141579600Y-88760200D01*
X131152600Y-91226400D02*
X131114800Y-91264200D01*
X148741400Y-100786200D02*
X149453600Y-101498400D01*
X132359400Y-83276200D02*
X132334000Y-83301600D01*
D29*
X148753100Y-88584500D02*
X146427000Y-86258400D01*
X148753100Y-89803700D02*
X148753100Y-88584500D01*
X151095600Y-90896200D02*
X149845600Y-90896200D01*
X140614402Y-86258400D02*
X139804925Y-87067876D01*
X149845600Y-90896200D02*
X148753100Y-89803700D01*
X146427000Y-86258400D02*
X140614402Y-86258400D01*
X147878800Y-84328000D02*
X149367000Y-85816200D01*
X146812000Y-84328000D02*
X147878800Y-84328000D01*
X153162000Y-85293200D02*
X152639000Y-85816200D01*
X156565600Y-85293200D02*
X153162000Y-85293200D01*
X152639000Y-85816200D02*
X151095600Y-85816200D01*
X149367000Y-85816200D02*
X151095600Y-85816200D01*
D28*
X151739600Y-106771200D02*
X152196800Y-106314000D01*
X151739600Y-107367800D02*
X151739600Y-106771200D01*
X131114800Y-92814200D02*
X132280435Y-92814200D01*
X149417800Y-84546200D02*
X149402800Y-84531200D01*
X132280435Y-92814200D02*
X132306535Y-92840300D01*
X151095600Y-84546200D02*
X149417800Y-84546200D01*
D29*
X134874000Y-113172000D02*
X134315200Y-113730800D01*
X134315200Y-113730800D02*
X131826000Y-113730800D01*
X139750800Y-102554800D02*
X141020800Y-102554800D01*
X134095600Y-99786200D02*
X135661400Y-99786200D01*
X142544800Y-104942400D02*
X151536400Y-104942400D01*
X151536400Y-104942400D02*
X153060400Y-103418400D01*
X141528800Y-103926400D02*
X142544800Y-104942400D01*
X135661400Y-99786200D02*
X135737600Y-99862400D01*
X141020800Y-102554800D02*
X141528800Y-103062800D01*
X141528800Y-103062800D02*
X141528800Y-103926400D01*
X143560800Y-94996000D02*
X142951200Y-94386400D01*
X135585200Y-88926104D02*
X135585200Y-88595200D01*
X135585200Y-88595200D02*
X135346200Y-88356200D01*
X141045496Y-94386400D02*
X135585200Y-88926104D01*
X147675600Y-94996000D02*
X143560800Y-94996000D01*
X135346200Y-88356200D02*
X134095600Y-88356200D01*
X142951200Y-94386400D02*
X141045496Y-94386400D01*
X141122400Y-93827600D02*
X136093200Y-88798400D01*
X146862800Y-93827600D02*
X141122400Y-93827600D01*
X136093200Y-88798400D02*
X136093200Y-87833800D01*
X135345600Y-87086200D02*
X134095600Y-87086200D01*
X136093200Y-87833800D02*
X135345600Y-87086200D01*
X144221200Y-97586800D02*
X143141099Y-98666901D01*
X147482800Y-97586800D02*
X144221200Y-97586800D01*
X136641600Y-96520000D02*
X135890000Y-97271600D01*
X137972800Y-96520000D02*
X136641600Y-96520000D01*
X143141099Y-98666901D02*
X140119701Y-98666901D01*
X151095600Y-99786200D02*
X149682200Y-99786200D01*
X140119701Y-98666901D02*
X137972800Y-96520000D01*
X149682200Y-99786200D02*
X147482800Y-97586800D01*
X134121000Y-98490800D02*
X134095600Y-98516200D01*
X130684201Y-90205699D02*
X130684201Y-89593850D01*
X132845600Y-98516200D02*
X131419600Y-97090200D01*
X135737600Y-98490800D02*
X134121000Y-98490800D01*
X131419600Y-94516517D02*
X130315280Y-93412197D01*
X130315280Y-90574620D02*
X130684201Y-90205699D01*
X130684201Y-89593850D02*
X129946400Y-88856049D01*
X134095600Y-98516200D02*
X132845600Y-98516200D01*
X131419600Y-97090200D02*
X131419600Y-94516517D01*
X130315280Y-93412197D02*
X130315280Y-90574620D01*
X147040600Y-98628200D02*
X146608800Y-98196400D01*
X138026500Y-97284900D02*
X136956800Y-97284900D01*
X147040600Y-100786200D02*
X147040600Y-98628200D01*
X146608800Y-98196400D02*
X144526000Y-98196400D01*
X144526000Y-98196400D02*
X143510000Y-99212400D01*
X139954000Y-99212400D02*
X138026500Y-97284900D01*
X143510000Y-99212400D02*
X139954000Y-99212400D01*
X133654800Y-103164400D02*
X132090851Y-101600451D01*
X137515600Y-103164400D02*
X133654800Y-103164400D01*
X132090851Y-101600451D02*
X132090851Y-100810066D01*
X132090851Y-100810066D02*
X132090851Y-99391355D01*
X129959700Y-97260204D02*
X129959700Y-94716921D01*
X132090851Y-99391355D02*
X129959700Y-97260204D01*
X138150600Y-100786200D02*
X138150600Y-102529400D01*
X138150600Y-102529400D02*
X137515600Y-103164400D01*
X144145000Y-96951800D02*
X142087600Y-94894400D01*
X147904200Y-96951800D02*
X144145000Y-96951800D01*
X136499600Y-92913200D02*
X135737600Y-92151200D01*
X151095600Y-98516200D02*
X149468600Y-98516200D01*
X149468600Y-98516200D02*
X147904200Y-96951800D01*
X142087600Y-94894400D02*
X137007600Y-94894400D01*
X136499600Y-94386400D02*
X136499600Y-92913200D01*
X135737600Y-92151200D02*
X135737600Y-92140800D01*
X137007600Y-94894400D02*
X136499600Y-94386400D01*
X129844800Y-93588730D02*
X129844800Y-90020500D01*
X130248490Y-93992420D02*
X129844800Y-93588730D01*
X136906000Y-102402400D02*
X136906000Y-100811600D01*
X136906000Y-100811600D02*
X136880600Y-100786200D01*
X130259799Y-93992420D02*
X130248490Y-93992420D01*
X132689600Y-99151200D02*
X130810000Y-97271600D01*
X136906000Y-102402400D02*
X134743389Y-102402400D01*
X132689600Y-100348611D02*
X132689600Y-99151200D01*
X134743389Y-102402400D02*
X132689600Y-100348611D01*
X130810000Y-94542621D02*
X130259799Y-93992420D01*
X129844800Y-90020500D02*
X129959700Y-89905600D01*
X130810000Y-97271600D02*
X130810000Y-94542621D01*
X150324889Y-112249911D02*
X145381911Y-112249911D01*
X154076400Y-110581200D02*
X153314400Y-111343200D01*
X145381911Y-112249911D02*
X142443200Y-109311200D01*
X131267200Y-104891600D02*
X131267200Y-103062800D01*
X135686800Y-109311200D02*
X131267200Y-104891600D01*
X153314400Y-111343200D02*
X151231600Y-111343200D01*
X132511800Y-85816200D02*
X134095600Y-85816200D01*
X152755600Y-108244400D02*
X154076400Y-109565200D01*
X154076400Y-109565200D02*
X154076400Y-110581200D01*
X128727200Y-100522800D02*
X128727200Y-87873600D01*
X128727200Y-87873600D02*
X131013200Y-85587600D01*
X131013200Y-85587600D02*
X132283200Y-85587600D01*
X151231600Y-111343200D02*
X150324889Y-112249911D01*
X142443200Y-109311200D02*
X135686800Y-109311200D01*
X131267200Y-103062800D02*
X128727200Y-100522800D01*
X132283200Y-85587600D02*
X132511800Y-85816200D01*
X149453600Y-94335600D02*
X149824200Y-94706200D01*
X147777200Y-89662000D02*
X147777200Y-91897200D01*
X147777200Y-91897200D02*
X149453600Y-93573600D01*
X149453600Y-93573600D02*
X149453600Y-94335600D01*
X149824200Y-94706200D02*
X151095600Y-94706200D01*
X149621000Y-95976200D02*
X151095600Y-95976200D01*
X146761200Y-89662000D02*
X146761200Y-91897200D01*
X148691600Y-93827600D02*
X148691600Y-95046800D01*
X148691600Y-95046800D02*
X149621000Y-95976200D01*
X146761200Y-91897200D02*
X148691600Y-93827600D01*
X137820400Y-128778000D02*
X134010400Y-128778000D01*
X149377400Y-89331800D02*
X149671800Y-89626200D01*
X139954000Y-85699600D02*
X146608800Y-85699600D01*
X149377400Y-88468200D02*
X149377400Y-89331800D01*
X149671800Y-89626200D02*
X151095600Y-89626200D01*
X138582400Y-87071200D02*
X139954000Y-85699600D01*
X146608800Y-85699600D02*
X149377400Y-88468200D01*
X134874000Y-118810800D02*
X131826000Y-118810800D01*
D28*
X155336000Y-86552800D02*
X154127200Y-86552800D01*
X156362400Y-87008200D02*
X155791400Y-87008200D01*
X155791400Y-87008200D02*
X155336000Y-86552800D01*
X156362400Y-88658200D02*
X155791400Y-88658200D01*
X155356800Y-89092800D02*
X154127200Y-89092800D01*
X155791400Y-88658200D02*
X155356800Y-89092800D01*
D27*
X156362400Y-95075000D02*
X156323800Y-95075000D01*
X154127200Y-91632800D02*
X155346400Y-91632800D01*
X155740600Y-92027000D02*
X156362400Y-92027000D01*
X155346400Y-91632800D02*
X155740600Y-92027000D01*
X156323800Y-95075000D02*
X155600400Y-95798400D01*
X156362400Y-93677000D02*
X155791400Y-93677000D01*
X156362400Y-98110800D02*
X156894800Y-98110800D01*
X157175200Y-93918800D02*
X156933400Y-93677000D01*
X157175200Y-97830400D02*
X157175200Y-93918800D01*
X156894800Y-98110800D02*
X157175200Y-97830400D01*
X156933400Y-93677000D02*
X156362400Y-93677000D01*
X155791400Y-93677000D02*
X155295600Y-94172800D01*
X155295600Y-94172800D02*
X154127200Y-94172800D01*
X156362400Y-99760800D02*
X155803600Y-99760800D01*
X155295600Y-99252800D02*
X154127200Y-99252800D01*
X155803600Y-99760800D02*
X155295600Y-99252800D01*
D29*
X136448800Y-84937600D02*
X136448800Y-87376000D01*
X136448800Y-87376000D02*
X140157200Y-91084400D01*
X142849600Y-97180400D02*
X142050101Y-96380901D01*
X134095600Y-93436200D02*
X135737600Y-93436200D01*
X136499600Y-95453200D02*
X135737600Y-94691200D01*
X135737600Y-94691200D02*
X135737600Y-93436200D01*
X142050101Y-96380901D02*
X140212701Y-96380901D01*
X140212701Y-96380901D02*
X139285000Y-95453200D01*
X139285000Y-95453200D02*
X136499600Y-95453200D01*
X150977600Y-110784400D02*
X149961600Y-111800400D01*
X132054600Y-89626200D02*
X134095600Y-89626200D01*
X145796000Y-111800400D02*
X142544800Y-108549200D01*
X152146000Y-110784400D02*
X150977600Y-110784400D01*
X129221899Y-88555950D02*
X129701049Y-88076800D01*
X132943600Y-103520000D02*
X129221899Y-99798299D01*
X142544800Y-108549200D02*
X136144000Y-108549200D01*
X136144000Y-108549200D02*
X132943600Y-105348800D01*
X152857200Y-109514400D02*
X152857200Y-110073200D01*
X132943600Y-105348800D02*
X132943600Y-103520000D01*
X130505200Y-88076800D02*
X132054600Y-89626200D01*
X129221899Y-99798299D02*
X129221899Y-88555950D01*
X149961600Y-111800400D02*
X145796000Y-111800400D01*
X152857200Y-110073200D02*
X152146000Y-110784400D01*
X129701049Y-88076800D02*
X130505200Y-88076800D01*
X137820400Y-94127925D02*
X137842226Y-94149751D01*
X134095600Y-97246200D02*
X132765800Y-97246200D01*
X137842226Y-94149751D02*
X139784249Y-94149751D01*
X132334000Y-96814400D02*
X132334000Y-94132400D01*
X132765800Y-97246200D02*
X132334000Y-96814400D01*
X140766800Y-96977200D02*
X139700000Y-96977200D01*
X139700000Y-96977200D02*
X138699000Y-95976200D01*
X141732000Y-97942400D02*
X140766800Y-96977200D01*
X138699000Y-95976200D02*
X134095600Y-95976200D01*
M02*
