%FSLAX45Y45*%
G04 Gerber Fmt 4.5, Leading zero omitted, Abs format (unit mm)*
G04 Created by KiCad (PCBNEW 6.0.0-d3dd2cf0fa~116~ubuntu18.04.1) date 2023-02-13 16:23:23*
%MOMM*%
%LPD*%
G01*
G04 APERTURE LIST*
%TA.AperFunction,Profile*%
%ADD10C,0.100000*%
%TD*%
%ADD11C,0.200000*%
%ADD12C,0.040000*%
%ADD13C,0.050000*%
%ADD14C,0.080000*%
%ADD15C,0.100000*%
%ADD16C,0.109000*%
%ADD17C,0.119000*%
G04 APERTURE END LIST*
D10*
X12816840Y-7563080D02*
X15753080Y-7563080D01*
X15753080Y-7563080D02*
X15753080Y-13486360D01*
X15753080Y-13486360D02*
X12816840Y-13486360D01*
X12816840Y-13486360D02*
X12816840Y-7563080D01*
D11*
D12*
X12918760Y-12527600D02*
X12958760Y-12567600D01*
X12958760Y-12527600D02*
X12918760Y-12567600D01*
X12969560Y-10413280D02*
X13009560Y-10453280D01*
X13009560Y-10413280D02*
X12969560Y-10453280D01*
X12974640Y-8865605D02*
X13014640Y-8905605D01*
X13014640Y-8865605D02*
X12974640Y-8905605D01*
X12975970Y-8970560D02*
X13015970Y-9010560D01*
X13015970Y-8970560D02*
X12975970Y-9010560D01*
X12975970Y-9451692D02*
X13015970Y-9491692D01*
X13015970Y-9451692D02*
X12975970Y-9491692D01*
X12994960Y-12857800D02*
X13034960Y-12897800D01*
X13034960Y-12857800D02*
X12994960Y-12897800D01*
X13096560Y-10022120D02*
X13136560Y-10062120D01*
X13136560Y-10022120D02*
X13096560Y-10062120D01*
X13121960Y-8614960D02*
X13161960Y-8654960D01*
X13161960Y-8614960D02*
X13121960Y-8654960D01*
X13189085Y-10061007D02*
X13229085Y-10101007D01*
X13229085Y-10061007D02*
X13189085Y-10101007D01*
X13198160Y-10443760D02*
X13238160Y-10483760D01*
X13238160Y-10443760D02*
X13198160Y-10483760D01*
X13210653Y-9264030D02*
X13250653Y-9304030D01*
X13250653Y-9264030D02*
X13210653Y-9304030D01*
X13213400Y-8310160D02*
X13253400Y-8350160D01*
X13253400Y-8310160D02*
X13213400Y-8350160D01*
X13213400Y-8463600D02*
X13253400Y-8503600D01*
X13253400Y-8463600D02*
X13213400Y-8503600D01*
X13213400Y-9102640D02*
X13253400Y-9142640D01*
X13253400Y-9102640D02*
X13213400Y-9142640D01*
X13213400Y-9393240D02*
X13253400Y-9433240D01*
X13253400Y-9393240D02*
X13213400Y-9433240D01*
X13278320Y-13302300D02*
X13318320Y-13342300D01*
X13318320Y-13302300D02*
X13278320Y-13342300D01*
X13350560Y-10443760D02*
X13390560Y-10483760D01*
X13390560Y-10443760D02*
X13350560Y-10483760D01*
X13381040Y-12857800D02*
X13421040Y-12897800D01*
X13421040Y-12857800D02*
X13381040Y-12897800D01*
X13467400Y-11297200D02*
X13507400Y-11337200D01*
X13507400Y-11297200D02*
X13467400Y-11337200D01*
X13467400Y-11861080D02*
X13507400Y-11901080D01*
X13507400Y-11861080D02*
X13467400Y-11901080D01*
X13502960Y-10443760D02*
X13542960Y-10483760D01*
X13542960Y-10443760D02*
X13502960Y-10483760D01*
X13553760Y-9194080D02*
X13593760Y-9234080D01*
X13593760Y-9194080D02*
X13553760Y-9234080D01*
X13553760Y-9323620D02*
X13593760Y-9363620D01*
X13593760Y-9323620D02*
X13553760Y-9363620D01*
X13553760Y-9829080D02*
X13593760Y-9869080D01*
X13593760Y-9829080D02*
X13553760Y-9869080D01*
X13553760Y-9966240D02*
X13593760Y-10006240D01*
X13593760Y-9966240D02*
X13553760Y-10006240D01*
X13569000Y-9707160D02*
X13609000Y-9747160D01*
X13609000Y-9707160D02*
X13569000Y-9747160D01*
X13578040Y-13297220D02*
X13618040Y-13337220D01*
X13618040Y-13297220D02*
X13578040Y-13337220D01*
X13624880Y-8473760D02*
X13664880Y-8513760D01*
X13664880Y-8473760D02*
X13624880Y-8513760D01*
X13670600Y-10220240D02*
X13710600Y-10260240D01*
X13710600Y-10220240D02*
X13670600Y-10260240D01*
X13670600Y-10600020D02*
X13710600Y-10640020D01*
X13710600Y-10600020D02*
X13670600Y-10640020D01*
X13675680Y-9708490D02*
X13715680Y-9748490D01*
X13715680Y-9708490D02*
X13675680Y-9748490D01*
X13711240Y-11989120D02*
X13751240Y-12029120D01*
X13751240Y-11989120D02*
X13711240Y-12029120D01*
X13762040Y-9392793D02*
X13802040Y-9432793D01*
X13802040Y-9392793D02*
X13762040Y-9432793D01*
X13762040Y-12857800D02*
X13802040Y-12897800D01*
X13802040Y-12857800D02*
X13762040Y-12897800D01*
X13792520Y-8549960D02*
X13832520Y-8589960D01*
X13832520Y-8549960D02*
X13792520Y-8589960D01*
X13811510Y-9857649D02*
X13851510Y-9897649D01*
X13851510Y-9857649D02*
X13811510Y-9897649D01*
X13838240Y-8687120D02*
X13878240Y-8727120D01*
X13878240Y-8687120D02*
X13838240Y-8727120D01*
X13843320Y-8275640D02*
X13883320Y-8315640D01*
X13883320Y-8275640D02*
X13843320Y-8315640D01*
X13891580Y-12857800D02*
X13931580Y-12897800D01*
X13931580Y-12857800D02*
X13891580Y-12897800D01*
X13899200Y-8367080D02*
X13939200Y-8407080D01*
X13939200Y-8367080D02*
X13899200Y-8407080D01*
X13919520Y-11276880D02*
X13959520Y-11316880D01*
X13959520Y-11276880D02*
X13919520Y-11316880D01*
X13919520Y-11475000D02*
X13959520Y-11515000D01*
X13959520Y-11475000D02*
X13919520Y-11515000D01*
X13919520Y-11698520D02*
X13959520Y-11738520D01*
X13959520Y-11698520D02*
X13919520Y-11738520D01*
X13919520Y-11891560D02*
X13959520Y-11931560D01*
X13959520Y-11891560D02*
X13919520Y-11931560D01*
X13939840Y-10489480D02*
X13979840Y-10529480D01*
X13979840Y-10489480D02*
X13939840Y-10529480D01*
X13955080Y-10235480D02*
X13995080Y-10275480D01*
X13995080Y-10235480D02*
X13955080Y-10275480D01*
X13958425Y-9394975D02*
X13998425Y-9434975D01*
X13998425Y-9394975D02*
X13958425Y-9434975D01*
X13960492Y-8686788D02*
X14000492Y-8726788D01*
X14000492Y-8686788D02*
X13960492Y-8726788D01*
X13995720Y-9088440D02*
X14035720Y-9128440D01*
X14035720Y-9088440D02*
X13995720Y-9128440D01*
X14031280Y-9545640D02*
X14071280Y-9585640D01*
X14071280Y-9545640D02*
X14031280Y-9585640D01*
X14031280Y-9769160D02*
X14071280Y-9809160D01*
X14071280Y-9769160D02*
X14031280Y-9809160D01*
X14046798Y-10312818D02*
X14086798Y-10352818D01*
X14086798Y-10312818D02*
X14046798Y-10352818D01*
X14127800Y-9056920D02*
X14167800Y-9096920D01*
X14167800Y-9056920D02*
X14127800Y-9096920D01*
X14137452Y-9257410D02*
X14177452Y-9297410D01*
X14177452Y-9257410D02*
X14137452Y-9297410D01*
X14137960Y-8853720D02*
X14177960Y-8893720D01*
X14177960Y-8853720D02*
X14137960Y-8893720D01*
X14143040Y-10509800D02*
X14183040Y-10549800D01*
X14183040Y-10509800D02*
X14143040Y-10549800D01*
X14143040Y-11180360D02*
X14183040Y-11220360D01*
X14183040Y-11180360D02*
X14143040Y-11220360D01*
X14148120Y-11591840D02*
X14188120Y-11631840D01*
X14188120Y-11591840D02*
X14148120Y-11631840D01*
X14153200Y-9774240D02*
X14193200Y-9814240D01*
X14193200Y-9774240D02*
X14153200Y-9814240D01*
X14173520Y-8285800D02*
X14213520Y-8325800D01*
X14213520Y-8285800D02*
X14173520Y-8325800D01*
X14259880Y-8680710D02*
X14299880Y-8720710D01*
X14299880Y-8680710D02*
X14259880Y-8720710D01*
X14264960Y-9698040D02*
X14304960Y-9738040D01*
X14304960Y-9698040D02*
X14264960Y-9738040D01*
X14275120Y-8255320D02*
X14315120Y-8295320D01*
X14315120Y-8255320D02*
X14275120Y-8295320D01*
X14300520Y-11180360D02*
X14340520Y-11220360D01*
X14340520Y-11180360D02*
X14300520Y-11220360D01*
X14305600Y-11571520D02*
X14345600Y-11611520D01*
X14345600Y-11571520D02*
X14305600Y-11611520D01*
X14404050Y-12050080D02*
X14444050Y-12090080D01*
X14444050Y-12050080D02*
X14404050Y-12090080D01*
X14417360Y-11718840D02*
X14457360Y-11758840D01*
X14457360Y-11718840D02*
X14417360Y-11758840D01*
X14417360Y-11876320D02*
X14457360Y-11916320D01*
X14457360Y-11876320D02*
X14417360Y-11916320D01*
X14483400Y-9108760D02*
X14523400Y-9148760D01*
X14523400Y-9108760D02*
X14483400Y-9148760D01*
X14590080Y-8697280D02*
X14630080Y-8737280D01*
X14630080Y-8697280D02*
X14590080Y-8737280D01*
X14590080Y-9886000D02*
X14630080Y-9926000D01*
X14630080Y-9886000D02*
X14590080Y-9926000D01*
X14656120Y-8250240D02*
X14696120Y-8290240D01*
X14696120Y-8250240D02*
X14656120Y-8290240D01*
X14656120Y-8946200D02*
X14696120Y-8986200D01*
X14696120Y-8946200D02*
X14656120Y-8986200D01*
X14661200Y-8412800D02*
X14701200Y-8452800D01*
X14701200Y-8412800D02*
X14661200Y-8452800D01*
X14666280Y-9362760D02*
X14706280Y-9402760D01*
X14706280Y-9362760D02*
X14666280Y-9402760D01*
X14747560Y-9479600D02*
X14787560Y-9519600D01*
X14787560Y-9479600D02*
X14747560Y-9519600D01*
X14757720Y-8946200D02*
X14797720Y-8986200D01*
X14797720Y-8946200D02*
X14757720Y-8986200D01*
X14879640Y-9149400D02*
X14919640Y-9189400D01*
X14919640Y-9149400D02*
X14879640Y-9189400D01*
X14905040Y-11078760D02*
X14945040Y-11118760D01*
X14945040Y-11078760D02*
X14905040Y-11118760D01*
X14920280Y-8306120D02*
X14960280Y-8346120D01*
X14960280Y-8306120D02*
X14920280Y-8346120D01*
X14920280Y-8433120D02*
X14960280Y-8473120D01*
X14960280Y-8433120D02*
X14920280Y-8473120D01*
X14925360Y-10129840D02*
X14965360Y-10169840D01*
X14965360Y-10129840D02*
X14925360Y-10169840D01*
X14955840Y-11679240D02*
X14995840Y-11719240D01*
X14995840Y-11679240D02*
X14955840Y-11719240D01*
X14955840Y-12080560D02*
X14995840Y-12120560D01*
X14995840Y-12080560D02*
X14955840Y-12120560D01*
X15133640Y-12451400D02*
X15173640Y-12491400D01*
X15173640Y-12451400D02*
X15133640Y-12491400D01*
X15133640Y-13132120D02*
X15173640Y-13172120D01*
X15173640Y-13132120D02*
X15133640Y-13172120D01*
X15153960Y-10972080D02*
X15193960Y-11012080D01*
X15193960Y-10972080D02*
X15153960Y-11012080D01*
X15199680Y-10611400D02*
X15239680Y-10651400D01*
X15239680Y-10611400D02*
X15199680Y-10651400D01*
X15255560Y-10804440D02*
X15295560Y-10844440D01*
X15295560Y-10804440D02*
X15255560Y-10844440D01*
X15265720Y-10931440D02*
X15305720Y-10971440D01*
X15305720Y-10931440D02*
X15265720Y-10971440D01*
X15514640Y-12319320D02*
X15554640Y-12359320D01*
X15554640Y-12319320D02*
X15514640Y-12359320D01*
X15514640Y-12867960D02*
X15554640Y-12907960D01*
X15554640Y-12867960D02*
X15514640Y-12907960D01*
X15540040Y-9559840D02*
X15580040Y-9599840D01*
X15580040Y-9559840D02*
X15540040Y-9599840D01*
X15575600Y-11674160D02*
X15615600Y-11714160D01*
X15615600Y-11674160D02*
X15575600Y-11714160D01*
X15580680Y-12085640D02*
X15620680Y-12125640D01*
X15620680Y-12085640D02*
X15580680Y-12125640D01*
X15616240Y-10484400D02*
X15656240Y-10524400D01*
X15656240Y-10484400D02*
X15616240Y-10524400D01*
X15616240Y-11175280D02*
X15656240Y-11215280D01*
X15656240Y-11175280D02*
X15616240Y-11215280D01*
X15636560Y-8509320D02*
X15676560Y-8549320D01*
X15676560Y-8509320D02*
X15636560Y-8549320D01*
D13*
X14741120Y-10740160D02*
G75*
G03*
X14741120Y-10740160I-25000J0D01*
G01*
X14741120Y-10994160D02*
G75*
G03*
X14741120Y-10994160I-25000J0D01*
G01*
D14*
X13841120Y-10627160D02*
X13841120Y-10707160D01*
X13801120Y-10667160D02*
X13881120Y-10667160D01*
X13841120Y-11027160D02*
X13841120Y-11107160D01*
X13801120Y-11067160D02*
X13881120Y-11067160D01*
D15*
X14325396Y-10377196D02*
X14325396Y-10306484D01*
X14254684Y-10306484D01*
X14254684Y-10377196D01*
X14325396Y-10377196D01*
X14579396Y-10377196D02*
X14579396Y-10306484D01*
X14508684Y-10306484D01*
X14508684Y-10377196D01*
X14579396Y-10377196D01*
X14833396Y-10377196D02*
X14833396Y-10306484D01*
X14762684Y-10306484D01*
X14762684Y-10377196D01*
X14833396Y-10377196D01*
X15087396Y-10377196D02*
X15087396Y-10306484D01*
X15016684Y-10306484D01*
X15016684Y-10377196D01*
X15087396Y-10377196D01*
X15341396Y-10377196D02*
X15341396Y-10306484D01*
X15270684Y-10306484D01*
X15270684Y-10377196D01*
X15341396Y-10377196D01*
X15595396Y-10377196D02*
X15595396Y-10306484D01*
X15524684Y-10306484D01*
X15524684Y-10377196D01*
X15595396Y-10377196D01*
D16*
X14909860Y-11555160D02*
X14964360Y-11500660D01*
X14909860Y-11446160D01*
X14855360Y-11500660D01*
X14909860Y-11555160D01*
X15234860Y-11310160D02*
X15289360Y-11255660D01*
X15234860Y-11201160D01*
X15180360Y-11255660D01*
X15234860Y-11310160D01*
D17*
X13123100Y-11313580D02*
X13242100Y-11432580D01*
X13242100Y-11313580D02*
X13123100Y-11432580D01*
X13242100Y-11373080D02*
G75*
G03*
X13242100Y-11373080I-59500J0D01*
G01*
X13123100Y-11567580D02*
X13242100Y-11686580D01*
X13242100Y-11567580D02*
X13123100Y-11686580D01*
X13242100Y-11627080D02*
G75*
G03*
X13242100Y-11627080I-59500J0D01*
G01*
X13123100Y-11821580D02*
X13242100Y-11940580D01*
X13242100Y-11821580D02*
X13123100Y-11940580D01*
X13242100Y-11881080D02*
G75*
G03*
X13242100Y-11881080I-59500J0D01*
G01*
X15353220Y-8341780D02*
X15472220Y-8460780D01*
X15472220Y-8341780D02*
X15353220Y-8460780D01*
X15472220Y-8401280D02*
G75*
G03*
X15472220Y-8401280I-59500J0D01*
G01*
X15353220Y-8595780D02*
X15472220Y-8714780D01*
X15472220Y-8595780D02*
X15353220Y-8714780D01*
X15472220Y-8655280D02*
G75*
G03*
X15472220Y-8655280I-59500J0D01*
G01*
X15353220Y-8849780D02*
X15472220Y-8968780D01*
X15472220Y-8849780D02*
X15353220Y-8968780D01*
X15472220Y-8909280D02*
G75*
G03*
X15472220Y-8909280I-59500J0D01*
G01*
X15353220Y-9103780D02*
X15472220Y-9222780D01*
X15472220Y-9103780D02*
X15353220Y-9222780D01*
X15472220Y-9163280D02*
G75*
G03*
X15472220Y-9163280I-59500J0D01*
G01*
X15353220Y-9357780D02*
X15472220Y-9476780D01*
X15472220Y-9357780D02*
X15353220Y-9476780D01*
X15472220Y-9417280D02*
G75*
G03*
X15472220Y-9417280I-59500J0D01*
G01*
X15353220Y-9611780D02*
X15472220Y-9730780D01*
X15472220Y-9611780D02*
X15353220Y-9730780D01*
X15472220Y-9671280D02*
G75*
G03*
X15472220Y-9671280I-59500J0D01*
G01*
X15353220Y-9865780D02*
X15472220Y-9984780D01*
X15472220Y-9865780D02*
X15353220Y-9984780D01*
X15472220Y-9925280D02*
G75*
G03*
X15472220Y-9925280I-59500J0D01*
G01*
D11*
X13069459Y-13801836D02*
X13069459Y-13601836D01*
X13117078Y-13601836D01*
X13145649Y-13611360D01*
X13164697Y-13630408D01*
X13174221Y-13649455D01*
X13183745Y-13687550D01*
X13183745Y-13716122D01*
X13174221Y-13754217D01*
X13164697Y-13773265D01*
X13145649Y-13792312D01*
X13117078Y-13801836D01*
X13069459Y-13801836D01*
X13269459Y-13801836D02*
X13269459Y-13668503D01*
X13269459Y-13706598D02*
X13278983Y-13687550D01*
X13288507Y-13678027D01*
X13307554Y-13668503D01*
X13326602Y-13668503D01*
X13393268Y-13801836D02*
X13393268Y-13668503D01*
X13393268Y-13601836D02*
X13383745Y-13611360D01*
X13393268Y-13620884D01*
X13402792Y-13611360D01*
X13393268Y-13601836D01*
X13393268Y-13620884D01*
X13517078Y-13801836D02*
X13498030Y-13792312D01*
X13488507Y-13773265D01*
X13488507Y-13601836D01*
X13621840Y-13801836D02*
X13602792Y-13792312D01*
X13593268Y-13773265D01*
X13593268Y-13601836D01*
X13850411Y-13801836D02*
X13850411Y-13601836D01*
X13917078Y-13744693D01*
X13983745Y-13601836D01*
X13983745Y-13801836D01*
X14164697Y-13801836D02*
X14164697Y-13697074D01*
X14155173Y-13678027D01*
X14136126Y-13668503D01*
X14098030Y-13668503D01*
X14078983Y-13678027D01*
X14164697Y-13792312D02*
X14145649Y-13801836D01*
X14098030Y-13801836D01*
X14078983Y-13792312D01*
X14069459Y-13773265D01*
X14069459Y-13754217D01*
X14078983Y-13735169D01*
X14098030Y-13725646D01*
X14145649Y-13725646D01*
X14164697Y-13716122D01*
X14259935Y-13668503D02*
X14259935Y-13868503D01*
X14259935Y-13678027D02*
X14278983Y-13668503D01*
X14317078Y-13668503D01*
X14336126Y-13678027D01*
X14345649Y-13687550D01*
X14355173Y-13706598D01*
X14355173Y-13763741D01*
X14345649Y-13782788D01*
X14336126Y-13792312D01*
X14317078Y-13801836D01*
X14278983Y-13801836D01*
X14259935Y-13792312D01*
X14440888Y-13782788D02*
X14450411Y-13792312D01*
X14440888Y-13801836D01*
X14431364Y-13792312D01*
X14440888Y-13782788D01*
X14440888Y-13801836D01*
X14440888Y-13678027D02*
X14450411Y-13687550D01*
X14440888Y-13697074D01*
X14431364Y-13687550D01*
X14440888Y-13678027D01*
X14440888Y-13697074D01*
D12*
X12771840Y-14111360D02*
X12811840Y-14151360D01*
X12811840Y-14111360D02*
X12771840Y-14151360D01*
D11*
X13107554Y-14021836D02*
X13126602Y-14021836D01*
X13145649Y-14031360D01*
X13155173Y-14040884D01*
X13164697Y-14059931D01*
X13174221Y-14098027D01*
X13174221Y-14145646D01*
X13164697Y-14183741D01*
X13155173Y-14202788D01*
X13145649Y-14212312D01*
X13126602Y-14221836D01*
X13107554Y-14221836D01*
X13088507Y-14212312D01*
X13078983Y-14202788D01*
X13069459Y-14183741D01*
X13059935Y-14145646D01*
X13059935Y-14098027D01*
X13069459Y-14059931D01*
X13078983Y-14040884D01*
X13088507Y-14031360D01*
X13107554Y-14021836D01*
X13259935Y-14202788D02*
X13269459Y-14212312D01*
X13259935Y-14221836D01*
X13250411Y-14212312D01*
X13259935Y-14202788D01*
X13259935Y-14221836D01*
X13440888Y-14088503D02*
X13440888Y-14221836D01*
X13393268Y-14012312D02*
X13345649Y-14155169D01*
X13469459Y-14155169D01*
X13583745Y-14021836D02*
X13602792Y-14021836D01*
X13621840Y-14031360D01*
X13631364Y-14040884D01*
X13640888Y-14059931D01*
X13650411Y-14098027D01*
X13650411Y-14145646D01*
X13640888Y-14183741D01*
X13631364Y-14202788D01*
X13621840Y-14212312D01*
X13602792Y-14221836D01*
X13583745Y-14221836D01*
X13564697Y-14212312D01*
X13555173Y-14202788D01*
X13545649Y-14183741D01*
X13536126Y-14145646D01*
X13536126Y-14098027D01*
X13545649Y-14059931D01*
X13555173Y-14040884D01*
X13564697Y-14031360D01*
X13583745Y-14021836D01*
X13774221Y-14021836D02*
X13793268Y-14021836D01*
X13812316Y-14031360D01*
X13821840Y-14040884D01*
X13831364Y-14059931D01*
X13840888Y-14098027D01*
X13840888Y-14145646D01*
X13831364Y-14183741D01*
X13821840Y-14202788D01*
X13812316Y-14212312D01*
X13793268Y-14221836D01*
X13774221Y-14221836D01*
X13755173Y-14212312D01*
X13745649Y-14202788D01*
X13736126Y-14183741D01*
X13726602Y-14145646D01*
X13726602Y-14098027D01*
X13736126Y-14059931D01*
X13745649Y-14040884D01*
X13755173Y-14031360D01*
X13774221Y-14021836D01*
X13926602Y-14221836D02*
X13926602Y-14088503D01*
X13926602Y-14107550D02*
X13936126Y-14098027D01*
X13955173Y-14088503D01*
X13983745Y-14088503D01*
X14002792Y-14098027D01*
X14012316Y-14117074D01*
X14012316Y-14221836D01*
X14012316Y-14117074D02*
X14021840Y-14098027D01*
X14040888Y-14088503D01*
X14069459Y-14088503D01*
X14088507Y-14098027D01*
X14098030Y-14117074D01*
X14098030Y-14221836D01*
X14193268Y-14221836D02*
X14193268Y-14088503D01*
X14193268Y-14107550D02*
X14202792Y-14098027D01*
X14221840Y-14088503D01*
X14250411Y-14088503D01*
X14269459Y-14098027D01*
X14278983Y-14117074D01*
X14278983Y-14221836D01*
X14278983Y-14117074D02*
X14288507Y-14098027D01*
X14307554Y-14088503D01*
X14336126Y-14088503D01*
X14355173Y-14098027D01*
X14364697Y-14117074D01*
X14364697Y-14221836D01*
X14755173Y-14012312D02*
X14583745Y-14269455D01*
X15012316Y-14021836D02*
X15031364Y-14021836D01*
X15050411Y-14031360D01*
X15059935Y-14040884D01*
X15069459Y-14059931D01*
X15078983Y-14098027D01*
X15078983Y-14145646D01*
X15069459Y-14183741D01*
X15059935Y-14202788D01*
X15050411Y-14212312D01*
X15031364Y-14221836D01*
X15012316Y-14221836D01*
X14993268Y-14212312D01*
X14983745Y-14202788D01*
X14974221Y-14183741D01*
X14964697Y-14145646D01*
X14964697Y-14098027D01*
X14974221Y-14059931D01*
X14983745Y-14040884D01*
X14993268Y-14031360D01*
X15012316Y-14021836D01*
X15164697Y-14202788D02*
X15174221Y-14212312D01*
X15164697Y-14221836D01*
X15155173Y-14212312D01*
X15164697Y-14202788D01*
X15164697Y-14221836D01*
X15298030Y-14021836D02*
X15317078Y-14021836D01*
X15336126Y-14031360D01*
X15345649Y-14040884D01*
X15355173Y-14059931D01*
X15364697Y-14098027D01*
X15364697Y-14145646D01*
X15355173Y-14183741D01*
X15345649Y-14202788D01*
X15336126Y-14212312D01*
X15317078Y-14221836D01*
X15298030Y-14221836D01*
X15278983Y-14212312D01*
X15269459Y-14202788D01*
X15259935Y-14183741D01*
X15250411Y-14145646D01*
X15250411Y-14098027D01*
X15259935Y-14059931D01*
X15269459Y-14040884D01*
X15278983Y-14031360D01*
X15298030Y-14021836D01*
X15555173Y-14221836D02*
X15440888Y-14221836D01*
X15498030Y-14221836D02*
X15498030Y-14021836D01*
X15478983Y-14050408D01*
X15459935Y-14069455D01*
X15440888Y-14078979D01*
X15736126Y-14021836D02*
X15640888Y-14021836D01*
X15631364Y-14117074D01*
X15640888Y-14107550D01*
X15659935Y-14098027D01*
X15707554Y-14098027D01*
X15726602Y-14107550D01*
X15736126Y-14117074D01*
X15745649Y-14136122D01*
X15745649Y-14183741D01*
X15736126Y-14202788D01*
X15726602Y-14212312D01*
X15707554Y-14221836D01*
X15659935Y-14221836D01*
X15640888Y-14212312D01*
X15631364Y-14202788D01*
X15812316Y-14021836D02*
X15945649Y-14021836D01*
X15859935Y-14221836D01*
X16012316Y-14021836D02*
X16012316Y-14059931D01*
X16088507Y-14021836D02*
X16088507Y-14059931D01*
X16383745Y-14298027D02*
X16374221Y-14288503D01*
X16355173Y-14259931D01*
X16345649Y-14240884D01*
X16336126Y-14212312D01*
X16326602Y-14164693D01*
X16326602Y-14126598D01*
X16336126Y-14078979D01*
X16345649Y-14050408D01*
X16355173Y-14031360D01*
X16374221Y-14002788D01*
X16383745Y-13993265D01*
X16469459Y-14221836D02*
X16507554Y-14221836D01*
X16526602Y-14212312D01*
X16536126Y-14202788D01*
X16555173Y-14174217D01*
X16564697Y-14136122D01*
X16564697Y-14059931D01*
X16555173Y-14040884D01*
X16545649Y-14031360D01*
X16526602Y-14021836D01*
X16488507Y-14021836D01*
X16469459Y-14031360D01*
X16459935Y-14040884D01*
X16450411Y-14059931D01*
X16450411Y-14107550D01*
X16459935Y-14126598D01*
X16469459Y-14136122D01*
X16488507Y-14145646D01*
X16526602Y-14145646D01*
X16545649Y-14136122D01*
X16555173Y-14126598D01*
X16564697Y-14107550D01*
X16678983Y-14107550D02*
X16659935Y-14098027D01*
X16650411Y-14088503D01*
X16640888Y-14069455D01*
X16640888Y-14059931D01*
X16650411Y-14040884D01*
X16659935Y-14031360D01*
X16678983Y-14021836D01*
X16717078Y-14021836D01*
X16736126Y-14031360D01*
X16745649Y-14040884D01*
X16755173Y-14059931D01*
X16755173Y-14069455D01*
X16745649Y-14088503D01*
X16736126Y-14098027D01*
X16717078Y-14107550D01*
X16678983Y-14107550D01*
X16659935Y-14117074D01*
X16650411Y-14126598D01*
X16640888Y-14145646D01*
X16640888Y-14183741D01*
X16650411Y-14202788D01*
X16659935Y-14212312D01*
X16678983Y-14221836D01*
X16717078Y-14221836D01*
X16736126Y-14212312D01*
X16745649Y-14202788D01*
X16755173Y-14183741D01*
X16755173Y-14145646D01*
X16745649Y-14126598D01*
X16736126Y-14117074D01*
X16717078Y-14107550D01*
X16993269Y-14221836D02*
X16993269Y-14021836D01*
X17078983Y-14221836D02*
X17078983Y-14117074D01*
X17069459Y-14098027D01*
X17050411Y-14088503D01*
X17021840Y-14088503D01*
X17002792Y-14098027D01*
X16993269Y-14107550D01*
X17202792Y-14221836D02*
X17183745Y-14212312D01*
X17174221Y-14202788D01*
X17164697Y-14183741D01*
X17164697Y-14126598D01*
X17174221Y-14107550D01*
X17183745Y-14098027D01*
X17202792Y-14088503D01*
X17231364Y-14088503D01*
X17250411Y-14098027D01*
X17259935Y-14107550D01*
X17269459Y-14126598D01*
X17269459Y-14183741D01*
X17259935Y-14202788D01*
X17250411Y-14212312D01*
X17231364Y-14221836D01*
X17202792Y-14221836D01*
X17383745Y-14221836D02*
X17364697Y-14212312D01*
X17355173Y-14193265D01*
X17355173Y-14021836D01*
X17536126Y-14212312D02*
X17517078Y-14221836D01*
X17478983Y-14221836D01*
X17459935Y-14212312D01*
X17450411Y-14193265D01*
X17450411Y-14117074D01*
X17459935Y-14098027D01*
X17478983Y-14088503D01*
X17517078Y-14088503D01*
X17536126Y-14098027D01*
X17545650Y-14117074D01*
X17545650Y-14136122D01*
X17450411Y-14155169D01*
X17621840Y-14212312D02*
X17640888Y-14221836D01*
X17678983Y-14221836D01*
X17698030Y-14212312D01*
X17707554Y-14193265D01*
X17707554Y-14183741D01*
X17698030Y-14164693D01*
X17678983Y-14155169D01*
X17650411Y-14155169D01*
X17631364Y-14145646D01*
X17621840Y-14126598D01*
X17621840Y-14117074D01*
X17631364Y-14098027D01*
X17650411Y-14088503D01*
X17678983Y-14088503D01*
X17698030Y-14098027D01*
X17774221Y-14298027D02*
X17783745Y-14288503D01*
X17802792Y-14259931D01*
X17812316Y-14240884D01*
X17821840Y-14212312D01*
X17831364Y-14164693D01*
X17831364Y-14126598D01*
X17821840Y-14078979D01*
X17812316Y-14050408D01*
X17802792Y-14031360D01*
X17783745Y-14002788D01*
X17774221Y-13993265D01*
D13*
X12811840Y-14395360D02*
G75*
G03*
X12811840Y-14395360I-25000J0D01*
G01*
D11*
X13107554Y-14285836D02*
X13126602Y-14285836D01*
X13145649Y-14295360D01*
X13155173Y-14304884D01*
X13164697Y-14323931D01*
X13174221Y-14362027D01*
X13174221Y-14409646D01*
X13164697Y-14447741D01*
X13155173Y-14466788D01*
X13145649Y-14476312D01*
X13126602Y-14485836D01*
X13107554Y-14485836D01*
X13088507Y-14476312D01*
X13078983Y-14466788D01*
X13069459Y-14447741D01*
X13059935Y-14409646D01*
X13059935Y-14362027D01*
X13069459Y-14323931D01*
X13078983Y-14304884D01*
X13088507Y-14295360D01*
X13107554Y-14285836D01*
X13259935Y-14466788D02*
X13269459Y-14476312D01*
X13259935Y-14485836D01*
X13250411Y-14476312D01*
X13259935Y-14466788D01*
X13259935Y-14485836D01*
X13450411Y-14285836D02*
X13355173Y-14285836D01*
X13345649Y-14381074D01*
X13355173Y-14371550D01*
X13374221Y-14362027D01*
X13421840Y-14362027D01*
X13440888Y-14371550D01*
X13450411Y-14381074D01*
X13459935Y-14400122D01*
X13459935Y-14447741D01*
X13450411Y-14466788D01*
X13440888Y-14476312D01*
X13421840Y-14485836D01*
X13374221Y-14485836D01*
X13355173Y-14476312D01*
X13345649Y-14466788D01*
X13583745Y-14285836D02*
X13602792Y-14285836D01*
X13621840Y-14295360D01*
X13631364Y-14304884D01*
X13640888Y-14323931D01*
X13650411Y-14362027D01*
X13650411Y-14409646D01*
X13640888Y-14447741D01*
X13631364Y-14466788D01*
X13621840Y-14476312D01*
X13602792Y-14485836D01*
X13583745Y-14485836D01*
X13564697Y-14476312D01*
X13555173Y-14466788D01*
X13545649Y-14447741D01*
X13536126Y-14409646D01*
X13536126Y-14362027D01*
X13545649Y-14323931D01*
X13555173Y-14304884D01*
X13564697Y-14295360D01*
X13583745Y-14285836D01*
X13774221Y-14285836D02*
X13793268Y-14285836D01*
X13812316Y-14295360D01*
X13821840Y-14304884D01*
X13831364Y-14323931D01*
X13840888Y-14362027D01*
X13840888Y-14409646D01*
X13831364Y-14447741D01*
X13821840Y-14466788D01*
X13812316Y-14476312D01*
X13793268Y-14485836D01*
X13774221Y-14485836D01*
X13755173Y-14476312D01*
X13745649Y-14466788D01*
X13736126Y-14447741D01*
X13726602Y-14409646D01*
X13726602Y-14362027D01*
X13736126Y-14323931D01*
X13745649Y-14304884D01*
X13755173Y-14295360D01*
X13774221Y-14285836D01*
X13926602Y-14485836D02*
X13926602Y-14352503D01*
X13926602Y-14371550D02*
X13936126Y-14362027D01*
X13955173Y-14352503D01*
X13983745Y-14352503D01*
X14002792Y-14362027D01*
X14012316Y-14381074D01*
X14012316Y-14485836D01*
X14012316Y-14381074D02*
X14021840Y-14362027D01*
X14040888Y-14352503D01*
X14069459Y-14352503D01*
X14088507Y-14362027D01*
X14098030Y-14381074D01*
X14098030Y-14485836D01*
X14193268Y-14485836D02*
X14193268Y-14352503D01*
X14193268Y-14371550D02*
X14202792Y-14362027D01*
X14221840Y-14352503D01*
X14250411Y-14352503D01*
X14269459Y-14362027D01*
X14278983Y-14381074D01*
X14278983Y-14485836D01*
X14278983Y-14381074D02*
X14288507Y-14362027D01*
X14307554Y-14352503D01*
X14336126Y-14352503D01*
X14355173Y-14362027D01*
X14364697Y-14381074D01*
X14364697Y-14485836D01*
X14755173Y-14276312D02*
X14583745Y-14533455D01*
X15012316Y-14285836D02*
X15031364Y-14285836D01*
X15050411Y-14295360D01*
X15059935Y-14304884D01*
X15069459Y-14323931D01*
X15078983Y-14362027D01*
X15078983Y-14409646D01*
X15069459Y-14447741D01*
X15059935Y-14466788D01*
X15050411Y-14476312D01*
X15031364Y-14485836D01*
X15012316Y-14485836D01*
X14993268Y-14476312D01*
X14983745Y-14466788D01*
X14974221Y-14447741D01*
X14964697Y-14409646D01*
X14964697Y-14362027D01*
X14974221Y-14323931D01*
X14983745Y-14304884D01*
X14993268Y-14295360D01*
X15012316Y-14285836D01*
X15164697Y-14466788D02*
X15174221Y-14476312D01*
X15164697Y-14485836D01*
X15155173Y-14476312D01*
X15164697Y-14466788D01*
X15164697Y-14485836D01*
X15298030Y-14285836D02*
X15317078Y-14285836D01*
X15336126Y-14295360D01*
X15345649Y-14304884D01*
X15355173Y-14323931D01*
X15364697Y-14362027D01*
X15364697Y-14409646D01*
X15355173Y-14447741D01*
X15345649Y-14466788D01*
X15336126Y-14476312D01*
X15317078Y-14485836D01*
X15298030Y-14485836D01*
X15278983Y-14476312D01*
X15269459Y-14466788D01*
X15259935Y-14447741D01*
X15250411Y-14409646D01*
X15250411Y-14362027D01*
X15259935Y-14323931D01*
X15269459Y-14304884D01*
X15278983Y-14295360D01*
X15298030Y-14285836D01*
X15555173Y-14485836D02*
X15440888Y-14485836D01*
X15498030Y-14485836D02*
X15498030Y-14285836D01*
X15478983Y-14314408D01*
X15459935Y-14333455D01*
X15440888Y-14342979D01*
X15650411Y-14485836D02*
X15688507Y-14485836D01*
X15707554Y-14476312D01*
X15717078Y-14466788D01*
X15736126Y-14438217D01*
X15745649Y-14400122D01*
X15745649Y-14323931D01*
X15736126Y-14304884D01*
X15726602Y-14295360D01*
X15707554Y-14285836D01*
X15669459Y-14285836D01*
X15650411Y-14295360D01*
X15640888Y-14304884D01*
X15631364Y-14323931D01*
X15631364Y-14371550D01*
X15640888Y-14390598D01*
X15650411Y-14400122D01*
X15669459Y-14409646D01*
X15707554Y-14409646D01*
X15726602Y-14400122D01*
X15736126Y-14390598D01*
X15745649Y-14371550D01*
X15812316Y-14285836D02*
X15945649Y-14285836D01*
X15859935Y-14485836D01*
X16012316Y-14285836D02*
X16012316Y-14323931D01*
X16088507Y-14285836D02*
X16088507Y-14323931D01*
X16383745Y-14562027D02*
X16374221Y-14552503D01*
X16355173Y-14523931D01*
X16345649Y-14504884D01*
X16336126Y-14476312D01*
X16326602Y-14428693D01*
X16326602Y-14390598D01*
X16336126Y-14342979D01*
X16345649Y-14314408D01*
X16355173Y-14295360D01*
X16374221Y-14266788D01*
X16383745Y-14257265D01*
X16450411Y-14304884D02*
X16459935Y-14295360D01*
X16478983Y-14285836D01*
X16526602Y-14285836D01*
X16545649Y-14295360D01*
X16555173Y-14304884D01*
X16564697Y-14323931D01*
X16564697Y-14342979D01*
X16555173Y-14371550D01*
X16440888Y-14485836D01*
X16564697Y-14485836D01*
X16802792Y-14485836D02*
X16802792Y-14285836D01*
X16888507Y-14485836D02*
X16888507Y-14381074D01*
X16878983Y-14362027D01*
X16859935Y-14352503D01*
X16831364Y-14352503D01*
X16812316Y-14362027D01*
X16802792Y-14371550D01*
X17012316Y-14485836D02*
X16993269Y-14476312D01*
X16983745Y-14466788D01*
X16974221Y-14447741D01*
X16974221Y-14390598D01*
X16983745Y-14371550D01*
X16993269Y-14362027D01*
X17012316Y-14352503D01*
X17040888Y-14352503D01*
X17059935Y-14362027D01*
X17069459Y-14371550D01*
X17078983Y-14390598D01*
X17078983Y-14447741D01*
X17069459Y-14466788D01*
X17059935Y-14476312D01*
X17040888Y-14485836D01*
X17012316Y-14485836D01*
X17193269Y-14485836D02*
X17174221Y-14476312D01*
X17164697Y-14457265D01*
X17164697Y-14285836D01*
X17345650Y-14476312D02*
X17326602Y-14485836D01*
X17288507Y-14485836D01*
X17269459Y-14476312D01*
X17259935Y-14457265D01*
X17259935Y-14381074D01*
X17269459Y-14362027D01*
X17288507Y-14352503D01*
X17326602Y-14352503D01*
X17345650Y-14362027D01*
X17355173Y-14381074D01*
X17355173Y-14400122D01*
X17259935Y-14419169D01*
X17431364Y-14476312D02*
X17450411Y-14485836D01*
X17488507Y-14485836D01*
X17507554Y-14476312D01*
X17517078Y-14457265D01*
X17517078Y-14447741D01*
X17507554Y-14428693D01*
X17488507Y-14419169D01*
X17459935Y-14419169D01*
X17440888Y-14409646D01*
X17431364Y-14390598D01*
X17431364Y-14381074D01*
X17440888Y-14362027D01*
X17459935Y-14352503D01*
X17488507Y-14352503D01*
X17507554Y-14362027D01*
X17583745Y-14562027D02*
X17593269Y-14552503D01*
X17612316Y-14523931D01*
X17621840Y-14504884D01*
X17631364Y-14476312D01*
X17640888Y-14428693D01*
X17640888Y-14390598D01*
X17631364Y-14342979D01*
X17621840Y-14314408D01*
X17612316Y-14295360D01*
X17593269Y-14266788D01*
X17583745Y-14257265D01*
D14*
X12771840Y-14619360D02*
X12771840Y-14699360D01*
X12731840Y-14659360D02*
X12811840Y-14659360D01*
D11*
X13107554Y-14549836D02*
X13126602Y-14549836D01*
X13145649Y-14559360D01*
X13155173Y-14568884D01*
X13164697Y-14587931D01*
X13174221Y-14626027D01*
X13174221Y-14673646D01*
X13164697Y-14711741D01*
X13155173Y-14730788D01*
X13145649Y-14740312D01*
X13126602Y-14749836D01*
X13107554Y-14749836D01*
X13088507Y-14740312D01*
X13078983Y-14730788D01*
X13069459Y-14711741D01*
X13059935Y-14673646D01*
X13059935Y-14626027D01*
X13069459Y-14587931D01*
X13078983Y-14568884D01*
X13088507Y-14559360D01*
X13107554Y-14549836D01*
X13259935Y-14730788D02*
X13269459Y-14740312D01*
X13259935Y-14749836D01*
X13250411Y-14740312D01*
X13259935Y-14730788D01*
X13259935Y-14749836D01*
X13383745Y-14635550D02*
X13364697Y-14626027D01*
X13355173Y-14616503D01*
X13345649Y-14597455D01*
X13345649Y-14587931D01*
X13355173Y-14568884D01*
X13364697Y-14559360D01*
X13383745Y-14549836D01*
X13421840Y-14549836D01*
X13440888Y-14559360D01*
X13450411Y-14568884D01*
X13459935Y-14587931D01*
X13459935Y-14597455D01*
X13450411Y-14616503D01*
X13440888Y-14626027D01*
X13421840Y-14635550D01*
X13383745Y-14635550D01*
X13364697Y-14645074D01*
X13355173Y-14654598D01*
X13345649Y-14673646D01*
X13345649Y-14711741D01*
X13355173Y-14730788D01*
X13364697Y-14740312D01*
X13383745Y-14749836D01*
X13421840Y-14749836D01*
X13440888Y-14740312D01*
X13450411Y-14730788D01*
X13459935Y-14711741D01*
X13459935Y-14673646D01*
X13450411Y-14654598D01*
X13440888Y-14645074D01*
X13421840Y-14635550D01*
X13583745Y-14549836D02*
X13602792Y-14549836D01*
X13621840Y-14559360D01*
X13631364Y-14568884D01*
X13640888Y-14587931D01*
X13650411Y-14626027D01*
X13650411Y-14673646D01*
X13640888Y-14711741D01*
X13631364Y-14730788D01*
X13621840Y-14740312D01*
X13602792Y-14749836D01*
X13583745Y-14749836D01*
X13564697Y-14740312D01*
X13555173Y-14730788D01*
X13545649Y-14711741D01*
X13536126Y-14673646D01*
X13536126Y-14626027D01*
X13545649Y-14587931D01*
X13555173Y-14568884D01*
X13564697Y-14559360D01*
X13583745Y-14549836D01*
X13774221Y-14549836D02*
X13793268Y-14549836D01*
X13812316Y-14559360D01*
X13821840Y-14568884D01*
X13831364Y-14587931D01*
X13840888Y-14626027D01*
X13840888Y-14673646D01*
X13831364Y-14711741D01*
X13821840Y-14730788D01*
X13812316Y-14740312D01*
X13793268Y-14749836D01*
X13774221Y-14749836D01*
X13755173Y-14740312D01*
X13745649Y-14730788D01*
X13736126Y-14711741D01*
X13726602Y-14673646D01*
X13726602Y-14626027D01*
X13736126Y-14587931D01*
X13745649Y-14568884D01*
X13755173Y-14559360D01*
X13774221Y-14549836D01*
X13926602Y-14749836D02*
X13926602Y-14616503D01*
X13926602Y-14635550D02*
X13936126Y-14626027D01*
X13955173Y-14616503D01*
X13983745Y-14616503D01*
X14002792Y-14626027D01*
X14012316Y-14645074D01*
X14012316Y-14749836D01*
X14012316Y-14645074D02*
X14021840Y-14626027D01*
X14040888Y-14616503D01*
X14069459Y-14616503D01*
X14088507Y-14626027D01*
X14098030Y-14645074D01*
X14098030Y-14749836D01*
X14193268Y-14749836D02*
X14193268Y-14616503D01*
X14193268Y-14635550D02*
X14202792Y-14626027D01*
X14221840Y-14616503D01*
X14250411Y-14616503D01*
X14269459Y-14626027D01*
X14278983Y-14645074D01*
X14278983Y-14749836D01*
X14278983Y-14645074D02*
X14288507Y-14626027D01*
X14307554Y-14616503D01*
X14336126Y-14616503D01*
X14355173Y-14626027D01*
X14364697Y-14645074D01*
X14364697Y-14749836D01*
X14755173Y-14540312D02*
X14583745Y-14797455D01*
X15012316Y-14549836D02*
X15031364Y-14549836D01*
X15050411Y-14559360D01*
X15059935Y-14568884D01*
X15069459Y-14587931D01*
X15078983Y-14626027D01*
X15078983Y-14673646D01*
X15069459Y-14711741D01*
X15059935Y-14730788D01*
X15050411Y-14740312D01*
X15031364Y-14749836D01*
X15012316Y-14749836D01*
X14993268Y-14740312D01*
X14983745Y-14730788D01*
X14974221Y-14711741D01*
X14964697Y-14673646D01*
X14964697Y-14626027D01*
X14974221Y-14587931D01*
X14983745Y-14568884D01*
X14993268Y-14559360D01*
X15012316Y-14549836D01*
X15164697Y-14730788D02*
X15174221Y-14740312D01*
X15164697Y-14749836D01*
X15155173Y-14740312D01*
X15164697Y-14730788D01*
X15164697Y-14749836D01*
X15298030Y-14549836D02*
X15317078Y-14549836D01*
X15336126Y-14559360D01*
X15345649Y-14568884D01*
X15355173Y-14587931D01*
X15364697Y-14626027D01*
X15364697Y-14673646D01*
X15355173Y-14711741D01*
X15345649Y-14730788D01*
X15336126Y-14740312D01*
X15317078Y-14749836D01*
X15298030Y-14749836D01*
X15278983Y-14740312D01*
X15269459Y-14730788D01*
X15259935Y-14711741D01*
X15250411Y-14673646D01*
X15250411Y-14626027D01*
X15259935Y-14587931D01*
X15269459Y-14568884D01*
X15278983Y-14559360D01*
X15298030Y-14549836D01*
X15431364Y-14549836D02*
X15555173Y-14549836D01*
X15488507Y-14626027D01*
X15517078Y-14626027D01*
X15536126Y-14635550D01*
X15545649Y-14645074D01*
X15555173Y-14664122D01*
X15555173Y-14711741D01*
X15545649Y-14730788D01*
X15536126Y-14740312D01*
X15517078Y-14749836D01*
X15459935Y-14749836D01*
X15440888Y-14740312D01*
X15431364Y-14730788D01*
X15745649Y-14749836D02*
X15631364Y-14749836D01*
X15688507Y-14749836D02*
X15688507Y-14549836D01*
X15669459Y-14578408D01*
X15650411Y-14597455D01*
X15631364Y-14606979D01*
X15926602Y-14549836D02*
X15831364Y-14549836D01*
X15821840Y-14645074D01*
X15831364Y-14635550D01*
X15850411Y-14626027D01*
X15898030Y-14626027D01*
X15917078Y-14635550D01*
X15926602Y-14645074D01*
X15936126Y-14664122D01*
X15936126Y-14711741D01*
X15926602Y-14730788D01*
X15917078Y-14740312D01*
X15898030Y-14749836D01*
X15850411Y-14749836D01*
X15831364Y-14740312D01*
X15821840Y-14730788D01*
X16012316Y-14549836D02*
X16012316Y-14587931D01*
X16088507Y-14549836D02*
X16088507Y-14587931D01*
X16383745Y-14826027D02*
X16374221Y-14816503D01*
X16355173Y-14787931D01*
X16345649Y-14768884D01*
X16336126Y-14740312D01*
X16326602Y-14692693D01*
X16326602Y-14654598D01*
X16336126Y-14606979D01*
X16345649Y-14578408D01*
X16355173Y-14559360D01*
X16374221Y-14530788D01*
X16383745Y-14521265D01*
X16450411Y-14568884D02*
X16459935Y-14559360D01*
X16478983Y-14549836D01*
X16526602Y-14549836D01*
X16545649Y-14559360D01*
X16555173Y-14568884D01*
X16564697Y-14587931D01*
X16564697Y-14606979D01*
X16555173Y-14635550D01*
X16440888Y-14749836D01*
X16564697Y-14749836D01*
X16802792Y-14749836D02*
X16802792Y-14549836D01*
X16888507Y-14749836D02*
X16888507Y-14645074D01*
X16878983Y-14626027D01*
X16859935Y-14616503D01*
X16831364Y-14616503D01*
X16812316Y-14626027D01*
X16802792Y-14635550D01*
X17012316Y-14749836D02*
X16993269Y-14740312D01*
X16983745Y-14730788D01*
X16974221Y-14711741D01*
X16974221Y-14654598D01*
X16983745Y-14635550D01*
X16993269Y-14626027D01*
X17012316Y-14616503D01*
X17040888Y-14616503D01*
X17059935Y-14626027D01*
X17069459Y-14635550D01*
X17078983Y-14654598D01*
X17078983Y-14711741D01*
X17069459Y-14730788D01*
X17059935Y-14740312D01*
X17040888Y-14749836D01*
X17012316Y-14749836D01*
X17193269Y-14749836D02*
X17174221Y-14740312D01*
X17164697Y-14721265D01*
X17164697Y-14549836D01*
X17345650Y-14740312D02*
X17326602Y-14749836D01*
X17288507Y-14749836D01*
X17269459Y-14740312D01*
X17259935Y-14721265D01*
X17259935Y-14645074D01*
X17269459Y-14626027D01*
X17288507Y-14616503D01*
X17326602Y-14616503D01*
X17345650Y-14626027D01*
X17355173Y-14645074D01*
X17355173Y-14664122D01*
X17259935Y-14683169D01*
X17431364Y-14740312D02*
X17450411Y-14749836D01*
X17488507Y-14749836D01*
X17507554Y-14740312D01*
X17517078Y-14721265D01*
X17517078Y-14711741D01*
X17507554Y-14692693D01*
X17488507Y-14683169D01*
X17459935Y-14683169D01*
X17440888Y-14673646D01*
X17431364Y-14654598D01*
X17431364Y-14645074D01*
X17440888Y-14626027D01*
X17459935Y-14616503D01*
X17488507Y-14616503D01*
X17507554Y-14626027D01*
X17583745Y-14826027D02*
X17593269Y-14816503D01*
X17612316Y-14787931D01*
X17621840Y-14768884D01*
X17631364Y-14740312D01*
X17640888Y-14692693D01*
X17640888Y-14654598D01*
X17631364Y-14606979D01*
X17621840Y-14578408D01*
X17612316Y-14559360D01*
X17593269Y-14530788D01*
X17583745Y-14521265D01*
D15*
X12797196Y-14958716D02*
X12797196Y-14888004D01*
X12726484Y-14888004D01*
X12726484Y-14958716D01*
X12797196Y-14958716D01*
D11*
X13174221Y-15013836D02*
X13059935Y-15013836D01*
X13117078Y-15013836D02*
X13117078Y-14813836D01*
X13098030Y-14842408D01*
X13078983Y-14861455D01*
X13059935Y-14870979D01*
X13259935Y-14994788D02*
X13269459Y-15004312D01*
X13259935Y-15013836D01*
X13250411Y-15004312D01*
X13259935Y-14994788D01*
X13259935Y-15013836D01*
X13393268Y-14813836D02*
X13412316Y-14813836D01*
X13431364Y-14823360D01*
X13440888Y-14832884D01*
X13450411Y-14851931D01*
X13459935Y-14890027D01*
X13459935Y-14937646D01*
X13450411Y-14975741D01*
X13440888Y-14994788D01*
X13431364Y-15004312D01*
X13412316Y-15013836D01*
X13393268Y-15013836D01*
X13374221Y-15004312D01*
X13364697Y-14994788D01*
X13355173Y-14975741D01*
X13345649Y-14937646D01*
X13345649Y-14890027D01*
X13355173Y-14851931D01*
X13364697Y-14832884D01*
X13374221Y-14823360D01*
X13393268Y-14813836D01*
X13583745Y-14813836D02*
X13602792Y-14813836D01*
X13621840Y-14823360D01*
X13631364Y-14832884D01*
X13640888Y-14851931D01*
X13650411Y-14890027D01*
X13650411Y-14937646D01*
X13640888Y-14975741D01*
X13631364Y-14994788D01*
X13621840Y-15004312D01*
X13602792Y-15013836D01*
X13583745Y-15013836D01*
X13564697Y-15004312D01*
X13555173Y-14994788D01*
X13545649Y-14975741D01*
X13536126Y-14937646D01*
X13536126Y-14890027D01*
X13545649Y-14851931D01*
X13555173Y-14832884D01*
X13564697Y-14823360D01*
X13583745Y-14813836D01*
X13774221Y-14813836D02*
X13793268Y-14813836D01*
X13812316Y-14823360D01*
X13821840Y-14832884D01*
X13831364Y-14851931D01*
X13840888Y-14890027D01*
X13840888Y-14937646D01*
X13831364Y-14975741D01*
X13821840Y-14994788D01*
X13812316Y-15004312D01*
X13793268Y-15013836D01*
X13774221Y-15013836D01*
X13755173Y-15004312D01*
X13745649Y-14994788D01*
X13736126Y-14975741D01*
X13726602Y-14937646D01*
X13726602Y-14890027D01*
X13736126Y-14851931D01*
X13745649Y-14832884D01*
X13755173Y-14823360D01*
X13774221Y-14813836D01*
X13926602Y-15013836D02*
X13926602Y-14880503D01*
X13926602Y-14899550D02*
X13936126Y-14890027D01*
X13955173Y-14880503D01*
X13983745Y-14880503D01*
X14002792Y-14890027D01*
X14012316Y-14909074D01*
X14012316Y-15013836D01*
X14012316Y-14909074D02*
X14021840Y-14890027D01*
X14040888Y-14880503D01*
X14069459Y-14880503D01*
X14088507Y-14890027D01*
X14098030Y-14909074D01*
X14098030Y-15013836D01*
X14193268Y-15013836D02*
X14193268Y-14880503D01*
X14193268Y-14899550D02*
X14202792Y-14890027D01*
X14221840Y-14880503D01*
X14250411Y-14880503D01*
X14269459Y-14890027D01*
X14278983Y-14909074D01*
X14278983Y-15013836D01*
X14278983Y-14909074D02*
X14288507Y-14890027D01*
X14307554Y-14880503D01*
X14336126Y-14880503D01*
X14355173Y-14890027D01*
X14364697Y-14909074D01*
X14364697Y-15013836D01*
X14755173Y-14804312D02*
X14583745Y-15061455D01*
X15012316Y-14813836D02*
X15031364Y-14813836D01*
X15050411Y-14823360D01*
X15059935Y-14832884D01*
X15069459Y-14851931D01*
X15078983Y-14890027D01*
X15078983Y-14937646D01*
X15069459Y-14975741D01*
X15059935Y-14994788D01*
X15050411Y-15004312D01*
X15031364Y-15013836D01*
X15012316Y-15013836D01*
X14993268Y-15004312D01*
X14983745Y-14994788D01*
X14974221Y-14975741D01*
X14964697Y-14937646D01*
X14964697Y-14890027D01*
X14974221Y-14851931D01*
X14983745Y-14832884D01*
X14993268Y-14823360D01*
X15012316Y-14813836D01*
X15164697Y-14994788D02*
X15174221Y-15004312D01*
X15164697Y-15013836D01*
X15155173Y-15004312D01*
X15164697Y-14994788D01*
X15164697Y-15013836D01*
X15298030Y-14813836D02*
X15317078Y-14813836D01*
X15336126Y-14823360D01*
X15345649Y-14832884D01*
X15355173Y-14851931D01*
X15364697Y-14890027D01*
X15364697Y-14937646D01*
X15355173Y-14975741D01*
X15345649Y-14994788D01*
X15336126Y-15004312D01*
X15317078Y-15013836D01*
X15298030Y-15013836D01*
X15278983Y-15004312D01*
X15269459Y-14994788D01*
X15259935Y-14975741D01*
X15250411Y-14937646D01*
X15250411Y-14890027D01*
X15259935Y-14851931D01*
X15269459Y-14832884D01*
X15278983Y-14823360D01*
X15298030Y-14813836D01*
X15431364Y-14813836D02*
X15555173Y-14813836D01*
X15488507Y-14890027D01*
X15517078Y-14890027D01*
X15536126Y-14899550D01*
X15545649Y-14909074D01*
X15555173Y-14928122D01*
X15555173Y-14975741D01*
X15545649Y-14994788D01*
X15536126Y-15004312D01*
X15517078Y-15013836D01*
X15459935Y-15013836D01*
X15440888Y-15004312D01*
X15431364Y-14994788D01*
X15650411Y-15013836D02*
X15688507Y-15013836D01*
X15707554Y-15004312D01*
X15717078Y-14994788D01*
X15736126Y-14966217D01*
X15745649Y-14928122D01*
X15745649Y-14851931D01*
X15736126Y-14832884D01*
X15726602Y-14823360D01*
X15707554Y-14813836D01*
X15669459Y-14813836D01*
X15650411Y-14823360D01*
X15640888Y-14832884D01*
X15631364Y-14851931D01*
X15631364Y-14899550D01*
X15640888Y-14918598D01*
X15650411Y-14928122D01*
X15669459Y-14937646D01*
X15707554Y-14937646D01*
X15726602Y-14928122D01*
X15736126Y-14918598D01*
X15745649Y-14899550D01*
X15917078Y-14880503D02*
X15917078Y-15013836D01*
X15869459Y-14804312D02*
X15821840Y-14947169D01*
X15945649Y-14947169D01*
X16012316Y-14813836D02*
X16012316Y-14851931D01*
X16088507Y-14813836D02*
X16088507Y-14851931D01*
X16383745Y-15090027D02*
X16374221Y-15080503D01*
X16355173Y-15051931D01*
X16345649Y-15032884D01*
X16336126Y-15004312D01*
X16326602Y-14956693D01*
X16326602Y-14918598D01*
X16336126Y-14870979D01*
X16345649Y-14842408D01*
X16355173Y-14823360D01*
X16374221Y-14794788D01*
X16383745Y-14785265D01*
X16545649Y-14813836D02*
X16507554Y-14813836D01*
X16488507Y-14823360D01*
X16478983Y-14832884D01*
X16459935Y-14861455D01*
X16450411Y-14899550D01*
X16450411Y-14975741D01*
X16459935Y-14994788D01*
X16469459Y-15004312D01*
X16488507Y-15013836D01*
X16526602Y-15013836D01*
X16545649Y-15004312D01*
X16555173Y-14994788D01*
X16564697Y-14975741D01*
X16564697Y-14928122D01*
X16555173Y-14909074D01*
X16545649Y-14899550D01*
X16526602Y-14890027D01*
X16488507Y-14890027D01*
X16469459Y-14899550D01*
X16459935Y-14909074D01*
X16450411Y-14928122D01*
X16802792Y-15013836D02*
X16802792Y-14813836D01*
X16888507Y-15013836D02*
X16888507Y-14909074D01*
X16878983Y-14890027D01*
X16859935Y-14880503D01*
X16831364Y-14880503D01*
X16812316Y-14890027D01*
X16802792Y-14899550D01*
X17012316Y-15013836D02*
X16993269Y-15004312D01*
X16983745Y-14994788D01*
X16974221Y-14975741D01*
X16974221Y-14918598D01*
X16983745Y-14899550D01*
X16993269Y-14890027D01*
X17012316Y-14880503D01*
X17040888Y-14880503D01*
X17059935Y-14890027D01*
X17069459Y-14899550D01*
X17078983Y-14918598D01*
X17078983Y-14975741D01*
X17069459Y-14994788D01*
X17059935Y-15004312D01*
X17040888Y-15013836D01*
X17012316Y-15013836D01*
X17193269Y-15013836D02*
X17174221Y-15004312D01*
X17164697Y-14985265D01*
X17164697Y-14813836D01*
X17345650Y-15004312D02*
X17326602Y-15013836D01*
X17288507Y-15013836D01*
X17269459Y-15004312D01*
X17259935Y-14985265D01*
X17259935Y-14909074D01*
X17269459Y-14890027D01*
X17288507Y-14880503D01*
X17326602Y-14880503D01*
X17345650Y-14890027D01*
X17355173Y-14909074D01*
X17355173Y-14928122D01*
X17259935Y-14947169D01*
X17431364Y-15004312D02*
X17450411Y-15013836D01*
X17488507Y-15013836D01*
X17507554Y-15004312D01*
X17517078Y-14985265D01*
X17517078Y-14975741D01*
X17507554Y-14956693D01*
X17488507Y-14947169D01*
X17459935Y-14947169D01*
X17440888Y-14937646D01*
X17431364Y-14918598D01*
X17431364Y-14909074D01*
X17440888Y-14890027D01*
X17459935Y-14880503D01*
X17488507Y-14880503D01*
X17507554Y-14890027D01*
X17583745Y-15090027D02*
X17593269Y-15080503D01*
X17612316Y-15051931D01*
X17621840Y-15032884D01*
X17631364Y-15004312D01*
X17640888Y-14956693D01*
X17640888Y-14918598D01*
X17631364Y-14870979D01*
X17621840Y-14842408D01*
X17612316Y-14823360D01*
X17593269Y-14794788D01*
X17583745Y-14785265D01*
D16*
X12757340Y-15241860D02*
X12811840Y-15187360D01*
X12757340Y-15132860D01*
X12702840Y-15187360D01*
X12757340Y-15241860D01*
D11*
X13174221Y-15277836D02*
X13059935Y-15277836D01*
X13117078Y-15277836D02*
X13117078Y-15077836D01*
X13098030Y-15106408D01*
X13078983Y-15125455D01*
X13059935Y-15134979D01*
X13259935Y-15258788D02*
X13269459Y-15268312D01*
X13259935Y-15277836D01*
X13250411Y-15268312D01*
X13259935Y-15258788D01*
X13259935Y-15277836D01*
X13393268Y-15077836D02*
X13412316Y-15077836D01*
X13431364Y-15087360D01*
X13440888Y-15096884D01*
X13450411Y-15115931D01*
X13459935Y-15154027D01*
X13459935Y-15201646D01*
X13450411Y-15239741D01*
X13440888Y-15258788D01*
X13431364Y-15268312D01*
X13412316Y-15277836D01*
X13393268Y-15277836D01*
X13374221Y-15268312D01*
X13364697Y-15258788D01*
X13355173Y-15239741D01*
X13345649Y-15201646D01*
X13345649Y-15154027D01*
X13355173Y-15115931D01*
X13364697Y-15096884D01*
X13374221Y-15087360D01*
X13393268Y-15077836D01*
X13555173Y-15277836D02*
X13593268Y-15277836D01*
X13612316Y-15268312D01*
X13621840Y-15258788D01*
X13640888Y-15230217D01*
X13650411Y-15192122D01*
X13650411Y-15115931D01*
X13640888Y-15096884D01*
X13631364Y-15087360D01*
X13612316Y-15077836D01*
X13574221Y-15077836D01*
X13555173Y-15087360D01*
X13545649Y-15096884D01*
X13536126Y-15115931D01*
X13536126Y-15163550D01*
X13545649Y-15182598D01*
X13555173Y-15192122D01*
X13574221Y-15201646D01*
X13612316Y-15201646D01*
X13631364Y-15192122D01*
X13640888Y-15182598D01*
X13650411Y-15163550D01*
X13774221Y-15077836D02*
X13793268Y-15077836D01*
X13812316Y-15087360D01*
X13821840Y-15096884D01*
X13831364Y-15115931D01*
X13840888Y-15154027D01*
X13840888Y-15201646D01*
X13831364Y-15239741D01*
X13821840Y-15258788D01*
X13812316Y-15268312D01*
X13793268Y-15277836D01*
X13774221Y-15277836D01*
X13755173Y-15268312D01*
X13745649Y-15258788D01*
X13736126Y-15239741D01*
X13726602Y-15201646D01*
X13726602Y-15154027D01*
X13736126Y-15115931D01*
X13745649Y-15096884D01*
X13755173Y-15087360D01*
X13774221Y-15077836D01*
X13926602Y-15277836D02*
X13926602Y-15144503D01*
X13926602Y-15163550D02*
X13936126Y-15154027D01*
X13955173Y-15144503D01*
X13983745Y-15144503D01*
X14002792Y-15154027D01*
X14012316Y-15173074D01*
X14012316Y-15277836D01*
X14012316Y-15173074D02*
X14021840Y-15154027D01*
X14040888Y-15144503D01*
X14069459Y-15144503D01*
X14088507Y-15154027D01*
X14098030Y-15173074D01*
X14098030Y-15277836D01*
X14193268Y-15277836D02*
X14193268Y-15144503D01*
X14193268Y-15163550D02*
X14202792Y-15154027D01*
X14221840Y-15144503D01*
X14250411Y-15144503D01*
X14269459Y-15154027D01*
X14278983Y-15173074D01*
X14278983Y-15277836D01*
X14278983Y-15173074D02*
X14288507Y-15154027D01*
X14307554Y-15144503D01*
X14336126Y-15144503D01*
X14355173Y-15154027D01*
X14364697Y-15173074D01*
X14364697Y-15277836D01*
X14755173Y-15068312D02*
X14583745Y-15325455D01*
X15012316Y-15077836D02*
X15031364Y-15077836D01*
X15050411Y-15087360D01*
X15059935Y-15096884D01*
X15069459Y-15115931D01*
X15078983Y-15154027D01*
X15078983Y-15201646D01*
X15069459Y-15239741D01*
X15059935Y-15258788D01*
X15050411Y-15268312D01*
X15031364Y-15277836D01*
X15012316Y-15277836D01*
X14993268Y-15268312D01*
X14983745Y-15258788D01*
X14974221Y-15239741D01*
X14964697Y-15201646D01*
X14964697Y-15154027D01*
X14974221Y-15115931D01*
X14983745Y-15096884D01*
X14993268Y-15087360D01*
X15012316Y-15077836D01*
X15164697Y-15258788D02*
X15174221Y-15268312D01*
X15164697Y-15277836D01*
X15155173Y-15268312D01*
X15164697Y-15258788D01*
X15164697Y-15277836D01*
X15298030Y-15077836D02*
X15317078Y-15077836D01*
X15336126Y-15087360D01*
X15345649Y-15096884D01*
X15355173Y-15115931D01*
X15364697Y-15154027D01*
X15364697Y-15201646D01*
X15355173Y-15239741D01*
X15345649Y-15258788D01*
X15336126Y-15268312D01*
X15317078Y-15277836D01*
X15298030Y-15277836D01*
X15278983Y-15268312D01*
X15269459Y-15258788D01*
X15259935Y-15239741D01*
X15250411Y-15201646D01*
X15250411Y-15154027D01*
X15259935Y-15115931D01*
X15269459Y-15096884D01*
X15278983Y-15087360D01*
X15298030Y-15077836D01*
X15536126Y-15144503D02*
X15536126Y-15277836D01*
X15488507Y-15068312D02*
X15440888Y-15211169D01*
X15564697Y-15211169D01*
X15631364Y-15096884D02*
X15640888Y-15087360D01*
X15659935Y-15077836D01*
X15707554Y-15077836D01*
X15726602Y-15087360D01*
X15736126Y-15096884D01*
X15745649Y-15115931D01*
X15745649Y-15134979D01*
X15736126Y-15163550D01*
X15621840Y-15277836D01*
X15745649Y-15277836D01*
X15840888Y-15277836D02*
X15878983Y-15277836D01*
X15898030Y-15268312D01*
X15907554Y-15258788D01*
X15926602Y-15230217D01*
X15936126Y-15192122D01*
X15936126Y-15115931D01*
X15926602Y-15096884D01*
X15917078Y-15087360D01*
X15898030Y-15077836D01*
X15859935Y-15077836D01*
X15840888Y-15087360D01*
X15831364Y-15096884D01*
X15821840Y-15115931D01*
X15821840Y-15163550D01*
X15831364Y-15182598D01*
X15840888Y-15192122D01*
X15859935Y-15201646D01*
X15898030Y-15201646D01*
X15917078Y-15192122D01*
X15926602Y-15182598D01*
X15936126Y-15163550D01*
X16012316Y-15077836D02*
X16012316Y-15115931D01*
X16088507Y-15077836D02*
X16088507Y-15115931D01*
X16383745Y-15354027D02*
X16374221Y-15344503D01*
X16355173Y-15315931D01*
X16345649Y-15296884D01*
X16336126Y-15268312D01*
X16326602Y-15220693D01*
X16326602Y-15182598D01*
X16336126Y-15134979D01*
X16345649Y-15106408D01*
X16355173Y-15087360D01*
X16374221Y-15058788D01*
X16383745Y-15049265D01*
X16450411Y-15096884D02*
X16459935Y-15087360D01*
X16478983Y-15077836D01*
X16526602Y-15077836D01*
X16545649Y-15087360D01*
X16555173Y-15096884D01*
X16564697Y-15115931D01*
X16564697Y-15134979D01*
X16555173Y-15163550D01*
X16440888Y-15277836D01*
X16564697Y-15277836D01*
X16802792Y-15277836D02*
X16802792Y-15077836D01*
X16888507Y-15277836D02*
X16888507Y-15173074D01*
X16878983Y-15154027D01*
X16859935Y-15144503D01*
X16831364Y-15144503D01*
X16812316Y-15154027D01*
X16802792Y-15163550D01*
X17012316Y-15277836D02*
X16993269Y-15268312D01*
X16983745Y-15258788D01*
X16974221Y-15239741D01*
X16974221Y-15182598D01*
X16983745Y-15163550D01*
X16993269Y-15154027D01*
X17012316Y-15144503D01*
X17040888Y-15144503D01*
X17059935Y-15154027D01*
X17069459Y-15163550D01*
X17078983Y-15182598D01*
X17078983Y-15239741D01*
X17069459Y-15258788D01*
X17059935Y-15268312D01*
X17040888Y-15277836D01*
X17012316Y-15277836D01*
X17193269Y-15277836D02*
X17174221Y-15268312D01*
X17164697Y-15249265D01*
X17164697Y-15077836D01*
X17345650Y-15268312D02*
X17326602Y-15277836D01*
X17288507Y-15277836D01*
X17269459Y-15268312D01*
X17259935Y-15249265D01*
X17259935Y-15173074D01*
X17269459Y-15154027D01*
X17288507Y-15144503D01*
X17326602Y-15144503D01*
X17345650Y-15154027D01*
X17355173Y-15173074D01*
X17355173Y-15192122D01*
X17259935Y-15211169D01*
X17431364Y-15268312D02*
X17450411Y-15277836D01*
X17488507Y-15277836D01*
X17507554Y-15268312D01*
X17517078Y-15249265D01*
X17517078Y-15239741D01*
X17507554Y-15220693D01*
X17488507Y-15211169D01*
X17459935Y-15211169D01*
X17440888Y-15201646D01*
X17431364Y-15182598D01*
X17431364Y-15173074D01*
X17440888Y-15154027D01*
X17459935Y-15144503D01*
X17488507Y-15144503D01*
X17507554Y-15154027D01*
X17583745Y-15354027D02*
X17593269Y-15344503D01*
X17612316Y-15315931D01*
X17621840Y-15296884D01*
X17631364Y-15268312D01*
X17640888Y-15220693D01*
X17640888Y-15182598D01*
X17631364Y-15134979D01*
X17621840Y-15106408D01*
X17612316Y-15087360D01*
X17593269Y-15058788D01*
X17583745Y-15049265D01*
D17*
X12692840Y-15391860D02*
X12811840Y-15510860D01*
X12811840Y-15391860D02*
X12692840Y-15510860D01*
X12811840Y-15451360D02*
G75*
G03*
X12811840Y-15451360I-59500J0D01*
G01*
D11*
X13174221Y-15541836D02*
X13059935Y-15541836D01*
X13117078Y-15541836D02*
X13117078Y-15341836D01*
X13098030Y-15370408D01*
X13078983Y-15389455D01*
X13059935Y-15398979D01*
X13259935Y-15522788D02*
X13269459Y-15532312D01*
X13259935Y-15541836D01*
X13250411Y-15532312D01*
X13259935Y-15522788D01*
X13259935Y-15541836D01*
X13459935Y-15541836D02*
X13345649Y-15541836D01*
X13402792Y-15541836D02*
X13402792Y-15341836D01*
X13383745Y-15370408D01*
X13364697Y-15389455D01*
X13345649Y-15398979D01*
X13555173Y-15541836D02*
X13593268Y-15541836D01*
X13612316Y-15532312D01*
X13621840Y-15522788D01*
X13640888Y-15494217D01*
X13650411Y-15456122D01*
X13650411Y-15379931D01*
X13640888Y-15360884D01*
X13631364Y-15351360D01*
X13612316Y-15341836D01*
X13574221Y-15341836D01*
X13555173Y-15351360D01*
X13545649Y-15360884D01*
X13536126Y-15379931D01*
X13536126Y-15427550D01*
X13545649Y-15446598D01*
X13555173Y-15456122D01*
X13574221Y-15465646D01*
X13612316Y-15465646D01*
X13631364Y-15456122D01*
X13640888Y-15446598D01*
X13650411Y-15427550D01*
X13774221Y-15341836D02*
X13793268Y-15341836D01*
X13812316Y-15351360D01*
X13821840Y-15360884D01*
X13831364Y-15379931D01*
X13840888Y-15418027D01*
X13840888Y-15465646D01*
X13831364Y-15503741D01*
X13821840Y-15522788D01*
X13812316Y-15532312D01*
X13793268Y-15541836D01*
X13774221Y-15541836D01*
X13755173Y-15532312D01*
X13745649Y-15522788D01*
X13736126Y-15503741D01*
X13726602Y-15465646D01*
X13726602Y-15418027D01*
X13736126Y-15379931D01*
X13745649Y-15360884D01*
X13755173Y-15351360D01*
X13774221Y-15341836D01*
X13926602Y-15541836D02*
X13926602Y-15408503D01*
X13926602Y-15427550D02*
X13936126Y-15418027D01*
X13955173Y-15408503D01*
X13983745Y-15408503D01*
X14002792Y-15418027D01*
X14012316Y-15437074D01*
X14012316Y-15541836D01*
X14012316Y-15437074D02*
X14021840Y-15418027D01*
X14040888Y-15408503D01*
X14069459Y-15408503D01*
X14088507Y-15418027D01*
X14098030Y-15437074D01*
X14098030Y-15541836D01*
X14193268Y-15541836D02*
X14193268Y-15408503D01*
X14193268Y-15427550D02*
X14202792Y-15418027D01*
X14221840Y-15408503D01*
X14250411Y-15408503D01*
X14269459Y-15418027D01*
X14278983Y-15437074D01*
X14278983Y-15541836D01*
X14278983Y-15437074D02*
X14288507Y-15418027D01*
X14307554Y-15408503D01*
X14336126Y-15408503D01*
X14355173Y-15418027D01*
X14364697Y-15437074D01*
X14364697Y-15541836D01*
X14755173Y-15332312D02*
X14583745Y-15589455D01*
X15012316Y-15341836D02*
X15031364Y-15341836D01*
X15050411Y-15351360D01*
X15059935Y-15360884D01*
X15069459Y-15379931D01*
X15078983Y-15418027D01*
X15078983Y-15465646D01*
X15069459Y-15503741D01*
X15059935Y-15522788D01*
X15050411Y-15532312D01*
X15031364Y-15541836D01*
X15012316Y-15541836D01*
X14993268Y-15532312D01*
X14983745Y-15522788D01*
X14974221Y-15503741D01*
X14964697Y-15465646D01*
X14964697Y-15418027D01*
X14974221Y-15379931D01*
X14983745Y-15360884D01*
X14993268Y-15351360D01*
X15012316Y-15341836D01*
X15164697Y-15522788D02*
X15174221Y-15532312D01*
X15164697Y-15541836D01*
X15155173Y-15532312D01*
X15164697Y-15522788D01*
X15164697Y-15541836D01*
X15298030Y-15341836D02*
X15317078Y-15341836D01*
X15336126Y-15351360D01*
X15345649Y-15360884D01*
X15355173Y-15379931D01*
X15364697Y-15418027D01*
X15364697Y-15465646D01*
X15355173Y-15503741D01*
X15345649Y-15522788D01*
X15336126Y-15532312D01*
X15317078Y-15541836D01*
X15298030Y-15541836D01*
X15278983Y-15532312D01*
X15269459Y-15522788D01*
X15259935Y-15503741D01*
X15250411Y-15465646D01*
X15250411Y-15418027D01*
X15259935Y-15379931D01*
X15269459Y-15360884D01*
X15278983Y-15351360D01*
X15298030Y-15341836D01*
X15536126Y-15408503D02*
X15536126Y-15541836D01*
X15488507Y-15332312D02*
X15440888Y-15475169D01*
X15564697Y-15475169D01*
X15726602Y-15341836D02*
X15688507Y-15341836D01*
X15669459Y-15351360D01*
X15659935Y-15360884D01*
X15640888Y-15389455D01*
X15631364Y-15427550D01*
X15631364Y-15503741D01*
X15640888Y-15522788D01*
X15650411Y-15532312D01*
X15669459Y-15541836D01*
X15707554Y-15541836D01*
X15726602Y-15532312D01*
X15736126Y-15522788D01*
X15745649Y-15503741D01*
X15745649Y-15456122D01*
X15736126Y-15437074D01*
X15726602Y-15427550D01*
X15707554Y-15418027D01*
X15669459Y-15418027D01*
X15650411Y-15427550D01*
X15640888Y-15437074D01*
X15631364Y-15456122D01*
X15840888Y-15541836D02*
X15878983Y-15541836D01*
X15898030Y-15532312D01*
X15907554Y-15522788D01*
X15926602Y-15494217D01*
X15936126Y-15456122D01*
X15936126Y-15379931D01*
X15926602Y-15360884D01*
X15917078Y-15351360D01*
X15898030Y-15341836D01*
X15859935Y-15341836D01*
X15840888Y-15351360D01*
X15831364Y-15360884D01*
X15821840Y-15379931D01*
X15821840Y-15427550D01*
X15831364Y-15446598D01*
X15840888Y-15456122D01*
X15859935Y-15465646D01*
X15898030Y-15465646D01*
X15917078Y-15456122D01*
X15926602Y-15446598D01*
X15936126Y-15427550D01*
X16012316Y-15341836D02*
X16012316Y-15379931D01*
X16088507Y-15341836D02*
X16088507Y-15379931D01*
X16383745Y-15618027D02*
X16374221Y-15608503D01*
X16355173Y-15579931D01*
X16345649Y-15560884D01*
X16336126Y-15532312D01*
X16326602Y-15484693D01*
X16326602Y-15446598D01*
X16336126Y-15398979D01*
X16345649Y-15370408D01*
X16355173Y-15351360D01*
X16374221Y-15322788D01*
X16383745Y-15313265D01*
X16564697Y-15541836D02*
X16450411Y-15541836D01*
X16507554Y-15541836D02*
X16507554Y-15341836D01*
X16488507Y-15370408D01*
X16469459Y-15389455D01*
X16450411Y-15398979D01*
X16688507Y-15341836D02*
X16707554Y-15341836D01*
X16726602Y-15351360D01*
X16736126Y-15360884D01*
X16745649Y-15379931D01*
X16755173Y-15418027D01*
X16755173Y-15465646D01*
X16745649Y-15503741D01*
X16736126Y-15522788D01*
X16726602Y-15532312D01*
X16707554Y-15541836D01*
X16688507Y-15541836D01*
X16669459Y-15532312D01*
X16659935Y-15522788D01*
X16650411Y-15503741D01*
X16640888Y-15465646D01*
X16640888Y-15418027D01*
X16650411Y-15379931D01*
X16659935Y-15360884D01*
X16669459Y-15351360D01*
X16688507Y-15341836D01*
X16993269Y-15541836D02*
X16993269Y-15341836D01*
X17078983Y-15541836D02*
X17078983Y-15437074D01*
X17069459Y-15418027D01*
X17050411Y-15408503D01*
X17021840Y-15408503D01*
X17002792Y-15418027D01*
X16993269Y-15427550D01*
X17202792Y-15541836D02*
X17183745Y-15532312D01*
X17174221Y-15522788D01*
X17164697Y-15503741D01*
X17164697Y-15446598D01*
X17174221Y-15427550D01*
X17183745Y-15418027D01*
X17202792Y-15408503D01*
X17231364Y-15408503D01*
X17250411Y-15418027D01*
X17259935Y-15427550D01*
X17269459Y-15446598D01*
X17269459Y-15503741D01*
X17259935Y-15522788D01*
X17250411Y-15532312D01*
X17231364Y-15541836D01*
X17202792Y-15541836D01*
X17383745Y-15541836D02*
X17364697Y-15532312D01*
X17355173Y-15513265D01*
X17355173Y-15341836D01*
X17536126Y-15532312D02*
X17517078Y-15541836D01*
X17478983Y-15541836D01*
X17459935Y-15532312D01*
X17450411Y-15513265D01*
X17450411Y-15437074D01*
X17459935Y-15418027D01*
X17478983Y-15408503D01*
X17517078Y-15408503D01*
X17536126Y-15418027D01*
X17545650Y-15437074D01*
X17545650Y-15456122D01*
X17450411Y-15475169D01*
X17621840Y-15532312D02*
X17640888Y-15541836D01*
X17678983Y-15541836D01*
X17698030Y-15532312D01*
X17707554Y-15513265D01*
X17707554Y-15503741D01*
X17698030Y-15484693D01*
X17678983Y-15475169D01*
X17650411Y-15475169D01*
X17631364Y-15465646D01*
X17621840Y-15446598D01*
X17621840Y-15437074D01*
X17631364Y-15418027D01*
X17650411Y-15408503D01*
X17678983Y-15408503D01*
X17698030Y-15418027D01*
X17774221Y-15618027D02*
X17783745Y-15608503D01*
X17802792Y-15579931D01*
X17812316Y-15560884D01*
X17821840Y-15532312D01*
X17831364Y-15484693D01*
X17831364Y-15446598D01*
X17821840Y-15398979D01*
X17812316Y-15370408D01*
X17802792Y-15351360D01*
X17783745Y-15322788D01*
X17774221Y-15313265D01*
M02*
