G04 #@! TF.GenerationSoftware,KiCad,Pcbnew,6.0.0-d3dd2cf0fa~116~ubuntu18.04.1*
G04 #@! TF.CreationDate,2023-02-13T16:22:56+00:00*
G04 #@! TF.ProjectId,RemoteESP32,52656d6f-7465-4455-9350-33322e6b6963,rev?*
G04 #@! TF.SameCoordinates,Original*
G04 #@! TF.FileFunction,Copper,L2,Inr*
G04 #@! TF.FilePolarity,Positive*
%FSLAX46Y46*%
G04 Gerber Fmt 4.6, Leading zero omitted, Abs format (unit mm)*
G04 Created by KiCad (PCBNEW 6.0.0-d3dd2cf0fa~116~ubuntu18.04.1) date 2023-02-13 16:22:56*
%MOMM*%
%LPD*%
G01*
G04 APERTURE LIST*
G04 Aperture macros list*
%AMRoundRect*
0 Rectangle with rounded corners*
0 $1 Rounding radius*
0 $2 $3 $4 $5 $6 $7 $8 $9 X,Y pos of 4 corners*
0 Add a 4 corners polygon primitive as box body*
4,1,4,$2,$3,$4,$5,$6,$7,$8,$9,$2,$3,0*
0 Add four circle primitives for the rounded corners*
1,1,$1+$1,$2,$3*
1,1,$1+$1,$4,$5*
1,1,$1+$1,$6,$7*
1,1,$1+$1,$8,$9*
0 Add four rect primitives between the rounded corners*
20,1,$1+$1,$2,$3,$4,$5,0*
20,1,$1+$1,$4,$5,$6,$7,0*
20,1,$1+$1,$6,$7,$8,$9,0*
20,1,$1+$1,$8,$9,$2,$3,0*%
G04 Aperture macros list end*
G04 #@! TA.AperFunction,ComponentPad*
%ADD10R,1.200000X1.200000*%
G04 #@! TD*
G04 #@! TA.AperFunction,ComponentPad*
%ADD11C,1.000000*%
G04 #@! TD*
G04 #@! TA.AperFunction,ComponentPad*
%ADD12R,1.700000X1.700000*%
G04 #@! TD*
G04 #@! TA.AperFunction,ComponentPad*
%ADD13O,1.700000X1.700000*%
G04 #@! TD*
G04 #@! TA.AperFunction,ComponentPad*
%ADD14R,1.600000X1.600000*%
G04 #@! TD*
G04 #@! TA.AperFunction,ComponentPad*
%ADD15C,1.600000*%
G04 #@! TD*
G04 #@! TA.AperFunction,ComponentPad*
%ADD16RoundRect,0.250000X0.845000X-0.620000X0.845000X0.620000X-0.845000X0.620000X-0.845000X-0.620000X0*%
G04 #@! TD*
G04 #@! TA.AperFunction,ComponentPad*
%ADD17O,2.190000X1.740000*%
G04 #@! TD*
G04 #@! TA.AperFunction,ComponentPad*
%ADD18RoundRect,0.250000X-0.845000X0.620000X-0.845000X-0.620000X0.845000X-0.620000X0.845000X0.620000X0*%
G04 #@! TD*
G04 #@! TA.AperFunction,ViaPad*
%ADD19C,0.800000*%
G04 #@! TD*
G04 APERTURE END LIST*
D10*
X138411200Y-106671600D03*
X138411200Y-110671600D03*
D11*
X147161200Y-109941600D03*
X147161200Y-107401600D03*
D12*
X155600400Y-103418400D03*
D13*
X153060400Y-103418400D03*
X150520400Y-103418400D03*
X147980400Y-103418400D03*
X145440400Y-103418400D03*
X142900400Y-103418400D03*
D14*
X152348600Y-112556600D03*
D15*
X149098600Y-115006600D03*
D16*
X131826000Y-118810800D03*
D17*
X131826000Y-116270800D03*
X131826000Y-113730800D03*
D18*
X154127200Y-84012800D03*
D17*
X154127200Y-86552800D03*
X154127200Y-89092800D03*
X154127200Y-91632800D03*
X154127200Y-94172800D03*
X154127200Y-96712800D03*
X154127200Y-99252800D03*
D19*
X139395200Y-117185200D03*
X139115800Y-128778000D03*
X138315100Y-98776485D03*
X149453600Y-101498400D03*
X144373600Y-118963200D03*
X130149600Y-128778000D03*
X151739600Y-109920800D03*
X138125200Y-85699600D03*
X137312400Y-120091200D03*
X141478000Y-90769200D03*
X141574516Y-92774100D03*
X131419600Y-86349600D03*
X140512800Y-97891600D03*
X136906000Y-106200200D03*
X140512800Y-95656400D03*
X144373600Y-117388400D03*
X143256000Y-115915200D03*
X149250400Y-110987600D03*
X149758400Y-116992400D03*
X132334000Y-83301600D03*
X142951200Y-82753200D03*
X149402800Y-83261200D03*
X131165600Y-100421200D03*
X141935200Y-83058000D03*
X129387600Y-125476000D03*
X143205200Y-112003600D03*
X139395200Y-112968800D03*
X132983200Y-133223000D03*
X155346400Y-128879600D03*
X146100800Y-99060000D03*
X146100800Y-87172800D03*
X145034000Y-91287600D03*
X135980400Y-133172200D03*
X141579600Y-88737200D03*
X149758400Y-121005600D03*
X132334000Y-84836000D03*
X138633200Y-82956400D03*
X132334000Y-91226400D03*
X141630400Y-105298000D03*
X139804925Y-87067876D03*
X141630400Y-112003600D03*
X146812000Y-84328000D03*
X156565600Y-85293200D03*
X139598400Y-105094800D03*
X129895600Y-104332800D03*
X144240500Y-120700800D03*
X155956000Y-116941600D03*
X148996400Y-91694000D03*
X132181600Y-104637600D03*
X133705600Y-104637600D03*
X151536400Y-124714000D03*
X156362400Y-105044000D03*
X151536400Y-131521200D03*
X132306535Y-92840300D03*
X156362400Y-111952800D03*
X156006800Y-121056400D03*
X152196800Y-106314000D03*
X146761200Y-82702400D03*
X149402800Y-84531200D03*
X139395200Y-119115600D03*
X139395200Y-114950000D03*
X155346400Y-123393200D03*
X135229600Y-104637600D03*
X142798800Y-87007100D03*
X139192000Y-83870800D03*
X134874000Y-113172000D03*
X135737600Y-99862400D03*
X139750800Y-102554800D03*
X147675600Y-94996000D03*
X146862800Y-93827600D03*
X135890000Y-97271600D03*
X129946400Y-88856049D03*
X135737600Y-98490800D03*
X136956800Y-97284900D03*
X129959700Y-94716921D03*
X132090851Y-100810066D03*
X135737600Y-92140800D03*
X129959700Y-89905600D03*
X136906000Y-102402400D03*
X152755600Y-108244400D03*
X147777200Y-89662000D03*
X146761200Y-89662000D03*
X137820400Y-128778000D03*
X134010400Y-128778000D03*
X141681200Y-116118400D03*
X140667981Y-103328179D03*
X138582400Y-87071200D03*
X134874000Y-118810800D03*
X155600400Y-95798400D03*
X140157200Y-91084400D03*
X136448800Y-84937600D03*
X135737600Y-93436200D03*
X142849600Y-97180400D03*
X152857200Y-109514400D03*
X137820400Y-94127925D03*
X139784249Y-94149751D03*
X132334000Y-94132400D03*
X141732000Y-97942400D03*
G04 #@! TA.AperFunction,Conductor*
G36*
X146494598Y-81999707D02*
G01*
X146530562Y-82049207D01*
X146530562Y-82110393D01*
X146494598Y-82159893D01*
X146474292Y-82171264D01*
X146464356Y-82175379D01*
X146464350Y-82175382D01*
X146458359Y-82177864D01*
X146332918Y-82274118D01*
X146236664Y-82399559D01*
X146176156Y-82545638D01*
X146155518Y-82702400D01*
X146176156Y-82859162D01*
X146236664Y-83005241D01*
X146332918Y-83130682D01*
X146458359Y-83226936D01*
X146604438Y-83287444D01*
X146761200Y-83308082D01*
X146917962Y-83287444D01*
X147064041Y-83226936D01*
X147189482Y-83130682D01*
X147285736Y-83005241D01*
X147346244Y-82859162D01*
X147366882Y-82702400D01*
X147346244Y-82545638D01*
X147285736Y-82399559D01*
X147189482Y-82274118D01*
X147064041Y-82177864D01*
X147058050Y-82175382D01*
X147058044Y-82175379D01*
X147048108Y-82171264D01*
X147001582Y-82131528D01*
X146987298Y-82072033D01*
X147010713Y-82015505D01*
X147062882Y-81983535D01*
X147085993Y-81980800D01*
X157231800Y-81980800D01*
X157289991Y-81999707D01*
X157325955Y-82049207D01*
X157330800Y-82079800D01*
X157330800Y-85073666D01*
X157311893Y-85131857D01*
X157262393Y-85167821D01*
X157201207Y-85167821D01*
X157151707Y-85131857D01*
X157140336Y-85111552D01*
X157117216Y-85055736D01*
X157090136Y-84990359D01*
X156993882Y-84864918D01*
X156868441Y-84768664D01*
X156722362Y-84708156D01*
X156565600Y-84687518D01*
X156408838Y-84708156D01*
X156262759Y-84768664D01*
X156137318Y-84864918D01*
X156041064Y-84990359D01*
X155980556Y-85136438D01*
X155959918Y-85293200D01*
X155980556Y-85449962D01*
X156041064Y-85596041D01*
X156137318Y-85721482D01*
X156262759Y-85817736D01*
X156408838Y-85878244D01*
X156565600Y-85898882D01*
X156722362Y-85878244D01*
X156868441Y-85817736D01*
X156993882Y-85721482D01*
X157090136Y-85596041D01*
X157140336Y-85474848D01*
X157180073Y-85428323D01*
X157239568Y-85414039D01*
X157296095Y-85437454D01*
X157328065Y-85489623D01*
X157330800Y-85512734D01*
X157330800Y-134564600D01*
X157311893Y-134622791D01*
X157262393Y-134658755D01*
X157231800Y-134663600D01*
X128467400Y-134663600D01*
X128409209Y-134644693D01*
X128373245Y-134595193D01*
X128368400Y-134564600D01*
X128368400Y-132689600D01*
X128997141Y-132689600D01*
X129017737Y-132925008D01*
X129078897Y-133153263D01*
X129178765Y-133367429D01*
X129314305Y-133561001D01*
X129481399Y-133728095D01*
X129674971Y-133863635D01*
X129889137Y-133963503D01*
X130117392Y-134024663D01*
X130202231Y-134032086D01*
X130291670Y-134039911D01*
X130291678Y-134039911D01*
X130293834Y-134040100D01*
X130411766Y-134040100D01*
X130413922Y-134039911D01*
X130413930Y-134039911D01*
X130503369Y-134032086D01*
X130588208Y-134024663D01*
X130816463Y-133963503D01*
X131030629Y-133863635D01*
X131224201Y-133728095D01*
X131391295Y-133561001D01*
X131524354Y-133370974D01*
X131524354Y-133370973D01*
X131526835Y-133367430D01*
X131626703Y-133153263D01*
X131687863Y-132925008D01*
X131708459Y-132689600D01*
X153990741Y-132689600D01*
X154011337Y-132925008D01*
X154072497Y-133153263D01*
X154172365Y-133367429D01*
X154307905Y-133561001D01*
X154474999Y-133728095D01*
X154668571Y-133863635D01*
X154882737Y-133963503D01*
X155110992Y-134024663D01*
X155195831Y-134032086D01*
X155285270Y-134039911D01*
X155285278Y-134039911D01*
X155287434Y-134040100D01*
X155405366Y-134040100D01*
X155407522Y-134039911D01*
X155407530Y-134039911D01*
X155496969Y-134032086D01*
X155581808Y-134024663D01*
X155810063Y-133963503D01*
X156024229Y-133863635D01*
X156217801Y-133728095D01*
X156384895Y-133561001D01*
X156517954Y-133370974D01*
X156517954Y-133370973D01*
X156520435Y-133367430D01*
X156620303Y-133153263D01*
X156681463Y-132925008D01*
X156702059Y-132689600D01*
X156681463Y-132454192D01*
X156620303Y-132225937D01*
X156520435Y-132011771D01*
X156384895Y-131818199D01*
X156217801Y-131651105D01*
X156092427Y-131563318D01*
X156027774Y-131518047D01*
X156027772Y-131518046D01*
X156024229Y-131515565D01*
X155810063Y-131415697D01*
X155581808Y-131354537D01*
X155496969Y-131347114D01*
X155407530Y-131339289D01*
X155407522Y-131339289D01*
X155405366Y-131339100D01*
X155287434Y-131339100D01*
X155285278Y-131339289D01*
X155285270Y-131339289D01*
X155195831Y-131347114D01*
X155110992Y-131354537D01*
X154882737Y-131415697D01*
X154668571Y-131515565D01*
X154665028Y-131518046D01*
X154665026Y-131518047D01*
X154600373Y-131563318D01*
X154474999Y-131651105D01*
X154307905Y-131818199D01*
X154300209Y-131829190D01*
X154174847Y-132008225D01*
X154174846Y-132008227D01*
X154172365Y-132011770D01*
X154072497Y-132225937D01*
X154011337Y-132454192D01*
X153990741Y-132689600D01*
X131708459Y-132689600D01*
X131687863Y-132454192D01*
X131626703Y-132225937D01*
X131526835Y-132011771D01*
X131391295Y-131818199D01*
X131224201Y-131651105D01*
X131098827Y-131563318D01*
X131038677Y-131521200D01*
X150930718Y-131521200D01*
X150951356Y-131677962D01*
X151011864Y-131824041D01*
X151108118Y-131949482D01*
X151233559Y-132045736D01*
X151379638Y-132106244D01*
X151536400Y-132126882D01*
X151693162Y-132106244D01*
X151839241Y-132045736D01*
X151964682Y-131949482D01*
X152060936Y-131824041D01*
X152121444Y-131677962D01*
X152142082Y-131521200D01*
X152121444Y-131364438D01*
X152060936Y-131218359D01*
X151964682Y-131092918D01*
X151839241Y-130996664D01*
X151693162Y-130936156D01*
X151536400Y-130915518D01*
X151379638Y-130936156D01*
X151233559Y-130996664D01*
X151108118Y-131092918D01*
X151011864Y-131218359D01*
X150951356Y-131364438D01*
X150930718Y-131521200D01*
X131038677Y-131521200D01*
X131034174Y-131518047D01*
X131034172Y-131518046D01*
X131030629Y-131515565D01*
X130816463Y-131415697D01*
X130588208Y-131354537D01*
X130503369Y-131347114D01*
X130413930Y-131339289D01*
X130413922Y-131339289D01*
X130411766Y-131339100D01*
X130293834Y-131339100D01*
X130291678Y-131339289D01*
X130291670Y-131339289D01*
X130202231Y-131347114D01*
X130117392Y-131354537D01*
X129889137Y-131415697D01*
X129674971Y-131515565D01*
X129671428Y-131518046D01*
X129671426Y-131518047D01*
X129606773Y-131563318D01*
X129481399Y-131651105D01*
X129314305Y-131818199D01*
X129306609Y-131829190D01*
X129181247Y-132008225D01*
X129181246Y-132008227D01*
X129178765Y-132011770D01*
X129078897Y-132225937D01*
X129017737Y-132454192D01*
X128997141Y-132689600D01*
X128368400Y-132689600D01*
X128368400Y-128778000D01*
X133404718Y-128778000D01*
X133425356Y-128934762D01*
X133485864Y-129080841D01*
X133582118Y-129206282D01*
X133707559Y-129302536D01*
X133853638Y-129363044D01*
X134010400Y-129383682D01*
X134167162Y-129363044D01*
X134313241Y-129302536D01*
X134438682Y-129206282D01*
X134534936Y-129080841D01*
X134595444Y-128934762D01*
X134616082Y-128778000D01*
X137214718Y-128778000D01*
X137235356Y-128934762D01*
X137295864Y-129080841D01*
X137392118Y-129206282D01*
X137517559Y-129302536D01*
X137663638Y-129363044D01*
X137820400Y-129383682D01*
X137977162Y-129363044D01*
X138123241Y-129302536D01*
X138248682Y-129206282D01*
X138344936Y-129080841D01*
X138405444Y-128934762D01*
X138426082Y-128778000D01*
X138405444Y-128621238D01*
X138344936Y-128475159D01*
X138248682Y-128349718D01*
X138123241Y-128253464D01*
X137977162Y-128192956D01*
X137820400Y-128172318D01*
X137663638Y-128192956D01*
X137517559Y-128253464D01*
X137392118Y-128349718D01*
X137295864Y-128475159D01*
X137235356Y-128621238D01*
X137214718Y-128778000D01*
X134616082Y-128778000D01*
X134595444Y-128621238D01*
X134534936Y-128475159D01*
X134438682Y-128349718D01*
X134313241Y-128253464D01*
X134167162Y-128192956D01*
X134010400Y-128172318D01*
X133853638Y-128192956D01*
X133707559Y-128253464D01*
X133582118Y-128349718D01*
X133485864Y-128475159D01*
X133425356Y-128621238D01*
X133404718Y-128778000D01*
X128368400Y-128778000D01*
X128368400Y-124714000D01*
X150930718Y-124714000D01*
X150951356Y-124870762D01*
X151011864Y-125016841D01*
X151108118Y-125142282D01*
X151233559Y-125238536D01*
X151379638Y-125299044D01*
X151536400Y-125319682D01*
X151693162Y-125299044D01*
X151839241Y-125238536D01*
X151964682Y-125142282D01*
X152060936Y-125016841D01*
X152121444Y-124870762D01*
X152142082Y-124714000D01*
X152121444Y-124557238D01*
X152060936Y-124411159D01*
X151964682Y-124285718D01*
X151839241Y-124189464D01*
X151693162Y-124128956D01*
X151536400Y-124108318D01*
X151379638Y-124128956D01*
X151233559Y-124189464D01*
X151108118Y-124285718D01*
X151011864Y-124411159D01*
X150951356Y-124557238D01*
X150930718Y-124714000D01*
X128368400Y-124714000D01*
X128368400Y-123393200D01*
X154740718Y-123393200D01*
X154761356Y-123549962D01*
X154821864Y-123696041D01*
X154918118Y-123821482D01*
X155043559Y-123917736D01*
X155189638Y-123978244D01*
X155346400Y-123998882D01*
X155503162Y-123978244D01*
X155649241Y-123917736D01*
X155774682Y-123821482D01*
X155870936Y-123696041D01*
X155931444Y-123549962D01*
X155952082Y-123393200D01*
X155931444Y-123236438D01*
X155870936Y-123090359D01*
X155774682Y-122964918D01*
X155649241Y-122868664D01*
X155503162Y-122808156D01*
X155346400Y-122787518D01*
X155189638Y-122808156D01*
X155043559Y-122868664D01*
X154918118Y-122964918D01*
X154821864Y-123090359D01*
X154761356Y-123236438D01*
X154740718Y-123393200D01*
X128368400Y-123393200D01*
X128368400Y-120700800D01*
X143634818Y-120700800D01*
X143655456Y-120857562D01*
X143715964Y-121003641D01*
X143812218Y-121129082D01*
X143937659Y-121225336D01*
X144083738Y-121285844D01*
X144240500Y-121306482D01*
X144397262Y-121285844D01*
X144543341Y-121225336D01*
X144668782Y-121129082D01*
X144724553Y-121056400D01*
X155401118Y-121056400D01*
X155421756Y-121213162D01*
X155482264Y-121359241D01*
X155578518Y-121484682D01*
X155703959Y-121580936D01*
X155850038Y-121641444D01*
X156006800Y-121662082D01*
X156163562Y-121641444D01*
X156309641Y-121580936D01*
X156435082Y-121484682D01*
X156531336Y-121359241D01*
X156591844Y-121213162D01*
X156612482Y-121056400D01*
X156591844Y-120899638D01*
X156531336Y-120753559D01*
X156435082Y-120628118D01*
X156309641Y-120531864D01*
X156163562Y-120471356D01*
X156006800Y-120450718D01*
X155850038Y-120471356D01*
X155703959Y-120531864D01*
X155578518Y-120628118D01*
X155482264Y-120753559D01*
X155421756Y-120899638D01*
X155401118Y-121056400D01*
X144724553Y-121056400D01*
X144765036Y-121003641D01*
X144825544Y-120857562D01*
X144846182Y-120700800D01*
X144825544Y-120544038D01*
X144765036Y-120397959D01*
X144668782Y-120272518D01*
X144543341Y-120176264D01*
X144397262Y-120115756D01*
X144240500Y-120095118D01*
X144083738Y-120115756D01*
X143937659Y-120176264D01*
X143812218Y-120272518D01*
X143715964Y-120397959D01*
X143655456Y-120544038D01*
X143634818Y-120700800D01*
X128368400Y-120700800D01*
X128368400Y-119484634D01*
X130530500Y-119484634D01*
X130533481Y-119516169D01*
X130578366Y-119643984D01*
X130582761Y-119649935D01*
X130582762Y-119649936D01*
X130654450Y-119746993D01*
X130658850Y-119752950D01*
X130767816Y-119833434D01*
X130895631Y-119878319D01*
X130901638Y-119878887D01*
X130901639Y-119878887D01*
X130924855Y-119881082D01*
X130924865Y-119881082D01*
X130927166Y-119881300D01*
X132724834Y-119881300D01*
X132727135Y-119881082D01*
X132727145Y-119881082D01*
X132750361Y-119878887D01*
X132750362Y-119878887D01*
X132756369Y-119878319D01*
X132884184Y-119833434D01*
X132993150Y-119752950D01*
X132997550Y-119746993D01*
X133069238Y-119649936D01*
X133069239Y-119649935D01*
X133073634Y-119643984D01*
X133118519Y-119516169D01*
X133121500Y-119484634D01*
X133121500Y-118810800D01*
X134268318Y-118810800D01*
X134288956Y-118967562D01*
X134349464Y-119113641D01*
X134445718Y-119239082D01*
X134571159Y-119335336D01*
X134717238Y-119395844D01*
X134874000Y-119416482D01*
X135030762Y-119395844D01*
X135176841Y-119335336D01*
X135302282Y-119239082D01*
X135397033Y-119115600D01*
X138789518Y-119115600D01*
X138810156Y-119272362D01*
X138870664Y-119418441D01*
X138966918Y-119543882D01*
X139092359Y-119640136D01*
X139238438Y-119700644D01*
X139395200Y-119721282D01*
X139551962Y-119700644D01*
X139698041Y-119640136D01*
X139823482Y-119543882D01*
X139919736Y-119418441D01*
X139980244Y-119272362D01*
X140000882Y-119115600D01*
X139980244Y-118958838D01*
X139919736Y-118812759D01*
X139823482Y-118687318D01*
X139698041Y-118591064D01*
X139551962Y-118530556D01*
X139395200Y-118509918D01*
X139238438Y-118530556D01*
X139092359Y-118591064D01*
X138966918Y-118687318D01*
X138870664Y-118812759D01*
X138810156Y-118958838D01*
X138789518Y-119115600D01*
X135397033Y-119115600D01*
X135398536Y-119113641D01*
X135459044Y-118967562D01*
X135479682Y-118810800D01*
X135459044Y-118654038D01*
X135398536Y-118507959D01*
X135302282Y-118382518D01*
X135176841Y-118286264D01*
X135030762Y-118225756D01*
X134874000Y-118205118D01*
X134717238Y-118225756D01*
X134571159Y-118286264D01*
X134445718Y-118382518D01*
X134349464Y-118507959D01*
X134288956Y-118654038D01*
X134268318Y-118810800D01*
X133121500Y-118810800D01*
X133121500Y-118136966D01*
X133118519Y-118105431D01*
X133073634Y-117977616D01*
X132993150Y-117868650D01*
X132884184Y-117788166D01*
X132756369Y-117743281D01*
X132750362Y-117742713D01*
X132750361Y-117742713D01*
X132727145Y-117740518D01*
X132727135Y-117740518D01*
X132724834Y-117740300D01*
X130927166Y-117740300D01*
X130924865Y-117740518D01*
X130924855Y-117740518D01*
X130901639Y-117742713D01*
X130901638Y-117742713D01*
X130895631Y-117743281D01*
X130767816Y-117788166D01*
X130658850Y-117868650D01*
X130578366Y-117977616D01*
X130533481Y-118105431D01*
X130530500Y-118136966D01*
X130530500Y-119484634D01*
X128368400Y-119484634D01*
X128368400Y-116380813D01*
X130536544Y-116380813D01*
X130544428Y-116467449D01*
X130546234Y-116476912D01*
X130602745Y-116668921D01*
X130606358Y-116677862D01*
X130699087Y-116855236D01*
X130704361Y-116863297D01*
X130829781Y-117019289D01*
X130836527Y-117026177D01*
X130989850Y-117154830D01*
X130997805Y-117160277D01*
X131173195Y-117256698D01*
X131182060Y-117260498D01*
X131372843Y-117321018D01*
X131382271Y-117323022D01*
X131538013Y-117340491D01*
X131543542Y-117340800D01*
X131710320Y-117340800D01*
X131723005Y-117336678D01*
X131726000Y-117332557D01*
X131726000Y-117325120D01*
X131926000Y-117325120D01*
X131930122Y-117337805D01*
X131934243Y-117340800D01*
X132101367Y-117340800D01*
X132106222Y-117340562D01*
X132255018Y-117325972D01*
X132264466Y-117324102D01*
X132456086Y-117266249D01*
X132464990Y-117262579D01*
X132641721Y-117168610D01*
X132649747Y-117163277D01*
X132804854Y-117036774D01*
X132811691Y-117029985D01*
X132884810Y-116941600D01*
X155350318Y-116941600D01*
X155370956Y-117098362D01*
X155431464Y-117244441D01*
X155527718Y-117369882D01*
X155653159Y-117466136D01*
X155799238Y-117526644D01*
X155956000Y-117547282D01*
X156112762Y-117526644D01*
X156258841Y-117466136D01*
X156384282Y-117369882D01*
X156480536Y-117244441D01*
X156541044Y-117098362D01*
X156561682Y-116941600D01*
X156541044Y-116784838D01*
X156480536Y-116638759D01*
X156384282Y-116513318D01*
X156258841Y-116417064D01*
X156112762Y-116356556D01*
X155956000Y-116335918D01*
X155799238Y-116356556D01*
X155653159Y-116417064D01*
X155527718Y-116513318D01*
X155431464Y-116638759D01*
X155370956Y-116784838D01*
X155350318Y-116941600D01*
X132884810Y-116941600D01*
X132939279Y-116875758D01*
X132944663Y-116867775D01*
X133039866Y-116691702D01*
X133043595Y-116682831D01*
X133102787Y-116491615D01*
X133104723Y-116482183D01*
X133114790Y-116386393D01*
X133112017Y-116373348D01*
X133110166Y-116371681D01*
X133106022Y-116370800D01*
X131941680Y-116370800D01*
X131928995Y-116374922D01*
X131926000Y-116379043D01*
X131926000Y-117325120D01*
X131726000Y-117325120D01*
X131726000Y-116386480D01*
X131721878Y-116373795D01*
X131717757Y-116370800D01*
X130551313Y-116370800D01*
X130538628Y-116374922D01*
X130536945Y-116377237D01*
X130536544Y-116380813D01*
X128368400Y-116380813D01*
X128368400Y-116155207D01*
X130537210Y-116155207D01*
X130539983Y-116168252D01*
X130541834Y-116169919D01*
X130545978Y-116170800D01*
X131710320Y-116170800D01*
X131723005Y-116166678D01*
X131726000Y-116162557D01*
X131726000Y-116155120D01*
X131926000Y-116155120D01*
X131930122Y-116167805D01*
X131934243Y-116170800D01*
X133100687Y-116170800D01*
X133113372Y-116166678D01*
X133115055Y-116164363D01*
X133115456Y-116160787D01*
X133111599Y-116118400D01*
X141075518Y-116118400D01*
X141096156Y-116275162D01*
X141156664Y-116421241D01*
X141252918Y-116546682D01*
X141378359Y-116642936D01*
X141524438Y-116703444D01*
X141681200Y-116724082D01*
X141837962Y-116703444D01*
X141984041Y-116642936D01*
X142109482Y-116546682D01*
X142205736Y-116421241D01*
X142266244Y-116275162D01*
X142286882Y-116118400D01*
X142266244Y-115961638D01*
X142205736Y-115815559D01*
X142179863Y-115781841D01*
X148470610Y-115781841D01*
X148471100Y-115784940D01*
X148473036Y-115787392D01*
X148521438Y-115828585D01*
X148529352Y-115834086D01*
X148692088Y-115925035D01*
X148700916Y-115928892D01*
X148878227Y-115986504D01*
X148887627Y-115988571D01*
X149072755Y-116010646D01*
X149082381Y-116010848D01*
X149268259Y-115996545D01*
X149277753Y-115994871D01*
X149457305Y-115944739D01*
X149466302Y-115941249D01*
X149632698Y-115857197D01*
X149640833Y-115852035D01*
X149719299Y-115790730D01*
X149726758Y-115779673D01*
X149726687Y-115777645D01*
X149723991Y-115773413D01*
X149109686Y-115159107D01*
X149097803Y-115153053D01*
X149092772Y-115153849D01*
X148476664Y-115769958D01*
X148470610Y-115781841D01*
X142179863Y-115781841D01*
X142109482Y-115690118D01*
X141984041Y-115593864D01*
X141837962Y-115533356D01*
X141681200Y-115512718D01*
X141524438Y-115533356D01*
X141378359Y-115593864D01*
X141252918Y-115690118D01*
X141156664Y-115815559D01*
X141096156Y-115961638D01*
X141075518Y-116118400D01*
X133111599Y-116118400D01*
X133107572Y-116074151D01*
X133105766Y-116064688D01*
X133049255Y-115872679D01*
X133045642Y-115863738D01*
X132952913Y-115686364D01*
X132947639Y-115678303D01*
X132822219Y-115522311D01*
X132815473Y-115515423D01*
X132662150Y-115386770D01*
X132654195Y-115381323D01*
X132478805Y-115284902D01*
X132469940Y-115281102D01*
X132279157Y-115220582D01*
X132269729Y-115218578D01*
X132113987Y-115201109D01*
X132108458Y-115200800D01*
X131941680Y-115200800D01*
X131928995Y-115204922D01*
X131926000Y-115209043D01*
X131926000Y-116155120D01*
X131726000Y-116155120D01*
X131726000Y-115216480D01*
X131721878Y-115203795D01*
X131717757Y-115200800D01*
X131550633Y-115200800D01*
X131545778Y-115201038D01*
X131396982Y-115215628D01*
X131387534Y-115217498D01*
X131195914Y-115275351D01*
X131187010Y-115279021D01*
X131010279Y-115372990D01*
X131002253Y-115378323D01*
X130847146Y-115504826D01*
X130840309Y-115511615D01*
X130712721Y-115665842D01*
X130707337Y-115673825D01*
X130612134Y-115849898D01*
X130608405Y-115858769D01*
X130549213Y-116049985D01*
X130547277Y-116059417D01*
X130537210Y-116155207D01*
X128368400Y-116155207D01*
X128368400Y-114950000D01*
X138789518Y-114950000D01*
X138810156Y-115106762D01*
X138870664Y-115252841D01*
X138966918Y-115378282D01*
X139092359Y-115474536D01*
X139238438Y-115535044D01*
X139395200Y-115555682D01*
X139551962Y-115535044D01*
X139698041Y-115474536D01*
X139823482Y-115378282D01*
X139919736Y-115252841D01*
X139980244Y-115106762D01*
X139994643Y-114997390D01*
X148094264Y-114997390D01*
X148109864Y-115183174D01*
X148111602Y-115192642D01*
X148162988Y-115371848D01*
X148166539Y-115380816D01*
X148251753Y-115546625D01*
X148256973Y-115554724D01*
X148314475Y-115627274D01*
X148325586Y-115634656D01*
X148327796Y-115634563D01*
X148331758Y-115632020D01*
X148946093Y-115017686D01*
X148951335Y-115007397D01*
X149245053Y-115007397D01*
X149245849Y-115012428D01*
X149862074Y-115628652D01*
X149873957Y-115634706D01*
X149877239Y-115634187D01*
X149879444Y-115632458D01*
X149916534Y-115589488D01*
X149922093Y-115581607D01*
X150014177Y-115419511D01*
X150018093Y-115410716D01*
X150076941Y-115233812D01*
X150079075Y-115224418D01*
X150102699Y-115037410D01*
X150103086Y-115031883D01*
X150103400Y-115009359D01*
X150103170Y-115003861D01*
X150084774Y-114816236D01*
X150082905Y-114806798D01*
X150029018Y-114628318D01*
X150025348Y-114619414D01*
X149937824Y-114454804D01*
X149932491Y-114446778D01*
X149882815Y-114385869D01*
X149871603Y-114378644D01*
X149869022Y-114378788D01*
X149865609Y-114381013D01*
X149251107Y-114995514D01*
X149245053Y-115007397D01*
X148951335Y-115007397D01*
X148952147Y-115005803D01*
X148951351Y-115000772D01*
X148335323Y-114384745D01*
X148323440Y-114378691D01*
X148320523Y-114379153D01*
X148317830Y-114381295D01*
X148272611Y-114435184D01*
X148267158Y-114443148D01*
X148177352Y-114606505D01*
X148173552Y-114615369D01*
X148117183Y-114793067D01*
X148115179Y-114802495D01*
X148094398Y-114987762D01*
X148094264Y-114997390D01*
X139994643Y-114997390D01*
X140000882Y-114950000D01*
X139980244Y-114793238D01*
X139919736Y-114647159D01*
X139823482Y-114521718D01*
X139698041Y-114425464D01*
X139551962Y-114364956D01*
X139395200Y-114344318D01*
X139238438Y-114364956D01*
X139092359Y-114425464D01*
X138966918Y-114521718D01*
X138870664Y-114647159D01*
X138810156Y-114793238D01*
X138789518Y-114950000D01*
X128368400Y-114950000D01*
X128368400Y-113723290D01*
X130525346Y-113723290D01*
X130544373Y-113932362D01*
X130545739Y-113937004D01*
X130545740Y-113937008D01*
X130602279Y-114129110D01*
X130603647Y-114133757D01*
X130700909Y-114319803D01*
X130703945Y-114323579D01*
X130703947Y-114323582D01*
X130793678Y-114435184D01*
X130832456Y-114483414D01*
X130836161Y-114486523D01*
X130836164Y-114486526D01*
X130979150Y-114606505D01*
X130993276Y-114618358D01*
X130997524Y-114620694D01*
X130997525Y-114620694D01*
X131122153Y-114689209D01*
X131177245Y-114719496D01*
X131181857Y-114720959D01*
X131372735Y-114781509D01*
X131372737Y-114781509D01*
X131377354Y-114782974D01*
X131467336Y-114793067D01*
X131537980Y-114800991D01*
X131537982Y-114800991D01*
X131540736Y-114801300D01*
X132103830Y-114801300D01*
X132106224Y-114801065D01*
X132106229Y-114801065D01*
X132255124Y-114786466D01*
X132255128Y-114786465D01*
X132259934Y-114785994D01*
X132264559Y-114784598D01*
X132264562Y-114784597D01*
X132333812Y-114763689D01*
X132460910Y-114725316D01*
X132646272Y-114626757D01*
X132808961Y-114494071D01*
X132898474Y-114385869D01*
X132939696Y-114336040D01*
X132939697Y-114336038D01*
X132942779Y-114332313D01*
X132996149Y-114233608D01*
X148470611Y-114233608D01*
X148470729Y-114236005D01*
X148473114Y-114239692D01*
X149087514Y-114854093D01*
X149099397Y-114860147D01*
X149104428Y-114859351D01*
X149720408Y-114243370D01*
X149726462Y-114231487D01*
X149726029Y-114228753D01*
X149723678Y-114225818D01*
X149664232Y-114176639D01*
X149656238Y-114171247D01*
X149492245Y-114082576D01*
X149483374Y-114078847D01*
X149305273Y-114023716D01*
X149295839Y-114021779D01*
X149110431Y-114002291D01*
X149100793Y-114002224D01*
X148915132Y-114019120D01*
X148905666Y-114020926D01*
X148726828Y-114073562D01*
X148717887Y-114077175D01*
X148552684Y-114163540D01*
X148544608Y-114168825D01*
X148477914Y-114222449D01*
X148470611Y-114233608D01*
X132996149Y-114233608D01*
X133031177Y-114168825D01*
X133040330Y-114151897D01*
X133040330Y-114151896D01*
X133042630Y-114147643D01*
X133063926Y-114078847D01*
X133103280Y-113951716D01*
X133103281Y-113951712D01*
X133104710Y-113947095D01*
X133105771Y-113937008D01*
X133126148Y-113743126D01*
X133126148Y-113743124D01*
X133126654Y-113738310D01*
X133120371Y-113669275D01*
X133108066Y-113534058D01*
X133108065Y-113534055D01*
X133107627Y-113529238D01*
X133093133Y-113479990D01*
X133049721Y-113332490D01*
X133049720Y-113332487D01*
X133048353Y-113327843D01*
X132966881Y-113172000D01*
X134268318Y-113172000D01*
X134288956Y-113328762D01*
X134349464Y-113474841D01*
X134445718Y-113600282D01*
X134571159Y-113696536D01*
X134717238Y-113757044D01*
X134874000Y-113777682D01*
X135030762Y-113757044D01*
X135176841Y-113696536D01*
X135302282Y-113600282D01*
X135398536Y-113474841D01*
X135439333Y-113376348D01*
X151348100Y-113376348D01*
X151359733Y-113434831D01*
X151404048Y-113501152D01*
X151470369Y-113545467D01*
X151479932Y-113547369D01*
X151479934Y-113547370D01*
X151502605Y-113551879D01*
X151528852Y-113557100D01*
X153168348Y-113557100D01*
X153194595Y-113551879D01*
X153217266Y-113547370D01*
X153217268Y-113547369D01*
X153226831Y-113545467D01*
X153293152Y-113501152D01*
X153337467Y-113434831D01*
X153349100Y-113376348D01*
X153349100Y-111952800D01*
X155756718Y-111952800D01*
X155777356Y-112109562D01*
X155837864Y-112255641D01*
X155934118Y-112381082D01*
X156059559Y-112477336D01*
X156205638Y-112537844D01*
X156362400Y-112558482D01*
X156519162Y-112537844D01*
X156665241Y-112477336D01*
X156790682Y-112381082D01*
X156886936Y-112255641D01*
X156947444Y-112109562D01*
X156968082Y-111952800D01*
X156947444Y-111796038D01*
X156886936Y-111649959D01*
X156790682Y-111524518D01*
X156665241Y-111428264D01*
X156519162Y-111367756D01*
X156362400Y-111347118D01*
X156205638Y-111367756D01*
X156059559Y-111428264D01*
X155934118Y-111524518D01*
X155837864Y-111649959D01*
X155777356Y-111796038D01*
X155756718Y-111952800D01*
X153349100Y-111952800D01*
X153349100Y-111736852D01*
X153341921Y-111700759D01*
X153339370Y-111687934D01*
X153339369Y-111687932D01*
X153337467Y-111678369D01*
X153293152Y-111612048D01*
X153226831Y-111567733D01*
X153217268Y-111565831D01*
X153217266Y-111565830D01*
X153194595Y-111561321D01*
X153168348Y-111556100D01*
X151528852Y-111556100D01*
X151502605Y-111561321D01*
X151479934Y-111565830D01*
X151479932Y-111565831D01*
X151470369Y-111567733D01*
X151404048Y-111612048D01*
X151359733Y-111678369D01*
X151357831Y-111687932D01*
X151357830Y-111687934D01*
X151355279Y-111700759D01*
X151348100Y-111736852D01*
X151348100Y-113376348D01*
X135439333Y-113376348D01*
X135459044Y-113328762D01*
X135479682Y-113172000D01*
X135459044Y-113015238D01*
X135398536Y-112869159D01*
X135302282Y-112743718D01*
X135176841Y-112647464D01*
X135030762Y-112586956D01*
X134874000Y-112566318D01*
X134717238Y-112586956D01*
X134571159Y-112647464D01*
X134445718Y-112743718D01*
X134349464Y-112869159D01*
X134288956Y-113015238D01*
X134268318Y-113172000D01*
X132966881Y-113172000D01*
X132951091Y-113141797D01*
X132854510Y-113021674D01*
X132822577Y-112981958D01*
X132822576Y-112981957D01*
X132819544Y-112978186D01*
X132815839Y-112975077D01*
X132815836Y-112975074D01*
X132662439Y-112846359D01*
X132662437Y-112846358D01*
X132658724Y-112843242D01*
X132474755Y-112742104D01*
X132452001Y-112734886D01*
X132279265Y-112680091D01*
X132279263Y-112680091D01*
X132274646Y-112678626D01*
X132176802Y-112667651D01*
X132114020Y-112660609D01*
X132114018Y-112660609D01*
X132111264Y-112660300D01*
X131548170Y-112660300D01*
X131545776Y-112660535D01*
X131545771Y-112660535D01*
X131396876Y-112675134D01*
X131396872Y-112675135D01*
X131392066Y-112675606D01*
X131387441Y-112677002D01*
X131387438Y-112677003D01*
X131318188Y-112697911D01*
X131191090Y-112736284D01*
X131005728Y-112834843D01*
X130843039Y-112967529D01*
X130839955Y-112971257D01*
X130839954Y-112971258D01*
X130803571Y-113015238D01*
X130709221Y-113129287D01*
X130609370Y-113313957D01*
X130547290Y-113514505D01*
X130546785Y-113519313D01*
X130546784Y-113519316D01*
X130537859Y-113604236D01*
X130525346Y-113723290D01*
X128368400Y-113723290D01*
X128368400Y-112003600D01*
X141024718Y-112003600D01*
X141045356Y-112160362D01*
X141105864Y-112306441D01*
X141202118Y-112431882D01*
X141327559Y-112528136D01*
X141473638Y-112588644D01*
X141630400Y-112609282D01*
X141787162Y-112588644D01*
X141933241Y-112528136D01*
X142058682Y-112431882D01*
X142154936Y-112306441D01*
X142215444Y-112160362D01*
X142236082Y-112003600D01*
X142215444Y-111846838D01*
X142154936Y-111700759D01*
X142058682Y-111575318D01*
X141933241Y-111479064D01*
X141787162Y-111418556D01*
X141630400Y-111397918D01*
X141473638Y-111418556D01*
X141327559Y-111479064D01*
X141202118Y-111575318D01*
X141105864Y-111700759D01*
X141045356Y-111846838D01*
X141024718Y-112003600D01*
X128368400Y-112003600D01*
X128368400Y-111286440D01*
X137611200Y-111286440D01*
X137612148Y-111296062D01*
X137620902Y-111340074D01*
X137628221Y-111357742D01*
X137661589Y-111407682D01*
X137675118Y-111421211D01*
X137725058Y-111454579D01*
X137742726Y-111461898D01*
X137786738Y-111470652D01*
X137796360Y-111471600D01*
X138295520Y-111471600D01*
X138308205Y-111467478D01*
X138311200Y-111463357D01*
X138311200Y-111455920D01*
X138511200Y-111455920D01*
X138515322Y-111468605D01*
X138519443Y-111471600D01*
X139026040Y-111471600D01*
X139035662Y-111470652D01*
X139079674Y-111461898D01*
X139097342Y-111454579D01*
X139147282Y-111421211D01*
X139160811Y-111407682D01*
X139194179Y-111357742D01*
X139201498Y-111340074D01*
X139210252Y-111296062D01*
X139211200Y-111286440D01*
X139211200Y-110787280D01*
X139207078Y-110774595D01*
X139202957Y-110771600D01*
X138526880Y-110771600D01*
X138514195Y-110775722D01*
X138511200Y-110779843D01*
X138511200Y-111455920D01*
X138311200Y-111455920D01*
X138311200Y-110787280D01*
X138307078Y-110774595D01*
X138302957Y-110771600D01*
X137626880Y-110771600D01*
X137614195Y-110775722D01*
X137611200Y-110779843D01*
X137611200Y-111286440D01*
X128368400Y-111286440D01*
X128368400Y-110555920D01*
X137611200Y-110555920D01*
X137615322Y-110568605D01*
X137619443Y-110571600D01*
X138295520Y-110571600D01*
X138308205Y-110567478D01*
X138311200Y-110563357D01*
X138311200Y-110555920D01*
X138511200Y-110555920D01*
X138515322Y-110568605D01*
X138519443Y-110571600D01*
X139195520Y-110571600D01*
X139208205Y-110567478D01*
X139211200Y-110563357D01*
X139211200Y-110056760D01*
X139210252Y-110047138D01*
X139201498Y-110003126D01*
X139194179Y-109985458D01*
X139160811Y-109935518D01*
X139159504Y-109934211D01*
X146455594Y-109934211D01*
X146456249Y-109940144D01*
X146456249Y-109940148D01*
X146468061Y-110047138D01*
X146474199Y-110102735D01*
X146532466Y-110261956D01*
X146535791Y-110266905D01*
X146535792Y-110266906D01*
X146548889Y-110286396D01*
X146627030Y-110402683D01*
X146752433Y-110516791D01*
X146901435Y-110597692D01*
X146936389Y-110606862D01*
X147059664Y-110639203D01*
X147059668Y-110639204D01*
X147065433Y-110640716D01*
X147071394Y-110640810D01*
X147071397Y-110640810D01*
X147150165Y-110642047D01*
X147234960Y-110643379D01*
X147240775Y-110642047D01*
X147240777Y-110642047D01*
X147394406Y-110606862D01*
X147394409Y-110606861D01*
X147400229Y-110605528D01*
X147415810Y-110597692D01*
X147546365Y-110532029D01*
X147551698Y-110529347D01*
X147556235Y-110525472D01*
X147556238Y-110525470D01*
X147676088Y-110423108D01*
X147676091Y-110423105D01*
X147680623Y-110419234D01*
X147779561Y-110281547D01*
X147842801Y-110124234D01*
X147852404Y-110056760D01*
X147866234Y-109959585D01*
X147866234Y-109959579D01*
X147866690Y-109956378D01*
X147866845Y-109941600D01*
X147851796Y-109817241D01*
X147847193Y-109779202D01*
X147847192Y-109779199D01*
X147846476Y-109773280D01*
X147786545Y-109614677D01*
X147690512Y-109474949D01*
X147563921Y-109362160D01*
X147555381Y-109357638D01*
X147528612Y-109343465D01*
X147414081Y-109282824D01*
X147331861Y-109262172D01*
X147255431Y-109242973D01*
X147255428Y-109242973D01*
X147249641Y-109241519D01*
X147164041Y-109241071D01*
X147086061Y-109240662D01*
X147086059Y-109240662D01*
X147080095Y-109240631D01*
X147074299Y-109242023D01*
X147074295Y-109242023D01*
X146966903Y-109267807D01*
X146915232Y-109280212D01*
X146839901Y-109319093D01*
X146769875Y-109355236D01*
X146769873Y-109355238D01*
X146764569Y-109357975D01*
X146636804Y-109469431D01*
X146539313Y-109608147D01*
X146477724Y-109766113D01*
X146455594Y-109934211D01*
X139159504Y-109934211D01*
X139147282Y-109921989D01*
X139097342Y-109888621D01*
X139079674Y-109881302D01*
X139035662Y-109872548D01*
X139026040Y-109871600D01*
X138526880Y-109871600D01*
X138514195Y-109875722D01*
X138511200Y-109879843D01*
X138511200Y-110555920D01*
X138311200Y-110555920D01*
X138311200Y-109887280D01*
X138307078Y-109874595D01*
X138302957Y-109871600D01*
X137796360Y-109871600D01*
X137786738Y-109872548D01*
X137742726Y-109881302D01*
X137725058Y-109888621D01*
X137675118Y-109921989D01*
X137661589Y-109935518D01*
X137628221Y-109985458D01*
X137620902Y-110003126D01*
X137612148Y-110047138D01*
X137611200Y-110056760D01*
X137611200Y-110555920D01*
X128368400Y-110555920D01*
X128368400Y-108244400D01*
X152149918Y-108244400D01*
X152170556Y-108401162D01*
X152231064Y-108547241D01*
X152327318Y-108672682D01*
X152452759Y-108768936D01*
X152460847Y-108772286D01*
X152550240Y-108809314D01*
X152596765Y-108849051D01*
X152611049Y-108908545D01*
X152587634Y-108965073D01*
X152561856Y-108986514D01*
X152560356Y-108987380D01*
X152554359Y-108989864D01*
X152428918Y-109086118D01*
X152332664Y-109211559D01*
X152272156Y-109357638D01*
X152251518Y-109514400D01*
X152272156Y-109671162D01*
X152332664Y-109817241D01*
X152428918Y-109942682D01*
X152554359Y-110038936D01*
X152700438Y-110099444D01*
X152857200Y-110120082D01*
X153013962Y-110099444D01*
X153160041Y-110038936D01*
X153285482Y-109942682D01*
X153381736Y-109817241D01*
X153442244Y-109671162D01*
X153462882Y-109514400D01*
X153442244Y-109357638D01*
X153381736Y-109211559D01*
X153285482Y-109086118D01*
X153160041Y-108989864D01*
X153062560Y-108949486D01*
X153016035Y-108909749D01*
X153001751Y-108850255D01*
X153025166Y-108793727D01*
X153050944Y-108772286D01*
X153052444Y-108771420D01*
X153058441Y-108768936D01*
X153183882Y-108672682D01*
X153280136Y-108547241D01*
X153340644Y-108401162D01*
X153361282Y-108244400D01*
X153340644Y-108087638D01*
X153280136Y-107941559D01*
X153183882Y-107816118D01*
X153058441Y-107719864D01*
X152912362Y-107659356D01*
X152755600Y-107638718D01*
X152598838Y-107659356D01*
X152452759Y-107719864D01*
X152327318Y-107816118D01*
X152231064Y-107941559D01*
X152170556Y-108087638D01*
X152149918Y-108244400D01*
X128368400Y-108244400D01*
X128368400Y-107286440D01*
X137611200Y-107286440D01*
X137612148Y-107296062D01*
X137620902Y-107340074D01*
X137628221Y-107357742D01*
X137661589Y-107407682D01*
X137675118Y-107421211D01*
X137725058Y-107454579D01*
X137742726Y-107461898D01*
X137786738Y-107470652D01*
X137796360Y-107471600D01*
X138295520Y-107471600D01*
X138308205Y-107467478D01*
X138311200Y-107463357D01*
X138311200Y-107455920D01*
X138511200Y-107455920D01*
X138515322Y-107468605D01*
X138519443Y-107471600D01*
X139026040Y-107471600D01*
X139035662Y-107470652D01*
X139079674Y-107461898D01*
X139097342Y-107454579D01*
X139147282Y-107421211D01*
X139160811Y-107407682D01*
X139169812Y-107394211D01*
X146455594Y-107394211D01*
X146456249Y-107400144D01*
X146456249Y-107400148D01*
X146473544Y-107556804D01*
X146474199Y-107562735D01*
X146532466Y-107721956D01*
X146535791Y-107726905D01*
X146535792Y-107726906D01*
X146548889Y-107746396D01*
X146627030Y-107862683D01*
X146752433Y-107976791D01*
X146901435Y-108057692D01*
X146936389Y-108066862D01*
X147059664Y-108099203D01*
X147059668Y-108099204D01*
X147065433Y-108100716D01*
X147071394Y-108100810D01*
X147071397Y-108100810D01*
X147150196Y-108102047D01*
X147234960Y-108103379D01*
X147240775Y-108102047D01*
X147240777Y-108102047D01*
X147394406Y-108066862D01*
X147394409Y-108066861D01*
X147400229Y-108065528D01*
X147415810Y-108057692D01*
X147546365Y-107992029D01*
X147551698Y-107989347D01*
X147556235Y-107985472D01*
X147556238Y-107985470D01*
X147676088Y-107883108D01*
X147676091Y-107883105D01*
X147680623Y-107879234D01*
X147722274Y-107821271D01*
X147776077Y-107746396D01*
X147776078Y-107746394D01*
X147779561Y-107741547D01*
X147786690Y-107723815D01*
X147840577Y-107589767D01*
X147840578Y-107589765D01*
X147842801Y-107584234D01*
X147858966Y-107470652D01*
X147866234Y-107419585D01*
X147866234Y-107419579D01*
X147866690Y-107416378D01*
X147866845Y-107401600D01*
X147855992Y-107311914D01*
X147847193Y-107239202D01*
X147847192Y-107239199D01*
X147846476Y-107233280D01*
X147786545Y-107074677D01*
X147690512Y-106934949D01*
X147563921Y-106822160D01*
X147414081Y-106742824D01*
X147331861Y-106722172D01*
X147255431Y-106702973D01*
X147255428Y-106702973D01*
X147249641Y-106701519D01*
X147164041Y-106701071D01*
X147086061Y-106700662D01*
X147086059Y-106700662D01*
X147080095Y-106700631D01*
X147074299Y-106702023D01*
X147074295Y-106702023D01*
X146966903Y-106727807D01*
X146915232Y-106740212D01*
X146903561Y-106746236D01*
X146769875Y-106815236D01*
X146769873Y-106815238D01*
X146764569Y-106817975D01*
X146636804Y-106929431D01*
X146539313Y-107068147D01*
X146477724Y-107226113D01*
X146455594Y-107394211D01*
X139169812Y-107394211D01*
X139194179Y-107357742D01*
X139201498Y-107340074D01*
X139210252Y-107296062D01*
X139211200Y-107286440D01*
X139211200Y-106787280D01*
X139207078Y-106774595D01*
X139202957Y-106771600D01*
X138526880Y-106771600D01*
X138514195Y-106775722D01*
X138511200Y-106779843D01*
X138511200Y-107455920D01*
X138311200Y-107455920D01*
X138311200Y-106787280D01*
X138307078Y-106774595D01*
X138302957Y-106771600D01*
X137626880Y-106771600D01*
X137614195Y-106775722D01*
X137611200Y-106779843D01*
X137611200Y-107286440D01*
X128368400Y-107286440D01*
X128368400Y-106555920D01*
X137611200Y-106555920D01*
X137615322Y-106568605D01*
X137619443Y-106571600D01*
X138295520Y-106571600D01*
X138308205Y-106567478D01*
X138311200Y-106563357D01*
X138311200Y-106555920D01*
X138511200Y-106555920D01*
X138515322Y-106568605D01*
X138519443Y-106571600D01*
X139195520Y-106571600D01*
X139208205Y-106567478D01*
X139211200Y-106563357D01*
X139211200Y-106314000D01*
X151591118Y-106314000D01*
X151611756Y-106470762D01*
X151672264Y-106616841D01*
X151768518Y-106742282D01*
X151893959Y-106838536D01*
X152040038Y-106899044D01*
X152196800Y-106919682D01*
X152353562Y-106899044D01*
X152499641Y-106838536D01*
X152625082Y-106742282D01*
X152721336Y-106616841D01*
X152781844Y-106470762D01*
X152802482Y-106314000D01*
X152781844Y-106157238D01*
X152721336Y-106011159D01*
X152625082Y-105885718D01*
X152499641Y-105789464D01*
X152353562Y-105728956D01*
X152196800Y-105708318D01*
X152040038Y-105728956D01*
X151893959Y-105789464D01*
X151768518Y-105885718D01*
X151672264Y-106011159D01*
X151611756Y-106157238D01*
X151591118Y-106314000D01*
X139211200Y-106314000D01*
X139211200Y-106056760D01*
X139210252Y-106047138D01*
X139201498Y-106003126D01*
X139194179Y-105985458D01*
X139160811Y-105935518D01*
X139147282Y-105921989D01*
X139097342Y-105888621D01*
X139079674Y-105881302D01*
X139035662Y-105872548D01*
X139026040Y-105871600D01*
X138526880Y-105871600D01*
X138514195Y-105875722D01*
X138511200Y-105879843D01*
X138511200Y-106555920D01*
X138311200Y-106555920D01*
X138311200Y-105887280D01*
X138307078Y-105874595D01*
X138302957Y-105871600D01*
X137796360Y-105871600D01*
X137786738Y-105872548D01*
X137742726Y-105881302D01*
X137725058Y-105888621D01*
X137675118Y-105921989D01*
X137661589Y-105935518D01*
X137628221Y-105985458D01*
X137620902Y-106003126D01*
X137612148Y-106047138D01*
X137611200Y-106056760D01*
X137611200Y-106555920D01*
X128368400Y-106555920D01*
X128368400Y-104332800D01*
X129289918Y-104332800D01*
X129310556Y-104489562D01*
X129371064Y-104635641D01*
X129467318Y-104761082D01*
X129592759Y-104857336D01*
X129738838Y-104917844D01*
X129895600Y-104938482D01*
X130052362Y-104917844D01*
X130198441Y-104857336D01*
X130323882Y-104761082D01*
X130418633Y-104637600D01*
X131575918Y-104637600D01*
X131596556Y-104794362D01*
X131657064Y-104940441D01*
X131753318Y-105065882D01*
X131878759Y-105162136D01*
X132024838Y-105222644D01*
X132181600Y-105243282D01*
X132338362Y-105222644D01*
X132484441Y-105162136D01*
X132609882Y-105065882D01*
X132706136Y-104940441D01*
X132766644Y-104794362D01*
X132787282Y-104637600D01*
X133099918Y-104637600D01*
X133120556Y-104794362D01*
X133181064Y-104940441D01*
X133277318Y-105065882D01*
X133402759Y-105162136D01*
X133548838Y-105222644D01*
X133705600Y-105243282D01*
X133862362Y-105222644D01*
X134008441Y-105162136D01*
X134133882Y-105065882D01*
X134230136Y-104940441D01*
X134290644Y-104794362D01*
X134311282Y-104637600D01*
X134623918Y-104637600D01*
X134644556Y-104794362D01*
X134705064Y-104940441D01*
X134801318Y-105065882D01*
X134926759Y-105162136D01*
X135072838Y-105222644D01*
X135229600Y-105243282D01*
X135386362Y-105222644D01*
X135532441Y-105162136D01*
X135620195Y-105094800D01*
X138992718Y-105094800D01*
X139013356Y-105251562D01*
X139073864Y-105397641D01*
X139170118Y-105523082D01*
X139295559Y-105619336D01*
X139441638Y-105679844D01*
X139598400Y-105700482D01*
X139755162Y-105679844D01*
X139901241Y-105619336D01*
X140026682Y-105523082D01*
X140122936Y-105397641D01*
X140164209Y-105298000D01*
X141024718Y-105298000D01*
X141045356Y-105454762D01*
X141105864Y-105600841D01*
X141202118Y-105726282D01*
X141327559Y-105822536D01*
X141473638Y-105883044D01*
X141630400Y-105903682D01*
X141787162Y-105883044D01*
X141933241Y-105822536D01*
X142058682Y-105726282D01*
X142154936Y-105600841D01*
X142215444Y-105454762D01*
X142236082Y-105298000D01*
X142215444Y-105141238D01*
X142154936Y-104995159D01*
X142058682Y-104869718D01*
X141933241Y-104773464D01*
X141787162Y-104712956D01*
X141630400Y-104692318D01*
X141473638Y-104712956D01*
X141327559Y-104773464D01*
X141202118Y-104869718D01*
X141105864Y-104995159D01*
X141045356Y-105141238D01*
X141024718Y-105298000D01*
X140164209Y-105298000D01*
X140183444Y-105251562D01*
X140204082Y-105094800D01*
X140183444Y-104938038D01*
X140122936Y-104791959D01*
X140026682Y-104666518D01*
X139901241Y-104570264D01*
X139755162Y-104509756D01*
X139598400Y-104489118D01*
X139441638Y-104509756D01*
X139295559Y-104570264D01*
X139170118Y-104666518D01*
X139073864Y-104791959D01*
X139013356Y-104938038D01*
X138992718Y-105094800D01*
X135620195Y-105094800D01*
X135657882Y-105065882D01*
X135754136Y-104940441D01*
X135814644Y-104794362D01*
X135835282Y-104637600D01*
X135814644Y-104480838D01*
X135811709Y-104473751D01*
X135782214Y-104402545D01*
X135754136Y-104334759D01*
X135657882Y-104209318D01*
X135532441Y-104113064D01*
X135386362Y-104052556D01*
X135229600Y-104031918D01*
X135072838Y-104052556D01*
X134926759Y-104113064D01*
X134801318Y-104209318D01*
X134705064Y-104334759D01*
X134676986Y-104402545D01*
X134647492Y-104473751D01*
X134644556Y-104480838D01*
X134623918Y-104637600D01*
X134311282Y-104637600D01*
X134290644Y-104480838D01*
X134287709Y-104473751D01*
X134258214Y-104402545D01*
X134230136Y-104334759D01*
X134133882Y-104209318D01*
X134008441Y-104113064D01*
X133862362Y-104052556D01*
X133705600Y-104031918D01*
X133548838Y-104052556D01*
X133402759Y-104113064D01*
X133277318Y-104209318D01*
X133181064Y-104334759D01*
X133152986Y-104402545D01*
X133123492Y-104473751D01*
X133120556Y-104480838D01*
X133099918Y-104637600D01*
X132787282Y-104637600D01*
X132766644Y-104480838D01*
X132763709Y-104473751D01*
X132734214Y-104402545D01*
X132706136Y-104334759D01*
X132609882Y-104209318D01*
X132484441Y-104113064D01*
X132338362Y-104052556D01*
X132181600Y-104031918D01*
X132024838Y-104052556D01*
X131878759Y-104113064D01*
X131753318Y-104209318D01*
X131657064Y-104334759D01*
X131628986Y-104402545D01*
X131599492Y-104473751D01*
X131596556Y-104480838D01*
X131575918Y-104637600D01*
X130418633Y-104637600D01*
X130420136Y-104635641D01*
X130480644Y-104489562D01*
X130501282Y-104332800D01*
X130480644Y-104176038D01*
X130420136Y-104029959D01*
X130323882Y-103904518D01*
X130198441Y-103808264D01*
X130052362Y-103747756D01*
X129895600Y-103727118D01*
X129738838Y-103747756D01*
X129592759Y-103808264D01*
X129467318Y-103904518D01*
X129371064Y-104029959D01*
X129310556Y-104176038D01*
X129289918Y-104332800D01*
X128368400Y-104332800D01*
X128368400Y-102402400D01*
X136300318Y-102402400D01*
X136320956Y-102559162D01*
X136381464Y-102705241D01*
X136477718Y-102830682D01*
X136603159Y-102926936D01*
X136749238Y-102987444D01*
X136906000Y-103008082D01*
X137062762Y-102987444D01*
X137208841Y-102926936D01*
X137334282Y-102830682D01*
X137430536Y-102705241D01*
X137491044Y-102559162D01*
X137491618Y-102554800D01*
X139145118Y-102554800D01*
X139165756Y-102711562D01*
X139226264Y-102857641D01*
X139322518Y-102983082D01*
X139447959Y-103079336D01*
X139594038Y-103139844D01*
X139750800Y-103160482D01*
X139907562Y-103139844D01*
X139939029Y-103126810D01*
X140000024Y-103122009D01*
X140052194Y-103153978D01*
X140075609Y-103210506D01*
X140075067Y-103231196D01*
X140062299Y-103328179D01*
X140082937Y-103484941D01*
X140143445Y-103631020D01*
X140239699Y-103756461D01*
X140365140Y-103852715D01*
X140511219Y-103913223D01*
X140667981Y-103933861D01*
X140824743Y-103913223D01*
X140970822Y-103852715D01*
X141096263Y-103756461D01*
X141192517Y-103631020D01*
X141253025Y-103484941D01*
X141263726Y-103403662D01*
X141844920Y-103403662D01*
X141862159Y-103608953D01*
X141863492Y-103613601D01*
X141863492Y-103613602D01*
X141902979Y-103751308D01*
X141918944Y-103806986D01*
X142013112Y-103990218D01*
X142141077Y-104151670D01*
X142144757Y-104154802D01*
X142144759Y-104154804D01*
X142204167Y-104205364D01*
X142297964Y-104285191D01*
X142302187Y-104287551D01*
X142302191Y-104287554D01*
X142394662Y-104339234D01*
X142477798Y-104385697D01*
X142482396Y-104387191D01*
X142669124Y-104447863D01*
X142669126Y-104447864D01*
X142673729Y-104449359D01*
X142878294Y-104473751D01*
X142883116Y-104473380D01*
X142883119Y-104473380D01*
X142960157Y-104467452D01*
X143083700Y-104457946D01*
X143282125Y-104402545D01*
X143286438Y-104400366D01*
X143286444Y-104400364D01*
X143461689Y-104311841D01*
X143461691Y-104311840D01*
X143466010Y-104309658D01*
X143501343Y-104282053D01*
X143624535Y-104185806D01*
X143624539Y-104185802D01*
X143628351Y-104182824D01*
X143634209Y-104176038D01*
X143741525Y-104051709D01*
X143762964Y-104026872D01*
X143781631Y-103994013D01*
X143862334Y-103851950D01*
X143862335Y-103851947D01*
X143864723Y-103847744D01*
X143877857Y-103808264D01*
X143928224Y-103656854D01*
X143928224Y-103656852D01*
X143929751Y-103652263D01*
X143955571Y-103447874D01*
X143955983Y-103418400D01*
X143954538Y-103403662D01*
X144384920Y-103403662D01*
X144402159Y-103608953D01*
X144403492Y-103613601D01*
X144403492Y-103613602D01*
X144442979Y-103751308D01*
X144458944Y-103806986D01*
X144553112Y-103990218D01*
X144681077Y-104151670D01*
X144684757Y-104154802D01*
X144684759Y-104154804D01*
X144744167Y-104205364D01*
X144837964Y-104285191D01*
X144842187Y-104287551D01*
X144842191Y-104287554D01*
X144934662Y-104339234D01*
X145017798Y-104385697D01*
X145022396Y-104387191D01*
X145209124Y-104447863D01*
X145209126Y-104447864D01*
X145213729Y-104449359D01*
X145418294Y-104473751D01*
X145423116Y-104473380D01*
X145423119Y-104473380D01*
X145500157Y-104467452D01*
X145623700Y-104457946D01*
X145822125Y-104402545D01*
X145826438Y-104400366D01*
X145826444Y-104400364D01*
X146001689Y-104311841D01*
X146001691Y-104311840D01*
X146006010Y-104309658D01*
X146041343Y-104282053D01*
X146164535Y-104185806D01*
X146164539Y-104185802D01*
X146168351Y-104182824D01*
X146174209Y-104176038D01*
X146281525Y-104051709D01*
X146302964Y-104026872D01*
X146321631Y-103994013D01*
X146402334Y-103851950D01*
X146402335Y-103851947D01*
X146404723Y-103847744D01*
X146417857Y-103808264D01*
X146468224Y-103656854D01*
X146468224Y-103656852D01*
X146469751Y-103652263D01*
X146495571Y-103447874D01*
X146495983Y-103418400D01*
X146494538Y-103403662D01*
X146924920Y-103403662D01*
X146942159Y-103608953D01*
X146943492Y-103613601D01*
X146943492Y-103613602D01*
X146982979Y-103751308D01*
X146998944Y-103806986D01*
X147093112Y-103990218D01*
X147221077Y-104151670D01*
X147224757Y-104154802D01*
X147224759Y-104154804D01*
X147284167Y-104205364D01*
X147377964Y-104285191D01*
X147382187Y-104287551D01*
X147382191Y-104287554D01*
X147474662Y-104339234D01*
X147557798Y-104385697D01*
X147562396Y-104387191D01*
X147749124Y-104447863D01*
X147749126Y-104447864D01*
X147753729Y-104449359D01*
X147958294Y-104473751D01*
X147963116Y-104473380D01*
X147963119Y-104473380D01*
X148040157Y-104467452D01*
X148163700Y-104457946D01*
X148362125Y-104402545D01*
X148366438Y-104400366D01*
X148366444Y-104400364D01*
X148541689Y-104311841D01*
X148541691Y-104311840D01*
X148546010Y-104309658D01*
X148581343Y-104282053D01*
X148704535Y-104185806D01*
X148704539Y-104185802D01*
X148708351Y-104182824D01*
X148714209Y-104176038D01*
X148821525Y-104051709D01*
X148842964Y-104026872D01*
X148861631Y-103994013D01*
X148942334Y-103851950D01*
X148942335Y-103851947D01*
X148944723Y-103847744D01*
X148957857Y-103808264D01*
X149008224Y-103656854D01*
X149008224Y-103656852D01*
X149009751Y-103652263D01*
X149035571Y-103447874D01*
X149035983Y-103418400D01*
X149034538Y-103403662D01*
X149464920Y-103403662D01*
X149482159Y-103608953D01*
X149483492Y-103613601D01*
X149483492Y-103613602D01*
X149522979Y-103751308D01*
X149538944Y-103806986D01*
X149633112Y-103990218D01*
X149761077Y-104151670D01*
X149764757Y-104154802D01*
X149764759Y-104154804D01*
X149824167Y-104205364D01*
X149917964Y-104285191D01*
X149922187Y-104287551D01*
X149922191Y-104287554D01*
X150014662Y-104339234D01*
X150097798Y-104385697D01*
X150102396Y-104387191D01*
X150289124Y-104447863D01*
X150289126Y-104447864D01*
X150293729Y-104449359D01*
X150498294Y-104473751D01*
X150503116Y-104473380D01*
X150503119Y-104473380D01*
X150580157Y-104467452D01*
X150703700Y-104457946D01*
X150902125Y-104402545D01*
X150906438Y-104400366D01*
X150906444Y-104400364D01*
X151081689Y-104311841D01*
X151081691Y-104311840D01*
X151086010Y-104309658D01*
X151121343Y-104282053D01*
X151244535Y-104185806D01*
X151244539Y-104185802D01*
X151248351Y-104182824D01*
X151254209Y-104176038D01*
X151361525Y-104051709D01*
X151382964Y-104026872D01*
X151401631Y-103994013D01*
X151482334Y-103851950D01*
X151482335Y-103851947D01*
X151484723Y-103847744D01*
X151497857Y-103808264D01*
X151548224Y-103656854D01*
X151548224Y-103656852D01*
X151549751Y-103652263D01*
X151575571Y-103447874D01*
X151575983Y-103418400D01*
X151574538Y-103403662D01*
X152004920Y-103403662D01*
X152022159Y-103608953D01*
X152023492Y-103613601D01*
X152023492Y-103613602D01*
X152062979Y-103751308D01*
X152078944Y-103806986D01*
X152173112Y-103990218D01*
X152301077Y-104151670D01*
X152304757Y-104154802D01*
X152304759Y-104154804D01*
X152364167Y-104205364D01*
X152457964Y-104285191D01*
X152462187Y-104287551D01*
X152462191Y-104287554D01*
X152554662Y-104339234D01*
X152637798Y-104385697D01*
X152642396Y-104387191D01*
X152829124Y-104447863D01*
X152829126Y-104447864D01*
X152833729Y-104449359D01*
X153038294Y-104473751D01*
X153043116Y-104473380D01*
X153043119Y-104473380D01*
X153120157Y-104467452D01*
X153243700Y-104457946D01*
X153442125Y-104402545D01*
X153446438Y-104400366D01*
X153446444Y-104400364D01*
X153621689Y-104311841D01*
X153621691Y-104311840D01*
X153626010Y-104309658D01*
X153659824Y-104283240D01*
X154550400Y-104283240D01*
X154551348Y-104292862D01*
X154560102Y-104336874D01*
X154567421Y-104354542D01*
X154600789Y-104404482D01*
X154614318Y-104418011D01*
X154664258Y-104451379D01*
X154681926Y-104458698D01*
X154725938Y-104467452D01*
X154735560Y-104468400D01*
X155484720Y-104468400D01*
X155497405Y-104464278D01*
X155500400Y-104460157D01*
X155500400Y-104452720D01*
X155700400Y-104452720D01*
X155704522Y-104465405D01*
X155708643Y-104468400D01*
X155846407Y-104468400D01*
X155904598Y-104487307D01*
X155940562Y-104536807D01*
X155940562Y-104597993D01*
X155924949Y-104627667D01*
X155912390Y-104644034D01*
X155837864Y-104741159D01*
X155777356Y-104887238D01*
X155756718Y-105044000D01*
X155777356Y-105200762D01*
X155837864Y-105346841D01*
X155934118Y-105472282D01*
X156059559Y-105568536D01*
X156205638Y-105629044D01*
X156362400Y-105649682D01*
X156519162Y-105629044D01*
X156665241Y-105568536D01*
X156790682Y-105472282D01*
X156886936Y-105346841D01*
X156947444Y-105200762D01*
X156968082Y-105044000D01*
X156947444Y-104887238D01*
X156886936Y-104741159D01*
X156790682Y-104615718D01*
X156665241Y-104519464D01*
X156659246Y-104516981D01*
X156653796Y-104513834D01*
X156612855Y-104468363D01*
X156606461Y-104407513D01*
X156620982Y-104373095D01*
X156633380Y-104354540D01*
X156640698Y-104336874D01*
X156649452Y-104292862D01*
X156650400Y-104283240D01*
X156650400Y-103534080D01*
X156646278Y-103521395D01*
X156642157Y-103518400D01*
X155716080Y-103518400D01*
X155703395Y-103522522D01*
X155700400Y-103526643D01*
X155700400Y-104452720D01*
X155500400Y-104452720D01*
X155500400Y-103534080D01*
X155496278Y-103521395D01*
X155492157Y-103518400D01*
X154566080Y-103518400D01*
X154553395Y-103522522D01*
X154550400Y-103526643D01*
X154550400Y-104283240D01*
X153659824Y-104283240D01*
X153661343Y-104282053D01*
X153784535Y-104185806D01*
X153784539Y-104185802D01*
X153788351Y-104182824D01*
X153794209Y-104176038D01*
X153901525Y-104051709D01*
X153922964Y-104026872D01*
X153941631Y-103994013D01*
X154022334Y-103851950D01*
X154022335Y-103851947D01*
X154024723Y-103847744D01*
X154037857Y-103808264D01*
X154088224Y-103656854D01*
X154088224Y-103656852D01*
X154089751Y-103652263D01*
X154115571Y-103447874D01*
X154115983Y-103418400D01*
X154106178Y-103318400D01*
X154104641Y-103302720D01*
X154550400Y-103302720D01*
X154554522Y-103315405D01*
X154558643Y-103318400D01*
X155484720Y-103318400D01*
X155497405Y-103314278D01*
X155500400Y-103310157D01*
X155500400Y-103302720D01*
X155700400Y-103302720D01*
X155704522Y-103315405D01*
X155708643Y-103318400D01*
X156634720Y-103318400D01*
X156647405Y-103314278D01*
X156650400Y-103310157D01*
X156650400Y-102553560D01*
X156649452Y-102543938D01*
X156640698Y-102499926D01*
X156633379Y-102482258D01*
X156600011Y-102432318D01*
X156586482Y-102418789D01*
X156536542Y-102385421D01*
X156518874Y-102378102D01*
X156474862Y-102369348D01*
X156465240Y-102368400D01*
X155716080Y-102368400D01*
X155703395Y-102372522D01*
X155700400Y-102376643D01*
X155700400Y-103302720D01*
X155500400Y-103302720D01*
X155500400Y-102384080D01*
X155496278Y-102371395D01*
X155492157Y-102368400D01*
X154735560Y-102368400D01*
X154725938Y-102369348D01*
X154681926Y-102378102D01*
X154664258Y-102385421D01*
X154614318Y-102418789D01*
X154600789Y-102432318D01*
X154567421Y-102482258D01*
X154560102Y-102499926D01*
X154551348Y-102543938D01*
X154550400Y-102553560D01*
X154550400Y-103302720D01*
X154104641Y-103302720D01*
X154096352Y-103218180D01*
X154096351Y-103218176D01*
X154095880Y-103213370D01*
X154077949Y-103153978D01*
X154055412Y-103079336D01*
X154036335Y-103016149D01*
X153939618Y-102834249D01*
X153809411Y-102674600D01*
X153662091Y-102552726D01*
X153654402Y-102546365D01*
X153654400Y-102546364D01*
X153650675Y-102543282D01*
X153469455Y-102445297D01*
X153406255Y-102425733D01*
X153277275Y-102385807D01*
X153277271Y-102385806D01*
X153272654Y-102384377D01*
X153267846Y-102383872D01*
X153267843Y-102383871D01*
X153072585Y-102363349D01*
X153072583Y-102363349D01*
X153067769Y-102362843D01*
X153007754Y-102368305D01*
X152867422Y-102381075D01*
X152867417Y-102381076D01*
X152862603Y-102381514D01*
X152664972Y-102439680D01*
X152660688Y-102441919D01*
X152660687Y-102441920D01*
X152649828Y-102447597D01*
X152482402Y-102535126D01*
X152478631Y-102538158D01*
X152325620Y-102661181D01*
X152325617Y-102661183D01*
X152321847Y-102664215D01*
X152318733Y-102667926D01*
X152318732Y-102667927D01*
X152204853Y-102803643D01*
X152189424Y-102822030D01*
X152187089Y-102826278D01*
X152187088Y-102826279D01*
X152169847Y-102857641D01*
X152090176Y-103002562D01*
X152088713Y-103007175D01*
X152088711Y-103007179D01*
X152088425Y-103008082D01*
X152027884Y-103198932D01*
X152027344Y-103203744D01*
X152027344Y-103203745D01*
X152013387Y-103328179D01*
X152004920Y-103403662D01*
X151574538Y-103403662D01*
X151566178Y-103318400D01*
X151556352Y-103218180D01*
X151556351Y-103218176D01*
X151555880Y-103213370D01*
X151537949Y-103153978D01*
X151515412Y-103079336D01*
X151496335Y-103016149D01*
X151399618Y-102834249D01*
X151269411Y-102674600D01*
X151122091Y-102552726D01*
X151114402Y-102546365D01*
X151114400Y-102546364D01*
X151110675Y-102543282D01*
X150929455Y-102445297D01*
X150866255Y-102425733D01*
X150737275Y-102385807D01*
X150737271Y-102385806D01*
X150732654Y-102384377D01*
X150727846Y-102383872D01*
X150727843Y-102383871D01*
X150532585Y-102363349D01*
X150532583Y-102363349D01*
X150527769Y-102362843D01*
X150467754Y-102368305D01*
X150327422Y-102381075D01*
X150327417Y-102381076D01*
X150322603Y-102381514D01*
X150124972Y-102439680D01*
X150120688Y-102441919D01*
X150120687Y-102441920D01*
X150109828Y-102447597D01*
X149942402Y-102535126D01*
X149938631Y-102538158D01*
X149785620Y-102661181D01*
X149785617Y-102661183D01*
X149781847Y-102664215D01*
X149778733Y-102667926D01*
X149778732Y-102667927D01*
X149664853Y-102803643D01*
X149649424Y-102822030D01*
X149647089Y-102826278D01*
X149647088Y-102826279D01*
X149629847Y-102857641D01*
X149550176Y-103002562D01*
X149548713Y-103007175D01*
X149548711Y-103007179D01*
X149548425Y-103008082D01*
X149487884Y-103198932D01*
X149487344Y-103203744D01*
X149487344Y-103203745D01*
X149473387Y-103328179D01*
X149464920Y-103403662D01*
X149034538Y-103403662D01*
X149026178Y-103318400D01*
X149016352Y-103218180D01*
X149016351Y-103218176D01*
X149015880Y-103213370D01*
X148997949Y-103153978D01*
X148975412Y-103079336D01*
X148956335Y-103016149D01*
X148859618Y-102834249D01*
X148729411Y-102674600D01*
X148582091Y-102552726D01*
X148574402Y-102546365D01*
X148574400Y-102546364D01*
X148570675Y-102543282D01*
X148389455Y-102445297D01*
X148326255Y-102425733D01*
X148197275Y-102385807D01*
X148197271Y-102385806D01*
X148192654Y-102384377D01*
X148187846Y-102383872D01*
X148187843Y-102383871D01*
X147992585Y-102363349D01*
X147992583Y-102363349D01*
X147987769Y-102362843D01*
X147927754Y-102368305D01*
X147787422Y-102381075D01*
X147787417Y-102381076D01*
X147782603Y-102381514D01*
X147584972Y-102439680D01*
X147580688Y-102441919D01*
X147580687Y-102441920D01*
X147569828Y-102447597D01*
X147402402Y-102535126D01*
X147398631Y-102538158D01*
X147245620Y-102661181D01*
X147245617Y-102661183D01*
X147241847Y-102664215D01*
X147238733Y-102667926D01*
X147238732Y-102667927D01*
X147124853Y-102803643D01*
X147109424Y-102822030D01*
X147107089Y-102826278D01*
X147107088Y-102826279D01*
X147089847Y-102857641D01*
X147010176Y-103002562D01*
X147008713Y-103007175D01*
X147008711Y-103007179D01*
X147008425Y-103008082D01*
X146947884Y-103198932D01*
X146947344Y-103203744D01*
X146947344Y-103203745D01*
X146933387Y-103328179D01*
X146924920Y-103403662D01*
X146494538Y-103403662D01*
X146486178Y-103318400D01*
X146476352Y-103218180D01*
X146476351Y-103218176D01*
X146475880Y-103213370D01*
X146457949Y-103153978D01*
X146435412Y-103079336D01*
X146416335Y-103016149D01*
X146319618Y-102834249D01*
X146189411Y-102674600D01*
X146042091Y-102552726D01*
X146034402Y-102546365D01*
X146034400Y-102546364D01*
X146030675Y-102543282D01*
X145849455Y-102445297D01*
X145786255Y-102425733D01*
X145657275Y-102385807D01*
X145657271Y-102385806D01*
X145652654Y-102384377D01*
X145647846Y-102383872D01*
X145647843Y-102383871D01*
X145452585Y-102363349D01*
X145452583Y-102363349D01*
X145447769Y-102362843D01*
X145387754Y-102368305D01*
X145247422Y-102381075D01*
X145247417Y-102381076D01*
X145242603Y-102381514D01*
X145044972Y-102439680D01*
X145040688Y-102441919D01*
X145040687Y-102441920D01*
X145029828Y-102447597D01*
X144862402Y-102535126D01*
X144858631Y-102538158D01*
X144705620Y-102661181D01*
X144705617Y-102661183D01*
X144701847Y-102664215D01*
X144698733Y-102667926D01*
X144698732Y-102667927D01*
X144584853Y-102803643D01*
X144569424Y-102822030D01*
X144567089Y-102826278D01*
X144567088Y-102826279D01*
X144549847Y-102857641D01*
X144470176Y-103002562D01*
X144468713Y-103007175D01*
X144468711Y-103007179D01*
X144468425Y-103008082D01*
X144407884Y-103198932D01*
X144407344Y-103203744D01*
X144407344Y-103203745D01*
X144393387Y-103328179D01*
X144384920Y-103403662D01*
X143954538Y-103403662D01*
X143946178Y-103318400D01*
X143936352Y-103218180D01*
X143936351Y-103218176D01*
X143935880Y-103213370D01*
X143917949Y-103153978D01*
X143895412Y-103079336D01*
X143876335Y-103016149D01*
X143779618Y-102834249D01*
X143649411Y-102674600D01*
X143502091Y-102552726D01*
X143494402Y-102546365D01*
X143494400Y-102546364D01*
X143490675Y-102543282D01*
X143309455Y-102445297D01*
X143246255Y-102425733D01*
X143117275Y-102385807D01*
X143117271Y-102385806D01*
X143112654Y-102384377D01*
X143107846Y-102383872D01*
X143107843Y-102383871D01*
X142912585Y-102363349D01*
X142912583Y-102363349D01*
X142907769Y-102362843D01*
X142847754Y-102368305D01*
X142707422Y-102381075D01*
X142707417Y-102381076D01*
X142702603Y-102381514D01*
X142504972Y-102439680D01*
X142500688Y-102441919D01*
X142500687Y-102441920D01*
X142489828Y-102447597D01*
X142322402Y-102535126D01*
X142318631Y-102538158D01*
X142165620Y-102661181D01*
X142165617Y-102661183D01*
X142161847Y-102664215D01*
X142158733Y-102667926D01*
X142158732Y-102667927D01*
X142044853Y-102803643D01*
X142029424Y-102822030D01*
X142027089Y-102826278D01*
X142027088Y-102826279D01*
X142009847Y-102857641D01*
X141930176Y-103002562D01*
X141928713Y-103007175D01*
X141928711Y-103007179D01*
X141928425Y-103008082D01*
X141867884Y-103198932D01*
X141867344Y-103203744D01*
X141867344Y-103203745D01*
X141853387Y-103328179D01*
X141844920Y-103403662D01*
X141263726Y-103403662D01*
X141273663Y-103328179D01*
X141253025Y-103171417D01*
X141192517Y-103025338D01*
X141096263Y-102899897D01*
X140970822Y-102803643D01*
X140824743Y-102743135D01*
X140667981Y-102722497D01*
X140511219Y-102743135D01*
X140479752Y-102756169D01*
X140418757Y-102760970D01*
X140366587Y-102729001D01*
X140343172Y-102672473D01*
X140343714Y-102651783D01*
X140355635Y-102561234D01*
X140356482Y-102554800D01*
X140335844Y-102398038D01*
X140275336Y-102251959D01*
X140179082Y-102126518D01*
X140053641Y-102030264D01*
X139907562Y-101969756D01*
X139750800Y-101949118D01*
X139594038Y-101969756D01*
X139447959Y-102030264D01*
X139322518Y-102126518D01*
X139226264Y-102251959D01*
X139165756Y-102398038D01*
X139145118Y-102554800D01*
X137491618Y-102554800D01*
X137511682Y-102402400D01*
X137491044Y-102245638D01*
X137430536Y-102099559D01*
X137334282Y-101974118D01*
X137208841Y-101877864D01*
X137062762Y-101817356D01*
X136906000Y-101796718D01*
X136749238Y-101817356D01*
X136603159Y-101877864D01*
X136477718Y-101974118D01*
X136381464Y-102099559D01*
X136320956Y-102245638D01*
X136300318Y-102402400D01*
X128368400Y-102402400D01*
X128368400Y-100810066D01*
X131485169Y-100810066D01*
X131505807Y-100966828D01*
X131566315Y-101112907D01*
X131662569Y-101238348D01*
X131788010Y-101334602D01*
X131934089Y-101395110D01*
X132090851Y-101415748D01*
X132247613Y-101395110D01*
X132393692Y-101334602D01*
X132519133Y-101238348D01*
X132615387Y-101112907D01*
X132675895Y-100966828D01*
X132696533Y-100810066D01*
X132675895Y-100653304D01*
X132615387Y-100507225D01*
X132519133Y-100381784D01*
X132393692Y-100285530D01*
X132247613Y-100225022D01*
X132090851Y-100204384D01*
X131934089Y-100225022D01*
X131788010Y-100285530D01*
X131662569Y-100381784D01*
X131566315Y-100507225D01*
X131505807Y-100653304D01*
X131485169Y-100810066D01*
X128368400Y-100810066D01*
X128368400Y-99862400D01*
X135131918Y-99862400D01*
X135152556Y-100019162D01*
X135213064Y-100165241D01*
X135309318Y-100290682D01*
X135434759Y-100386936D01*
X135580838Y-100447444D01*
X135737600Y-100468082D01*
X135894362Y-100447444D01*
X136040441Y-100386936D01*
X136165882Y-100290682D01*
X136262136Y-100165241D01*
X136322644Y-100019162D01*
X136343282Y-99862400D01*
X136322644Y-99705638D01*
X136262136Y-99559559D01*
X136165882Y-99434118D01*
X136040441Y-99337864D01*
X135894362Y-99277356D01*
X135874590Y-99274753D01*
X135819365Y-99248412D01*
X135817670Y-99245290D01*
X152826546Y-99245290D01*
X152826985Y-99250112D01*
X152844200Y-99439271D01*
X152845573Y-99454362D01*
X152846939Y-99459004D01*
X152846940Y-99459008D01*
X152903479Y-99651110D01*
X152904847Y-99655757D01*
X153002109Y-99841803D01*
X153005145Y-99845579D01*
X153005147Y-99845582D01*
X153130623Y-100001642D01*
X153133656Y-100005414D01*
X153137361Y-100008523D01*
X153137364Y-100008526D01*
X153290761Y-100137241D01*
X153294476Y-100140358D01*
X153478445Y-100241496D01*
X153483057Y-100242959D01*
X153673935Y-100303509D01*
X153673937Y-100303509D01*
X153678554Y-100304974D01*
X153776398Y-100315949D01*
X153839180Y-100322991D01*
X153839182Y-100322991D01*
X153841936Y-100323300D01*
X154405030Y-100323300D01*
X154407424Y-100323065D01*
X154407429Y-100323065D01*
X154556324Y-100308466D01*
X154556328Y-100308465D01*
X154561134Y-100307994D01*
X154565759Y-100306598D01*
X154565762Y-100306597D01*
X154643763Y-100283047D01*
X154762110Y-100247316D01*
X154947472Y-100148757D01*
X155110161Y-100016071D01*
X155243979Y-99854313D01*
X155343830Y-99669643D01*
X155405910Y-99469095D01*
X155406971Y-99459008D01*
X155427348Y-99265126D01*
X155427348Y-99265124D01*
X155427854Y-99260310D01*
X155416357Y-99133980D01*
X155409266Y-99056058D01*
X155409265Y-99056055D01*
X155408827Y-99051238D01*
X155398992Y-99017819D01*
X155350921Y-98854490D01*
X155350920Y-98854487D01*
X155349553Y-98849843D01*
X155252291Y-98663797D01*
X155244060Y-98653559D01*
X155123777Y-98503958D01*
X155123776Y-98503957D01*
X155120744Y-98500186D01*
X155117039Y-98497077D01*
X155117036Y-98497074D01*
X154963639Y-98368359D01*
X154963637Y-98368358D01*
X154959924Y-98365242D01*
X154775955Y-98264104D01*
X154716491Y-98245241D01*
X154580465Y-98202091D01*
X154580463Y-98202091D01*
X154575846Y-98200626D01*
X154462916Y-98187959D01*
X154415220Y-98182609D01*
X154415218Y-98182609D01*
X154412464Y-98182300D01*
X153849370Y-98182300D01*
X153846976Y-98182535D01*
X153846971Y-98182535D01*
X153698076Y-98197134D01*
X153698072Y-98197135D01*
X153693266Y-98197606D01*
X153688641Y-98199002D01*
X153688638Y-98199003D01*
X153619388Y-98219911D01*
X153492290Y-98258284D01*
X153306928Y-98356843D01*
X153144239Y-98489529D01*
X153010421Y-98651287D01*
X152910570Y-98835957D01*
X152909141Y-98840574D01*
X152883615Y-98923036D01*
X152848490Y-99036505D01*
X152847985Y-99041313D01*
X152847984Y-99041316D01*
X152831869Y-99194641D01*
X152826546Y-99245290D01*
X135817670Y-99245290D01*
X135790170Y-99194641D01*
X135798156Y-99133980D01*
X135840273Y-99089597D01*
X135874590Y-99078447D01*
X135894362Y-99075844D01*
X136040441Y-99015336D01*
X136165882Y-98919082D01*
X136262136Y-98793641D01*
X136322644Y-98647562D01*
X136343282Y-98490800D01*
X136322644Y-98334038D01*
X136262136Y-98187959D01*
X136165882Y-98062518D01*
X136085917Y-98001159D01*
X136051263Y-97950735D01*
X136051481Y-97942400D01*
X141126318Y-97942400D01*
X141146956Y-98099162D01*
X141207464Y-98245241D01*
X141303718Y-98370682D01*
X141429159Y-98466936D01*
X141575238Y-98527444D01*
X141732000Y-98548082D01*
X141888762Y-98527444D01*
X142034841Y-98466936D01*
X142160282Y-98370682D01*
X142256536Y-98245241D01*
X142317044Y-98099162D01*
X142337682Y-97942400D01*
X142334914Y-97921371D01*
X142330860Y-97890582D01*
X142317044Y-97785638D01*
X142302402Y-97750289D01*
X142297601Y-97689294D01*
X142329570Y-97637124D01*
X142386098Y-97613709D01*
X142445593Y-97627992D01*
X142454133Y-97633862D01*
X142503702Y-97671897D01*
X142546759Y-97704936D01*
X142692838Y-97765444D01*
X142824031Y-97782716D01*
X142828469Y-97783300D01*
X142849600Y-97786082D01*
X142870732Y-97783300D01*
X142875169Y-97782716D01*
X143006362Y-97765444D01*
X143152441Y-97704936D01*
X143277882Y-97608682D01*
X143374136Y-97483241D01*
X143434644Y-97337162D01*
X143455282Y-97180400D01*
X143434644Y-97023638D01*
X143374136Y-96877559D01*
X143277882Y-96752118D01*
X143216854Y-96705290D01*
X152826546Y-96705290D01*
X152826985Y-96710112D01*
X152842865Y-96884603D01*
X152845573Y-96914362D01*
X152846939Y-96919004D01*
X152846940Y-96919008D01*
X152903479Y-97111110D01*
X152904847Y-97115757D01*
X153002109Y-97301803D01*
X153005145Y-97305579D01*
X153005147Y-97305582D01*
X153130623Y-97461642D01*
X153133656Y-97465414D01*
X153137361Y-97468523D01*
X153137364Y-97468526D01*
X153285576Y-97592890D01*
X153294476Y-97600358D01*
X153298724Y-97602694D01*
X153298725Y-97602694D01*
X153318761Y-97613709D01*
X153478445Y-97701496D01*
X153483057Y-97702959D01*
X153673935Y-97763509D01*
X153673937Y-97763509D01*
X153678554Y-97764974D01*
X153776398Y-97775949D01*
X153839180Y-97782991D01*
X153839182Y-97782991D01*
X153841936Y-97783300D01*
X154405030Y-97783300D01*
X154407424Y-97783065D01*
X154407429Y-97783065D01*
X154556324Y-97768466D01*
X154556328Y-97768465D01*
X154561134Y-97767994D01*
X154565759Y-97766598D01*
X154565762Y-97766597D01*
X154635012Y-97745689D01*
X154762110Y-97707316D01*
X154947472Y-97608757D01*
X155110161Y-97476071D01*
X155122098Y-97461642D01*
X155240896Y-97318040D01*
X155240897Y-97318038D01*
X155243979Y-97314313D01*
X155343830Y-97129643D01*
X155376644Y-97023638D01*
X155404480Y-96933716D01*
X155404481Y-96933712D01*
X155405910Y-96929095D01*
X155406971Y-96919008D01*
X155427348Y-96725126D01*
X155427348Y-96725124D01*
X155427854Y-96720310D01*
X155408827Y-96511238D01*
X155408211Y-96509146D01*
X155415770Y-96449277D01*
X155457651Y-96404672D01*
X155518273Y-96393270D01*
X155593966Y-96403235D01*
X155600400Y-96404082D01*
X155757162Y-96383444D01*
X155903241Y-96322936D01*
X156028682Y-96226682D01*
X156124936Y-96101241D01*
X156185444Y-95955162D01*
X156206082Y-95798400D01*
X156185444Y-95641638D01*
X156124936Y-95495559D01*
X156028682Y-95370118D01*
X155903241Y-95273864D01*
X155757162Y-95213356D01*
X155600400Y-95192718D01*
X155443638Y-95213356D01*
X155297559Y-95273864D01*
X155172118Y-95370118D01*
X155075864Y-95495559D01*
X155015356Y-95641638D01*
X155007982Y-95697650D01*
X154981641Y-95752875D01*
X154927871Y-95782070D01*
X154862135Y-95771482D01*
X154780195Y-95726435D01*
X154775955Y-95724104D01*
X154692561Y-95697650D01*
X154580465Y-95662091D01*
X154580463Y-95662091D01*
X154575846Y-95660626D01*
X154463941Y-95648074D01*
X154415220Y-95642609D01*
X154415218Y-95642609D01*
X154412464Y-95642300D01*
X153849370Y-95642300D01*
X153846976Y-95642535D01*
X153846971Y-95642535D01*
X153698076Y-95657134D01*
X153698072Y-95657135D01*
X153693266Y-95657606D01*
X153688641Y-95659002D01*
X153688638Y-95659003D01*
X153619388Y-95679911D01*
X153492290Y-95718284D01*
X153306928Y-95816843D01*
X153144239Y-95949529D01*
X153010421Y-96111287D01*
X152910570Y-96295957D01*
X152909141Y-96300574D01*
X152863110Y-96449277D01*
X152848490Y-96496505D01*
X152847985Y-96501313D01*
X152847984Y-96501316D01*
X152830684Y-96665918D01*
X152826546Y-96705290D01*
X143216854Y-96705290D01*
X143152441Y-96655864D01*
X143006362Y-96595356D01*
X142849600Y-96574718D01*
X142692838Y-96595356D01*
X142546759Y-96655864D01*
X142421318Y-96752118D01*
X142325064Y-96877559D01*
X142264556Y-97023638D01*
X142243918Y-97180400D01*
X142264556Y-97337162D01*
X142267040Y-97343159D01*
X142279198Y-97372510D01*
X142283999Y-97433506D01*
X142252030Y-97485676D01*
X142195502Y-97509091D01*
X142136007Y-97494808D01*
X142127467Y-97488938D01*
X142039990Y-97421815D01*
X142034841Y-97417864D01*
X141888762Y-97357356D01*
X141732000Y-97336718D01*
X141575238Y-97357356D01*
X141429159Y-97417864D01*
X141303718Y-97514118D01*
X141207464Y-97639559D01*
X141146956Y-97785638D01*
X141133140Y-97890582D01*
X141129087Y-97921371D01*
X141126318Y-97942400D01*
X136051481Y-97942400D01*
X136052865Y-97889571D01*
X136090112Y-97841029D01*
X136108300Y-97831154D01*
X136192841Y-97796136D01*
X136318282Y-97699882D01*
X136339756Y-97671897D01*
X136390178Y-97637241D01*
X136451343Y-97638842D01*
X136496839Y-97671897D01*
X136528518Y-97713182D01*
X136653959Y-97809436D01*
X136800038Y-97869944D01*
X136915297Y-97885118D01*
X136949121Y-97889571D01*
X136956800Y-97890582D01*
X136964480Y-97889571D01*
X136998303Y-97885118D01*
X137113562Y-97869944D01*
X137259641Y-97809436D01*
X137385082Y-97713182D01*
X137481336Y-97587741D01*
X137541844Y-97441662D01*
X137562482Y-97284900D01*
X137541844Y-97128138D01*
X137481336Y-96982059D01*
X137385082Y-96856618D01*
X137259641Y-96760364D01*
X137113562Y-96699856D01*
X136956800Y-96679218D01*
X136800038Y-96699856D01*
X136653959Y-96760364D01*
X136528518Y-96856618D01*
X136507044Y-96884603D01*
X136456622Y-96919259D01*
X136395457Y-96917658D01*
X136349961Y-96884603D01*
X136322236Y-96848471D01*
X136318282Y-96843318D01*
X136192841Y-96747064D01*
X136046762Y-96686556D01*
X135890000Y-96665918D01*
X135733238Y-96686556D01*
X135587159Y-96747064D01*
X135461718Y-96843318D01*
X135365464Y-96968759D01*
X135304956Y-97114838D01*
X135284318Y-97271600D01*
X135304956Y-97428362D01*
X135365464Y-97574441D01*
X135461718Y-97699882D01*
X135541682Y-97761240D01*
X135576337Y-97811665D01*
X135574735Y-97872829D01*
X135537488Y-97921371D01*
X135519301Y-97931246D01*
X135434759Y-97966264D01*
X135309318Y-98062518D01*
X135213064Y-98187959D01*
X135152556Y-98334038D01*
X135131918Y-98490800D01*
X135152556Y-98647562D01*
X135213064Y-98793641D01*
X135309318Y-98919082D01*
X135434759Y-99015336D01*
X135580838Y-99075844D01*
X135600610Y-99078447D01*
X135655835Y-99104788D01*
X135685030Y-99158559D01*
X135677044Y-99219220D01*
X135634927Y-99263603D01*
X135600610Y-99274753D01*
X135580838Y-99277356D01*
X135434759Y-99337864D01*
X135309318Y-99434118D01*
X135213064Y-99559559D01*
X135152556Y-99705638D01*
X135131918Y-99862400D01*
X128368400Y-99862400D01*
X128368400Y-94716921D01*
X129354018Y-94716921D01*
X129374656Y-94873683D01*
X129435164Y-95019762D01*
X129531418Y-95145203D01*
X129656859Y-95241457D01*
X129802938Y-95301965D01*
X129959700Y-95322603D01*
X130116462Y-95301965D01*
X130262541Y-95241457D01*
X130387982Y-95145203D01*
X130484236Y-95019762D01*
X130494079Y-94996000D01*
X147069918Y-94996000D01*
X147090556Y-95152762D01*
X147151064Y-95298841D01*
X147247318Y-95424282D01*
X147372759Y-95520536D01*
X147518838Y-95581044D01*
X147675600Y-95601682D01*
X147832362Y-95581044D01*
X147978441Y-95520536D01*
X148103882Y-95424282D01*
X148200136Y-95298841D01*
X148260644Y-95152762D01*
X148281282Y-94996000D01*
X148260644Y-94839238D01*
X148200136Y-94693159D01*
X148103882Y-94567718D01*
X147978441Y-94471464D01*
X147832362Y-94410956D01*
X147675600Y-94390318D01*
X147518838Y-94410956D01*
X147372759Y-94471464D01*
X147247318Y-94567718D01*
X147151064Y-94693159D01*
X147090556Y-94839238D01*
X147069918Y-94996000D01*
X130494079Y-94996000D01*
X130544744Y-94873683D01*
X130565382Y-94716921D01*
X130544744Y-94560159D01*
X130484236Y-94414080D01*
X130387982Y-94288639D01*
X130262541Y-94192385D01*
X130116462Y-94131877D01*
X129959700Y-94111239D01*
X129802938Y-94131877D01*
X129656859Y-94192385D01*
X129531418Y-94288639D01*
X129435164Y-94414080D01*
X129374656Y-94560159D01*
X129354018Y-94716921D01*
X128368400Y-94716921D01*
X128368400Y-92840300D01*
X131700853Y-92840300D01*
X131721491Y-92997062D01*
X131781999Y-93143141D01*
X131878253Y-93268582D01*
X132003694Y-93364836D01*
X132009685Y-93367318D01*
X132009691Y-93367321D01*
X132089973Y-93400574D01*
X132136499Y-93440310D01*
X132150783Y-93499805D01*
X132127368Y-93556333D01*
X132089974Y-93583502D01*
X132031159Y-93607864D01*
X131905718Y-93704118D01*
X131809464Y-93829559D01*
X131748956Y-93975638D01*
X131728318Y-94132400D01*
X131748956Y-94289162D01*
X131809464Y-94435241D01*
X131905718Y-94560682D01*
X132031159Y-94656936D01*
X132106178Y-94688010D01*
X132160438Y-94710485D01*
X132177238Y-94717444D01*
X132334000Y-94738082D01*
X132490762Y-94717444D01*
X132507563Y-94710485D01*
X132561822Y-94688010D01*
X132636841Y-94656936D01*
X132762282Y-94560682D01*
X132858536Y-94435241D01*
X132919044Y-94289162D01*
X132939682Y-94132400D01*
X132939093Y-94127925D01*
X137214718Y-94127925D01*
X137235356Y-94284687D01*
X137295864Y-94430766D01*
X137392118Y-94556207D01*
X137517559Y-94652461D01*
X137663638Y-94712969D01*
X137820400Y-94733607D01*
X137977162Y-94712969D01*
X138123241Y-94652461D01*
X138248682Y-94556207D01*
X138344936Y-94430766D01*
X138405444Y-94284687D01*
X138423209Y-94149751D01*
X139178567Y-94149751D01*
X139199205Y-94306513D01*
X139259713Y-94452592D01*
X139355967Y-94578033D01*
X139481408Y-94674287D01*
X139627487Y-94734795D01*
X139784249Y-94755433D01*
X139941011Y-94734795D01*
X140087090Y-94674287D01*
X140212531Y-94578033D01*
X140308785Y-94452592D01*
X140369293Y-94306513D01*
X140389931Y-94149751D01*
X140369293Y-93992989D01*
X140308785Y-93846910D01*
X140293968Y-93827600D01*
X146257118Y-93827600D01*
X146277756Y-93984362D01*
X146338264Y-94130441D01*
X146434518Y-94255882D01*
X146559959Y-94352136D01*
X146706038Y-94412644D01*
X146862800Y-94433282D01*
X147019562Y-94412644D01*
X147165641Y-94352136D01*
X147291082Y-94255882D01*
X147360595Y-94165290D01*
X152826546Y-94165290D01*
X152826985Y-94170112D01*
X152843191Y-94348185D01*
X152845573Y-94374362D01*
X152846939Y-94379004D01*
X152846940Y-94379008D01*
X152899093Y-94556207D01*
X152904847Y-94575757D01*
X153002109Y-94761803D01*
X153005145Y-94765579D01*
X153005147Y-94765582D01*
X153069543Y-94845674D01*
X153133656Y-94925414D01*
X153137361Y-94928523D01*
X153137364Y-94928526D01*
X153290761Y-95057241D01*
X153294476Y-95060358D01*
X153478445Y-95161496D01*
X153483057Y-95162959D01*
X153673935Y-95223509D01*
X153673937Y-95223509D01*
X153678554Y-95224974D01*
X153776398Y-95235949D01*
X153839180Y-95242991D01*
X153839182Y-95242991D01*
X153841936Y-95243300D01*
X154405030Y-95243300D01*
X154407424Y-95243065D01*
X154407429Y-95243065D01*
X154556324Y-95228466D01*
X154556328Y-95228465D01*
X154561134Y-95227994D01*
X154565759Y-95226598D01*
X154565762Y-95226597D01*
X154635012Y-95205689D01*
X154762110Y-95167316D01*
X154947472Y-95068757D01*
X155110161Y-94936071D01*
X155190268Y-94839238D01*
X155240896Y-94778040D01*
X155240897Y-94778038D01*
X155243979Y-94774313D01*
X155343830Y-94589643D01*
X155363845Y-94524986D01*
X155404480Y-94393716D01*
X155404481Y-94393712D01*
X155405910Y-94389095D01*
X155406971Y-94379008D01*
X155427348Y-94185126D01*
X155427348Y-94185124D01*
X155427854Y-94180310D01*
X155411392Y-93999425D01*
X155409266Y-93976058D01*
X155409265Y-93976055D01*
X155408827Y-93971238D01*
X155404574Y-93956785D01*
X155350921Y-93774490D01*
X155350920Y-93774487D01*
X155349553Y-93769843D01*
X155252291Y-93583797D01*
X155242908Y-93572126D01*
X155123777Y-93423958D01*
X155123776Y-93423957D01*
X155120744Y-93420186D01*
X155117039Y-93417077D01*
X155117036Y-93417074D01*
X154963639Y-93288359D01*
X154963637Y-93288358D01*
X154959924Y-93285242D01*
X154775955Y-93184104D01*
X154753201Y-93176886D01*
X154580465Y-93122091D01*
X154580463Y-93122091D01*
X154575846Y-93120626D01*
X154478002Y-93109651D01*
X154415220Y-93102609D01*
X154415218Y-93102609D01*
X154412464Y-93102300D01*
X153849370Y-93102300D01*
X153846976Y-93102535D01*
X153846971Y-93102535D01*
X153698076Y-93117134D01*
X153698072Y-93117135D01*
X153693266Y-93117606D01*
X153688641Y-93119002D01*
X153688638Y-93119003D01*
X153641089Y-93133359D01*
X153492290Y-93178284D01*
X153306928Y-93276843D01*
X153144239Y-93409529D01*
X153141155Y-93413257D01*
X153141154Y-93413258D01*
X153013810Y-93567191D01*
X153010421Y-93571287D01*
X152910570Y-93755957D01*
X152909141Y-93760574D01*
X152880560Y-93852905D01*
X152848490Y-93956505D01*
X152847985Y-93961313D01*
X152847984Y-93961316D01*
X152828855Y-94143317D01*
X152826546Y-94165290D01*
X147360595Y-94165290D01*
X147387336Y-94130441D01*
X147447844Y-93984362D01*
X147468482Y-93827600D01*
X147447844Y-93670838D01*
X147387336Y-93524759D01*
X147291082Y-93399318D01*
X147165641Y-93303064D01*
X147019562Y-93242556D01*
X146862800Y-93221918D01*
X146706038Y-93242556D01*
X146559959Y-93303064D01*
X146434518Y-93399318D01*
X146338264Y-93524759D01*
X146277756Y-93670838D01*
X146257118Y-93827600D01*
X140293968Y-93827600D01*
X140212531Y-93721469D01*
X140087090Y-93625215D01*
X139958922Y-93572126D01*
X139947008Y-93567191D01*
X139941011Y-93564707D01*
X139784249Y-93544069D01*
X139627487Y-93564707D01*
X139621490Y-93567191D01*
X139609576Y-93572126D01*
X139481408Y-93625215D01*
X139355967Y-93721469D01*
X139259713Y-93846910D01*
X139199205Y-93992989D01*
X139178567Y-94149751D01*
X138423209Y-94149751D01*
X138426082Y-94127925D01*
X138405444Y-93971163D01*
X138402154Y-93963219D01*
X138356460Y-93852905D01*
X138344936Y-93825084D01*
X138248682Y-93699643D01*
X138123241Y-93603389D01*
X137977162Y-93542881D01*
X137820400Y-93522243D01*
X137663638Y-93542881D01*
X137517559Y-93603389D01*
X137392118Y-93699643D01*
X137295864Y-93825084D01*
X137284340Y-93852905D01*
X137238647Y-93963219D01*
X137235356Y-93971163D01*
X137214718Y-94127925D01*
X132939093Y-94127925D01*
X132919044Y-93975638D01*
X132858536Y-93829559D01*
X132762282Y-93704118D01*
X132636841Y-93607864D01*
X132630847Y-93605381D01*
X132630844Y-93605379D01*
X132550562Y-93572126D01*
X132504036Y-93532390D01*
X132489752Y-93472895D01*
X132504952Y-93436200D01*
X135131918Y-93436200D01*
X135152556Y-93592962D01*
X135155040Y-93598959D01*
X135156875Y-93603389D01*
X135213064Y-93739041D01*
X135309318Y-93864482D01*
X135434759Y-93960736D01*
X135580838Y-94021244D01*
X135737600Y-94041882D01*
X135894362Y-94021244D01*
X136040441Y-93960736D01*
X136165882Y-93864482D01*
X136262136Y-93739041D01*
X136318325Y-93603389D01*
X136320160Y-93598959D01*
X136322644Y-93592962D01*
X136343282Y-93436200D01*
X136322644Y-93279438D01*
X136262136Y-93133359D01*
X136165882Y-93007918D01*
X136040441Y-92911664D01*
X135963911Y-92879964D01*
X135917385Y-92840227D01*
X135903102Y-92780732D01*
X135926517Y-92724204D01*
X135963911Y-92697036D01*
X135996615Y-92683490D01*
X136040441Y-92665336D01*
X136165882Y-92569082D01*
X136262136Y-92443641D01*
X136322644Y-92297562D01*
X136343282Y-92140800D01*
X136322644Y-91984038D01*
X136262136Y-91837959D01*
X136165882Y-91712518D01*
X136141749Y-91694000D01*
X148390718Y-91694000D01*
X148411356Y-91850762D01*
X148471864Y-91996841D01*
X148568118Y-92122282D01*
X148693559Y-92218536D01*
X148839638Y-92279044D01*
X148996400Y-92299682D01*
X149153162Y-92279044D01*
X149299241Y-92218536D01*
X149424682Y-92122282D01*
X149520936Y-91996841D01*
X149581444Y-91850762D01*
X149602082Y-91694000D01*
X149593036Y-91625290D01*
X152826546Y-91625290D01*
X152826985Y-91630112D01*
X152834125Y-91708564D01*
X152845573Y-91834362D01*
X152846939Y-91839004D01*
X152846940Y-91839008D01*
X152903479Y-92031110D01*
X152904847Y-92035757D01*
X153002109Y-92221803D01*
X153005145Y-92225579D01*
X153005147Y-92225582D01*
X153075659Y-92313281D01*
X153133656Y-92385414D01*
X153137361Y-92388523D01*
X153137364Y-92388526D01*
X153290761Y-92517241D01*
X153294476Y-92520358D01*
X153298724Y-92522694D01*
X153298725Y-92522694D01*
X153336487Y-92543454D01*
X153478445Y-92621496D01*
X153483057Y-92622959D01*
X153673935Y-92683509D01*
X153673937Y-92683509D01*
X153678554Y-92684974D01*
X153776398Y-92695949D01*
X153839180Y-92702991D01*
X153839182Y-92702991D01*
X153841936Y-92703300D01*
X154405030Y-92703300D01*
X154407424Y-92703065D01*
X154407429Y-92703065D01*
X154556324Y-92688466D01*
X154556328Y-92688465D01*
X154561134Y-92687994D01*
X154565759Y-92686598D01*
X154565762Y-92686597D01*
X154636181Y-92665336D01*
X154762110Y-92627316D01*
X154947472Y-92528757D01*
X155110161Y-92396071D01*
X155209029Y-92276560D01*
X155240896Y-92238040D01*
X155240897Y-92238038D01*
X155243979Y-92234313D01*
X155343830Y-92049643D01*
X155405910Y-91849095D01*
X155406451Y-91843954D01*
X155427348Y-91645126D01*
X155427348Y-91645124D01*
X155427854Y-91640310D01*
X155420082Y-91554909D01*
X155409266Y-91436058D01*
X155409265Y-91436055D01*
X155408827Y-91431238D01*
X155398796Y-91397154D01*
X155350921Y-91234490D01*
X155350920Y-91234487D01*
X155349553Y-91229843D01*
X155252291Y-91043797D01*
X155158897Y-90927638D01*
X155123777Y-90883958D01*
X155123776Y-90883957D01*
X155120744Y-90880186D01*
X155117039Y-90877077D01*
X155117036Y-90877074D01*
X154963639Y-90748359D01*
X154963637Y-90748358D01*
X154959924Y-90745242D01*
X154775955Y-90644104D01*
X154753201Y-90636886D01*
X154580465Y-90582091D01*
X154580463Y-90582091D01*
X154575846Y-90580626D01*
X154478002Y-90569651D01*
X154415220Y-90562609D01*
X154415218Y-90562609D01*
X154412464Y-90562300D01*
X153849370Y-90562300D01*
X153846976Y-90562535D01*
X153846971Y-90562535D01*
X153698076Y-90577134D01*
X153698072Y-90577135D01*
X153693266Y-90577606D01*
X153688641Y-90579002D01*
X153688638Y-90579003D01*
X153619388Y-90599911D01*
X153492290Y-90638284D01*
X153306928Y-90736843D01*
X153144239Y-90869529D01*
X153010421Y-91031287D01*
X152910570Y-91215957D01*
X152909141Y-91220574D01*
X152855955Y-91392390D01*
X152848490Y-91416505D01*
X152847985Y-91421313D01*
X152847984Y-91421316D01*
X152827079Y-91620215D01*
X152826546Y-91625290D01*
X149593036Y-91625290D01*
X149581444Y-91537238D01*
X149520936Y-91391159D01*
X149424682Y-91265718D01*
X149299241Y-91169464D01*
X149153162Y-91108956D01*
X148996400Y-91088318D01*
X148839638Y-91108956D01*
X148693559Y-91169464D01*
X148568118Y-91265718D01*
X148471864Y-91391159D01*
X148411356Y-91537238D01*
X148390718Y-91694000D01*
X136141749Y-91694000D01*
X136040441Y-91616264D01*
X135894362Y-91555756D01*
X135737600Y-91535118D01*
X135580838Y-91555756D01*
X135434759Y-91616264D01*
X135309318Y-91712518D01*
X135213064Y-91837959D01*
X135152556Y-91984038D01*
X135131918Y-92140800D01*
X135152556Y-92297562D01*
X135213064Y-92443641D01*
X135309318Y-92569082D01*
X135434759Y-92665336D01*
X135478585Y-92683490D01*
X135511289Y-92697036D01*
X135557815Y-92736773D01*
X135572098Y-92796268D01*
X135548683Y-92852796D01*
X135511288Y-92879964D01*
X135434759Y-92911664D01*
X135309318Y-93007918D01*
X135213064Y-93133359D01*
X135152556Y-93279438D01*
X135131918Y-93436200D01*
X132504952Y-93436200D01*
X132513167Y-93416367D01*
X132550561Y-93389198D01*
X132609376Y-93364836D01*
X132734817Y-93268582D01*
X132831071Y-93143141D01*
X132891579Y-92997062D01*
X132912217Y-92840300D01*
X132891579Y-92683538D01*
X132831071Y-92537459D01*
X132734817Y-92412018D01*
X132609376Y-92315764D01*
X132463297Y-92255256D01*
X132306535Y-92234618D01*
X132149773Y-92255256D01*
X132003694Y-92315764D01*
X131878253Y-92412018D01*
X131781999Y-92537459D01*
X131721491Y-92683538D01*
X131700853Y-92840300D01*
X128368400Y-92840300D01*
X128368400Y-91084400D01*
X139551518Y-91084400D01*
X139572156Y-91241162D01*
X139632664Y-91387241D01*
X139728918Y-91512682D01*
X139854359Y-91608936D01*
X140000438Y-91669444D01*
X140157200Y-91690082D01*
X140313962Y-91669444D01*
X140460041Y-91608936D01*
X140585482Y-91512682D01*
X140681736Y-91387241D01*
X140742244Y-91241162D01*
X140762882Y-91084400D01*
X140742244Y-90927638D01*
X140681736Y-90781559D01*
X140585482Y-90656118D01*
X140460041Y-90559864D01*
X140313962Y-90499356D01*
X140157200Y-90478718D01*
X140000438Y-90499356D01*
X139854359Y-90559864D01*
X139728918Y-90656118D01*
X139632664Y-90781559D01*
X139572156Y-90927638D01*
X139551518Y-91084400D01*
X128368400Y-91084400D01*
X128368400Y-88856049D01*
X129340718Y-88856049D01*
X129361356Y-89012811D01*
X129421864Y-89158890D01*
X129518118Y-89284331D01*
X129544122Y-89304284D01*
X129548163Y-89307385D01*
X129582819Y-89357809D01*
X129581218Y-89418973D01*
X129548165Y-89464468D01*
X129531418Y-89477318D01*
X129435164Y-89602759D01*
X129374656Y-89748838D01*
X129354018Y-89905600D01*
X129374656Y-90062362D01*
X129435164Y-90208441D01*
X129531418Y-90333882D01*
X129656859Y-90430136D01*
X129802938Y-90490644D01*
X129959700Y-90511282D01*
X130116462Y-90490644D01*
X130262541Y-90430136D01*
X130387982Y-90333882D01*
X130484236Y-90208441D01*
X130544744Y-90062362D01*
X130565382Y-89905600D01*
X130544744Y-89748838D01*
X130508774Y-89662000D01*
X146155518Y-89662000D01*
X146176156Y-89818762D01*
X146236664Y-89964841D01*
X146332918Y-90090282D01*
X146458359Y-90186536D01*
X146604438Y-90247044D01*
X146761200Y-90267682D01*
X146917962Y-90247044D01*
X147064041Y-90186536D01*
X147189482Y-90090282D01*
X147193436Y-90085129D01*
X147198020Y-90080545D01*
X147199885Y-90082410D01*
X147241070Y-90054096D01*
X147302235Y-90055690D01*
X147338724Y-90082201D01*
X147340380Y-90080545D01*
X147344964Y-90085129D01*
X147348918Y-90090282D01*
X147474359Y-90186536D01*
X147620438Y-90247044D01*
X147777200Y-90267682D01*
X147933962Y-90247044D01*
X148080041Y-90186536D01*
X148205482Y-90090282D01*
X148301736Y-89964841D01*
X148362244Y-89818762D01*
X148382882Y-89662000D01*
X148362244Y-89505238D01*
X148301736Y-89359159D01*
X148205482Y-89233718D01*
X148080041Y-89137464D01*
X147954082Y-89085290D01*
X152826546Y-89085290D01*
X152826985Y-89090112D01*
X152845020Y-89288282D01*
X152845573Y-89294362D01*
X152846939Y-89299004D01*
X152846940Y-89299008D01*
X152903479Y-89491110D01*
X152904847Y-89495757D01*
X153002109Y-89681803D01*
X153005145Y-89685579D01*
X153005147Y-89685582D01*
X153061181Y-89755274D01*
X153133656Y-89845414D01*
X153137361Y-89848523D01*
X153137364Y-89848526D01*
X153282120Y-89969990D01*
X153294476Y-89980358D01*
X153478445Y-90081496D01*
X153483057Y-90082959D01*
X153673935Y-90143509D01*
X153673937Y-90143509D01*
X153678554Y-90144974D01*
X153776398Y-90155949D01*
X153839180Y-90162991D01*
X153839182Y-90162991D01*
X153841936Y-90163300D01*
X154405030Y-90163300D01*
X154407424Y-90163065D01*
X154407429Y-90163065D01*
X154556324Y-90148466D01*
X154556328Y-90148465D01*
X154561134Y-90147994D01*
X154565759Y-90146598D01*
X154565762Y-90146597D01*
X154635012Y-90125689D01*
X154762110Y-90087316D01*
X154947472Y-89988757D01*
X155110161Y-89856071D01*
X155243979Y-89694313D01*
X155343830Y-89509643D01*
X155383780Y-89380585D01*
X155404480Y-89313716D01*
X155404481Y-89313712D01*
X155405910Y-89309095D01*
X155406971Y-89299008D01*
X155427348Y-89105126D01*
X155427348Y-89105124D01*
X155427854Y-89100310D01*
X155408827Y-88891238D01*
X155398471Y-88856049D01*
X155350921Y-88694490D01*
X155350920Y-88694487D01*
X155349553Y-88689843D01*
X155252291Y-88503797D01*
X155195305Y-88432920D01*
X155123777Y-88343958D01*
X155123776Y-88343957D01*
X155120744Y-88340186D01*
X155117039Y-88337077D01*
X155117036Y-88337074D01*
X154963639Y-88208359D01*
X154963637Y-88208358D01*
X154959924Y-88205242D01*
X154775955Y-88104104D01*
X154753201Y-88096886D01*
X154580465Y-88042091D01*
X154580463Y-88042091D01*
X154575846Y-88040626D01*
X154478002Y-88029651D01*
X154415220Y-88022609D01*
X154415218Y-88022609D01*
X154412464Y-88022300D01*
X153849370Y-88022300D01*
X153846976Y-88022535D01*
X153846971Y-88022535D01*
X153698076Y-88037134D01*
X153698072Y-88037135D01*
X153693266Y-88037606D01*
X153688641Y-88039002D01*
X153688638Y-88039003D01*
X153619388Y-88059911D01*
X153492290Y-88098284D01*
X153306928Y-88196843D01*
X153144239Y-88329529D01*
X153010421Y-88491287D01*
X152910570Y-88675957D01*
X152909141Y-88680574D01*
X152852831Y-88862483D01*
X152848490Y-88876505D01*
X152847985Y-88881313D01*
X152847984Y-88881316D01*
X152846435Y-88896058D01*
X152826546Y-89085290D01*
X147954082Y-89085290D01*
X147933962Y-89076956D01*
X147777200Y-89056318D01*
X147620438Y-89076956D01*
X147474359Y-89137464D01*
X147348918Y-89233718D01*
X147344964Y-89238871D01*
X147340380Y-89243455D01*
X147338515Y-89241590D01*
X147297330Y-89269904D01*
X147236165Y-89268310D01*
X147199676Y-89241799D01*
X147198020Y-89243455D01*
X147193436Y-89238871D01*
X147189482Y-89233718D01*
X147064041Y-89137464D01*
X146917962Y-89076956D01*
X146761200Y-89056318D01*
X146604438Y-89076956D01*
X146458359Y-89137464D01*
X146332918Y-89233718D01*
X146236664Y-89359159D01*
X146176156Y-89505238D01*
X146155518Y-89662000D01*
X130508774Y-89662000D01*
X130484236Y-89602759D01*
X130387982Y-89477318D01*
X130357937Y-89454263D01*
X130323281Y-89403840D01*
X130324882Y-89342676D01*
X130357935Y-89297181D01*
X130374682Y-89284331D01*
X130470936Y-89158890D01*
X130531444Y-89012811D01*
X130552082Y-88856049D01*
X130531444Y-88699287D01*
X130470936Y-88553208D01*
X130374682Y-88427767D01*
X130249241Y-88331513D01*
X130103162Y-88271005D01*
X129946400Y-88250367D01*
X129789638Y-88271005D01*
X129643559Y-88331513D01*
X129518118Y-88427767D01*
X129421864Y-88553208D01*
X129361356Y-88699287D01*
X129340718Y-88856049D01*
X128368400Y-88856049D01*
X128368400Y-87071200D01*
X137976718Y-87071200D01*
X137997356Y-87227962D01*
X138057864Y-87374041D01*
X138154118Y-87499482D01*
X138279559Y-87595736D01*
X138425638Y-87656244D01*
X138582400Y-87676882D01*
X138739162Y-87656244D01*
X138885241Y-87595736D01*
X139010682Y-87499482D01*
X139106936Y-87374041D01*
X139109127Y-87368752D01*
X139154355Y-87328029D01*
X139215205Y-87321633D01*
X139268193Y-87352226D01*
X139278747Y-87366752D01*
X139280389Y-87370717D01*
X139376643Y-87496158D01*
X139502084Y-87592412D01*
X139648163Y-87652920D01*
X139804925Y-87673558D01*
X139961687Y-87652920D01*
X140107766Y-87592412D01*
X140233207Y-87496158D01*
X140329461Y-87370717D01*
X140389969Y-87224638D01*
X140410607Y-87067876D01*
X140402606Y-87007100D01*
X142193118Y-87007100D01*
X142213756Y-87163862D01*
X142274264Y-87309941D01*
X142370518Y-87435382D01*
X142495959Y-87531636D01*
X142642038Y-87592144D01*
X142798800Y-87612782D01*
X142955562Y-87592144D01*
X143101641Y-87531636D01*
X143227082Y-87435382D01*
X143323336Y-87309941D01*
X143383844Y-87163862D01*
X143404482Y-87007100D01*
X143383844Y-86850338D01*
X143323336Y-86704259D01*
X143227082Y-86578818D01*
X143183387Y-86545290D01*
X152826546Y-86545290D01*
X152829597Y-86578818D01*
X152840545Y-86699110D01*
X152845573Y-86754362D01*
X152846939Y-86759004D01*
X152846940Y-86759008D01*
X152892686Y-86914438D01*
X152904847Y-86955757D01*
X153002109Y-87141803D01*
X153005145Y-87145579D01*
X153005147Y-87145582D01*
X153130623Y-87301642D01*
X153133656Y-87305414D01*
X153137361Y-87308523D01*
X153137364Y-87308526D01*
X153288546Y-87435382D01*
X153294476Y-87440358D01*
X153478445Y-87541496D01*
X153483057Y-87542959D01*
X153673935Y-87603509D01*
X153673937Y-87603509D01*
X153678554Y-87604974D01*
X153748165Y-87612782D01*
X153839180Y-87622991D01*
X153839182Y-87622991D01*
X153841936Y-87623300D01*
X154405030Y-87623300D01*
X154407424Y-87623065D01*
X154407429Y-87623065D01*
X154556324Y-87608466D01*
X154556328Y-87608465D01*
X154561134Y-87607994D01*
X154565759Y-87606598D01*
X154565762Y-87606597D01*
X154635012Y-87585689D01*
X154762110Y-87547316D01*
X154947472Y-87448757D01*
X155110161Y-87316071D01*
X155188376Y-87221526D01*
X155240896Y-87158040D01*
X155240897Y-87158038D01*
X155243979Y-87154313D01*
X155343830Y-86969643D01*
X155380761Y-86850338D01*
X155404480Y-86773716D01*
X155404481Y-86773712D01*
X155405910Y-86769095D01*
X155406529Y-86763213D01*
X155427348Y-86565126D01*
X155427348Y-86565124D01*
X155427854Y-86560310D01*
X155408827Y-86351238D01*
X155349553Y-86149843D01*
X155252291Y-85963797D01*
X155184186Y-85879091D01*
X155123777Y-85803958D01*
X155123776Y-85803957D01*
X155120744Y-85800186D01*
X155117039Y-85797077D01*
X155117036Y-85797074D01*
X154963639Y-85668359D01*
X154963637Y-85668358D01*
X154959924Y-85665242D01*
X154775955Y-85564104D01*
X154753201Y-85556886D01*
X154580465Y-85502091D01*
X154580463Y-85502091D01*
X154575846Y-85500626D01*
X154477751Y-85489623D01*
X154415220Y-85482609D01*
X154415218Y-85482609D01*
X154412464Y-85482300D01*
X153849370Y-85482300D01*
X153846976Y-85482535D01*
X153846971Y-85482535D01*
X153698076Y-85497134D01*
X153698072Y-85497135D01*
X153693266Y-85497606D01*
X153688641Y-85499002D01*
X153688638Y-85499003D01*
X153643159Y-85512734D01*
X153492290Y-85558284D01*
X153306928Y-85656843D01*
X153144239Y-85789529D01*
X153010421Y-85951287D01*
X152910570Y-86135957D01*
X152848490Y-86336505D01*
X152847985Y-86341313D01*
X152847984Y-86341316D01*
X152832850Y-86485309D01*
X152826546Y-86545290D01*
X143183387Y-86545290D01*
X143101641Y-86482564D01*
X142955562Y-86422056D01*
X142798800Y-86401418D01*
X142642038Y-86422056D01*
X142495959Y-86482564D01*
X142370518Y-86578818D01*
X142274264Y-86704259D01*
X142213756Y-86850338D01*
X142193118Y-87007100D01*
X140402606Y-87007100D01*
X140389969Y-86911114D01*
X140329461Y-86765035D01*
X140233207Y-86639594D01*
X140107766Y-86543340D01*
X139961687Y-86482832D01*
X139804925Y-86462194D01*
X139648163Y-86482832D01*
X139502084Y-86543340D01*
X139376643Y-86639594D01*
X139372689Y-86644747D01*
X139285014Y-86759008D01*
X139280389Y-86765035D01*
X139278198Y-86770324D01*
X139232970Y-86811047D01*
X139172120Y-86817443D01*
X139119132Y-86786850D01*
X139108578Y-86772324D01*
X139106936Y-86768359D01*
X139010682Y-86642918D01*
X138885241Y-86546664D01*
X138739162Y-86486156D01*
X138582400Y-86465518D01*
X138425638Y-86486156D01*
X138279559Y-86546664D01*
X138154118Y-86642918D01*
X138057864Y-86768359D01*
X137997356Y-86914438D01*
X137976718Y-87071200D01*
X128368400Y-87071200D01*
X128368400Y-84937600D01*
X135843118Y-84937600D01*
X135863756Y-85094362D01*
X135924264Y-85240441D01*
X136020518Y-85365882D01*
X136145959Y-85462136D01*
X136292038Y-85522644D01*
X136448800Y-85543282D01*
X136605562Y-85522644D01*
X136751641Y-85462136D01*
X136877082Y-85365882D01*
X136973336Y-85240441D01*
X137033844Y-85094362D01*
X137054482Y-84937600D01*
X137033844Y-84780838D01*
X136973336Y-84634759D01*
X136877082Y-84509318D01*
X136751641Y-84413064D01*
X136605562Y-84352556D01*
X136448800Y-84331918D01*
X136292038Y-84352556D01*
X136145959Y-84413064D01*
X136020518Y-84509318D01*
X135924264Y-84634759D01*
X135863756Y-84780838D01*
X135843118Y-84937600D01*
X128368400Y-84937600D01*
X128368400Y-83870800D01*
X138586318Y-83870800D01*
X138606956Y-84027562D01*
X138667464Y-84173641D01*
X138763718Y-84299082D01*
X138889159Y-84395336D01*
X139035238Y-84455844D01*
X139192000Y-84476482D01*
X139348762Y-84455844D01*
X139494841Y-84395336D01*
X139582595Y-84328000D01*
X146206318Y-84328000D01*
X146226956Y-84484762D01*
X146287464Y-84630841D01*
X146383718Y-84756282D01*
X146509159Y-84852536D01*
X146655238Y-84913044D01*
X146812000Y-84933682D01*
X146968762Y-84913044D01*
X147114841Y-84852536D01*
X147240282Y-84756282D01*
X147336536Y-84630841D01*
X147377809Y-84531200D01*
X148797118Y-84531200D01*
X148817756Y-84687962D01*
X148878264Y-84834041D01*
X148974518Y-84959482D01*
X149099959Y-85055736D01*
X149193210Y-85094362D01*
X149234711Y-85111552D01*
X149246038Y-85116244D01*
X149402800Y-85136882D01*
X149559562Y-85116244D01*
X149570890Y-85111552D01*
X149612390Y-85094362D01*
X149705641Y-85055736D01*
X149831082Y-84959482D01*
X149927336Y-84834041D01*
X149987844Y-84687962D01*
X149988334Y-84684243D01*
X152832201Y-84684243D01*
X152832420Y-84688886D01*
X152834611Y-84712069D01*
X152837176Y-84723765D01*
X152877562Y-84838766D01*
X152884409Y-84851699D01*
X152956008Y-84948635D01*
X152966365Y-84958992D01*
X153063301Y-85030591D01*
X153076234Y-85037438D01*
X153191231Y-85077822D01*
X153202934Y-85080390D01*
X153226118Y-85082582D01*
X153230754Y-85082800D01*
X154011520Y-85082800D01*
X154024205Y-85078678D01*
X154027200Y-85074557D01*
X154027200Y-85067119D01*
X154227200Y-85067119D01*
X154231322Y-85079804D01*
X154235443Y-85082799D01*
X155023643Y-85082799D01*
X155028286Y-85082580D01*
X155051469Y-85080389D01*
X155063165Y-85077824D01*
X155178166Y-85037438D01*
X155191099Y-85030591D01*
X155288035Y-84958992D01*
X155298392Y-84948635D01*
X155369991Y-84851699D01*
X155376838Y-84838766D01*
X155417222Y-84723769D01*
X155419790Y-84712066D01*
X155421982Y-84688882D01*
X155422200Y-84684246D01*
X155422200Y-84128480D01*
X155418078Y-84115795D01*
X155413957Y-84112800D01*
X154242880Y-84112800D01*
X154230195Y-84116922D01*
X154227200Y-84121043D01*
X154227200Y-85067119D01*
X154027200Y-85067119D01*
X154027200Y-84128480D01*
X154023078Y-84115795D01*
X154018957Y-84112800D01*
X152847881Y-84112800D01*
X152835196Y-84116922D01*
X152832201Y-84121043D01*
X152832201Y-84684243D01*
X149988334Y-84684243D01*
X150008482Y-84531200D01*
X149987844Y-84374438D01*
X149927336Y-84228359D01*
X149831082Y-84102918D01*
X149705641Y-84006664D01*
X149559562Y-83946156D01*
X149402800Y-83925518D01*
X149246038Y-83946156D01*
X149099959Y-84006664D01*
X148974518Y-84102918D01*
X148878264Y-84228359D01*
X148817756Y-84374438D01*
X148797118Y-84531200D01*
X147377809Y-84531200D01*
X147397044Y-84484762D01*
X147417682Y-84328000D01*
X147397044Y-84171238D01*
X147336536Y-84025159D01*
X147240282Y-83899718D01*
X147236896Y-83897120D01*
X152832200Y-83897120D01*
X152836322Y-83909805D01*
X152840443Y-83912800D01*
X154011520Y-83912800D01*
X154024205Y-83908678D01*
X154027200Y-83904557D01*
X154027200Y-83897120D01*
X154227200Y-83897120D01*
X154231322Y-83909805D01*
X154235443Y-83912800D01*
X155406519Y-83912800D01*
X155419204Y-83908678D01*
X155422199Y-83904557D01*
X155422199Y-83341357D01*
X155421980Y-83336714D01*
X155419789Y-83313531D01*
X155417224Y-83301835D01*
X155376838Y-83186834D01*
X155369991Y-83173901D01*
X155298392Y-83076965D01*
X155288035Y-83066608D01*
X155191099Y-82995009D01*
X155178166Y-82988162D01*
X155063169Y-82947778D01*
X155051466Y-82945210D01*
X155028282Y-82943018D01*
X155023646Y-82942800D01*
X154242880Y-82942800D01*
X154230195Y-82946922D01*
X154227200Y-82951043D01*
X154227200Y-83897120D01*
X154027200Y-83897120D01*
X154027200Y-82958481D01*
X154023078Y-82945796D01*
X154018957Y-82942801D01*
X153230757Y-82942801D01*
X153226114Y-82943020D01*
X153202931Y-82945211D01*
X153191235Y-82947776D01*
X153076234Y-82988162D01*
X153063301Y-82995009D01*
X152966365Y-83066608D01*
X152956008Y-83076965D01*
X152884409Y-83173901D01*
X152877562Y-83186834D01*
X152837178Y-83301831D01*
X152834610Y-83313534D01*
X152832418Y-83336718D01*
X152832200Y-83341354D01*
X152832200Y-83897120D01*
X147236896Y-83897120D01*
X147114841Y-83803464D01*
X146968762Y-83742956D01*
X146812000Y-83722318D01*
X146655238Y-83742956D01*
X146509159Y-83803464D01*
X146383718Y-83899718D01*
X146287464Y-84025159D01*
X146226956Y-84171238D01*
X146206318Y-84328000D01*
X139582595Y-84328000D01*
X139620282Y-84299082D01*
X139716536Y-84173641D01*
X139777044Y-84027562D01*
X139797682Y-83870800D01*
X139777044Y-83714038D01*
X139716536Y-83567959D01*
X139620282Y-83442518D01*
X139494841Y-83346264D01*
X139348762Y-83285756D01*
X139192000Y-83265118D01*
X139035238Y-83285756D01*
X138889159Y-83346264D01*
X138763718Y-83442518D01*
X138667464Y-83567959D01*
X138606956Y-83714038D01*
X138586318Y-83870800D01*
X128368400Y-83870800D01*
X128368400Y-82079800D01*
X128387307Y-82021609D01*
X128436807Y-81985645D01*
X128467400Y-81980800D01*
X146436407Y-81980800D01*
X146494598Y-81999707D01*
G37*
G04 #@! TD.AperFunction*
M02*
