G04 #@! TF.GenerationSoftware,KiCad,Pcbnew,6.0.0-d3dd2cf0fa~116~ubuntu18.04.1*
G04 #@! TF.CreationDate,2023-02-13T16:22:56+00:00*
G04 #@! TF.ProjectId,RemoteESP32,52656d6f-7465-4455-9350-33322e6b6963,rev?*
G04 #@! TF.SameCoordinates,Original*
G04 #@! TF.FileFunction,Paste,Bot*
G04 #@! TF.FilePolarity,Positive*
%FSLAX46Y46*%
G04 Gerber Fmt 4.6, Leading zero omitted, Abs format (unit mm)*
G04 Created by KiCad (PCBNEW 6.0.0-d3dd2cf0fa~116~ubuntu18.04.1) date 2023-02-13 16:22:56*
%MOMM*%
%LPD*%
G01*
G04 APERTURE LIST*
G04 Aperture macros list*
%AMRoundRect*
0 Rectangle with rounded corners*
0 $1 Rounding radius*
0 $2 $3 $4 $5 $6 $7 $8 $9 X,Y pos of 4 corners*
0 Add a 4 corners polygon primitive as box body*
4,1,4,$2,$3,$4,$5,$6,$7,$8,$9,$2,$3,0*
0 Add four circle primitives for the rounded corners*
1,1,$1+$1,$2,$3*
1,1,$1+$1,$4,$5*
1,1,$1+$1,$6,$7*
1,1,$1+$1,$8,$9*
0 Add four rect primitives between the rounded corners*
20,1,$1+$1,$2,$3,$4,$5,0*
20,1,$1+$1,$4,$5,$6,$7,0*
20,1,$1+$1,$6,$7,$8,$9,0*
20,1,$1+$1,$8,$9,$2,$3,0*%
G04 Aperture macros list end*
%ADD10RoundRect,0.200000X-0.275000X0.200000X-0.275000X-0.200000X0.275000X-0.200000X0.275000X0.200000X0*%
%ADD11RoundRect,0.225000X-0.250000X0.225000X-0.250000X-0.225000X0.250000X-0.225000X0.250000X0.225000X0*%
%ADD12R,2.000000X0.900000*%
%ADD13R,0.900000X2.000000*%
%ADD14R,5.000000X5.000000*%
%ADD15RoundRect,0.200000X0.275000X-0.200000X0.275000X0.200000X-0.275000X0.200000X-0.275000X-0.200000X0*%
%ADD16RoundRect,0.225000X0.250000X-0.225000X0.250000X0.225000X-0.250000X0.225000X-0.250000X-0.225000X0*%
G04 APERTURE END LIST*
D10*
X156362400Y-87008200D03*
X156362400Y-88658200D03*
D11*
X131114800Y-91264200D03*
X131114800Y-92814200D03*
D12*
X151095600Y-83276200D03*
X151095600Y-84546200D03*
X151095600Y-85816200D03*
X151095600Y-87086200D03*
X151095600Y-88356200D03*
X151095600Y-89626200D03*
X151095600Y-90896200D03*
X151095600Y-92166200D03*
X151095600Y-93436200D03*
X151095600Y-94706200D03*
X151095600Y-95976200D03*
X151095600Y-97246200D03*
X151095600Y-98516200D03*
X151095600Y-99786200D03*
D13*
X148310600Y-100786200D03*
X147040600Y-100786200D03*
X145770600Y-100786200D03*
X144500600Y-100786200D03*
X143230600Y-100786200D03*
X141960600Y-100786200D03*
X140690600Y-100786200D03*
X139420600Y-100786200D03*
X138150600Y-100786200D03*
X136880600Y-100786200D03*
D12*
X134095600Y-99786200D03*
X134095600Y-98516200D03*
X134095600Y-97246200D03*
X134095600Y-95976200D03*
X134095600Y-94706200D03*
X134095600Y-93436200D03*
X134095600Y-92166200D03*
X134095600Y-90896200D03*
X134095600Y-89626200D03*
X134095600Y-88356200D03*
X134095600Y-87086200D03*
X134095600Y-85816200D03*
X134095600Y-84546200D03*
X134095600Y-83276200D03*
D14*
X143595600Y-90776200D03*
D15*
X156362400Y-93677000D03*
X156362400Y-92027000D03*
D10*
X156362400Y-95075000D03*
X156362400Y-96725000D03*
D16*
X151739600Y-108917800D03*
X151739600Y-107367800D03*
D10*
X156362400Y-98110800D03*
X156362400Y-99760800D03*
M02*
